<?xml version="1.0" encoding="UTF-8"?>
<svg width="160px" height="49px" viewBox="0 0 160 49" version="1.1" xmlns="http://www.w3.org/2000/svg" xmlns:xlink="http://www.w3.org/1999/xlink">
    <title>logo-appstore</title>
    <g id="Design" stroke="none" stroke-width="1" fill="none" fill-rule="evenodd">
        <g id="TL---Homepage" transform="translate(-242.000000, -2347.000000)" fill-rule="nonzero">
            <g id="Avis-Client-Copy" transform="translate(0.000000, 1821.000000)">
                <g id="Group-37" transform="translate(242.000000, 80.000000)">
                    <g id="Download_on_the_App_Store_Badge_FR_RGB_blk_100517" transform="translate(0.000000, 446.000000)">
                        <g id="Group" fill="#000000">
                            <path d="M9.71044355,48.997438 C9.31972048,48.997438 8.93841057,48.9924422 8.55075255,48.9837316 C7.74766099,48.9732797 6.94644645,48.9034463 6.15367993,48.7748039 C5.41446515,48.6476388 4.69836474,48.4110885 4.02899901,48.0729557 C3.365771,47.7376245 2.76085375,47.2979287 2.23742082,46.7707126 C1.70641132,46.2497069 1.26432164,45.6454291 0.92867103,44.9818258 C0.589321832,44.3139095 0.354471992,43.5979839 0.232302414,42.8589878 C0.100369876,42.0649281 0.0289889067,41.2620085 0.0187750212,40.4571526 C0.0106443085,40.1869941 0,39.2874909 0,39.2874909 L0,9.69616386 C0,9.69616386 0.0113368298,8.81048233 0.0188391436,8.55027711 C0.028619523,7.7466967 0.0995810909,6.94502347 0.231109739,6.15219518 C0.353514156,5.41117527 0.588549885,4.69318587 0.928081105,4.02308036 C1.26249731,3.35993818 1.70212788,2.75520969 2.22993133,2.23233609 C2.75715535,1.70449977 3.36401151,1.26254025 4.02837061,0.922573722 C4.69619794,0.585527202 5.41094502,0.35064558 6.14866556,0.225798128 C6.94403559,0.0958630285 7.74803167,0.0256140801 8.55390737,0.0156407508 L9.71108477,0 L150.282644,0 L151.453646,0.0162684304 C152.252192,0.0257466456 153.048884,0.0953688772 153.836945,0.224542769 C154.582134,0.350956246 155.30433,0.587476764 155.979786,0.926326989 C157.310732,1.61145413 158.393698,2.69538858 159.076895,4.02620595 C159.411007,4.69168411 159.642414,5.40381761 159.76326,6.13843747 C159.896364,6.93776999 159.970859,7.74574345 159.98615,8.55591342 C159.989869,8.9186866 159.989869,9.30836035 159.989869,9.69616386 C160,10.1765309 160,10.6337507 160,11.0947237 L160,37.9039057 C160,38.3692853 160,38.8233922 159.989869,39.2812141 C159.989869,39.6977884 159.989869,40.0793919 159.984867,40.47214 C159.969907,41.2678529 159.896655,42.0614046 159.765697,42.8464342 C159.646032,43.5907612 159.41246,44.312275 159.073176,44.9856687 C158.735152,45.6420693 158.295601,46.2411127 157.770723,46.760721 C157.246819,47.2907703 156.640834,47.7330386 155.976067,48.0705218 C155.302482,48.4112541 154.581349,48.6486791 153.836945,48.7748039 C153.044239,48.9041328 152.242947,48.9739707 151.439796,48.9837316 C151.064167,48.9924422 150.670841,48.997438 150.288928,48.997438 L148.898756,49 L9.71044355,48.997438 Z" id="Path"></path>
                        </g>
                        <g id="Group" transform="translate(12.000000, 9.000000)" fill="#FFFFFF">
                            <g id="_Group_" transform="translate(-0.000000, 1.000000)">
                                <g id="_Group_2" transform="translate(0.000000, -0.000000)">
                                    <g id="_Group_3" transform="translate(0.000000, -0.000000)">
                                        <path d="M19.2102248,15.04208 C19.2386001,12.8859708 20.3932221,10.8943819 22.2695673,9.7650695 C21.0804885,8.10254643 19.1602588,7.08626074 17.088148,7.02279219 C14.9081185,6.79877668 12.7946749,8.29986873 11.6837717,8.29986873 C10.55137,8.29986873 8.84096,7.04503361 6.99913081,7.08213228 C4.57576386,7.15878054 2.37129648,8.4749474 1.19227917,10.5490857 C-1.31848585,14.8047196 0.554318963,21.0590686 2.95942154,24.4990019 C4.16274527,26.1834394 5.56908526,28.0649994 7.40925272,27.9982752 C9.20996716,27.9251582 9.88249907,26.874156 12.0561153,26.874156 C14.2095572,26.874156 14.840533,27.9982752 16.7180374,27.9558513 C18.6502878,27.9251454 19.8676973,26.2639279 21.0288028,24.5635401 C21.8933707,23.3633135 22.5586507,22.0368056 23,20.6331519 C20.7050936,19.6828957 19.2128945,17.4814479 19.2102248,15.04208 Z" id="_Path_"></path>
                                        <path d="M15.4521065,4.17104395 C16.5649758,3.0069342 17.1132443,1.51066834 16.9804792,-3.11750625e-13 C15.2802624,0.15560427 13.7097383,0.863670577 12.5818342,1.98311654 C11.4680808,3.08760043 10.9038559,4.53256105 11.0134324,5.99973978 C12.7364471,6.0151983 14.3724133,5.34119421 15.4521065,4.17104395 Z" id="_Path_2"></path>
                                    </g>
                                </g>
                            </g>
                            <g id="_Group_4" transform="translate(30.000000, 0.000000)">
                                <g id="Group" transform="translate(-0.000000, 0.000000)">
                                    <polygon id="Path" points="2.40807739 9 2.40807739 2.13061608 4.25881552e-13 2.13061608 4.25881552e-13 1 6 1 6 2.13060267 3.59700305 2.13060267 3.59700305 9"></polygon>
                                    <path d="M10.9345667,7.31877739 C10.6309822,8.40596354 9.62961472,9.10840663 8.55751351,8.98624174 C7.82601741,9.00653022 7.12300893,8.6879685 6.63501411,8.11507913 C6.14701928,7.54218975 5.92337254,6.77288967 6.02341306,6.01129376 C5.92603351,5.24758333 6.14884405,4.47705419 6.63412098,3.89932793 C7.11939792,3.32160167 7.81939013,2.99352639 8.55275007,3.00009683 C10.0791579,3.00009683 11,4.09575709 11,5.90564446 L11,6.30251411 L7.12627695,6.30251411 L7.12627695,6.36625696 C7.09199727,6.79394864 7.23102475,7.21699075 7.5091682,7.53134406 C7.78731165,7.84569737 8.17876276,8.02219374 8.5872515,8.0174272 C9.11692129,8.08423519 9.63251861,7.80819327 9.89237268,7.3186878 L10.9345667,7.31877739 Z M7.00010203,6 L9.99608021,6 C10.0259195,5.47616856 9.88437641,4.96029779 9.60633186,4.57951502 C9.32828731,4.19873225 8.93959956,3.9884505 8.53605391,4.00049002 C8.12703425,3.99378914 7.73326994,4.20232564 7.44408598,4.57879326 C7.15490201,4.95526088 6.99481063,5.4677489 7.00012837,6 L7.00010203,6 Z M8,2 L9.49718041,-3.19744231e-14 L11,-3.19744231e-14 L9.32393791,2 L8,2 Z" id="Shape"></path>
                                    <polygon id="Path" points="13.055665 1 13.944335 1 13.944335 9 13.055665 9"></polygon>
                                    <path d="M20.9345667,7.31877739 C20.6309822,8.40596354 19.6296147,9.10840663 18.5575135,8.98624174 C17.8260174,9.00653022 17.1230089,8.6879685 16.6350141,8.11507913 C16.1470193,7.54218975 15.9233725,6.77288967 16.0234131,6.01129376 C15.9260335,5.24758333 16.148844,4.47705419 16.634121,3.89932793 C17.1193979,3.32160167 17.8193901,2.99352639 18.5527501,3.00009683 C20.0791579,3.00009683 21,4.09575709 21,5.90564446 L21,6.30251411 L17.1262526,6.30251411 L17.1262526,6.36625696 C17.0919729,6.79394864 17.2310004,7.21699075 17.5091438,7.53134406 C17.7872873,7.84569737 18.1787384,8.02219374 18.5872271,8.0174272 C19.1168969,8.08423519 19.6324942,7.80819327 19.8923483,7.3186878 L20.9345667,7.31877739 Z M17.0001284,6 L19.9960802,6 C20.0259196,5.47616856 19.8843759,4.96029779 19.6063301,4.57951502 C19.3282844,4.19873225 18.9395949,3.9884505 18.5360475,4.00049002 C18.1270283,3.9937938 17.7332657,4.20233236 17.4440833,4.57879947 C17.154901,4.95526657 16.9948107,5.46775191 17.0001284,6 L17.0001284,6 Z M18,2 L19.4971804,-3.19744231e-14 L21,-3.19744231e-14 L19.3239956,2 L18,2 Z" id="Shape"></path>
                                    <path d="M25.9345997,5.00228526 C25.7902748,4.38542671 25.2334025,3.97017596 24.6236148,4.02470471 C23.7062902,4.02470471 23.1452988,4.75382779 23.1452988,5.98049226 C23.1452988,7.22836652 23.7111225,7.97372615 24.6236148,7.97372615 C25.2282193,8.04637546 25.7903267,7.64060714 25.9345997,7.02736578 L27,7.02736578 C26.8534771,8.23962777 25.8018907,9.10978427 24.6296428,8.98876581 C23.8783536,9.01336714 23.154892,8.69284135 22.6526362,8.11286364 C22.1503804,7.53288593 21.920535,6.75258449 22.0245366,5.98053062 C21.9257701,5.21418273 22.1578162,4.44165602 22.6587649,3.86906129 C23.1597135,3.29646656 23.8786009,2.98205657 24.6236271,3.00971618 C25.8053757,2.89682769 26.858958,3.78026479 27,5.00232362 L25.9345997,5.00228526 Z" id="Path"></path>
                                    <path d="M29.0000643,1 L30.1327938,1 L30.1327938,4.17080222 L30.223208,4.17080222 C30.5344402,3.49192964 31.240512,3.07973491 31.988798,3.14007587 C32.5562771,3.10939237 33.1079715,3.33173816 33.4936121,3.74655126 C33.8792526,4.16136437 34.0586724,4.72543946 33.9830016,5.28513517 L33.9830016,9 L32.8389688,9 L32.8389688,5.56526774 C32.8389688,4.6462213 32.4081802,4.18076908 31.6007539,4.18076908 C31.2031798,4.1483687 30.8114839,4.2919902 30.5303825,4.57323771 C30.249281,4.85448522 30.1074376,5.24468035 30.1427727,5.63950805 L30.1427727,9 L29,9 L29.0000643,1 Z" id="Path"></path>
                                    <path d="M35,7.25967936 C35,6.21858568 35.7985604,5.61839783 37.2160474,5.53309892 L38.8299592,5.44279074 L38.8299592,4.94357183 C38.8299592,4.33271038 38.413888,3.98777705 37.610154,3.98777705 C36.9537419,3.98777705 36.4989018,4.22171005 36.3683841,4.63062078 L35.2299936,4.63062078 C35.3501641,3.63719224 36.3128242,3 37.6644173,3 C39.1581587,3 40,3.72184893 40,4.94357183 L40,8.89532226 L38.8686885,8.89532226 L38.8686885,8.08252293 L38.7757225,8.08252293 C38.3912732,8.67609126 37.7075972,9.02299862 36.9860802,8.99061402 C36.4802753,9.04169301 35.9758157,8.88268277 35.5974152,8.55289426 C35.2190148,8.22310576 35.001992,7.75332022 35,7.25967936 Z M39,6.55107777 L39,6 L37.3513861,6.10292543 C36.4216663,6.16367646 36,6.47246739 36,7.05358399 C36,7.64685079 36.5270791,7.99209233 37.2518803,7.99209233 C37.6809495,8.03450497 38.1092769,7.90507819 38.4388081,7.63344089 C38.7683394,7.3618036 38.970857,6.9712158 39,6.55109241 L39,6.55107777 Z" id="Shape"></path>
                                    <path d="M42,3.10150419 L43.0127181,3.10150419 L43.0127181,4.00590895 L43.0913353,4.00590895 C43.3239241,3.36180827 43.9052148,2.95702327 44.5306411,3.00364043 C44.6882123,3.00129633 44.8455588,3.01759252 45,3.05225138 L45,4.20104702 C44.806935,4.15539874 44.6101419,4.13182307 44.4127213,4.13069147 C44.0618551,4.09582643 43.7139981,4.22653402 43.4548719,4.49060425 C43.1957457,4.75467448 43.0494487,5.12754915 43.0520326,5.51734152 L43.0520326,9 L42,9 L42,3.10150419 Z" id="Path"></path>
                                    <path d="M46.2113401,9.38762157 L47.2923923,9.38762157 C47.3818082,9.80250895 47.8288518,10.0704216 48.5418126,10.0704216 C49.4219763,10.0704216 49.943347,9.62390899 49.943347,8.8679264 L49.943347,7.77023898 L49.8643828,7.77023898 C49.5264392,8.39676334 48.8880784,8.7678891 48.2120321,8.73087106 C46.8453367,8.73087106 46,7.60218076 46,5.88990979 C46,4.14607711 46.8546231,3.00120587 48.2224838,3.00120587 C48.9152903,2.97543595 49.5637629,3.36435073 49.9038589,4.00959331 L49.9874604,4.00959331 L49.9874604,3.09609424 L51,3.09609424 L51,8.86229991 C51,10.1702252 50.0408721,11 48.5266999,11 C47.1890408,11 46.3239661,10.3594177 46.2113401,9.38762157 Z M50,5.9996671 C50,4.780855 49.4237735,4 48.4836276,4 C47.5337676,4 47,4.78089577 47,5.9996671 C47,7.21910423 47.5337676,8 48.4836276,8 C49.429848,8 50,7.2250828 50,5.99961275 L50,5.9996671 Z" id="Shape"></path>
                                    <path d="M57.9345667,7.31877739 C57.6309822,8.40596354 56.6296147,9.10840663 55.5575135,8.98624174 C54.8260174,9.00653022 54.1230089,8.6879685 53.6350141,8.11507913 C53.1470193,7.54218975 52.9233725,6.77288967 53.0234131,6.01129376 C52.9260335,5.24758333 53.148844,4.47705419 53.634121,3.89932793 C54.1193979,3.32160167 54.8193901,2.99352639 55.5527501,3.00009683 C57.0791579,3.00009683 58,4.09575709 58,5.90564446 L58,6.30251411 L54.1262891,6.30251411 L54.1262891,6.36625696 C54.0920095,6.79394864 54.2310369,7.21699075 54.5091804,7.53134406 C54.7873238,7.84569737 55.1787749,8.02219374 55.5872637,8.0174272 C56.1169335,8.08423519 56.6325308,7.80819327 56.8923849,7.3186878 L57.9345667,7.31877739 Z M54.0000888,5 L56.9960801,5 C57.0259199,4.73808428 56.8843744,4.48014889 56.6063249,4.28975751 C56.3282755,4.09936612 55.9395809,3.99422525 55.5360282,4.00024501 C55.1270104,3.99690389 54.7332529,4.10117626 54.4440754,4.28940904 C54.1548978,4.47764181 53.9948108,4.73388047 54.0001284,5 L54.0000888,5 Z" id="Shape"></path>
                                    <path d="M60,3.10150419 L61.0127573,3.10150419 L61.0127573,4.00590895 L61.0913729,4.00590895 C61.3239571,3.36180827 61.9052364,2.95702327 62.5306503,3.00364043 C62.6882185,3.00129633 62.8455618,3.01759252 63,3.05225138 L63,4.20104702 C62.8069388,4.15539874 62.6101496,4.13182307 62.4127329,4.13069147 C62.061862,4.09580291 61.7139925,4.22649992 61.4548552,4.49057283 C61.195718,4.75464575 61.0494143,5.12753419 61.052,5.51734152 L61.052,9 L60,9 L60,3.10150419 Z" id="Path"></path>
                                    <path d="M67,6.05973542 C67,4.26321192 67.8697219,3.1251212 69.2224785,3.1251212 C69.9055533,3.09169973 70.5453161,3.48036387 70.8643736,4.12259357 L70.9433376,4.12259357 L70.9433376,1 L72,1 L72,8.90495591 L70.9874628,8.90495591 L70.9874628,8.00668785 L70.9038377,8.00668785 C70.5606626,8.64358909 69.9130177,9.0256835 69.2224666,8.99865519 C67.8604236,8.99866781 67,7.86057709 67,6.05973542 Z M68.0000373,5.99744082 C68.0000373,7.24768054 68.5592757,8 69.4945654,8 C70.4249732,8 71,7.23682858 71,6.00255918 C71,4.77404955 70.4189361,4 69.4945654,4 C68.5653004,4 68,4.75746399 68,5.99744082 L68.0000373,5.99744082 Z" id="Shape"></path>
                                    <path d="M74,7.25968126 C74,6.21858711 74.7984547,5.618399 76.2157542,5.53310005 L77.8294525,5.44279182 L77.8294525,4.9435727 C77.8294525,4.33271098 77.4134364,3.98777749 76.6098219,3.98777749 C75.9534967,3.98777749 75.4987167,4.2217106 75.3682163,4.6306215 L74.2299765,4.6306215 C74.350131,3.63719252 75.3126637,3 76.664078,3 C78.1576218,3 79,3.72184925 79,4.9435727 L79,8.89532488 L77.8682163,8.89532488 L77.8682163,8.08252519 L77.7751965,8.08252519 C77.390798,8.67609378 76.7072125,9.0230013 75.985791,8.99061669 C75.4800573,9.04168793 74.9756716,8.8826741 74.5973273,8.55288633 C74.218983,8.22309856 74.0019925,7.75331737 74,7.25968126 L74,7.25968126 Z M78,6.55108299 L78,6 L76.3514063,6.10291177 C75.4216726,6.16366338 75,6.47245723 75,7.05357933 C75,7.64685176 75.527087,7.99209658 76.2518991,7.99209658 C76.6809649,8.03449698 77.1092847,7.90506515 77.4388104,7.63342973 C77.768336,7.36179431 77.9708521,6.97121395 78,6.55109763 L78,6.55108299 Z" id="Shape"></path>
                                    <path d="M81,3.11933569 L82.1138917,3.11933569 L82.1138917,4.05353089 L82.200363,4.05353089 C82.501059,3.36571616 83.2036987,2.94497314 83.9500351,3.0058213 C84.5279208,2.9622436 85.0942079,3.18459458 85.4890055,3.61009353 C85.883803,4.03559248 86.0642681,4.61806484 85.9794465,5.19304975 L85.9794465,8.9999347 L84.8223256,8.9999347 L84.8223256,5.48448867 C84.8223256,4.53945396 84.4128861,4.06947671 83.557119,4.06947671 C83.1651479,4.05116594 82.7847505,4.20545703 82.515655,4.49189961 C82.2465596,4.77834219 82.115604,5.16836835 82.1571209,5.55972525 L82.1571209,9 L81,9 L81,3.11933569 Z" id="Path"></path>
                                    <path d="M89.5111744,3 C90.8745806,3 91.7659713,3.60450825 91.8829924,4.62309804 L90.7352108,4.62309804 C90.6248135,4.19899674 90.1895925,3.92838632 89.5111744,3.92838632 C88.8432843,3.92838632 88.3358473,4.23032612 88.3358473,4.68135632 C88.3358473,5.02646704 88.6421863,5.24389962 89.2995616,5.38734509 L90.3066001,5.60972981 C91.4596458,5.86468837 92,6.33701537 92,7.18584661 C92,8.27334308 90.9364166,9 89.4888256,9 C88.0465392,9 87.106493,8.37919842 87,7.35560516 L88.197743,7.35560516 C88.4101663,7.85702439 88.9549704,8.15490235 89.5164384,8.07661715 C90.2619027,8.07661715 90.7917557,7.75844816 90.7917557,7.29670541 C90.7917557,6.95217202 90.5077655,6.72915865 89.9003517,6.59134529 L88.8432843,6.35768352 C87.6902387,6.09770867 87.1564545,5.60471352 87.1564545,4.74523388 C87.156441,3.72102481 88.1411981,3 89.5111744,3 Z" id="Path"></path>
                                </g>
                            </g>
                        </g>
                        <g id="Group" transform="translate(44.000000, 22.000000)" fill="#FFFFFF">
                            <polygon id="Path" points="-4.2721382e-13 -2.14939178e-13 2 -2.14939178e-13 2 16 -4.2721382e-13 16"></polygon>
                            <polygon id="Path" points="5 6 6.43945122 6.92779167e-14 9 6.92779167e-14 7.2560563 6"></polygon>
                            <path d="M17.9775562,11.6755346 L11.9803924,11.6755346 L10.5401781,16 L8,16 L13.6804286,-2.14050999e-13 L16.3195714,-2.14050999e-13 L22,16 L19.4165415,16 L17.9775562,11.6755346 Z M13,10 L18,10 L15.5351679,3 L15.4661914,3 L13,10 Z" id="Shape"></path>
                            <path d="M34,10.0917061 C34,13.7980011 32.0577181,16.1792286 29.1266634,16.1792286 C27.6116269,16.2601717 26.1845452,15.4497027 25.4524556,14.0925704 L25.3969936,14.0925704 L25.3969936,20 L23,20 L23,4.12701194 L25.3201592,4.12701194 L25.3201592,6.11072049 L25.3642451,6.11072049 C26.1288586,4.76209628 27.5574791,3.95197614 29.0825388,4.00220764 C32.0463806,4.00223399 34,6.39504085 34,10.0917061 Z M31,9.99518117 C31,7.58445353 29.8078606,6 27.9889378,6 C26.2019683,6 25,7.61785003 25,9.99518117 C25,12.3937073 26.2019683,14 27.9889378,14 C29.8078732,14 31,12.4270643 31,9.99518117 L31,9.99518117 Z" id="Shape"></path>
                            <path d="M47,10.0917061 C47,13.7980011 45.0576019,16.1792286 42.126372,16.1792286 C40.6112448,16.2601717 39.1840778,15.4497027 38.4519445,14.0925704 L38.3964791,14.0925704 L38.3964791,20 L36,20 L36,4.12701194 L38.3196659,4.12701194 L38.3196659,6.11072049 L38.3637803,6.11072049 C39.1284395,4.76209628 40.5571454,3.95197614 42.0822963,4.00220764 C45.0462638,4.00223399 47,6.39504085 47,10.0917061 Z M44,9.99518117 C44,7.58445353 42.8078606,6 40.9889378,6 C39.2019683,6 38,7.61785003 38,9.99518117 C38,12.3937073 39.2019683,14 40.9889378,14 C42.8078606,14 44,12.4270643 44,9.99518117 L44,9.99518117 Z" id="Shape"></path>
                            <path d="M55.3960829,11.4279053 C55.5695204,12.9633204 57.0762982,13.971449 59.1353178,13.971449 C61.108261,13.971449 62.5276903,12.9632706 62.5276903,11.5788347 C62.5276903,10.3770476 61.6715991,9.65746165 59.6445465,9.1643134 L57.6174938,8.68031691 C54.7454087,7.99363491 53.4120306,6.6639974 53.4120306,4.50638652 C53.4120306,1.8349424 55.7638158,-6.03961325e-14 59.1032879,-6.03961325e-14 C62.4082993,-6.03961325e-14 64.674008,1.8349424 64.7502726,4.50638652 L62.387454,4.50638652 C62.2460086,2.96123356 60.9557191,2.02855097 59.0701118,2.02855097 C57.1845046,2.02855097 55.8942277,2.97220571 55.8942277,4.34566947 C55.8942277,5.44030348 56.7183393,6.08441853 58.7343207,6.57750444 L60.4575617,6.99636625 C63.6666597,7.74763433 65,9.0242938 65,11.2890577 C65,14.1857551 62.6691231,16 58.9618677,16 C55.4932305,16 53.151295,14.2283719 53,11.4278554 L55.3960829,11.4279053 Z" id="Path"></path>
                            <path d="M69.8941068,2 L69.8941068,4.66646594 L72,4.66646594 L72,6.49798896 L69.8941068,6.49798896 L69.8941068,12.7102182 C69.8941068,13.6752001 70.3157674,14.1248795 71.2414929,14.1248795 C71.4914967,14.120444 71.741096,14.1025812 71.9892484,14.0713655 L71.9892484,15.8919493 C71.5730411,15.9710748 71.1500014,16.0069104 70.7266641,15.9989026 C68.4846085,15.9989026 67.6102313,15.1420812 67.6102313,12.9568928 L67.6102313,6.49798896 L66,6.49798896 L66,4.66646594 L67.6101824,4.66646594 L67.6101824,2 L69.8941068,2 Z" id="Path"></path>
                            <path d="M74,10.0003169 C74,6.31524829 76.1487146,4 79.4993788,4 C82.8612879,4 85,6.31519655 85,10.0003169 C85,13.6948661 82.8725455,16 79.4993788,16 C76.1274545,16 74,13.6948403 74,10.0003169 Z M82,10.0009398 C82,7.48471604 80.8810228,6 78.9993877,6 C77.1177527,6 76,7.49603177 76,10.0009398 C76,12.5265868 77.1177527,14 78.9993877,14 C80.8810228,14 82,12.5265739 82,10.0009398 L82,10.0009398 Z" id="Shape"></path>
                            <path d="M87,4.12632683 L89.2969771,4.12632683 L89.2969771,6.14720012 L89.3527016,6.14720012 C89.6730216,4.84627232 90.8509554,3.95092861 92.1748626,4.00208443 C92.4524018,4.0011038 92.7291753,4.03160511 93,4.09301717 L93,6.37256487 C92.6496237,6.26422104 92.284121,6.21447683 91.9179079,6.22529422 C91.2097751,6.19627282 90.5244847,6.48192554 90.0419936,7.00724015 C89.5595026,7.53255475 89.3280208,8.24504233 89.4083353,8.95760409 L89.4083353,16 L87,16 L87,4.12632683 Z" id="Path"></path>
                            <path d="M103.862316,12.4153514 C103.529809,14.5411287 101.400981,16 98.6772859,16 C95.1742746,16 93,13.7175913 93,10.0558945 C93,6.38219497 95.1859656,4 98.5733842,4 C101.904942,4 104,6.22556352 104,9.77675168 L104,10.6002891 L95.4951037,10.6002891 L95.4951037,10.7455386 C95.4156976,11.617335 95.7252536,12.4802926 96.3450306,13.1149029 C96.9648076,13.7495131 97.8350697,14.0946104 98.7344505,14.0624133 C99.9339249,14.1717056 101.064795,13.5018999 101.515297,12.4153385 L103.862316,12.4153514 Z M96,9 L101.995509,9 C102.040311,8.209514 101.74835,7.43645339 101.189972,6.86709042 C100.631595,6.29772744 99.8574371,5.9836923 99.0540344,6.0006531 C98.2442842,5.99594089 97.466175,6.31012134 96.8926743,6.87335468 C96.3191736,7.43658801 95.9978068,8.20219955 96,9 Z" id="Shape"></path>
                        </g>
                    </g>
                </g>
            </g>
        </g>
    </g>
</svg>