<?xml version="1.0" encoding="UTF-8"?>
<svg width="150px" height="64px" viewBox="0 0 150 64" version="1.1" xmlns="http://www.w3.org/2000/svg" xmlns:xlink="http://www.w3.org/1999/xlink">
    <title>logo-tl-eco</title>
    <g id="Design" stroke="none" stroke-width="1" fill="none" fill-rule="evenodd">
        <g id="Artboard" transform="translate(-560.000000, -383.000000)" fill-rule="nonzero">
            <g id="logo-tl-eco" transform="translate(560.000000, 383.000000)">
                <path d="M66.0387946,64 C54.3848896,64 46.6156197,56.2336904 46.6156197,40.7010712 C46.6156197,31.4328437 46.6156197,0 46.6156197,0 L58.2695246,11.6494644 L58.2695246,36.8179164 C58.2695246,36.8179164 58.2695246,36.8179164 58.2695246,40.7010712 C58.2695246,44.584226 58.2695246,52.3505356 66.0387946,52.3505356 C69.9234295,52.3505356 66.0387946,52.3505356 66.0387946,52.3505356 L73.8080645,52.3505356 L73.8080645,64 L66.0387946,64" id="Path" fill="#231F20"></path>
                <g id="Group" transform="translate(0.000000, 9.501217)">
                    <path d="M42.7309847,42.7147027 L31.0770798,42.7147027 C23.3078098,42.7147027 23.3078098,34.9483931 23.3078098,31.0652383 C23.3078098,27.1820836 23.3078098,27.1820836 23.3078098,27.1820836 L23.3078098,23.2989288 L34.9617148,11.6494644 L23.3078098,11.6494644 L23.3078098,6.13143873e-15 L0,23.2989288 L2.4235806,23.2989288 L12.2914167,13.987555 L5.26627015,23.2989288 L6.68157215,23.2989288 L20.8518573,10.000418 L10.4535527,23.2989288 L11.6539049,23.2989288 C11.6539049,22.8502087 11.6539049,22.6875476 11.6539049,22.6780555 C11.6539049,22.6875476 11.6539049,22.8502087 11.6539049,23.2989288 C11.6539049,24.2291601 11.6539049,26.3998436 11.6539049,31.0652383 C11.6539049,46.5978575 19.4231749,54.3641671 31.0770798,54.3641671 L34.9617148,54.3641671 L50.5002547,54.3641671 L42.7309847,42.7147027 Z" id="Path" fill="#231F20"></path>
                    <polygon id="Path" fill="#1B75BB" points="2.4235806 23.2989288 5.26627015 23.2989288 12.2914167 13.987555"></polygon>
                    <polygon id="Path" fill="#1B75BB" points="6.68157215 23.2989288 10.4535527 23.2989288 20.8518573 10.000418"></polygon>
                </g>
                <g id="Group" transform="translate(79.407118, 39.388565)" fill="#1B75BB">
                    <path d="M35.0316387,19.5292484 C37.6261432,19.5288169 39.7471539,18.5023697 41.3938075,16.4490437 L44.7790511,19.9330965 C42.0943367,22.9567797 38.9305173,24.4681898 35.2862981,24.4686218 C31.6425105,24.4694842 28.6409825,23.3196389 26.2830091,21.0199484 C23.9241724,18.7198263 22.7449699,15.8160895 22.7441061,12.3087378 C22.7432434,8.80181753 23.9440272,5.8752132 26.3464581,3.52849332 C28.748889,1.18263637 31.6873996,0.00906069452 35.1619897,0.00819739331 C39.0427401,0.00733484794 42.2915898,1.48422805 44.9102654,4.43801447 L41.6277488,8.16023407 C39.9573558,6.08576648 37.8816659,5.04853269 35.3998157,5.04896415 C33.4143356,5.04939562 31.7158869,5.69831393 30.3066277,6.99528763 C28.8965052,8.29269279 28.1920913,10.0405439 28.192523,12.2397039 C28.1929546,14.4392954 28.8585221,16.2039735 30.1905202,17.5341697 C31.52295,18.8647974 33.1368,19.5296798 35.0316387,19.5292484 Z" id="Path"></path>
                    <path d="M58.3498075,0 C51.5883845,0 46.106733,5.47913141 46.106733,12.2384095 C46.106733,18.9976876 51.5879529,24.476819 58.3498075,24.476819 C65.1116621,24.476819 70.5928821,18.9976876 70.5928821,12.2384095 C70.5928821,5.47913141 65.1116621,0 58.3498075,0 Z M58.3498075,18.1740274 C55.0703124,18.1740274 52.4119272,15.5166551 52.4119272,12.2384095 C52.4119272,8.96016396 55.0703124,6.30279169 58.3498075,6.30279169 C61.6293027,6.30279169 64.2876879,8.96016396 64.2876879,12.2384095 C64.2881195,15.5166551 61.6293027,18.1740274 58.3498075,18.1740274 Z" id="Shape"></path>
                    <g transform="translate(0.000000, 0.008197)" id="Path">
                        <polygon points="18.6302782 8.38761473 6.46316981 21.0048476 3.53717642 16.4304912"></polygon>
                        <path d="M12.2875325,19.521051 C14.882037,19.5206195 17.0030477,18.4941723 18.6497013,16.4408463 L22.0349449,19.9248991 C19.3502305,22.9485823 16.1864111,24.4599924 12.5421919,24.4604244 C8.89840431,24.4612868 5.89687636,23.3114415 3.53890293,21.011751 C1.18006624,18.7116289 0.000863717331,15.8078921 0,12.3005404 C-0.000862787102,8.79362014 1.19992105,5.86701581 3.60235196,3.52029593 C6.00478288,1.17443897 8.94329343,0.00086330121 12.4178836,-6.13143873e-15 C16.2986339,-0.000862545365 19.5474837,1.47603066 22.1661593,4.42981707 L18.8836427,8.15203667 C17.2132497,6.07756909 15.1375597,5.0403353 12.6557096,5.04076676 C10.6702295,5.04119822 8.97178075,5.69011654 7.56252151,6.98709024 C6.15239901,8.2844954 5.4479852,10.0323465 5.44841683,12.2315065 C5.44884846,14.431098 6.11441591,16.1957761 7.44641408,17.5259723 C8.77884388,18.8566001 10.3926939,19.5214824 12.2875325,19.521051 Z"></path>
                        <path d="M5.82134179,14.8056067 L12.4537086,7.92767662 L5.47345114,11.6473075 C5.46179724,11.8397393 5.44971171,12.0317398 5.44971171,12.2315065 C5.44971171,13.1703671 5.57876791,14.0250926 5.82134179,14.8056067 Z"></path>
                    </g>
                </g>
            </g>
        </g>
    </g>
</svg>