<?xml version="1.0" encoding="UTF-8"?>
<svg width="99px" height="24px" viewBox="0 0 99 24" version="1.1" xmlns="http://www.w3.org/2000/svg" xmlns:xlink="http://www.w3.org/1999/xlink">
    <title>logo-paypal-color</title>
    <g id="Design" stroke="none" stroke-width="1" fill="none" fill-rule="evenodd">
        <g id="TL---4-/-Paiement" transform="translate(-675.000000, -731.000000)" fill-rule="nonzero">
            <g id="Group-Copy-3" transform="translate(144.000000, 209.000000)">
                <g id="Group-9" transform="translate(32.000000, 522.000000)">
                    <g id="logo-paypal-color" transform="translate(499.000000, 0.000000)">
                        <path d="M37.0177982,5.3673537 L31.5393454,5.3673537 C31.1644491,5.3673537 30.845627,5.63774935 30.7871496,6.00516933 L28.5714162,19.952018 C28.5273579,20.2271854 28.7420421,20.4753131 29.0232143,20.4753131 L31.6386769,20.4753131 C32.0135732,20.4753131 32.3323953,20.2049175 32.3908727,19.8367022 L32.9884638,16.0750215 C33.0461402,15.7068063 33.3657633,15.4364106 33.7398586,15.4364106 L35.4741546,15.4364106 C39.0829322,15.4364106 41.1656895,13.7026973 41.7096096,10.267082 C41.9547341,8.76400027 41.7200234,7.58300749 41.0110848,6.7559149 C40.232454,5.84770363 38.8514257,5.3673537 37.0177982,5.3673537 Z M37.6498349,10.4611306 C37.3502383,12.412751 35.8482499,12.412751 34.3959272,12.412751 L33.5692327,12.412751 L34.1492005,8.76797667 C34.1836461,8.54768374 34.3759006,8.38544635 34.6001976,8.38544635 L34.9790992,8.38544635 C35.9684089,8.38544635 36.9016444,8.38544635 37.3838828,8.94532441 C37.6714636,9.27934257 37.7595802,9.77559812 37.6498349,10.4611306 Z" id="Shape" fill="#253B80"></path>
                        <path d="M53.3938782,10.3983034 L50.770405,10.3983034 C50.5469091,10.3983034 50.3538535,10.5605408 50.3194079,10.7808337 L50.2032542,11.5093114 L50.0198113,11.245278 C49.4518594,10.4269335 48.1853827,10.1533567 46.9213093,10.1533567 C44.0222713,10.1533567 41.5461932,12.3332229 41.0639548,15.3910796 C40.8132229,16.9164292 41.1696948,18.3749751 42.0412486,19.39214 C42.840707,20.3273908 43.9846214,20.7170787 45.3456232,20.7170787 C47.6815157,20.7170787 48.9768305,19.2259262 48.9768305,19.2259262 L48.8598757,19.9496322 C48.8158174,20.2263901 49.0305016,20.4745179 49.3100717,20.4745179 L51.6732002,20.4745179 C52.0488976,20.4745179 52.3661175,20.2041222 52.425396,19.835907 L53.8432731,10.9215985 C53.8881325,10.6472265 53.6742493,10.3983034 53.3938782,10.3983034 Z M49.7370369,15.4674266 C49.4839018,16.955398 48.294327,17.9542713 46.7771184,17.9542713 C46.0153098,17.9542713 45.4065038,17.7117105 45.0155863,17.2520379 C44.627873,16.7955464 44.4804779,16.1458016 44.6038412,15.4220956 C44.8401541,13.9468487 46.0497554,12.9153688 47.5437333,12.9153688 C48.2887195,12.9153688 48.8943213,13.1611107 49.2932494,13.6247598 C49.6929786,14.0931805 49.8515886,14.7469017 49.7370369,15.4674266 Z" id="Shape" fill="#253B80"></path>
                        <path d="M67.3659756,10.3983034 L64.7296854,10.3983034 C64.4781524,10.3983034 64.2418396,10.5223673 64.0992508,10.7299357 L60.4632372,16.0471867 L58.9219967,10.9375041 C58.8250684,10.617801 58.527875,10.3983034 58.1914295,10.3983034 L55.6007999,10.3983034 C55.2859831,10.3983034 55.0672936,10.7036914 55.1674261,10.9979455 L58.0712705,19.4581483 L55.3412563,23.2842468 C55.126572,23.5856584 55.3428584,24 55.7137494,24 L58.3468353,24 C58.5967662,24 58.8306758,23.8791172 58.9724635,23.6755252 L67.7408719,11.1100802 C67.9507497,10.8094638 67.7352644,10.3983034 67.3659756,10.3983034 Z" id="Path" fill="#253B80"></path>
                        <path d="M76.0943308,5.3673537 L70.615077,5.3673537 C70.2409817,5.3673537 69.9221596,5.63774935 69.8636822,6.00516933 L67.6479488,19.952018 C67.6038905,20.2271854 67.8185747,20.4753131 68.0981449,20.4753131 L70.9098672,20.4753131 C71.171013,20.4753131 71.3945088,20.2860362 71.4353629,20.028365 L72.0641954,16.0750215 C72.1218718,15.7068063 72.4414949,15.4364106 72.8155902,15.4364106 L74.5490851,15.4364106 C78.1586638,15.4364106 80.24062,13.7026973 80.7853412,10.267082 C81.0312668,8.76400027 80.7949539,7.58300749 80.0860154,6.7559149 C79.3081856,5.84770363 77.9279584,5.3673537 76.0943308,5.3673537 Z M76.7263676,10.4611306 C76.427572,12.412751 74.9255836,12.412751 73.4724598,12.412751 L72.6465664,12.412751 L73.2273353,8.76797667 C73.2617809,8.54768374 73.4524333,8.38544635 73.6775313,8.38544635 L74.0564329,8.38544635 C75.0449416,8.38544635 75.9789781,8.38544635 76.4612166,8.94532441 C76.7487973,9.27934257 76.8361129,9.77559812 76.7263676,10.4611306 Z" id="Shape" fill="#179BD7"></path>
                        <path d="M92.4696098,10.3983034 L89.8477387,10.3983034 C89.6226407,10.3983034 89.4311873,10.5605408 89.3975427,10.7808337 L89.2813889,11.5093114 L89.097145,11.245278 C88.5291931,10.4269335 87.2635175,10.1533567 85.999444,10.1533567 C83.1004061,10.1533567 80.6251291,12.3332229 80.1428907,15.3910796 C79.8929598,16.9164292 80.2478296,18.3749751 81.1193834,19.39214 C81.9204439,20.3273908 83.0627562,20.7170787 84.423758,20.7170787 C86.7596505,20.7170787 88.0549653,19.2259262 88.0549653,19.2259262 L87.9380105,19.9496322 C87.8939521,20.2263901 88.1086364,20.4745179 88.3898086,20.4745179 L90.752136,20.4745179 C91.1262313,20.4745179 91.4450534,20.2041222 91.5035308,19.835907 L92.9222089,10.9215985 C92.9654662,10.6472265 92.750782,10.3983034 92.4696098,10.3983034 Z M88.8127685,15.4674266 C88.5612355,16.955398 87.3700586,17.9542713 85.85285,17.9542713 C85.0926435,17.9542713 84.4822354,17.7117105 84.0913179,17.2520379 C83.7036046,16.7955464 83.5578116,16.1458016 83.6795728,15.4220956 C83.9174878,13.9468487 85.125487,12.9153688 86.6194649,12.9153688 C87.3644511,12.9153688 87.9700529,13.1611107 88.368981,13.6247598 C88.7703123,14.0931805 88.9289223,14.7469017 88.8127685,15.4674266 Z" id="Shape" fill="#179BD7"></path>
                        <path d="M95.5625044,5.74988402 L93.3139275,19.952018 C93.2698692,20.2271854 93.4845534,20.4753131 93.7641235,20.4753131 L96.0247163,20.4753131 C96.4004137,20.4753131 96.7192358,20.2049175 96.7769121,19.8367022 L98.9942476,5.89064882 C99.0383059,5.61548148 98.8236217,5.36655842 98.5440516,5.36655842 L96.0127004,5.36655842 C95.7892045,5.3673537 95.59695,5.52959109 95.5625044,5.74988402 Z" id="Path" fill="#179BD7"></path>
                        <path d="M5.8204967,23.1856319 L6.23945135,20.5437073 L5.30621585,20.5222347 L0.849916246,20.5222347 L3.94681617,1.02750348 C3.9564289,0.968652661 3.98767026,0.913778249 4.03333071,0.874809464 C4.07899116,0.835840679 4.13746857,0.814368083 4.19834917,0.814368083 L11.7122967,0.814368083 C14.2067992,0.814368083 15.9282782,1.32971039 16.8270681,2.34687521 C17.2484259,2.82404401 17.5167812,3.3226854 17.646553,3.87142952 C17.7827333,4.4472132 17.7851365,5.13513155 17.6521604,5.97415336 L17.6425477,6.03539002 L17.6425477,6.5730002 L18.0639055,6.80999404 C18.4187753,6.99688515 18.7007486,7.21081583 18.917035,7.45576248 C19.2775122,7.8637418 19.5106208,8.38226523 19.6091512,8.9970177 C19.7108859,9.62926635 19.6772414,10.3816025 19.5106208,11.2333488 C19.3183663,12.2131354 19.0075548,13.0664723 18.5877991,13.7647293 C18.2016879,14.4081119 17.7098368,14.9417456 17.1258637,15.3552919 C16.5683255,15.7481609 15.9058485,16.0463914 15.1568569,16.2372589 C14.4310961,16.4249453 13.6036006,16.5195838 12.695999,16.5195838 L12.1112249,16.5195838 C11.6930713,16.5195838 11.2869336,16.6690967 10.9681115,16.9371065 C10.6484884,17.2106833 10.4370084,17.5844655 10.3721225,17.9932401 L10.3280642,18.2310292 L9.58788427,22.8874014 L9.55423973,23.0583869 C9.54542806,23.112466 9.53020791,23.1395056 9.50777822,23.1577971 C9.48775171,23.174498 9.45891353,23.1856319 9.43087641,23.1856319 L5.8204967,23.1856319 Z" id="Path" fill="#253B80"></path>
                        <path d="M18.4628336,6.09742196 L18.4628336,6.09742196 L18.4628336,6.09742196 C18.4404039,6.23977732 18.41477,6.3853138 18.3859318,6.53482669 C17.39502,11.5856584 14.0049319,13.3305057 9.67519987,13.3305057 L7.47068135,13.3305057 C6.94118035,13.3305057 6.49498965,13.7122407 6.41248042,14.2307641 L6.41248042,14.2307641 L6.41248042,14.2307641 L5.28378616,21.3373981 L4.96416302,23.3518457 C4.91049196,23.6922261 5.17484193,23.9992047 5.52090007,23.9992047 L9.43087641,23.9992047 C9.89388938,23.9992047 10.2872101,23.6651866 10.3601066,23.2118762 L10.3985575,23.0146464 L11.1347321,18.3765657 L11.1819947,18.1220757 C11.2540901,17.6671748 11.6482119,17.3331566 12.1112249,17.3331566 L12.695999,17.3331566 C16.4842142,17.3331566 19.4497402,15.8062164 20.3164877,11.3876334 C20.678567,9.54178541 20.4911188,8.00053019 19.5330505,6.91656173 C19.2430666,6.58970111 18.8833904,6.31851017 18.4628336,6.09742196 Z" id="Path" fill="#179BD7"></path>
                        <path d="M17.4262613,5.6870568 C17.2748609,5.64331632 17.1186541,5.60355226 16.958442,5.5677646 C16.7974288,5.53277222 16.6324104,5.50175625 16.4625856,5.47471668 C15.8681987,5.37928292 15.2169365,5.33395189 14.5192128,5.33395189 L8.6298159,5.33395189 C8.48482395,5.33395189 8.34704154,5.36655842 8.22367823,5.42540924 C7.95211871,5.5550401 7.75025146,5.8103254 7.70138677,6.12287097 L6.44852814,14.0009278 L6.41248042,14.2307641 C6.49498965,13.7122407 6.94118035,13.3305057 7.47068135,13.3305057 L9.67519987,13.3305057 C14.0049319,13.3305057 17.39502,11.5848631 18.3859318,6.53482669 C18.4155711,6.3853138 18.4404039,6.23977732 18.4628336,6.09742196 C18.2121017,5.96540526 17.9405422,5.85247531 17.6481551,5.75624627 C17.5760597,5.73238783 17.501561,5.70932467 17.4262613,5.6870568 Z" id="Path" fill="#222D65"></path>
                        <path d="M7.70138677,6.12287097 C7.75025146,5.8103254 7.95211871,5.5550401 8.22367823,5.42620452 C8.3478426,5.3673537 8.48482395,5.33474717 8.6298159,5.33474717 L14.5192128,5.33474717 C15.2169365,5.33474717 15.8681987,5.3800782 16.4625856,5.47551196 C16.6324104,5.50255153 16.7974288,5.5335675 16.958442,5.56855988 C17.1186541,5.60434754 17.2748609,5.6441116 17.4262613,5.68785208 C17.501561,5.71011995 17.5760597,5.73318311 17.6489562,5.75624627 C17.9413433,5.85247531 18.2129028,5.96620054 18.4636347,6.09742196 C18.758425,4.23089668 18.4612315,2.96003711 17.4446857,1.80926503 C16.3240021,0.542381868 14.3013243,0 11.7130978,0 L4.19915023,0 C3.6704503,0 3.21945323,0.381735039 3.13774506,0.901053748 L0.00800165227,20.5961959 C-0.0536800069,20.9858838 0.249120865,21.3373981 0.644844756,21.3373981 L5.28378616,21.3373981 L6.44852814,14.0009278 L7.70138677,6.12287097 Z" id="Path" fill="#253B80"></path>
                    </g>
                </g>
            </g>
        </g>
    </g>
</svg>