<?xml version="1.0" encoding="UTF-8"?>
<svg width="162px" height="64px" viewBox="0 0 162 64" version="1.1" xmlns="http://www.w3.org/2000/svg" xmlns:xlink="http://www.w3.org/1999/xlink">
    <title>logo-tl-access</title>
    <g id="Design" stroke="none" stroke-width="1" fill="none" fill-rule="evenodd">
        <g id="Artboard" transform="translate(-390.000000, -544.000000)" fill-rule="nonzero">
            <g id="logo-tl-access" transform="translate(390.000000, 544.000000)">
                <path d="M30.9305415,63.5671709 C19.3315885,63.5671709 11.5989531,55.8533845 11.5989531,40.4258117 C11.5989531,28.8551321 11.5989531,32.7120253 11.5989531,32.7120253 L0,32.7120253 L23.1979061,9.57066618 L23.1979061,21.1413458 L34.7968592,21.1413458 L23.1979061,32.7120253 L23.1979061,32.7120253 L23.1979061,36.5689185 C23.1979061,36.5689185 23.1979061,36.5689185 23.1979061,40.4258117 C23.1979061,44.2827049 23.1979061,51.9964913 30.9305415,51.9964913 C34.7968592,51.9964913 30.9305415,51.9964913 30.9305415,51.9964913 L40.3815403,51.9964913 L48.1141757,63.5671709 L34.7968592,63.5671709" id="Path" fill="#020202"></path>
                <polygon id="Path" fill="#02A7EA" points="2.38895474 32.7120253 12.2334588 23.463624 5.21179625 32.7120253"></polygon>
                <polygon id="Path" fill="#02A7EA" points="6.64534093 32.7120253 20.7539638 19.5038803 10.4205854 32.6700281"></polygon>
                <path d="M65.7274007,63.5671709 C54.1284477,63.5671709 46.3958123,55.8533845 46.3958123,40.4258117 C46.3958123,31.2202648 46.3958123,0 46.3958123,0 L57.9947654,11.5706796 L57.9947654,36.5689185 C57.9947654,36.5689185 57.9947654,36.5689185 57.9947654,40.4258117 C57.9947654,44.2827049 57.9947654,51.9964913 65.7274007,51.9964913 C69.5937184,51.9964913 65.7274007,51.9964913 65.7274007,51.9964913 L73.4600361,51.9964913 L73.4600361,63.5671709 L65.7274007,63.5671709" id="Path" fill="#020202"></path>
                <path d="M115.153117,57.8071152 C116.16867,57.8071152 117.08241,57.3005765 117.894766,56.2879278 L119.702055,58.3136538 C118.293856,59.7724165 116.770956,60.5013693 115.132927,60.5013693 C113.494897,60.5013693 112.110325,59.9849742 110.980072,58.9517554 C109.849818,57.9189651 109.284477,56.5681954 109.284477,54.9003033 C109.284477,53.2324113 109.856262,51.8752134 111.000692,50.8282812 C112.144693,49.7822061 113.50177,49.2585257 115.072354,49.2585257 C115.857217,49.2585257 116.652819,49.4205152 117.458302,49.7449228 C118.263785,50.0689018 118.971321,50.5484422 119.580481,51.1831154 L117.996579,53.2491245 C117.644315,52.8304373 117.214724,52.5068868 116.706947,52.2763303 C116.199171,52.0470595 115.694831,51.9322097 115.194358,51.9322097 C114.395319,51.9322097 113.708403,52.1919072 113.133181,52.7117307 C112.557529,53.2319828 112.270133,53.9545074 112.270133,54.8797332 C112.270133,55.8045305 112.557529,56.5240554 113.133181,57.0370222 C113.707974,57.5512746 114.381572,57.8071152 115.153117,57.8071152 Z" id="Path" fill="#96D5EB"></path>
                <path d="M126.972021,57.8071152 C127.987144,57.8071152 128.900884,57.3005765 129.71324,56.2879278 L131.520529,58.3136538 C130.11276,59.7724165 128.58943,60.5013693 126.951401,60.5013693 C125.313371,60.5013693 123.928799,59.9849742 122.798546,58.9517554 C121.667863,57.9189651 121.102951,56.5681954 121.102951,54.9003033 C121.102951,53.2324113 121.674736,51.8752134 122.819166,50.8282812 C123.962737,49.7822061 125.319814,49.2585257 126.890828,49.2585257 C127.675691,49.2585257 128.471293,49.4205152 129.277205,49.7449228 C130.082259,50.0689018 130.789795,50.5484422 131.398955,51.1831154 L129.814624,53.2491245 C129.462789,52.8304373 129.033198,52.5068868 128.525421,52.2763303 C128.017215,52.0470595 127.513305,51.9322097 127.012402,51.9322097 C126.213793,51.9322097 125.526448,52.1919072 124.951226,52.7117307 C124.375574,53.2319828 124.088178,53.9545074 124.088178,54.8797332 C124.088178,55.8045305 124.375574,56.5240554 124.951226,57.0370222 C125.526448,57.5512746 126.200046,57.8071152 126.972021,57.8071152 Z" id="Path" fill="#96D5EB"></path>
                <path d="M138.279282,58.0098163 C138.860948,58.0098163 139.426719,57.8649686 139.974877,57.5744159 C140.523035,57.2838633 140.959499,56.8956027 141.284699,56.4092057 L143.030986,58.2930837 C141.636534,59.7655598 140.062513,60.5009408 138.309353,60.5009408 C136.556193,60.5009408 135.158304,59.9678324 134.116117,58.9007587 C133.07307,57.8341134 132.551977,56.4734872 132.551977,54.81888 C132.551977,53.1651299 133.123762,51.8246453 134.268192,50.7978546 C135.411763,49.7714925 136.728459,49.2580971 138.21785,49.2580971 C139.706812,49.2580971 140.952196,49.6772129 141.954002,50.5141587 C142.955808,51.351533 143.497522,52.4323202 143.578715,53.7552346 L143.578715,54.1400668 L136.308749,57.1381585 C136.7697,57.7196923 137.426544,58.0098163 138.279282,58.0098163 Z M138.381095,51.8919266 C137.636614,51.8919266 136.976333,52.1349109 136.401111,52.6208795 C135.825459,53.1072765 135.538063,53.7826614 135.538063,54.647034 C135.538063,54.8090235 135.544936,54.9307299 135.558683,55.0117247 L140.310387,53.0875635 C140.134255,52.2904723 139.491158,51.8919266 138.381095,51.8919266 Z" id="Shape" fill="#96D5EB"></path>
                <path d="M152.631912,50.4768754 L150.898513,52.2060492 C150.193984,51.5105228 149.554753,51.1625453 148.98039,51.1625453 C148.665929,51.1625453 148.419774,51.2289696 148.241923,51.3618181 C148.064073,51.4950952 147.975147,51.660513 147.975147,51.8580717 C147.975147,52.008062 148.031424,52.1464816 148.144406,52.2724734 C148.257389,52.3988938 148.535763,52.5707398 148.98039,52.7892971 L150.005823,53.3009783 C151.086244,53.8332295 151.828148,54.3753373 152.231534,54.9277301 C152.634919,55.4801229 152.836397,56.1285095 152.836397,56.8716043 C152.836397,57.8606831 152.472104,58.6860583 151.743948,59.3477297 C151.015791,60.0094012 150.039761,60.3402369 148.815857,60.3402369 C147.188567,60.3402369 145.889054,59.7059922 144.918608,58.4370744 L146.641697,56.564767 C146.969905,56.947028 147.354389,57.2551509 147.795578,57.4908499 C148.236768,57.7261204 148.628125,57.8439699 148.97008,57.8439699 C149.339098,57.8439699 149.636805,57.7552614 149.86234,57.5778443 C150.087875,57.4004272 150.200858,57.1960119 150.200858,56.9641697 C150.200858,56.5343404 149.794035,56.1147961 148.98039,55.7055369 L148.036579,55.2349959 C146.231438,54.327769 145.328868,53.1921282 145.328868,51.8280736 C145.328868,50.9482734 145.669104,50.1961793 146.349576,49.5722197 C147.030047,48.9478315 147.899969,48.6358517 148.95977,48.6358517 C149.684489,48.6358517 150.36668,48.7944129 151.005911,49.1115352 C151.645572,49.428229 152.187286,49.8837709 152.631912,50.4768754 Z" id="Path" fill="#96D5EB"></path>
                <path d="M161.795085,50.4768754 L160.061686,52.2060492 C159.357157,51.5105228 158.717926,51.1625453 158.143563,51.1625453 C157.829102,51.1625453 157.582947,51.2289696 157.405096,51.3618181 C157.227246,51.4950952 157.13832,51.660513 157.13832,51.8580717 C157.13832,52.008062 157.194597,52.1464816 157.307579,52.2724734 C157.420561,52.3988938 157.698936,52.5707398 158.143563,52.7892971 L159.169426,53.3009783 C160.249847,53.8332295 160.99175,54.3753373 161.395136,54.9277301 C161.798522,55.4801229 162,56.1285095 162,56.8716043 C162,57.8606831 161.635707,58.6860583 160.90755,59.3477297 C160.179394,60.0094012 159.203364,60.3402369 157.979459,60.3402369 C156.352169,60.3402369 155.052657,59.7059922 154.082211,58.4370744 L155.8053,56.564767 C156.133507,56.947028 156.517991,57.2551509 156.959181,57.4908499 C157.400371,57.7261204 157.791728,57.8439699 158.133682,57.8439699 C158.502701,57.8439699 158.800407,57.7552614 159.025943,57.5778443 C159.251478,57.4004272 159.36446,57.1960119 159.36446,56.9641697 C159.36446,56.5343404 158.957638,56.1147961 158.143992,55.7055369 L157.200611,55.2349959 C155.39547,54.327769 154.4929,53.1921282 154.4929,51.8280736 C154.4929,50.9482734 154.833136,50.1961793 155.513608,49.5722197 C156.19408,48.9478315 157.064001,48.6358517 158.123802,48.6358517 C158.848521,48.6358517 159.530712,48.7944129 160.169943,49.1115352 C160.808745,49.428229 161.350459,49.8837709 161.795085,50.4768754 Z" id="Path" fill="#96D5EB"></path>
                <g id="Group" transform="translate(79.673209, 33.372411)" fill="#02A7EA">
                    <polygon id="Path" points="0 30.6275888 9.21085751 30.6275888 15.3514292 17.0153271 21.4920009 30.6275888 30.7024288 30.6275888 15.3514292 0"></polygon>
                    <polygon id="Path" points="15.3514292 26.9678257 18.2210961 20.6060947 22.388557 26.9678257"></polygon>
                </g>
                <ellipse id="Oval" fill="#02A7EA" cx="110.470147" cy="28.3768774" rx="6.25011734" ry="6.23488212"></ellipse>
                <path d="M99.8575349,21.6140294 C99.8575349,21.6140294 92.7026993,49.805776 154.705547,41.3467521 C138.319234,48.6354232 86.9255615,51.395673 99.8575349,21.6140294 Z" id="Path" fill="#96D5EB"></path>
            </g>
        </g>
    </g>
</svg>