<?xml version="1.0" encoding="UTF-8"?>
<svg width="162px" height="48px" viewBox="0 0 162 48" version="1.1" xmlns="http://www.w3.org/2000/svg" xmlns:xlink="http://www.w3.org/1999/xlink">
    <title>logo-google-play</title>
    <defs>
        <linearGradient x1="61.0299935%" y1="4.96282585%" x2="26.517146%" y2="71.9036937%" id="linearGradient-1">
            <stop stop-color="#00A0FF" offset="0%"></stop>
            <stop stop-color="#00A1FF" offset="0.657445%"></stop>
            <stop stop-color="#00BEFF" offset="26.01%"></stop>
            <stop stop-color="#00D2FF" offset="51.22%"></stop>
            <stop stop-color="#00DFFF" offset="76.04%"></stop>
            <stop stop-color="#00E3FF" offset="100%"></stop>
        </linearGradient>
        <linearGradient x1="107.582201%" y1="50.0020383%" x2="-130.468599%" y2="50.0020383%" id="linearGradient-2">
            <stop stop-color="#FFE000" offset="0%"></stop>
            <stop stop-color="#FFBD00" offset="40.87%"></stop>
            <stop stop-color="#FFA500" offset="77.54%"></stop>
            <stop stop-color="#FF9C00" offset="100%"></stop>
        </linearGradient>
        <linearGradient x1="86.2455547%" y1="30.9001586%" x2="-50.144516%" y2="136.021935%" id="linearGradient-3">
            <stop stop-color="#FF3A44" offset="0%"></stop>
            <stop stop-color="#C31162" offset="100%"></stop>
        </linearGradient>
        <linearGradient x1="-18.8018206%" y1="-11.8657405%" x2="42.098242%" y2="35.0696505%" id="linearGradient-4">
            <stop stop-color="#32A071" offset="0%"></stop>
            <stop stop-color="#2DA771" offset="6.85%"></stop>
            <stop stop-color="#15CF74" offset="47.62%"></stop>
            <stop stop-color="#06E775" offset="80.09%"></stop>
            <stop stop-color="#00F076" offset="100%"></stop>
        </linearGradient>
    </defs>
    <g id="Design" stroke="none" stroke-width="1" fill="none" fill-rule="evenodd">
        <g id="TL---Homepage" transform="translate(-418.000000, -2347.000000)" fill-rule="nonzero">
            <g id="Avis-Client-Copy" transform="translate(0.000000, 1821.000000)">
                <g id="Group-37" transform="translate(242.000000, 80.000000)">
                    <g id="App" transform="translate(0.000000, 446.000000)">
                        <g id="logo-google-play" transform="translate(176.000000, 0.000000)">
                            <path d="M156.001577,48 L5.99967518,48 C2.69979119,48 0,45.3002036 0,42.0003132 L0,5.9996868 C0,2.69979642 2.69979119,0 5.99967518,0 L156.000324,0 C159.300208,0 162,2.69979642 162,5.9996868 L162,42.0003132 C162,45.3002036 159.301461,48 156.001577,48 Z" id="Path" fill="#000000"></path>
                            <path d="M81.7642098,26.1022081 C78.9416439,26.1022081 76.641497,28.2482643 76.641497,31.2061387 C76.641497,34.1452211 78.9416439,36.3100694 81.7642098,36.3100694 C84.5867757,36.3100694 86.8869227,34.1452211 86.8869227,31.2061387 C86.8869227,28.2482643 84.5855229,26.1022081 81.7642098,26.1022081 Z M81.7642098,34.2993162 C80.2182505,34.2993162 78.8840149,33.0239599 78.8840149,31.2061387 C78.8840149,29.3695255 80.2182505,28.1129613 81.7642098,28.1129613 C83.3101691,28.1129613 84.6444047,29.3695255 84.6444047,31.2061387 C84.6444047,33.0239599 83.3101691,34.2993162 81.7642098,34.2993162 Z M70.5879512,26.1022081 C67.7653853,26.1022081 65.4652384,28.2482643 65.4652384,31.2061387 C65.4652384,34.1452211 67.7653853,36.3100694 70.5879512,36.3100694 C73.4105172,36.3100694 75.7106641,34.1452211 75.7106641,31.2061387 C75.7106641,28.2482643 73.4105172,26.1022081 70.5879512,26.1022081 Z M70.5879512,34.2993162 C69.0407391,34.2993162 67.7077564,33.0239599 67.7077564,31.2061387 C67.7077564,29.3695255 69.0419919,28.1129613 70.5879512,28.1129613 C72.1339106,28.1129613 73.4681461,29.3695255 73.4681461,31.2061387 C73.4681461,33.0239599 72.1339106,34.2993162 70.5879512,34.2993162 Z M57.2932022,27.6682153 L57.2932022,29.8330636 L62.4747968,29.8330636 C62.3194492,31.0507908 61.9135409,31.9402829 61.2959089,32.559169 C60.5417213,33.313358 59.3628333,34.1439683 57.294455,34.1439683 C54.1048177,34.1439683 51.6104863,31.5732108 51.6104863,28.3823146 C51.6104863,25.1914183 54.1048177,22.6206609 57.294455,22.6206609 C59.014554,22.6206609 60.2723686,23.297176 61.199443,24.1666232 L62.7266103,22.6394529 C61.4312117,21.4016808 59.7111127,20.4545597 57.294455,20.4545597 C52.924677,20.4545597 49.2514576,24.0112753 49.2514576,28.3810618 C49.2514576,32.7508483 52.924677,36.3075638 57.294455,36.3075638 C59.6534837,36.3075638 61.4312117,35.5345827 62.8230762,34.0838336 C64.2537776,32.6531294 64.6985228,30.6423762 64.6985228,29.0187399 C64.6985228,28.5163648 64.6596859,28.0515738 64.582012,27.6657097 L57.2932022,27.6657097 L57.2932022,27.6682153 Z M111.663614,29.3507334 C111.238914,28.2106802 109.943515,26.1034609 107.293836,26.1034609 C104.664202,26.1034609 102.480566,28.1718432 102.480566,31.2073916 C102.480566,34.0687999 104.64541,36.3113222 107.54565,36.3113222 C109.884634,36.3113222 111.237661,34.8806181 111.798917,34.0500078 L110.058773,32.8899097 C109.478725,33.7405648 108.685701,34.300569 107.54565,34.300569 C106.404346,34.300569 105.592529,33.778149 105.071363,32.7546067 L111.895383,29.9320353 L111.663614,29.3507334 Z M104.703039,31.0520436 C104.64541,29.0801274 106.230206,28.0753771 107.370257,28.0753771 C108.259748,28.0753771 109.013935,28.5201232 109.264496,29.1578013 L104.703039,31.0520436 Z M99.1543729,36.0006264 L101.396891,36.0006264 L101.396891,20.9982774 L99.1543729,20.9982774 L99.1543729,36.0006264 Z M95.4811536,27.2435141 L95.4034798,27.2435141 C94.9011056,26.644673 93.9339414,26.1034609 92.7162166,26.1034609 C90.1642562,26.1034609 87.8252724,28.3459832 87.8252724,31.2261836 C87.8252724,34.087592 90.1642562,36.3113222 92.7162166,36.3113222 C93.9339414,36.3113222 94.9011056,35.7701101 95.4034798,35.1512241 L95.4811536,35.1512241 L95.4811536,35.8853683 C95.4811536,37.8384925 94.4375684,38.8820797 92.7550535,38.8820797 C91.381981,38.8820797 90.5313276,37.8961215 90.184301,37.0642585 L88.2311806,37.8760766 C88.7924365,39.2291069 90.2807669,40.8915801 92.7550535,40.8915801 C95.3846877,40.8915801 97.6071608,39.3456178 97.6071608,35.5746724 L97.6071608,26.4103983 L95.4799008,26.4103983 L95.4799008,27.2435141 L95.4811536,27.2435141 Z M92.9104011,34.2993162 C91.3644418,34.2993162 90.0690431,33.003915 90.0690431,31.2249308 C90.0690431,29.4271546 91.3644418,28.1129613 92.9104011,28.1129613 C94.4375684,28.1129613 95.6365012,29.4271546 95.6365012,31.2249308 C95.6365012,33.003915 94.4375684,34.2993162 92.9104011,34.2993162 Z M122.16837,20.9982774 L116.802614,20.9982774 L116.802614,36.0006264 L119.041373,36.0006264 L119.041373,30.3166467 L122.16837,30.3166467 C124.650174,30.3166467 127.089382,28.5201232 127.089382,25.657462 C127.089382,22.7960537 124.650174,20.9982774 122.16837,20.9982774 Z M122.225999,28.2294723 L119.041373,28.2294723 L119.041373,23.0867046 L122.225999,23.0867046 C123.899744,23.0867046 124.850622,24.4723078 124.850622,25.657462 C124.850622,26.8200658 123.899744,28.2294723 122.225999,28.2294723 Z M136.064465,26.0746463 C134.443337,26.0746463 132.764581,26.7887456 132.069275,28.3710393 L134.057474,29.2003967 C134.482174,28.3710393 135.272693,28.1004333 136.103302,28.1004333 C137.260892,28.1004333 138.438527,28.7957405 138.458572,30.0310069 L138.458572,30.1851021 C138.052664,29.953333 137.184471,29.6063058 136.123347,29.6063058 C133.981053,29.6063058 131.799922,30.7839432 131.799922,32.9838701 C131.799922,34.990865 133.556353,36.2837605 135.524507,36.2837605 C137.030376,36.2837605 137.859732,35.6084982 138.380898,34.816725 L138.458572,34.816725 L138.458572,35.9743175 L140.619658,35.9743175 L140.619658,30.2226862 C140.618405,27.560474 138.630206,26.0746463 136.064465,26.0746463 Z M135.793859,34.2968106 C135.060969,34.2968106 134.037429,33.9297385 134.037429,33.0227071 C134.037429,31.8651146 135.31153,31.4203685 136.411491,31.4203685 C137.396195,31.4203685 137.858479,31.6333455 138.457319,31.9227436 C138.28318,33.3121052 137.086752,34.2968106 135.793859,34.2968106 Z M148.493527,26.4028815 L145.926533,32.907449 L145.848859,32.907449 L143.185399,26.4028815 L140.7725,26.4028815 L144.76769,35.4932401 L142.490093,40.5495641 L144.825319,40.5495641 L150.981594,26.4028815 L148.493527,26.4028815 Z M128.324646,36.0006264 L130.563405,36.0006264 L130.563405,20.9982774 L128.324646,20.9982774 L128.324646,36.0006264 Z" id="Shape" fill="#FFFFFF"></path>
                            <g id="Group" transform="translate(11.966777, 8.568427)">
                                <path d="M0.556244682,0.476830673 C0.206712551,0.846408373 0.00125280334,1.42019341 0.00125280334,2.16310723 L0.00125280334,28.7025445 C0.00125280334,29.4467111 0.207965354,30.0192434 0.556244682,30.3888211 L0.645193719,30.4752647 L15.5122109,15.6082187 L15.5122109,15.4328259 L15.5122109,15.2574331 L0.643940915,0.390387075 L0.556244682,0.476830673 Z" id="Path" fill="url(#linearGradient-1)"></path>
                                <path d="M20.4670481,20.5655711 L15.5122109,15.6082187 L15.5122109,15.4328259 L15.5122109,15.2574331 L20.4683009,10.3013335 L20.5798004,10.3652266 L26.4516897,13.7014483 C28.1291933,14.6548335 28.1291933,16.2133239 26.4516897,17.166709 L20.5798004,20.5029308 L20.4670481,20.5655711 Z" id="Path" fill="url(#linearGradient-2)"></path>
                                <path d="M20.5798004,20.501678 L15.5109581,15.4328259 L0.556244682,30.3888211 C1.10873095,30.9738814 2.02202459,31.0465441 3.05057613,30.4627366 L20.5798004,20.501678" id="Path" fill="url(#linearGradient-3)"></path>
                                <path d="M20.5798004,10.3639738 L3.04932332,0.404167938 C2.02077178,-0.179639547 1.10873095,-0.106976813 0.554991878,0.478083478 L15.5109581,15.4340787 L20.5798004,10.3639738 Z" id="Path" fill="url(#linearGradient-4)"></path>
                                <g transform="translate(0.001253, 20.390178)" fill="#000000" id="Path">
                                    <path d="M20.4670481,0 L3.04807052,9.89716553 C2.07338952,10.4509057 1.2026912,10.4133215 0.643940915,9.90969358 L0.643940915,9.90969358 L0.554991878,9.99864279 L0.554991878,9.99864279 L0.643940915,10.0850864 L0.643940915,10.0850864 C1.2026912,10.5887143 2.07338952,10.6262985 3.04807052,10.0725583 L20.5785476,0.111499713 L20.4670481,0 Z" opacity="0.2"></path>
                                    <path d="M0.554991878,9.82324999 C0.205459747,9.45367229 0,8.87988725 0,8.13697343 L0,8.31236624 C0,9.05528005 0.206712551,9.62906509 0.554991878,9.99864279 L0.643940915,9.90969358 L0.554991878,9.82324999 Z" opacity="0.12"></path>
                                </g>
                                <path d="M26.4504369,16.9900634 L20.4683009,20.3901783 L20.5798004,20.501678 L26.4516897,17.1654562 C27.2898151,16.6893901 27.7095042,16.0617344 27.7095042,15.4328259 L27.7095042,15.4328259 C27.6380944,16.0015997 27.2121413,16.5578454 26.4504369,16.9900634 Z" id="Path" fill="#000000" opacity="0.12"></path>
                                <path d="M3.04932332,0.579560745 L26.4504369,13.8755883 C27.2108885,14.3078063 27.6380944,14.8640521 27.7082514,15.4328259 L27.7082514,15.4328259 C27.7082514,14.8051702 27.2885623,14.1762617 26.4504369,13.7001955 L3.04932332,0.404167938 C1.37181965,-0.549217247 1.4242725e-15,0.242555995 1.4242725e-15,2.16436004 L1.4242725e-15,2.33975284 C1.4242725e-15,0.417948802 1.37181965,-0.372571635 3.04932332,0.579560745 Z" id="Path" fill="#FFFFFF" opacity="0.25"></path>
                            </g>
                            <g id="Group" transform="translate(49.413069, 8.118181)" fill="#FFFFFF">
                                <path d="M2.32269739,7.60202537 L-5.69708999e-15,7.60202537 L-5.69708999e-15,0.161611943 L2.32269739,0.161611943 C3.45648441,0.161611943 4.37854766,0.509891946 5.06257829,1.19768231 C5.74535611,1.88421987 6.09238263,2.78749282 6.09238263,3.88119225 C6.09238263,4.97489168 5.74535611,5.87816464 5.06257829,6.5647022 C4.37980047,7.25374537 3.45648441,7.60202537 2.32269739,7.60202537 Z M1.16635991,6.47700579 L2.32395019,6.47700579 C3.11822751,6.47700579 3.75590441,6.24899515 4.21568323,5.79673226 C4.67546206,5.346975 4.90848348,4.70178003 4.90848348,3.88119225 C4.90848348,3.06686851 4.67546206,2.42417915 4.21568323,1.97066347 C3.7546516,1.51714778 3.11822751,1.28663152 2.32395019,1.28663152 L1.16635991,1.28663152 L1.16635991,6.47700579 L1.16635991,6.47700579 Z" id="Shape"></path>
                                <polygon id="Path" points="8.31736136 7.60202537 7.15225425 7.60202537 7.15225425 0.161611943 8.31736136 0.161611943"></polygon>
                                <path d="M11.8765756,7.76238451 C11.3316062,7.76238451 10.7929008,7.58323328 10.275493,7.22868925 C9.75307398,6.87163961 9.40604746,6.36300047 9.24568863,5.72031111 L9.22063256,5.62008665 L10.2905266,5.18786866 L10.3243523,5.32066608 C10.4195654,5.69149658 10.6150027,6.00720363 10.9044002,6.2602704 C11.1975562,6.51458997 11.5157683,6.63736493 11.8765756,6.63736493 C12.2511638,6.63736493 12.5743871,6.53839328 12.836223,6.34420838 C13.0905421,6.15628752 13.2145696,5.90697917 13.2145696,5.58124967 C13.2145696,5.21543039 13.0905421,4.94231873 12.8349702,4.74688104 C12.5631119,4.53891528 12.1208723,4.34097197 11.5195267,4.15680952 C10.8668161,3.95134938 10.3631892,3.67949053 10.0224267,3.3487498 C9.67164177,3.00798664 9.49374369,2.56825181 9.49374369,2.04207339 C9.49374369,1.49459728 9.71298428,1.01101425 10.1464542,0.607610795 C10.5774186,0.205460145 11.1424329,0.00125280576 11.8264635,0.00125280576 C12.4616348,0.00125280576 12.9878122,0.164117555 13.3899621,0.48483583 C13.7896063,0.8043013 14.052695,1.16009814 14.1729642,1.5434567 L14.205537,1.64743958 L13.1343902,2.09343843 L13.0980589,1.96064102 C13.0441883,1.75893929 12.90638,1.5660072 12.689645,1.38936159 C12.4754156,1.21396878 12.1910293,1.12501958 11.8452556,1.12501958 C11.5182739,1.12501958 11.2376459,1.21522159 11.0108885,1.39562562 C10.7878895,1.57101843 10.6788956,1.78148979 10.6788956,2.03956778 C10.6788956,2.27133685 10.7778671,2.46301613 10.9808213,2.62462807 C11.2013146,2.80002088 11.5333075,2.96038002 11.9642719,3.10194707 C12.3288376,3.21971081 12.6244992,3.32995772 12.8662903,3.43895182 C13.1093341,3.54794592 13.3598948,3.695777 13.6104555,3.87868664 C13.8697857,4.06660751 14.0689815,4.30589341 14.2005258,4.58902751 C14.3320702,4.86840319 14.3984688,5.1953855 14.3984688,5.55995198 C14.3984688,5.92702406 14.320795,6.2602704 14.1692057,6.55092133 C14.0176165,6.84157227 13.810904,7.07584695 13.5565849,7.24873414 C13.3085299,7.41535731 13.0391771,7.5443963 12.7560436,7.6308399 C12.4716572,7.71853631 12.1747428,7.76238451 11.8765756,7.76238451 Z" id="Path"></path>
                                <path d="M16.652262,7.60202537 L15.4871549,7.60202537 L15.4871549,0.161611943 L18.0616657,0.161611943 C18.6993426,0.161611943 19.2593457,0.377094535 19.7253885,0.801795688 C20.1951898,1.22774965 20.4332224,1.77397296 20.4332224,2.42417915 C20.4332224,3.07313254 20.1951898,3.61935585 19.7253885,4.04656261 C19.2593457,4.47126377 18.6993426,4.68674636 18.0616657,4.68674636 L16.652262,4.68674636 L16.652262,7.60202537 Z M16.652262,3.56047398 L18.0817106,3.56047398 C18.4387595,3.56047398 18.7156291,3.44521585 18.9273528,3.20843556 C19.142835,2.96664405 19.2480705,2.70981887 19.2480705,2.42417915 C19.2480705,2.13728663 19.142835,1.88046145 18.9273528,1.63992274 C18.7143763,1.40314245 18.4375067,1.28663152 18.0817106,1.28663152 L16.652262,1.28663152 L16.652262,3.56047398 Z" id="Shape"></path>
                                <path d="M24.7278323,7.76238451 C23.646663,7.76238451 22.729611,7.38278436 22.002985,6.63485932 C21.2776119,5.88818709 20.9080349,4.96236363 20.9080349,3.88119225 C20.9080349,2.80002088 21.2763591,1.87419742 22.002985,1.12752519 C22.729611,0.379600146 23.646663,5.69710102e-15 24.7278323,5.69710102e-15 C25.8014847,5.69710102e-15 26.717284,0.380852952 27.4489211,1.13253641 C28.1780527,1.88296706 28.5476297,2.80753771 28.5476297,3.88119225 C28.5476297,4.96111082 28.1793055,5.88693428 27.4526795,6.63485932 L27.4526795,6.63485932 C26.7260536,7.38278436 25.8090016,7.76238451 24.7278323,7.76238451 Z M22.8573969,5.86438378 C23.3647822,6.37803414 23.9936895,6.63736493 24.7278323,6.63736493 C25.4632278,6.63736493 26.0921351,6.37678133 26.5982677,5.86438378 C27.1069058,5.34948061 27.3637305,4.68298794 27.3637305,3.88244506 C27.3637305,3.08190218 27.1069058,2.41415671 26.5982677,1.90050634 C26.0921351,1.38685598 25.4632278,1.12752519 24.7278323,1.12752519 C23.9936895,1.12752519 23.3647822,1.38810879 22.8573969,1.90050634 C22.3500115,2.41540951 22.0931869,3.08190218 22.0931869,3.88244506 C22.0931869,4.68298794 22.3500115,5.34948061 22.8573969,5.86438378 L22.8573969,5.86438378 Z" id="Shape"></path>
                                <polygon id="Path" points="35.3967055 7.60202537 34.2441264 7.60202537 34.2090479 7.54564911 30.7412883 1.98319152 30.7701028 2.99420577 30.7701028 7.60202537 29.6049957 7.60202537 29.6049957 0.161611943 30.9179336 0.161611943 34.2591601 5.51109255 34.2315984 4.49882549 34.2315984 0.161611943 35.3967055 0.161611943"></polygon>
                                <polygon id="Path" points="37.9712164 7.60202537 36.8073621 7.60202537 36.8073621 0.161611943 37.9712164 0.161611943"></polygon>
                                <path d="M42.2445285,7.60202537 L39.3806201,7.60202537 L39.3806201,0.161611943 L42.1042146,0.161611943 C42.6942849,0.161611943 43.2141983,0.359555254 43.6489211,0.750430652 C44.0848966,1.14506447 44.3066428,1.64743958 44.3066428,2.24252232 C44.3066428,2.60708879 44.210177,2.9353239 44.0197509,3.21469959 C43.8706673,3.4339406 43.6827468,3.61309182 43.4534838,3.74964765 C43.7403757,3.88244506 43.9846724,4.07662995 44.1813625,4.33094952 C44.4256591,4.64790938 44.5484339,5.01748708 44.5484339,5.42966018 C44.5484339,6.05230464 44.3179181,6.57597745 43.859392,6.98689774 C43.4058772,7.39531242 42.8621606,7.60202537 42.2445285,7.60202537 Z M40.5444744,6.47700579 L42.285871,6.47700579 C42.6078415,6.47700579 42.8609078,6.36801169 43.0613563,6.14501227 C43.2643105,5.91825442 43.3620291,5.67771572 43.3620291,5.40961528 C43.3620291,5.14402046 43.260552,4.90598737 43.0513339,4.68298794 C42.8446213,4.46124132 42.5815326,4.35350003 42.2445285,4.35350003 L40.5444744,4.35350003 L40.5444744,6.47700579 Z M40.5444744,3.24852534 L42.1042146,3.24852534 C42.4211738,3.24852534 42.6679761,3.14830088 42.8558966,2.94033513 C43.0475755,2.73111656 43.1415357,2.50811714 43.1415357,2.26256721 C43.1415357,2.01576447 43.0513339,1.79527066 42.8646662,1.58855771 C42.6817569,1.38560317 42.4474827,1.28663152 42.1455571,1.28663152 L40.5444744,1.28663152 L40.5444744,3.24852534 Z" id="Shape"></path>
                                <polygon id="Path" points="49.8365168 7.60202537 45.5556878 7.60202537 45.5556878 0.161611943 46.7195421 0.161611943 46.7195421 6.47700579 49.8365168 6.47700579"></polygon>
                                <polygon id="Path" points="55.2072847 7.60202537 50.764844 7.60202537 50.764844 0.161611943 55.2072847 0.161611943 55.2072847 1.28663152 51.9286983 1.28663152 51.9286983 3.32870491 54.8853142 3.32870491 54.8853142 4.43367959 51.9286983 4.43367959 51.9286983 6.47575299 55.2072847 6.47575299 55.2072847 7.60202537"></polygon>
                                <path d="M60.6782768,7.76238451 C60.1333074,7.76238451 59.594602,7.58323328 59.0771942,7.22868925 C58.5547752,6.87163961 58.2077487,6.36300047 58.0486426,5.72031111 L58.0223338,5.62008665 L59.090975,5.18786866 L59.1248007,5.32066608 C59.2200138,5.69149658 59.4141983,6.00720363 59.7048487,6.2602704 C59.9980046,6.51458997 60.3162167,6.63736493 60.677024,6.63736493 C61.0516122,6.63736493 61.3748355,6.53839328 61.6366714,6.34420838 C61.8909905,6.15628752 62.015018,5.90697917 62.015018,5.58124967 C62.015018,5.21543039 61.8909905,4.94231873 61.6354186,4.74688104 C61.3635603,4.53891528 60.9213207,4.34097197 60.3199751,4.15680952 C59.6672646,3.95134938 59.1636376,3.67949053 58.8228751,3.3487498 C58.4708374,3.00798664 58.2929393,2.56825181 58.2929393,2.04082059 C58.2929393,1.49334447 58.5121799,1.00976144 58.944397,0.606357989 C59.3741086,0.204207339 59.9403757,1.42427525e-15 60.6244063,1.42427525e-15 C61.2595776,1.42427525e-15 61.7845022,0.162864749 62.1879049,0.483583024 C62.5875491,0.803048494 62.8506378,1.15884533 62.9721598,1.54220389 L63.0047326,1.64618677 L61.932333,2.09218562 L61.8972545,1.95938821 C61.8433839,1.75768649 61.7068284,1.5647544 61.4888406,1.38810879 C61.2746112,1.21271598 60.9902249,1.12376677 60.6444512,1.12376677 C60.3174695,1.12376677 60.0368415,1.21396878 59.8088313,1.39437281 C59.5858323,1.56976562 59.4768384,1.78023699 59.4768384,2.03831498 C59.4768384,2.27008404 59.5770627,2.46176332 59.778764,2.62337527 C59.9992574,2.79876807 60.3312503,2.95912721 60.7622147,3.10069426 C61.1280332,3.218458 61.4236948,3.32870491 61.6642331,3.43769901 C61.9072769,3.54669311 62.1578376,3.69452419 62.4083983,3.87743384 C62.6689813,4.0653547 62.8669243,4.3046406 62.9997214,4.5877747 C63.1312658,4.86715039 63.1964116,5.19413269 63.1964116,5.55869917 C63.1964116,5.92577126 63.1199906,6.25901759 62.9684013,6.54966853 C62.8155593,6.84031947 62.6100996,7.07459414 62.3545277,7.24748134 C62.1077255,7.4141045 61.8371199,7.5431435 61.5539864,7.6295871 C61.2733584,7.71853631 60.9776968,7.76238451 60.6782768,7.76238451 Z" id="Path"></path>
                                <path d="M66.9122263,7.76238451 C66.0903873,7.76238451 65.4138735,7.48551443 64.8989713,6.94054393 C64.3865747,6.39682623 64.1284972,5.67896852 64.1284972,4.80701571 L64.1284972,0.161611943 L65.2923515,0.161611943 L65.2923515,4.8471055 C65.2923515,5.38455917 65.4339183,5.82429399 65.7120407,6.1525291 C65.9889102,6.47951141 66.3810376,6.63736493 66.9134791,6.63736493 C67.4371509,6.63736493 67.8405535,6.47450018 68.1136647,6.1525291 C68.391787,5.82429399 68.5333538,5.38455917 68.5333538,4.8471055 L68.5333538,0.161611943 L69.6984609,0.161611943 L69.6984609,4.80701571 C69.6984609,5.68523255 69.4466474,6.40434306 68.9467789,6.94430234 C68.4469103,7.48676724 67.7628797,7.76238451 66.9122263,7.76238451 Z" id="Path"></path>
                                <path d="M76.1729485,7.60202537 L74.8938363,7.60202537 L74.8587578,7.54815472 L72.9519911,4.68549355 L72.1088545,4.68549355 L72.1088545,7.60202537 L70.9450002,7.60202537 L70.9450002,0.161611943 L73.5182583,0.161611943 C74.157188,0.161611943 74.7159382,0.377094535 75.1819811,0.801795688 C75.6517823,1.22774965 75.889815,1.77397296 75.889815,2.42417915 C75.889815,2.95411599 75.7144225,3.42892937 75.3686488,3.83483844 C75.0554479,4.20191053 74.6683317,4.44871326 74.2148169,4.57023542 L76.1716957,7.40533486 L76.1716957,7.60202537 L76.1729485,7.60202537 Z M72.1101073,3.58051887 L73.4794213,3.58051887 C73.8201839,3.58051887 74.105823,3.47277757 74.3488669,3.24977815 C74.5906579,3.03053714 74.7071686,2.7599311 74.7071686,2.42417915 C74.7071686,2.13728663 74.6019331,1.88046145 74.386451,1.63992274 C74.1747272,1.40314245 73.8966049,1.28663152 73.5408087,1.28663152 L72.1113601,1.28663152 L72.1113601,3.58051887 L72.1101073,3.58051887 Z" id="Shape"></path>
                            </g>
                        </g>
                    </g>
                </g>
            </g>
        </g>
    </g>
</svg>