<?xml version="1.0" encoding="UTF-8"?>
<svg width="179px" height="64px" viewBox="0 0 179 64" version="1.1" xmlns="http://www.w3.org/2000/svg" xmlns:xlink="http://www.w3.org/1999/xlink">
    <title>logo-tl-events</title>
    <g id="Design" stroke="none" stroke-width="1" fill="none" fill-rule="evenodd">
        <g id="Artboard" transform="translate(-570.000000, -155.000000)" fill-rule="nonzero">
            <g id="logo-tl-events" transform="translate(570.000000, 155.000000)">
                <g id="Group">
                    <path d="M30.9314722,63.7075174 C19.3321701,63.7075174 11.5993021,55.9767002 11.5993021,40.5150657 C11.5993021,28.9188398 11.5993021,32.7842485 11.5993021,32.7842485 L0,32.7842485 L23.1986041,9.59179674 L23.1986041,21.1880226 L34.7979062,21.1880226 L23.1986041,32.7842485 L23.1986041,32.7842485 L23.1986041,36.6496571 C23.1986041,36.6496571 23.1986041,36.6496571 23.1986041,40.5150657 C23.1986041,44.3804743 23.1986041,52.1112916 30.9314722,52.1112916 C34.7979062,52.1112916 30.9314722,52.1112916 30.9314722,52.1112916 L40.3827554,52.1112916 L48.1156234,63.7075174 L34.7979062,63.7075174" id="Path" fill="#020202"></path>
                    <polygon id="Path" fill="#FFED22" points="2.38902662 32.7842485 12.2338269 23.5154281 5.21195307 32.7842485"></polygon>
                    <polygon id="Path" fill="#FFED22" points="6.64554088 32.7842485 20.7545882 19.5469419 10.4208989 32.7421585"></polygon>
                    <path d="M65.7293784,63.7075174 C54.1300763,63.7075174 46.3972083,55.9767002 46.3972083,40.5150657 C46.3972083,31.2891943 46.3972083,0 46.3972083,0 L57.9965104,11.5962259 L57.9965104,36.6496571 C57.9965104,36.6496571 57.9965104,36.6496571 57.9965104,40.5150657 C57.9965104,44.3804743 57.9965104,52.1112916 65.7293784,52.1112916 C69.5958124,52.1112916 65.7293784,52.1112916 65.7293784,52.1112916 L73.4622465,52.1112916 L73.4622465,63.7075174 L65.7293784,63.7075174" id="Path" fill="#020202"></path>
                </g>
                <g id="Group" transform="translate(76.439830, 15.120190)">
                    <path d="M10.9286906,45.0762479 C11.8149632,45.0762479 12.6763188,44.8546311 13.5114685,44.4113976 C14.3466183,43.9681641 15.0116449,43.3754681 15.5065485,42.6333096 L18.1666551,45.5091736 C16.042694,47.7562645 13.6455049,48.87981 10.9750878,48.87981 C8.30424108,48.87981 6.17555434,48.0654972 4.58773877,46.4368717 C2.9994936,44.8082462 2.20601541,42.7312333 2.20601541,40.205833 C2.20601541,37.6808622 3.07682228,35.6343431 4.81972481,34.0675641 C6.56219775,32.5012147 8.56715859,31.7173957 10.8358962,31.7173957 C13.1042041,31.7173957 15.0009048,32.3564766 16.527287,33.6346384 C18.0528101,34.9132296 18.8780789,36.5620412 19.0018048,38.5823614 L19.0018048,39.1699035 L7.92833777,43.7465473 C8.62945114,44.6334438 9.62956874,45.0762479 10.9286906,45.0762479 Z M11.0833479,35.7374206 C9.94919395,35.7374206 8.94392111,36.1084999 8.06752939,36.8506583 C7.19070808,37.5928168 6.75294183,38.6240219 6.75294183,39.9429852 C6.75294183,40.1903714 6.76282271,40.375911 6.7838733,40.4996041 L14.0218378,37.5618935 C13.753765,36.3460078 12.7742684,35.7374206 11.0833479,35.7374206 Z" id="Shape" fill="#020202"></path>
                    <path d="M85.7935934,43.6254312 C82.3795321,43.6254312 82.3795321,40.4016804 82.3795321,38.6948877 C82.3795321,36.9880951 82.3795321,37.3673346 82.3795321,37.3673346 L82.3795321,36.7982606 L87.5008388,31.6783121 L82.3795321,31.6783121 L82.3795321,26.5587931 L72.1369188,36.7986901 L77.2582255,36.7986901 C77.2582255,36.6015542 77.2582255,36.5298294 77.2582255,36.525964 C77.2582255,36.5302589 77.2582255,36.6015542 77.2582255,36.7986901 C77.2582255,37.2075644 77.2582255,36.6445032 77.2582255,38.6948877 C77.2582255,45.5216288 80.6722867,48.7453796 85.794023,48.7453796 L86.7425881,48.7453796 L87.406326,48.7453796 L89.9671941,43.6254312 L85.7935934,43.6254312 Z" id="Path" fill="#020202"></path>
                    <path d="M69.6469353,33.2287705 C68.4994636,32.0798851 66.6057701,31.5052277 64.9608173,31.5052277 C64.1583174,31.5052277 62.6267799,31.660703 61.8603668,31.9720832 C61.093524,32.2830338 60.4907899,32.5033621 59.4683329,33.1398661 L55.3028947,31.6362221 L55.3028947,48.5254808 L57.1506205,48.5254808 L59.4674737,48.5254808 L60.2746992,48.5254808 L60.2746992,39.4537963 C60.2746992,37.5563101 61.6734891,36.0406405 63.3987779,36.0406405 C65.1240667,36.0406405 66.5228566,37.5563101 66.5228566,39.4537963 L66.5228566,48.5254808 L68.0848959,48.5254808 L71.2089746,48.5254808 L71.2089746,37.5601756 C71.2089746,35.6485162 70.6113958,34.2045714 69.6469353,33.2287705 Z" id="Path" fill="#000000"></path>
                    <path d="M45.0104473,45.0762479 C45.8967199,45.0762479 46.7580755,44.8546311 47.5932252,44.4113976 C48.428375,43.9681641 49.0934016,43.3754681 49.5883052,42.6333096 L52.2484118,45.5091736 C50.1244507,47.7562645 47.7272616,48.87981 45.0568445,48.87981 C42.3859978,48.87981 40.2573111,48.0654972 38.6694955,46.4368717 C37.0812503,44.8082462 36.2877721,42.7312333 36.2877721,40.205833 C36.2877721,37.6808622 37.158579,35.6343431 38.9014815,34.0675641 C40.6439545,32.5012147 42.6489153,31.7173957 44.9176529,31.7173957 C47.1859608,31.7173957 49.0826615,32.3564766 50.6090438,33.6346384 C52.1345668,34.9132296 52.9598356,36.5620412 53.0835615,38.5823614 L53.0835615,39.1699035 L42.0100945,43.7465473 C42.7112079,44.6334438 43.7117551,45.0762479 45.0104473,45.0762479 Z M45.1651047,35.7374206 C44.0309507,35.7374206 43.0256778,36.1084999 42.1492861,36.8506583 C41.2724648,37.5928168 40.8346985,38.6240219 40.8346985,39.9429852 C40.8346985,40.1903714 40.8445794,40.375911 40.86563,40.4996041 L48.1035945,37.5618935 C47.8355218,36.3460078 46.8560251,35.7374206 45.1651047,35.7374206 Z" id="Shape" fill="#020202"></path>
                    <g>
                        <polygon id="Path" fill="#020202" points="16.7347857 26.5587931 23.3923555 26.5587931 27.8310217 36.4194505 32.269688 26.5587931 38.9272578 26.5587931 27.8310217 48.7453796"></polygon>
                        <ellipse id="Oval" fill="#FFED22" cx="33.4016939" cy="28.7384541" rx="1" ry="1"></ellipse>
                        <ellipse id="Oval" fill="#FFED22" transform="translate(24.418807, 32.851067) rotate(-4.410571) translate(-24.418807, -32.851067) " cx="24.4188071" cy="32.8510666" rx="1" ry="1"></ellipse>
                        <ellipse id="Oval" fill="#FFED22" cx="32.3281141" cy="36.8382031" rx="1" ry="1"></ellipse>
                        <ellipse id="Oval" fill="#FFED22" cx="34.9757622" cy="30.9219805" rx="1" ry="1"></ellipse>
                        <ellipse id="Oval" fill="#FFED22" transform="translate(23.650343, 31.174803) rotate(-4.410571) translate(-23.650343, -31.174803) " cx="23.6503431" cy="31.1748034" rx="1" ry="1"></ellipse>
                        <ellipse id="Oval" fill="#FFED22" cx="22.0726126" cy="32.5570483" rx="1" ry="1"></ellipse>
                        <ellipse id="Oval" fill="#FFED22" cx="27.4950716" cy="40.0151395" rx="1" ry="1"></ellipse>
                        <ellipse id="Oval" fill="#FFFFFF" cx="32.2641031" cy="30.9219805" rx="1" ry="1"></ellipse>
                        <ellipse id="Oval" fill="#FFFFFF" cx="32.7147575" cy="32.847813" rx="1" ry="1"></ellipse>
                        <ellipse id="Oval" fill="#FFFFFF" cx="31.9414707" cy="34.6018495" rx="1" ry="1"></ellipse>
                        <ellipse id="Oval" fill="#FFFFFF" cx="30.3974747" cy="34.6018495" rx="1" ry="1"></ellipse>
                        <ellipse id="Oval" fill="#FFFFFF" cx="28.8938615" cy="37.6520864" rx="1" ry="1"></ellipse>
                        <ellipse id="Oval" fill="#FFFFFF" transform="translate(25.196274, 34.605085) rotate(-4.410571) translate(-25.196274, -34.605085) " cx="25.1962738" cy="34.6050855" rx="1" ry="1"></ellipse>
                        <ellipse id="Oval" fill="#FFFFFF" cx="20.2760096" cy="29.1009435" rx="1" ry="1"></ellipse>
                        <ellipse id="Oval" fill="#FFFFFF" cx="36.2882017" cy="28.0564242" rx="1" ry="1"></ellipse>
                        <ellipse id="Oval" fill="#FFFFFF" cx="34.1668183" cy="32.847813" rx="1" ry="1"></ellipse>
                        <ellipse id="Oval" fill="#FFFFFF" cx="31.2193067" cy="32.847813" rx="1" ry="1"></ellipse>
                        <ellipse id="Oval" fill="#FFFFFF" cx="22.5950108" cy="29.1009435" rx="1" ry="1"></ellipse>
                        <ellipse id="Oval" fill="#FFFFFF" cx="21.9815366" cy="27.5577865" rx="1" ry="1"></ellipse>
                        <ellipse id="Oval" fill="#FFFFFF" cx="23.4473447" cy="35.8774343" rx="1" ry="1"></ellipse>
                        <polygon id="Path" fill="#FFED22" points="25.8329345 28.2161945 38.6119286 4.68143933 43.545928 18.0944072"></polygon>
                        <polygon id="Path" fill="#02A7EA" points="54.3023475 14.8706564 46.3383526 19.583878 42.117925 30.2090273 51.7126959 23.0017582"></polygon>
                        <polygon id="Path" fill="#029C4C" points="9.04272998 29.4917793 15.9473219 25.5640946 11.8261329 21.0639"></polygon>
                        <polygon id="Path" fill="#DE1382" points="26.4614449 0 22.5950108 15.4616345 26.4614449 23.1924517 30.3278789 15.4616345"></polygon>
                        <polygon id="Path" fill="#02A7EA" points="18.5554465 24.9911552 17.6713219 10.8179903 25.429107 24.9911552"></polygon>
                        <polygon id="Path" fill="#DE1382" points="16.5848539 16.7866107 6.10724734 12.7004443 17.313462 24.9911552"></polygon>
                        <polygon id="Path" fill="#029C4C" points="34.6892165 25.2776249 44.5606521 19.8016294 42.4126332 25.2776249"></polygon>
                        <polygon id="Path" fill="#FFED22" points="46.6395048 28.7384541 52.3678416 24.9911552 53.0835615 30.3997208"></polygon>
                        <polygon id="Path" fill="#FFED22" points="9.27428641 6.12581368 13.294089 7.75744561 10.7336505 10.0822741"></polygon>
                        <polygon id="Path" fill="#029C4C" points="48.8420834 7.9610238 46.9531156 11.8659455 44.798223 9.16101843"></polygon>
                        <polygon id="Path" fill="#02A7EA" points="0 24.3327473 5.04612601 23.7086985 3.75301863 27.5487672"></polygon>
                    </g>
                    <path d="M102.258588,34.200706 L99.7080302,36.7505872 C98.6713963,35.7245359 97.7309936,35.2117251 96.8855334,35.2117251 C96.4228501,35.2117251 96.0606941,35.3100782 95.7990654,35.5059256 C95.5374367,35.7022025 95.4068372,35.9461527 95.4068372,36.2377763 C95.4068372,36.4589636 95.4897507,36.6629713 95.6555778,36.8489404 C95.8218344,37.035339 96.2316764,37.2891675 96.8855334,37.6108554 L98.3947315,38.365469 C99.9846951,39.150147 101.076318,39.9498571 101.670031,40.7645993 C102.263314,41.5793415 102.56017,42.5349564 102.56017,43.631444 C102.56017,45.0899915 102.024454,46.3071658 100.953022,47.2829667 C99.8811606,48.2587676 98.4454247,48.7466681 96.6440961,48.7466681 C94.2494846,48.7466681 92.3377478,47.8112392 90.9093152,45.9403814 L93.4448367,43.1791912 C93.9277114,43.7426819 94.4939291,44.1975116 95.1426309,44.5445394 C95.7917622,44.8915672 96.3678608,45.0650811 96.8709269,45.0650811 C97.4143756,45.0650811 97.8517123,44.9345162 98.183796,44.6729569 C98.5158797,44.4113976 98.6821364,44.1098957 98.6821364,43.7675923 C98.6821364,43.1340948 98.0832687,42.5151999 96.885963,41.9117667 L95.4974836,41.2177111 C92.8412434,39.8798502 91.5133381,38.2052693 91.5133381,36.1935389 C91.5133381,34.89605 92.0138265,33.7871073 93.0152329,32.8667105 C94.0162097,31.9463138 95.296429,31.4859007 96.8558907,31.4859007 C97.9221673,31.4859007 98.9257217,31.7199726 99.8669836,32.1872576 C100.807386,32.654113 101.604301,33.3254057 102.258588,34.200706 Z" id="Path" fill="#020202"></path>
                </g>
            </g>
        </g>
    </g>
</svg>