<?xml version="1.0" encoding="UTF-8"?>
<svg width="24px" height="24px" viewBox="0 0 24 24" version="1.1" xmlns="http://www.w3.org/2000/svg" xmlns:xlink="http://www.w3.org/1999/xlink">
    <title>Logo / logo-instagram-color</title>
    <defs>
        <radialGradient cx="26.5626266%" cy="107.702106%" fx="26.5626266%" fy="107.702106%" r="99.107386%" id="radialGradient-1">
            <stop stop-color="#FFDD55" offset="0%"></stop>
            <stop stop-color="#FFDD55" offset="10%"></stop>
            <stop stop-color="#FF543E" offset="50%"></stop>
            <stop stop-color="#C837AB" offset="100%"></stop>
        </radialGradient>
        <radialGradient cx="-16.7505274%" cy="7.20383154%" fx="-16.7505274%" fy="7.20383154%" r="44.3014085%" id="radialGradient-2">
            <stop stop-color="#3771C8" offset="0%"></stop>
            <stop stop-color="#3771C8" offset="12.8%"></stop>
            <stop stop-color="#6600FF" stop-opacity="0" offset="100%"></stop>
        </radialGradient>
    </defs>
    <g id="Design" stroke="none" stroke-width="1" fill="none" fill-rule="evenodd">
        <g id="UI-/-Icon" transform="translate(-392.000000, -829.000000)" fill-rule="nonzero">
            <g id="Logo-/-logo-instagram-color" transform="translate(392.000000, 829.000000)">
                <path d="M12.0039172,0 C6.99402847,0 5.52882706,0.0051696682 5.24401907,0.0288024371 C4.2159047,0.114286593 3.57614807,0.276207987 2.87917144,0.62331428 C2.34204167,0.890106086 1.91842901,1.19936302 1.50035378,1.63287663 C0.738958486,2.4234666 0.277506794,3.39610275 0.110461281,4.55226211 C0.0292457828,5.11354038 0.00561945617,5.2280116 0.000820358565,8.09496188 C-0.00102544821,9.05061197 0.000820358565,10.3083184 0.000820358565,11.9952919 C0.000820358565,17.0024848 0.00635777888,18.4666087 0.0303532669,18.7509405 C0.113414572,19.7516405 0.270308147,20.3812323 0.602553366,21.0699059 C1.2375109,22.3881713 2.45020594,23.3777935 3.87886039,23.7470555 C4.3735366,23.8744509 4.9198954,23.9446107 5.62130198,23.9778443 C5.91847687,23.9907684 8.94744578,24 11.9782605,24 C15.0090752,24 18.0398899,23.9963074 18.3296816,23.9815369 C19.1418366,23.9433183 19.6134402,23.8799898 20.1348806,23.7452092 C21.5727641,23.3741009 22.7633095,22.3992492 23.4111876,21.0625207 C23.7369725,20.3904638 23.9021722,19.73687 23.9769274,18.7884206 C23.9931705,18.5816338 24,15.2846779 24,11.9921532 C24,8.69907454 23.9926168,5.40821146 23.9763737,5.20142474 C23.9006956,4.23765088 23.7354959,3.58959604 23.3991899,2.90461501 C23.1232418,2.34389064 22.8168379,1.92514751 22.3719984,1.49698821 C21.5781169,0.738524029 20.6072226,0.276946511 19.4502709,0.11004008 C18.8896994,0.0289870681 18.7780281,0.0049850372 15.9096443,0 L12.0039172,0 Z" id="Path" fill="url(#radialGradient-1)"></path>
                <path d="M12.0039172,0 C6.99402847,0 5.52882706,0.0051696682 5.24401907,0.0288024371 C4.2159047,0.114286593 3.57614807,0.276207987 2.87917144,0.62331428 C2.34204167,0.890106086 1.91842901,1.19936302 1.50035378,1.63287663 C0.738958486,2.4234666 0.277506794,3.39610275 0.110461281,4.55226211 C0.0292457828,5.11354038 0.00561945617,5.2280116 0.000820358565,8.09496188 C-0.00102544821,9.05061197 0.000820358565,10.3083184 0.000820358565,11.9952919 C0.000820358565,17.0024848 0.00635777888,18.4666087 0.0303532669,18.7509405 C0.113414572,19.7516405 0.270308147,20.3812323 0.602553366,21.0699059 C1.2375109,22.3881713 2.45020594,23.3777935 3.87886039,23.7470555 C4.3735366,23.8744509 4.9198954,23.9446107 5.62130198,23.9778443 C5.91847687,23.9907684 8.94744578,24 11.9782605,24 C15.0090752,24 18.0398899,23.9963074 18.3296816,23.9815369 C19.1418366,23.9433183 19.6134402,23.8799898 20.1348806,23.7452092 C21.5727641,23.3741009 22.7633095,22.3992492 23.4111876,21.0625207 C23.7369725,20.3904638 23.9021722,19.73687 23.9769274,18.7884206 C23.9931705,18.5816338 24,15.2846779 24,11.9921532 C24,8.69907454 23.9926168,5.40821146 23.9763737,5.20142474 C23.9006956,4.23765088 23.7354959,3.58959604 23.3991899,2.90461501 C23.1232418,2.34389064 22.8168379,1.92514751 22.3719984,1.49698821 C21.5781169,0.738524029 20.6072226,0.276946511 19.4502709,0.11004008 C18.8896994,0.0289870681 18.7780281,0.0049850372 15.9096443,0 L12.0039172,0 Z" id="Path" fill="url(#radialGradient-2)"></path>
                <path d="M11.9983798,3.13872712 C9.59218608,3.13872712 9.2902121,3.14925109 8.34515903,3.19227012 C7.40195177,3.23547377 6.75813437,3.38484026 6.19479414,3.60399726 C5.61207294,3.83035488 5.11776589,4.13314973 4.62530464,4.62592989 C4.13247424,5.11852541 3.82976193,5.61296725 3.60272769,6.19566271 C3.38307669,6.75934118 3.23356634,7.40351876 3.19111278,8.34661394 C3.14884381,9.2919247 3.13776897,9.59416566 3.13776897,12.0010155 C3.13776897,14.4078653 3.14847465,14.7089985 3.19129736,15.6543092 C3.23467382,16.5977737 3.38399959,17.2417666 3.60291227,17.8052604 C3.82939276,18.3881405 4.13210507,18.8825824 4.6247509,19.3751779 C5.11702757,19.8681427 5.61133462,20.1716761 6.19368666,20.3980337 C6.75739605,20.6171907 7.40139803,20.7665572 8.34442071,20.8097608 C9.28947377,20.8527799 9.59126318,20.8633038 11.9972723,20.8633038 C14.4036506,20.8633038 14.7047017,20.8527799 15.6497547,20.8097608 C16.592962,20.7665572 17.2375177,20.6171907 17.8012271,20.3980337 C18.3837637,20.1716761 18.8773325,19.8681427 19.3696091,19.3751779 C19.8624395,18.8825824 20.1651519,18.3881405 20.3921861,17.8054451 C20.6099913,17.2417666 20.7595016,16.597589 20.803801,15.6544938 C20.8462546,14.7091831 20.8573294,14.4078653 20.8573294,12.0010155 C20.8573294,9.59416566 20.8462546,9.29210933 20.803801,8.34679858 C20.7595016,7.40333413 20.6099913,6.75934118 20.3921861,6.19584734 C20.1651519,5.61296725 19.8624395,5.11852541 19.3696091,4.62592989 C18.8767787,4.1329651 18.3839483,3.83017025 17.8006734,3.60399726 C17.2358565,3.38484026 16.5916699,3.23547377 15.6484627,3.19227012 C14.7034096,3.14925109 14.4025431,3.13872712 11.9956111,3.13872712 L11.9983798,3.13872712 Z M11.2035754,4.73578534 C11.4394695,4.73541607 11.7026815,4.73578534 11.9983798,4.73578534 C14.3639658,4.73578534 14.6443438,4.74427836 15.5785066,4.78674349 C16.4423442,4.82625453 16.9111791,4.97063598 17.2234896,5.09193855 C17.6369503,5.25256752 17.9317257,5.44458377 18.2416366,5.75476386 C18.5517322,6.06494396 18.7436961,6.36035357 18.9046504,6.77392702 C19.0259199,7.08595343 19.1704466,7.55491619 19.2097623,8.4189893 C19.2522158,9.3532222 19.2614449,9.63386133 19.2614449,11.9989845 C19.2614449,14.3641077 19.2522158,14.6447469 19.2097623,15.5789798 C19.170262,16.4430529 19.0259199,16.9120156 18.9046504,17.224042 C18.7440652,17.6376155 18.5517322,17.9321019 18.2416366,18.2420974 C17.9315411,18.5522775 17.6371349,18.7442937 17.2234896,18.9049227 C16.9115483,19.0267792 16.4423442,19.1707914 15.5785066,19.2103024 C14.6445284,19.2527675 14.3639658,19.2619991 11.9983798,19.2619991 C9.63260925,19.2619991 9.3522312,19.2527675 8.41825298,19.2103024 C7.55441541,19.1704221 7.08558049,19.0260407 6.7730854,18.9047381 C6.35962469,18.7441091 6.0642956,18.5520929 5.75420006,18.2419128 C5.44410453,17.9317327 5.25214062,17.6370616 5.09118627,17.2233035 C4.96991677,16.9112771 4.8253901,16.4423143 4.78607441,15.5782412 C4.74362086,14.6440083 4.73513015,14.3633692 4.73513015,11.996769 C4.73513015,9.63016871 4.74362086,9.35100662 4.78607441,8.41677373 C4.82557468,7.55270061 4.96991677,7.08373785 5.09118627,6.77134219 C5.25177146,6.35776873 5.44410453,6.06235912 5.75420006,5.75217903 C6.0642956,5.44199894 6.35962469,5.24998269 6.7730854,5.08898445 C7.08539591,4.96712799 7.55441541,4.8231158 8.41825298,4.78342014 C9.23557622,4.74649393 9.55231666,4.73541607 11.2035754,4.73356976 L11.2035754,4.73578534 Z M16.7277059,6.20729446 C16.1407393,6.20729446 15.6645212,6.68308857 15.6645212,7.2703998 C15.6645212,7.85752641 16.1407393,8.3338744 16.7277059,8.3338744 C17.3146725,8.3338744 17.7908906,7.85752641 17.7908906,7.2703998 C17.7908906,6.6832732 17.3146725,6.2069252 16.7277059,6.2069252 L16.7277059,6.20729446 Z M11.9983798,7.44986114 C9.48568303,7.44986114 7.4484661,9.48763357 7.4484661,12.0010155 C7.4484661,14.5143974 9.48568303,16.5512466 11.9983798,16.5512466 C14.5110765,16.5512466 16.5475552,14.5143974 16.5475552,12.0010155 C16.5475552,9.48763357 14.510892,7.44986114 11.9981952,7.44986114 L11.9983798,7.44986114 Z M11.9983798,9.04691935 C13.6293347,9.04691935 14.9516706,10.3694313 14.9516706,12.0010155 C14.9516706,13.6324151 13.6293347,14.9551116 11.9983798,14.9551116 C10.3672403,14.9551116 9.04508896,13.6324151 9.04508896,12.0010155 C9.04508896,10.3694313 10.3672403,9.04691935 11.9983798,9.04691935 Z" id="Shape" fill="#FFFFFF"></path>
            </g>
        </g>
    </g>
</svg>