<?xml version="1.0" encoding="UTF-8"?>
<svg width="276px" height="32px" viewBox="0 0 276 32" version="1.1" xmlns="http://www.w3.org/2000/svg" xmlns:xlink="http://www.w3.org/1999/xlink">
    <title>logo-paiement</title>
    <defs>
        <linearGradient x1="50%" y1="0%" x2="50%" y2="99.9880427%" id="linearGradient-1">
            <stop stop-color="#283A7E" offset="0%"></stop>
            <stop stop-color="#4790CE" offset="25.8575841%"></stop>
            <stop stop-color="#4790CE" offset="74.2993958%"></stop>
            <stop stop-color="#337557" offset="99.998007%"></stop>
        </linearGradient>
        <polygon id="path-2" points="0 -4.4408921e-17 36.8654863 -4.4408921e-17 36.8654863 15.6892632 0 15.6892632"></polygon>
        <path d="M11.8596626,0.00841043059 C14.8050137,4.10534143 14.2931345,9.75960383 10.427539,13.4486289 C9.60405012,14.2357051 8.69092013,14.7921952 7.71945226,15.270188 L2.52987164,15.270188 C1.04510164,15.270188 0.00889296837,14.0142304 0.00889296837,12.7169215 L0,2.79401513 C0,1.0358847 1.13616564,0 2.56437636,0 L11.8596626,0.00841043059" id="path-4"></path>
    </defs>
    <g id="Design" stroke="none" stroke-width="1" fill="none" fill-rule="evenodd">
        <g id="TL---4-/-Paiement" transform="translate(-498.000000, -290.000000)">
            <g id="Group-Copy-3" transform="translate(144.000000, 209.000000)">
                <g id="Group-20" transform="translate(32.000000, 81.000000)">
                    <g id="logo-paiement" transform="translate(322.000000, 0.000000)">
                        <g id="Group" fill-rule="nonzero">
                            <rect id="bg" fill="#16366F" x="0" y="0" width="48" height="32" rx="3"></rect>
                            <g id="logo" transform="translate(8.837581, 4.130613)">
                                <polygon id="Fill-2" fill="#FF5F00" points="11.1678317 16.8987861 19.4461397 16.8987861 19.4461397 2.02253518 11.1678317 2.02253518"></polygon>
                                <path d="M11.6934385,9.46092342 C11.6934385,6.44288886 13.1065326,3.75493538 15.3069857,2.02253518 C13.6978403,0.75582266 11.6671582,0 9.46013499,0 C4.23534003,0 0,4.23560286 0,9.46092342 C0,14.6859812 4.23534003,18.921584 9.46013499,18.921584 C11.6671582,18.921584 13.6978403,18.1657614 15.3069857,16.8990489 C13.1065326,15.1666487 11.6934385,12.4786952 11.6934385,9.46092342" id="Fill-3" fill="#EB001B"></path>
                                <path d="M30.3185803,15.3232795 L30.3185803,14.9561431 L30.222657,14.9561431 L30.1125424,15.2086972 L30.0021649,14.9561431 L29.9062417,14.9561431 L29.9062417,15.3232795 L29.974045,15.3232795 L29.974045,15.0462847 L30.0773267,15.285173 L30.1474953,15.285173 L30.2510398,15.0457591 L30.2510398,15.3232795 L30.3185803,15.3232795 Z M29.7115044,15.3232795 L29.7115044,15.0186903 L29.8342336,15.0186903 L29.8342336,14.9566687 L29.5214975,14.9566687 L29.5214975,15.0186903 L29.6442267,15.0186903 L29.6442267,15.3232795 L29.7115044,15.3232795 L29.7115044,15.3232795 Z" id="Fill-4" fill="#F79E1B"></path>
                                <path d="M30.6139713,9.46092342 C30.6139713,14.6859812 26.3786313,18.921584 21.1538363,18.921584 C18.9468131,18.921584 16.9161311,18.1657614 15.3069857,16.8990489 C17.5074388,15.1666487 18.9205328,12.4786952 18.9205328,9.46092342 C18.9205328,6.44288886 17.5074388,3.75493538 15.3069857,2.02253518 C16.9161311,0.75582266 18.9468131,0 21.1538363,0 C26.3786313,0 30.6139713,4.23560286 30.6139713,9.46092342" id="Fill-5" fill="#F79E1B"></path>
                            </g>
                            <g id="text" transform="translate(10.795076, 24.400000)">
                                <path d="M3.92145943,3.45725741 L3.92145943,1.9092317 C3.92145943,1.31582185 3.56263308,0.928815424 2.94750219,0.928815424 C2.63993674,0.928815424 2.30674084,1.03201714 2.07606676,1.36742271 C1.89665358,1.083618 1.64034904,0.928815424 1.25589224,0.928815424 C0.9995877,0.928815424 0.74328316,1.00621671 0.538239528,1.29002142 L0.538239528,0.98041628 L0,0.98041628 L0,3.45725741 L0.538239528,3.45725741 L0.538239528,2.0898347 C0.538239528,1.65122742 0.768913616,1.44482399 1.12773997,1.44482399 C1.48656632,1.44482399 1.6659795,1.67702785 1.6659795,2.0898347 L1.6659795,3.45725741 L2.20421903,3.45725741 L2.20421903,2.0898347 C2.20421903,1.65122742 2.46052357,1.44482399 2.79371946,1.44482399 C3.15254582,1.44482399 3.331959,1.67702785 3.331959,2.0898347 L3.331959,3.45725741 L3.92145943,3.45725741 Z M11.8925306,0.980581284 L11.0210951,0.980581284 L11.0210951,0.232203856 L10.4828556,0.232203856 L10.4828556,0.980581284 L9.99587699,0.980581284 L9.99587699,1.47089753 L10.4828556,1.47089753 L10.4828556,2.60636674 C10.4828556,3.17410134 10.7135297,3.50958088 11.3286606,3.50958088 C11.5593347,3.50958088 11.8156392,3.43216252 11.9950524,3.32893805 L11.8412697,2.86442792 C11.6874869,2.96765239 11.5080737,2.99345851 11.3799215,2.99345851 C11.1236169,2.99345851 11.0210951,2.8386218 11.0210951,2.58056062 L11.0210951,1.47089753 L11.8925306,1.47089753 L11.8925306,0.980581284 Z M16.4547513,0.928815424 C16.1471859,0.928815424 15.9421423,1.083618 15.81399,1.29002142 L15.81399,0.98041628 L15.2757505,0.98041628 L15.2757505,3.45725741 L15.81399,3.45725741 L15.81399,2.06403428 C15.81399,1.65122742 15.9934032,1.41902356 16.3265991,1.41902356 C16.4291209,1.41902356 16.5572731,1.44482399 16.659795,1.47062442 L16.8135777,0.954615852 C16.7110559,0.928815424 16.5572731,0.928815424 16.4547513,0.928815424 L16.4547513,0.928815424 Z M9.56015927,1.18681971 C9.30385475,1.00621671 8.94502839,0.928815424 8.56057159,0.928815424 C7.94544067,0.928815424 7.53535343,1.23842056 7.53535343,1.7286287 C7.53535343,2.14143556 7.84291887,2.37363942 8.38115839,2.4510407 L8.63746295,2.47684113 C8.91939795,2.52844199 9.07318067,2.60584327 9.07318067,2.73484542 C9.07318067,2.91544841 8.86813703,3.04445056 8.50931067,3.04445056 C8.15048431,3.04445056 7.86854931,2.91544841 7.68913615,2.78644627 L7.43283159,3.19925313 C7.71476659,3.40565655 8.09922339,3.50885827 8.48368023,3.50885827 C9.20133291,3.50885827 9.61142019,3.1734527 9.61142019,2.70904498 C9.61142019,2.2704377 9.27822427,2.03823385 8.76561519,1.96083256 L8.50931067,1.93503213 C8.27863659,1.9092317 8.09922339,1.85763085 8.09922339,1.70282828 C8.09922339,1.52222528 8.27863659,1.41902356 8.56057159,1.41902356 C8.86813703,1.41902356 9.17570247,1.54802571 9.32948519,1.62542699 L9.56015927,1.18681971 Z M23.8619525,0.928815424 C23.5543871,0.928815424 23.3493434,1.083618 23.2211911,1.29002142 L23.2211911,0.98041628 L22.6829516,0.98041628 L22.6829516,3.45725741 L23.2211911,3.45725741 L23.2211911,2.06403428 C23.2211911,1.65122742 23.4006043,1.41902356 23.7338002,1.41902356 C23.8363221,1.41902356 23.9644743,1.44482399 24.0669961,1.47062442 L24.2207789,0.954615852 C24.118257,0.928815424 23.9644743,0.928815424 23.8619525,0.928815424 L23.8619525,0.928815424 Z M16.9929909,2.21883684 C16.9929909,2.96704927 17.5055999,3.50885827 18.300144,3.50885827 C18.6589704,3.50885827 18.9152749,3.43145698 19.1715795,3.22505356 L18.9152749,2.78644627 C18.7102313,2.94124884 18.5051877,3.01865013 18.2745136,3.01865013 C17.8387959,3.01865013 17.5312304,2.70904498 17.5312304,2.21883684 C17.5312304,1.75442913 17.8387959,1.44482399 18.2745136,1.41902356 C18.5051877,1.41902356 18.7102313,1.49642485 18.9152749,1.65122742 L19.1715795,1.21262014 C18.9152749,1.00621671 18.6589704,0.928815424 18.300144,0.928815424 C17.5055999,0.928815424 16.9929909,1.47062442 16.9929909,2.21883684 L16.9929909,2.21883684 Z M21.9652989,2.21883684 L21.9652989,0.98041628 L21.4270594,0.98041628 L21.4270594,1.29002142 C21.2476462,1.05781756 20.9913417,0.928815424 20.6581458,0.928815424 C19.9661235,0.928815424 19.427884,1.47062442 19.427884,2.21883684 C19.427884,2.96704927 19.9661235,3.50885827 20.6581458,3.50885827 C21.0169721,3.50885827 21.2732767,3.37985612 21.4270594,3.14765227 L21.4270594,3.45725741 L21.9652989,3.45725741 L21.9652989,2.21883684 Z M19.991754,2.21883684 C19.991754,1.78022956 20.273689,1.41902356 20.7350371,1.41902356 C21.1707549,1.41902356 21.4783203,1.75442913 21.4783203,2.21883684 C21.4783203,2.65744413 21.1707549,3.01865013 20.7350371,3.01865013 C20.273689,2.9928497 19.991754,2.65744413 19.991754,2.21883684 L19.991754,2.21883684 Z M13.5585101,0.928815424 C12.8408573,0.928815424 12.3282483,1.44482399 12.3282483,2.21883684 C12.3282483,2.9928497 12.8408573,3.50885827 13.5841405,3.50885827 C13.9429669,3.50885827 14.3017932,3.40565655 14.5837282,3.1734527 L14.3274237,2.78644627 C14.1223801,2.94124884 13.8660755,3.04445056 13.609771,3.04445056 C13.2765751,3.04445056 12.9433792,2.88964798 12.8664878,2.4510407 L14.68625,2.4510407 L14.68625,2.24463728 C14.7118805,1.44482399 14.2505323,0.928815424 13.5585101,0.928815424 L13.5585101,0.928815424 Z M13.5585101,1.39322314 C13.891706,1.39322314 14.1223801,1.59962656 14.1736409,1.98663299 L12.8921183,1.98663299 C12.9433792,1.65122742 13.1740533,1.39322314 13.5585101,1.39322314 L13.5585101,1.39322314 Z M26.9119765,2.21883684 L26.9119765,0 L26.373737,0 L26.373737,1.29002142 C26.1943238,1.05781756 25.9380193,0.928815424 25.6048233,0.928815424 C24.9128011,0.928815424 24.3745616,1.47062442 24.3745616,2.21883684 C24.3745616,2.96704927 24.9128011,3.50885827 25.6048233,3.50885827 C25.9636497,3.50885827 26.2199543,3.37985612 26.373737,3.14765227 L26.373737,3.45725741 L26.9119765,3.45725741 L26.9119765,2.21883684 Z M24.9384315,2.21883684 C24.9384315,1.78022956 25.2203665,1.41902356 25.6817147,1.41902356 C26.1174324,1.41902356 26.4249979,1.75442913 26.4249979,2.21883684 C26.4249979,2.65744413 26.1174324,3.01865013 25.6817147,3.01865013 C25.2203665,2.9928497 24.9384315,2.65744413 24.9384315,2.21883684 L24.9384315,2.21883684 Z M6.94585299,2.21883684 L6.94585299,0.98041628 L6.40761347,0.98041628 L6.40761347,1.29002142 C6.22820027,1.05781756 5.97189575,0.928815424 5.63869983,0.928815424 C4.94667759,0.928815424 4.40843807,1.47062442 4.40843807,2.21883684 C4.40843807,2.96704927 4.94667759,3.50885827 5.63869983,3.50885827 C5.99752619,3.50885827 6.25383075,3.37985612 6.40761347,3.14765227 L6.40761347,3.45725741 L6.94585299,3.45725741 L6.94585299,2.21883684 Z M4.94667759,2.21883684 C4.94667759,1.78022956 5.22861259,1.41902356 5.68996075,1.41902356 C6.12567847,1.41902356 6.43324391,1.75442913 6.43324391,2.21883684 C6.43324391,2.65744413 6.12567847,3.01865013 5.68996075,3.01865013 C5.22861259,2.9928497 4.94667759,2.65744413 4.94667759,2.21883684 Z" id="XMLID_1775_" fill="#FFFFFF"></path>
                                <path d="M27.6773931,3.34543165 L27.6773931,3.3940687 L27.7214019,3.3940687 C27.7315421,3.3940687 27.7394515,3.39199904 27.7455357,3.38806668 C27.7514171,3.38413432 27.7544591,3.37792534 27.7544591,3.36943972 C27.7544591,3.36157501 27.7514171,3.355573 27.7455357,3.35143367 C27.7394515,3.34750132 27.7315421,3.34543165 27.7214019,3.34543165 L27.6773931,3.34543165 Z M27.7218075,3.31128224 C27.7449273,3.31128224 27.7625713,3.3164564 27.7749425,3.3268047 C27.7875164,3.33735998 27.7936006,3.35143367 27.7936006,3.36943972 C27.7936006,3.38454825 27.7887333,3.39717319 27.7787958,3.4069006 C27.7688583,3.416628 27.7548647,3.42263002 27.7364095,3.42490665 L27.7950202,3.49382637 L27.7491862,3.49382637 L27.6950371,3.42552755 L27.6773931,3.42552755 L27.6773931,3.49382637 L27.6392656,3.49382637 L27.6392656,3.31128224 L27.7218075,3.31128224 Z M27.7104503,3.55653711 C27.7313393,3.55653711 27.7506058,3.55260476 27.7686555,3.54453308 C27.7867052,3.5364614 27.8023212,3.52549219 27.8159092,3.51183243 C27.8294972,3.4979657 27.8400431,3.48161537 27.8477497,3.46298842 C27.8554563,3.44436147 27.8593096,3.42449272 27.8593096,3.4031752 C27.8593096,3.38206466 27.8554563,3.36219591 27.8477497,3.34356896 C27.8400431,3.32494201 27.8294972,3.30859168 27.8159092,3.29472495 C27.8023212,3.28106518 27.7867052,3.27030295 27.7686555,3.26223127 C27.7506058,3.25436656 27.7313393,3.2504342 27.7104503,3.2504342 C27.6893586,3.2504342 27.6696865,3.25436656 27.6512311,3.26223127 C27.6327759,3.27030295 27.616957,3.28106518 27.6033691,3.29472495 C27.5897811,3.30859168 27.5792352,3.32494201 27.5715286,3.34356896 C27.563822,3.36219591 27.5599687,3.38206466 27.5599687,3.4031752 C27.5599687,3.42449272 27.563822,3.44436147 27.5715286,3.46298842 C27.5792352,3.48161537 27.5897811,3.4979657 27.6033691,3.51183243 C27.616957,3.52549219 27.6327759,3.5364614 27.6512311,3.54453308 C27.6696865,3.55260476 27.6893586,3.55653711 27.7104503,3.55653711 Z M27.7104503,3.20655738 C27.7376263,3.20655738 27.762977,3.21173153 27.786908,3.22207984 C27.8106363,3.23242814 27.8313224,3.24629488 27.8491693,3.26430093 C27.8668134,3.28210002 27.8810097,3.3030036 27.89115,3.3268047 C27.9012903,3.35081277 27.9065633,3.37626961 27.9065633,3.4031752 C27.9065633,3.43028777 27.9012903,3.4557446 27.89115,3.47954571 C27.8810097,3.50313985 27.8668134,3.52404343 27.8491693,3.54184252 C27.8313224,3.5596416 27.8106363,3.5737153 27.786908,3.58427057 C27.762977,3.59461888 27.7376263,3.6 27.7104503,3.6 C27.6828688,3.6 27.6569097,3.59461888 27.6327759,3.58427057 C27.6088448,3.5737153 27.5879559,3.5596416 27.5703118,3.54184252 C27.5526677,3.52404343 27.5386741,3.50313985 27.5285338,3.47954571 C27.5181907,3.4557446 27.5131206,3.43028777 27.5131206,3.4031752 C27.5131206,3.37626961 27.5181907,3.35081277 27.5285338,3.3268047 C27.5386741,3.3030036 27.5526677,3.28210002 27.5703118,3.26430093 C27.5879559,3.24629488 27.6088448,3.23242814 27.6327759,3.22207984 C27.6569097,3.21173153 27.6828688,3.20655738 27.7104503,3.20655738 Z" id="Fill-1" fill="#000000"></path>
                            </g>
                        </g>
                        <g id="Group" transform="translate(170.000000, 0.000000)" fill-rule="nonzero">
                            <path d="M2.56410256,0 L47.4358974,0 C48.8520513,0 50,1.146176 50,2.56 L50,29.44 C50,30.853888 48.8520513,32 47.4358974,32 L2.56410256,32 C1.14801282,32 0,30.853888 0,29.44 L0,2.56 C0,1.146176 1.14801282,0 2.56410256,0 Z" id="Path" fill="#2557D6"></path>
                            <path d="M0.0158974359,15.084096 L2.41628205,15.084096 L2.9574359,13.835456 L4.16897436,13.835456 L4.70871795,15.084096 L9.43102564,15.084096 L9.43102564,14.129536 L9.8525641,15.088256 L12.3040385,15.088256 L12.7255769,14.115328 L12.7255769,15.08416 L24.4614744,15.08416 L24.4560256,13.034496 L24.6830769,13.034496 C24.8419872,13.039808 24.8884615,13.053824 24.8884615,13.30496 L24.8884615,15.08416 L30.9582692,15.08416 L30.9582692,14.60704 C31.4479487,14.85792 32.2094231,15.08416 33.2113462,15.08416 L35.7649359,15.08416 L36.3114103,13.83552 L37.5229487,13.83552 L38.0573718,15.08416 L42.9782051,15.08416 L42.9782051,13.898112 L43.7234615,15.08416 L47.6667308,15.08416 L47.6667308,7.24352 L43.7641667,7.24352 L43.7641667,8.169472 L43.2178846,7.24352 L39.2133333,7.24352 L39.2133333,8.169472 L38.7115385,7.24352 L33.3025641,7.24352 C32.3972436,7.24352 31.6013462,7.364416 30.9583974,7.701312 L30.9583974,7.24352 L27.2257692,7.24352 L27.2257692,7.701312 C26.8166026,7.354048 26.2591667,7.24352 25.6392308,7.24352 L12.0020513,7.24352 L11.0870513,9.268544 L10.1473718,7.24352 L5.85217949,7.24352 L5.85217949,8.169472 L5.38025641,7.24352 L1.71711538,7.24352 L0.0158974359,10.971264 L0.0158974359,15.083968 L0.0158974359,15.083968 L0.0158974359,15.084096 Z M15.1662179,13.953216 L13.7262179,13.953216 L13.7208974,9.5504 L11.6840385,13.953152 L10.4507051,13.953152 L8.40852564,9.546496 L8.40852564,13.953152 L5.55147436,13.953152 L5.01173077,12.699264 L2.08692308,12.699264 L1.54173077,13.953152 L0.016025641,13.953152 L2.53147436,8.331584 L4.61858974,8.331584 L7.00762821,13.65408 L7.00762821,8.331584 L9.30032051,8.331584 L11.1386538,12.145152 L12.8273718,8.331584 L15.1662179,8.331584 L15.1662179,13.953216 L15.1662179,13.953216 Z M4.53160256,11.532544 L3.57019231,9.291456 L2.61410256,11.532544 L4.53160256,11.532544 Z M20.8969872,13.953088 L16.2044872,13.953088 L16.2044872,8.33152 L20.8969872,8.33152 L20.8969872,9.502144 L17.6092308,9.502144 L17.6092308,10.515456 L20.8182051,10.515456 L20.8182051,11.667776 L17.6091667,11.667776 L17.6091667,12.790464 L20.8969231,12.790464 L20.8969872,13.953088 Z M27.5098077,9.845568 C27.5098077,10.741824 26.8844872,11.204928 26.5201282,11.343936 C26.8274359,11.455808 27.0900641,11.653568 27.215,11.817344 C27.4133333,12.09696 27.4475641,12.346688 27.4475641,12.848768 L27.4475641,13.953088 L26.030641,13.953088 L26.0253205,13.24416 C26.0253205,12.90592 26.0591667,12.419456 25.8036538,12.148992 C25.5983974,11.951232 25.2855128,11.908352 24.7797436,11.908352 L23.271859,11.908352 L23.271859,13.953152 L21.8671154,13.953152 L21.8671154,8.33152 L25.0979487,8.33152 C25.8158333,8.33152 26.3448077,8.349632 26.7989103,8.600768 C27.2433333,8.851904 27.5098077,9.218496 27.5098077,9.845568 L27.5098077,9.845568 Z M25.7342308,10.680256 C25.5410897,10.792384 25.3128846,10.796096 25.0392949,10.796096 L23.3328846,10.796096 L23.3328846,9.547456 L25.0625,9.547456 C25.3072436,9.547456 25.5627564,9.557952 25.7287179,9.648832 C25.9108974,9.730752 26.0236538,9.905024 26.0236538,10.145792 C26.0236538,10.391552 25.9163462,10.589248 25.7342308,10.680256 L25.7342308,10.680256 Z M29.7626923,13.953088 L28.3294872,13.953088 L28.3294872,8.33152 L29.7626923,8.33152 L29.7626923,13.953088 Z M46.4011538,13.953088 L44.4105769,13.953088 L41.7480769,9.73376 L41.7480769,13.953088 L38.8873077,13.953088 L38.3407051,12.6992 L35.4226923,12.6992 L34.8925,13.953088 L33.2483974,13.953088 C32.5657692,13.953088 31.7010897,13.80864 31.2116667,13.331328 C30.7180128,12.854016 30.4611538,12.207488 30.4611538,11.185216 C30.4611538,10.351488 30.6146795,9.589312 31.2183333,8.987008 C31.6725,8.538368 32.3837179,8.33152 33.3516667,8.33152 L34.7116026,8.33152 L34.7116026,9.536064 L33.3801282,9.536064 C32.8675,9.536064 32.5779487,9.609024 32.2992308,9.869056 C32.0598077,10.105792 31.8955128,10.553216 31.8955128,11.142464 C31.8955128,11.744704 32.0205769,12.179008 32.2816026,12.462656 C32.4978205,12.68512 32.8909615,12.752576 33.2605769,12.752576 L33.8914744,12.752576 L35.8712179,8.331712 L37.9760256,8.331712 L40.354359,13.648896 L40.354359,8.331776 L42.4932051,8.331776 L44.9623718,12.246912 L44.9623718,8.331776 L46.4011538,8.331776 L46.4011538,13.953088 L46.4011538,13.953088 Z M37.8626923,11.532608 L36.8905769,9.29152 L35.9238462,11.532608 L37.8626923,11.532608 Z M49.980641,22.929728 C49.6394872,23.406976 48.9746154,23.64896 48.0744872,23.64896 L45.3617308,23.64896 L45.3617308,22.4432 L48.0634615,22.4432 C48.3314744,22.4432 48.5189744,22.409472 48.6319231,22.304 C48.7386538,22.209664 48.7989103,22.076544 48.7980128,21.937344 C48.7980128,21.77344 48.7298077,21.643392 48.6264103,21.56544 C48.5244872,21.479552 48.3761538,21.44064 48.1314103,21.44064 C46.8125641,21.39776 45.1670513,21.479552 45.1670513,19.700224 C45.1670513,18.884736 45.7082692,18.02624 47.1823718,18.02624 L49.980641,18.02624 L49.980641,16.90752 L47.3805769,16.90752 C46.5961538,16.90752 46.0261538,17.087424 45.6225641,17.36672 L45.6225641,16.90752 L41.7773718,16.90752 C41.1623077,16.90752 40.4405769,17.053376 40.0992308,17.36672 L40.0992308,16.90752 L33.2325641,16.90752 L33.2325641,17.36672 C32.6861538,16.989632 31.7641026,16.90752 31.3383974,16.90752 L26.8091667,16.90752 L26.8091667,17.36672 C26.3767949,16.966208 25.4154487,16.90752 24.8292949,16.90752 L19.7602564,16.90752 L18.6003846,18.108416 L17.5139103,16.90752 L9.94147436,16.90752 L9.94147436,24.75328 L17.3709615,24.75328 L18.5662179,23.533312 L19.6921795,24.75328 L24.2717949,24.757184 L24.2717949,22.911552 L24.721859,22.911552 C25.3294872,22.920512 26.0462179,22.89696 26.6784615,22.635584 L26.6784615,24.753024 L30.4558974,24.753024 L30.4558974,22.708096 L30.6380769,22.708096 C30.870641,22.708096 30.8935256,22.717312 30.8935256,22.939456 L30.8935256,24.752768 L42.3685256,24.752768 C43.0969872,24.752768 43.8585256,24.574464 44.2803205,24.250688 L44.2803205,24.752768 L47.9200641,24.752768 C48.6774359,24.752768 49.4171154,24.6512 49.9799359,24.391232 L49.9800641,22.929472 L49.980641,22.929728 Z M27.2280769,19.911808 C27.2280769,21.473792 26.0098077,21.796288 24.7819872,21.796288 L23.0292308,21.796288 L23.0292308,23.682304 L20.2990385,23.682304 L18.5692949,21.8208 L16.7717308,23.682304 L11.2075,23.682304 L11.2075,18.059328 L16.8571795,18.059328 L18.5854487,19.902464 L20.3723077,18.059328 L24.8608333,18.059328 C25.9755128,18.059328 27.2280769,18.35456 27.2280769,19.911808 L27.2280769,19.911808 Z M16.0601282,22.499584 L12.6064103,22.499584 L12.6064103,21.380864 L15.6903846,21.380864 L15.6903846,20.2336 L12.6064103,20.2336 L12.6064103,19.211264 L16.128141,19.211264 L17.6646154,20.84992 L16.0601282,22.499584 Z M21.6248718,23.143424 L19.4682051,20.852928 L21.6248718,18.635328 L21.6248718,23.143424 L21.6248718,23.143424 Z M24.8144231,20.6432 L22.9991667,20.6432 L22.9991667,19.211264 L24.8307051,19.211264 C25.3378846,19.211264 25.6899359,19.409024 25.6899359,19.900672 C25.6899359,20.387008 25.3541667,20.6432 24.8144231,20.6432 L24.8144231,20.6432 Z M34.3246795,18.059328 L39.0130128,18.059328 L39.0130128,19.222208 L35.7235897,19.222208 L35.7235897,20.24448 L38.9326923,20.24448 L38.9326923,21.391744 L35.7235897,21.391744 L35.7235897,22.510464 L39.0129487,22.515584 L39.0129487,23.682304 L34.3245513,23.682304 L34.3246795,18.059328 L34.3246795,18.059328 Z M32.5221795,21.069184 C32.8348718,21.179584 33.0904487,21.377408 33.2102564,21.541184 C33.4086538,21.815808 33.4373077,22.072 33.4430128,22.567552 L33.4430128,23.682304 L32.0326282,23.682304 L32.0326282,22.978816 C32.0326282,22.640512 32.0666667,22.139648 31.8055769,21.878144 C31.6003846,21.676736 31.2874359,21.628608 30.7750641,21.628608 L29.2737821,21.628608 L29.2737821,23.682368 L27.8622436,23.682368 L27.8622436,18.059392 L31.1054487,18.059392 C31.8165385,18.059392 32.3344872,18.089472 32.7955769,18.324736 C33.2388462,18.580992 33.5177564,18.931904 33.5177564,19.57344 C33.5176923,20.470848 32.891859,20.928832 32.5221795,21.069184 L32.5221795,21.069184 Z M31.7282692,20.358336 C31.5403205,20.465024 31.3080128,20.47424 31.0348077,20.47424 L29.3282692,20.47424 L29.3282692,19.211392 L31.0578846,19.211392 C31.3080128,19.211392 31.5583333,19.216512 31.7282692,19.31296 C31.9103205,19.404032 32.0191667,19.578304 32.0191667,19.818752 C32.0191667,20.059264 31.9102564,20.253056 31.7282692,20.358336 L31.7282692,20.358336 Z M44.4090385,20.716544 C44.6827564,20.9872 44.8291667,21.329088 44.8291667,21.907776 C44.8291667,23.117376 44.0392949,23.682048 42.6224359,23.682048 L39.8865385,23.682048 L39.8865385,22.476288 L42.6115385,22.476288 C42.8780128,22.476288 43.0669231,22.442688 43.1852564,22.337088 C43.2819231,22.250176 43.3512179,22.123776 43.3512179,21.970432 C43.3512179,21.806528 43.2762179,21.676544 43.1797436,21.598528 C43.0723718,21.512768 42.9242308,21.473792 42.6795513,21.473792 C41.3658974,21.430912 39.7207692,21.512768 39.7207692,19.733504 C39.7207692,18.917888 40.2563462,18.059392 41.7291026,18.059392 L44.5452564,18.059392 L44.5452564,19.256192 L41.9684615,19.256192 C41.7130769,19.256192 41.5469872,19.265472 41.4057051,19.35776 C41.251859,19.448768 41.1948077,19.583936 41.1948077,19.762176 C41.1948077,19.974272 41.3253846,20.118656 41.5021795,20.18112 C41.6503205,20.2304 41.8095513,20.2448 42.0487179,20.2448 L42.8049359,20.264384 C43.5674359,20.282048 44.0908974,20.408256 44.4090385,20.716544 L44.4090385,20.716544 Z M49.9830769,19.211264 L47.4229487,19.211264 C47.1674359,19.211264 46.9974359,19.22048 46.8545513,19.312832 C46.7063462,19.403904 46.6492949,19.539008 46.6492949,19.71744 C46.6492949,19.929536 46.774359,20.073792 46.9564103,20.136256 C47.1046154,20.1856 47.2637821,20.2 47.4976923,20.2 L48.2591026,20.219456 C49.0272436,20.237632 49.54,20.363968 49.8526923,20.672064 C49.9098077,20.714944 49.9438462,20.763072 49.9830128,20.811264 L49.9830128,19.211264 L49.9830769,19.211264 L49.9830769,19.211264 Z" id="Shape" fill="#FFFFFF"></path>
                        </g>
                        <g id="Group" transform="translate(56.000000, 0.000000)">
                            <rect id="Rectangle-11" fill="url(#linearGradient-1)" fill-rule="nonzero" x="0" y="0" width="48" height="32" rx="2.5"></rect>
                            <g id="Page-1" transform="translate(5.600000, 8.310737)">
                                <g id="Fill-1-Clipped">
                                    <mask id="mask-3" fill="white">
                                        <use xlink:href="#path-2"></use>
                                    </mask>
                                    <g id="path-2"></g>
                                    <path d="M9.6161112,7.18105264 L19.2663954,7.18105264 C19.1803301,5.27873684 18.6943142,3.31747369 17.2202348,2.05768421 C15.4643336,0.55705263 12.3887644,0.0004210528 9.64058076,0.0004210528 C6.78017476,0.0004210528 3.6168526,0.61094737 1.8516699,2.22105263 C0.329495146,3.608 0.000421888792,5.83957896 0.000421888792,7.8446316 C0.000421888792,9.94484212 0.644224184,12.3877895 2.29549691,13.7957895 C4.05139804,15.2922105 6.89661608,15.6896842 9.64058076,15.6896842 C12.3060741,15.6896842 15.193481,15.2408421 16.9392568,13.8193684 C18.67997,12.399579 19.2815834,10.008 19.2815834,7.8446316 L19.2815834,7.83452632 L9.6161112,7.83452632 L9.6161112,7.18105264 Z" id="Fill-1" fill="#FEFEFE" fill-rule="nonzero" mask="url(#mask-3)"></path>
                                </g>
                                <path d="M19.8834952,7.84798332 L19.8834952,15.3785836 L33.2925911,15.3785836 L33.2925911,15.3684425 C35.2546512,15.270412 36.815534,13.6495287 36.815534,11.6593409 C36.815534,9.66830796 35.2546512,7.94347852 33.2925911,7.84460296 L33.2925911,7.84798332 L19.8834952,7.84798332 Z" id="Fill-4" fill="#FEFEFE" fill-rule="nonzero"></path>
                                <path d="M36.5825243,3.76787008 C36.5825243,1.84774814 35.0635106,0.326030346 33.1497727,0.326030346 C33.0173545,0.326030346 32.8545729,0.300654286 32.7263719,0.315034054 L19.8834952,0.315034054 L19.8834952,7.22324376 L33.4129222,7.22324376 C35.1874945,7.07014152 36.5825243,5.58564192 36.5825243,3.76787008" id="Fill-6" fill="#FEFEFE" fill-rule="nonzero"></path>
                            </g>
                        </g>
                        <g id="Group" transform="translate(112.000000, 0.000000)" fill-rule="nonzero">
                            <path d="M2.56410256,0 L47.4358974,0 C48.8520513,0 50,1.146176 50,2.56 L50,29.44 C50,30.853888 48.8520513,32 47.4358974,32 L2.56410256,32 C1.14801282,32 0,30.853888 0,29.44 L0,2.56 C0,1.146176 1.14801282,0 2.56410256,0 Z" id="Path" fill="#0E4595"></path>
                            <path d="M18.7948718,22.31872 L20.9333974,9.79008 L24.3539103,9.79008 L22.2138462,22.31872 L18.7948718,22.31872 Z M34.5711538,10.06016 C33.8935897,9.806336 32.8316026,9.533952 31.505641,9.533952 C28.1258333,9.533952 25.7450641,11.233152 25.7248718,13.668544 C25.7057051,15.468864 27.4244872,16.473152 28.7217949,17.072448 C30.0532692,17.686528 30.5007692,18.078144 30.4944872,18.62656 C30.4860897,19.466304 29.4312821,19.849984 28.4482051,19.849984 C27.0791667,19.849984 26.351859,19.660096 25.2285256,19.19232 L24.7877564,18.99328 L24.3076923,21.797952 C25.1066026,22.147648 26.5839744,22.450624 28.1178205,22.466304 C31.7133333,22.466304 34.0473077,20.78656 34.0739744,18.185856 C34.0867308,16.76064 33.1755128,15.676032 31.2021154,14.781824 C30.0066026,14.202304 29.2744231,13.815488 29.2821795,13.228672 C29.2821795,12.707904 29.9019231,12.150976 31.2409615,12.150976 C32.3594872,12.133696 33.1698077,12.377216 33.8010897,12.630976 L34.1075641,12.775616 L34.5711538,10.06016 M43.3730769,9.789888 L40.73,9.789888 C39.9112179,9.789888 39.2984615,10.013056 38.9389103,10.828864 L33.8591667,22.310464 L37.4508974,22.310464 C37.4508974,22.310464 38.0380769,20.766592 38.1708974,20.427712 C38.5635256,20.427712 42.0526282,20.433088 42.5515385,20.433088 C42.6538462,20.87168 42.9675641,22.310464 42.9675641,22.310464 L46.1415385,22.310464 L43.3730769,9.789504 L43.3730769,9.789888 Z M39.1796154,17.880128 C39.4624359,17.158272 40.5424359,14.377856 40.5424359,14.377856 C40.5221795,14.411264 40.823141,13.65248 40.9958974,13.18208 L41.2269872,14.262336 C41.2269872,14.262336 41.8820513,17.252992 42.0189103,17.880128 L39.1796154,17.880128 Z M15.8911538,9.789888 L12.5424359,18.333888 L12.1855769,16.597568 C11.5621795,14.596096 9.61987179,12.427648 7.44852564,11.342016 L10.5104487,22.298816 L14.1294231,22.29472 L19.5142949,9.78976 L15.8911538,9.78976" id="Shape" fill="#FFFFFF"></path>
                            <path d="M9.41794872,9.78944 L3.9025,9.78944 L3.85884615,10.050112 C8.14974359,11.087168 10.9889744,13.593344 12.1678205,16.604352 L10.9684615,10.846912 C10.7614103,10.053632 10.1609615,9.816896 9.41807692,9.789184" id="Path" fill="#F2AE14"></path>
                        </g>
                        <g id="Group-5" transform="translate(228.000000, 0.000000)">
                            <rect id="Rectangle" stroke="#184285" fill="#FFFFFF" x="0.5" y="0.5" width="47" height="31" rx="2.5"></rect>
                            <g id="CarteBleueLogo" transform="translate(3.000000, 6.000000)">
                                <path d="M39.7537131,12.3076126 C39.7537131,11.9855644 39.7537131,3.14093915 39.7537131,3.14093915 C39.7537131,1.57800703 38.5300389,0.307675196 37.022846,0.307675196 L3.04993389,0.307675196 C1.54205041,0.307675196 0.311963795,1.57800703 0.311963795,3.14093915 L0.311963795,13.3732775 C0.311963795,14.936566 1.54205041,16.2075998 3.04993389,16.2075998 L5.42186719,16.2075998 L5.42186719,17.0941907 C5.42186719,18.5260704 6.53455633,19.6926704 7.9047855,19.6926704 L40.1955156,19.6926704 C41.5689346,19.6926704 42.6880362,18.5260704 42.6880362,17.0941907 L42.6880362,14.915541 C42.6880362,13.4812209 41.5774736,12.3076126 40.2076061,12.3076126 L39.7537131,12.3076126" id="path130" fill="#184285" fill-rule="nonzero"></path>
                                <path d="M40.2076061,12.6149422 C41.4031751,12.6149422 42.3760614,13.6469802 42.3760614,14.915541 L42.3760614,17.0941907 C42.3760614,18.3575142 41.3978368,19.3853407 40.1955156,19.3853407 L7.9047855,19.3853407 C6.7077916,19.3853407 5.73383098,18.3575142 5.73383098,17.0941907 L5.73383098,15.9002701 L3.04993389,15.9002701 C1.7124357,15.9002701 0.62428932,14.766606 0.62428932,13.3732775 L0.62428932,3.14093915 C0.62428932,1.74831258 1.7124357,0.615004835 3.04993389,0.615004835 L37.022846,0.615004835 C38.3564419,0.615004835 39.4417383,1.74831258 39.4417383,3.14093915 L39.4417383,12.6149422 L40.2076061,12.6149422 Z M40.0656659,12.3076126 L40.0656659,3.14093915 C40.0656659,1.40909452 38.7007859,0 37.022846,0 L3.04993389,0 C1.36810265,0 0,1.40909452 0,3.14093915 L0,13.3732775 C0,15.1054785 1.36810265,16.5149294 3.04993389,16.5149294 L5.42186719,16.5149294 L5.10990339,16.2075998 L5.10990339,17.0941907 C5.10990339,18.6963867 6.36345855,20 7.9047855,20 L40.1955156,20 C41.7421808,20 43,18.6963867 43,17.0941907 L43,14.915541 C43,13.3077513 41.7475081,11.9999266 40.2076061,11.9999266 L39.7537131,11.9999266 L40.0656659,12.3076126" id="path132" fill="#FFFFFF" fill-rule="nonzero"></path>
                                <g id="g136-Clipped" transform="translate(7.474580, 8.243105) scale(-1, 1) rotate(-180.000000) translate(-7.474580, -8.243105) translate(0.599737, 0.608011)">
                                    <mask id="mask-5" fill="white">
                                        <use xlink:href="#path-4"></use>
                                    </mask>
                                    <g id="path138"></g>
                                    <g id="g136" mask="url(#mask-5)" fill-rule="nonzero">
                                        <g transform="translate(0.000000, 0.000350)">
                                            <polyline id="path142" fill="#B3DCF5" points="14.8050137 13.0407231 7.40321831 15.2698376 14.8050137 15.2698376 14.8050137 13.0407231"></polyline>
                                            <polyline id="path144" fill="#B3DCF5" points="14.8050137 13.0049787 7.28547541 15.2698376 7.40321831 15.2698376 14.8050137 13.0407231 14.8050137 13.0049787"></polyline>
                                            <polyline id="path146" fill="#B2DBF5" points="14.8050137 12.9695848 7.16808822 15.2698376 7.28547541 15.2698376 14.8050137 13.0049787 14.8050137 12.9695848"></polyline>
                                            <polyline id="path148" fill="#B1DBF5" points="14.8050137 12.9341909 7.05034532 15.2698376 7.16808822 15.2698376 14.8050137 12.9695848 14.8050137 12.9341909"></polyline>
                                            <polyline id="path150" fill="#B0DAF4" points="14.8050137 12.898797 6.9322467 15.2698376 7.05034532 15.2698376 14.8050137 12.9341909 14.8050137 12.898797"></polyline>
                                            <polyline id="path152" fill="#AFDAF4" points="14.8050137 12.8637536 6.81485952 15.2698376 6.9322467 15.2698376 14.8050137 12.898797 14.8050137 12.8637536"></polyline>
                                            <polyline id="path154" fill="#AED9F4" points="14.8050137 12.8280093 6.69711662 15.2698376 6.81485952 15.2698376 14.8050137 12.8637536 14.8050137 12.8280093"></polyline>
                                            <polyline id="path156" fill="#ADD9F4" points="14.8050137 12.7926154 6.57972944 15.2698376 6.69711662 15.2698376 14.8050137 12.8280093 14.8050137 12.7926154"></polyline>
                                            <polyline id="path158" fill="#ACD9F4" points="14.8050137 12.7572215 6.46198654 15.2698376 6.57972944 15.2698376 14.8050137 12.7926154 14.8050137 12.7572215"></polyline>
                                            <polyline id="path160" fill="#ABD8F4" points="14.8050137 12.7218276 6.34424363 15.2698376 6.46198654 15.2698376 14.8050137 12.7572215 14.8050137 12.7218276"></polyline>
                                            <polyline id="path162" fill="#AAD8F4" points="14.8050137 12.6864337 6.22650073 15.2698376 6.34424363 15.2698376 14.8050137 12.7218276 14.8050137 12.6864337"></polyline>
                                            <polyline id="path164" fill="#A9D7F3" points="14.8050137 12.6506893 6.10875783 15.2698376 6.22650073 15.2698376 14.8050137 12.6864337 14.8050137 12.6506893"></polyline>
                                            <polyline id="path166" fill="#A8D7F3" points="14.8050137 12.6152955 5.99101493 15.2698376 6.10875783 15.2698376 14.8050137 12.6506893 14.8050137 12.6152955"></polyline>
                                            <polyline id="path168" fill="#A7D6F3" points="14.8050137 12.5799016 5.87327203 15.2698376 5.99101493 15.2698376 14.8050137 12.6152955 14.8050137 12.5799016"></polyline>
                                            <polyline id="path170" fill="#A6D6F3" points="14.8050137 12.5441572 5.75552913 15.2698376 5.87327203 15.2698376 14.8050137 12.5799016 14.8050137 12.5441572"></polyline>
                                            <polyline id="path172" fill="#A5D6F3" points="14.8050137 12.5087633 5.63778623 15.2698376 5.75552913 15.2698376 14.8050137 12.5441572 14.8050137 12.5087633"></polyline>
                                            <polyline id="path174" fill="#A4D5F3" points="14.8050137 12.4733694 5.52004333 15.2698376 5.63778623 15.2698376 14.8050137 12.5087633 14.8050137 12.4733694"></polyline>
                                            <polyline id="path176" fill="#A3D5F3" points="14.8050137 12.438326 5.40301186 15.2698376 5.52004333 15.2698376 14.8050137 12.4733694 14.8050137 12.438326"></polyline>
                                            <polyline id="path178" fill="#A2D4F3" points="14.8050137 12.4025816 5.28526896 15.2698376 5.40301186 15.2698376 14.8050137 12.438326 14.8050137 12.4025816"></polyline>
                                            <polyline id="path180" fill="#A1D4F2" points="14.8050137 12.3675382 5.16752606 15.2698376 5.28526896 15.2698376 14.8050137 12.4025816 14.8050137 12.3675382"></polyline>
                                            <polyline id="path182" fill="#A0D3F2" points="14.8050137 12.3317939 5.04978316 15.2698376 5.16752606 15.2698376 14.8050137 12.3675382 14.8050137 12.3317939"></polyline>
                                            <polyline id="path184" fill="#9FD3F2" points="14.8050137 12.2964 4.93204026 15.2698376 5.04978316 15.2698376 14.8050137 12.3317939 14.8050137 12.2964"></polyline>
                                            <polyline id="path186" fill="#9ED3F2" points="14.8050137 12.2610061 4.81429736 15.2698376 4.93204026 15.2698376 14.8050137 12.2964 14.8050137 12.2610061"></polyline>
                                            <polyline id="path188" fill="#9DD2F2" points="14.8050137 12.2256122 4.69655445 15.2698376 4.81429736 15.2698376 14.8050137 12.2610061 14.8050137 12.2256122"></polyline>
                                            <polyline id="path190" fill="#9CD2F2" points="14.8050137 12.1898678 4.57881155 15.2698376 4.69655445 15.2698376 14.8050137 12.2256122 14.8050137 12.1898678"></polyline>
                                            <polyline id="path192" fill="#9BD1F2" points="14.8050137 12.1544739 4.46142437 15.2698376 4.57881155 15.2698376 14.8050137 12.1898678 14.8050137 12.1544739"></polyline>
                                            <polyline id="path194" fill="#9AD1F2" points="14.8050137 12.11908 4.34332575 15.2698376 4.46142437 15.2698376 14.8050137 12.1544739 14.8050137 12.11908"></polyline>
                                            <polyline id="path196" fill="#99D0F1" points="14.8050137 12.0836862 4.22629429 15.2698376 4.34332575 15.2698376 14.8050137 12.11908 14.8050137 12.0836862"></polyline>
                                            <polyline id="path198" fill="#98D0F1" points="14.8050137 12.0479418 4.10819567 15.2698376 4.22629429 15.2698376 14.8050137 12.0836862 14.8050137 12.0479418"></polyline>
                                            <polyline id="path200" fill="#97D0F1" points="14.8050137 12.0125479 3.99080848 15.2698376 4.10819567 15.2698376 14.8050137 12.0479418 14.8050137 12.0125479"></polyline>
                                            <polyline id="path202" fill="#96CFF1" points="14.8050137 11.977154 3.87306558 15.2698376 3.99080848 15.2698376 14.8050137 12.0125479 14.8050137 11.977154"></polyline>
                                            <polyline id="path204" fill="#95CFF1" points="14.8050137 11.9417601 3.75496696 15.2698376 3.87306558 15.2698376 14.8050137 11.977154 14.8050137 11.9417601"></polyline>
                                            <polyline id="path206" fill="#94CEF1" points="14.8050137 11.9067167 3.63757978 15.2698376 3.75496696 15.2698376 14.8050137 11.9417601 14.8050137 11.9067167"></polyline>
                                            <polyline id="path208" fill="#93CEF1" points="14.8050137 11.8709723 3.51983688 15.2698376 3.63757978 15.2698376 14.8050137 11.9067167 14.8050137 11.8709723"></polyline>
                                            <polyline id="path210" fill="#92CDF1" points="14.8050137 11.8355784 3.40209398 15.2698376 3.51983688 15.2698376 14.8050137 11.8709723 14.8050137 11.8355784"></polyline>
                                            <polyline id="path212" fill="#91CDF0" points="14.8050137 11.8001846 3.28435108 15.2698376 3.40209398 15.2698376 14.8050137 11.8355784 14.8050137 11.8001846"></polyline>
                                            <polyline id="path214" fill="#90CDF0" points="14.8050137 11.7647907 3.16625246 15.2698376 3.28435108 15.2698376 14.8050137 11.8001846 14.8050137 11.7647907"></polyline>
                                            <polyline id="path216" fill="#8FCCF0" points="14.8050137 11.7293968 3.04886528 15.2698376 3.16625246 15.2698376 14.8050137 11.7647907 14.8050137 11.7293968"></polyline>
                                            <polyline id="path218" fill="#8ECCF0" points="14.8050137 11.6936524 2.93147809 15.2698376 3.04886528 15.2698376 14.8050137 11.7293968 14.8050137 11.6936524"></polyline>
                                            <polyline id="path220" fill="#8DCBF0" points="14.8050137 11.6582585 2.81373519 15.2698376 2.93147809 15.2698376 14.8050137 11.6936524 14.8050137 11.6582585"></polyline>
                                            <polyline id="path222" fill="#8CCBF0" points="14.8050137 11.6228646 2.69599229 15.2698376 2.81373519 15.2698376 14.8050137 11.6582585 14.8050137 11.6228646"></polyline>
                                            <polyline id="path224" fill="#8BCBF0" points="14.8050137 11.5874707 2.57860511 15.2698376 2.69599229 15.2698376 14.8050137 11.6228646 14.8050137 11.5874707"></polyline>
                                            <polyline id="path226" fill="#8ACAF0" points="14.8050137 11.5517264 2.46050649 15.2698376 2.57860511 15.2698376 14.8050137 11.5874707 14.8050137 11.5517264"></polyline>
                                            <polyline id="path228" fill="#89CAEF" points="14.8050137 11.5163325 2.34276359 15.2698376 2.46050649 15.2698376 14.8050137 11.5517264 14.8050137 11.5163325"></polyline>
                                            <polyline id="path230" fill="#88C9EF" points="14.8050137 11.4809386 2.2253764 15.2698376 2.34276359 15.2698376 14.8050137 11.5163325 14.8050137 11.4809386"></polyline>
                                            <polyline id="path232" fill="#87C9EF" points="14.8050137 11.4458952 2.10727778 15.2698376 2.2253764 15.2698376 14.8050137 11.4809386 14.8050137 11.4458952"></polyline>
                                            <polyline id="path234" fill="#86C9EF" points="14.8050137 11.4098004 1.98953488 15.2698376 2.10727778 15.2698376 14.8050137 11.4458952 14.8050137 11.4098004"></polyline>
                                            <polyline id="path236" fill="#85C8EF" points="14.8050137 11.3747569 1.8721477 15.2698376 1.98953488 15.2698376 14.8050137 11.4098004 14.8050137 11.3747569"></polyline>
                                            <polyline id="path238" fill="#84C8EF" points="14.8050137 11.339363 1.75404908 15.2698376 1.8721477 15.2698376 14.8050137 11.3747569 14.8050137 11.339363"></polyline>
                                            <polyline id="path240" fill="#83C7EF" points="14.8050137 11.3039691 1.63701762 15.2698376 1.75404908 15.2698376 14.8050137 11.339363 14.8050137 11.3039691"></polyline>
                                            <polyline id="path242" fill="#82C7EF" points="14.8050137 11.2685753 1.51856328 15.2698376 1.63701762 15.2698376 14.8050137 11.3039691 14.8050137 11.2685753"></polyline>
                                            <polyline id="path244" fill="#81C6EE" points="14.8050137 11.2328309 1.40153181 15.2698376 1.51856328 15.2698376 14.8050137 11.2685753 14.8050137 11.2328309"></polyline>
                                            <polyline id="path246" fill="#80C6EE" points="14.8050137 11.197437 1.28378891 15.2698376 1.40153181 15.2698376 14.8050137 11.2328309 14.8050137 11.197437"></polyline>
                                            <polyline id="path248" fill="#7FC6EE" points="14.8050137 11.1620431 1.16604601 15.2698376 1.28378891 15.2698376 14.8050137 11.197437 14.8050137 11.1620431"></polyline>
                                            <polyline id="path250" fill="#7EC5EE" points="14.8050137 11.1266492 1.04830311 15.2698376 1.16604601 15.2698376 14.8050137 11.1620431 14.8050137 11.1266492"></polyline>
                                            <polyline id="path252" fill="#7DC5EE" points="14.8050137 11.0909049 0.93056021 15.2698376 1.04830311 15.2698376 14.8050137 11.1266492 14.8050137 11.0909049"></polyline>
                                            <polyline id="path254" fill="#7CC4EE" points="14.8050137 11.055511 0.812817309 15.2698376 0.93056021 15.2698376 14.8050137 11.0909049 14.8050137 11.055511"></polyline>
                                            <polyline id="path256" fill="#7BC4EE" points="14.8050137 11.0201171 0.695074408 15.2698376 0.812817309 15.2698376 14.8050137 11.055511 14.8050137 11.0201171"></polyline>
                                            <polyline id="path258" fill="#7AC4EE" points="14.8050137 10.9850737 0.577331506 15.2698376 0.695074408 15.2698376 14.8050137 11.0201171 14.8050137 10.9850737"></polyline>
                                            <polyline id="path260" fill="#79C3ED" points="14.8050137 10.9489789 0.459944324 15.2698376 0.577331506 15.2698376 14.8050137 10.9850737 14.8050137 10.9489789"></polyline>
                                            <polyline id="path262" fill="#78C3ED" points="14.8050137 10.9142859 0.342557142 15.2698376 0.459944324 15.2698376 14.8050137 10.9489789 14.8050137 10.9142859"></polyline>
                                            <polyline id="path264" fill="#78C2ED" points="14.8050137 10.878892 0.224102803 15.2698376 0.342557142 15.2698376 14.8050137 10.9142859 14.8050137 10.878892"></polyline>
                                            <polyline id="path266" fill="#77C2ED" points="14.8050137 10.8431476 0.110272808 15.2687863 0.110628527 15.2698376 0.224102803 15.2698376 14.8050137 10.878892 14.8050137 10.8431476"></polyline>
                                            <polyline id="path268" fill="#76C2ED" points="14.8050137 10.8077537 0.100668402 15.2365463 0.110272808 15.2687863 14.8050137 10.8431476 14.8050137 10.8077537"></polyline>
                                            <polyline id="path270" fill="#75C1ED" points="14.8050137 10.7723598 0.0903525586 15.2039559 0.100668402 15.2365463 14.8050137 10.8077537 14.8050137 10.7723598"></polyline>
                                            <polyline id="path272" fill="#74C1ED" points="14.8050137 10.7366155 0.0800367153 15.1717159 0.0903525586 15.2039559 14.8050137 10.7723598 14.8050137 10.7366155"></polyline>
                                            <polyline id="path274" fill="#73C0ED" points="14.8050137 10.7012216 0.0704323095 15.1394759 0.0800367153 15.1717159 14.8050137 10.7366155 14.8050137 10.7012216"></polyline>
                                            <polyline id="path276" fill="#72C0EC" points="14.8050137 10.6658277 0.0601164662 15.1065351 0.0704323095 15.1394759 14.8050137 10.7012216 14.8050137 10.6658277"></polyline>
                                            <polyline id="path278" fill="#71C0EC" points="14.8050137 10.6304338 0.0498006229 15.0742951 0.0601164662 15.1065351 14.8050137 10.6658277 14.8050137 10.6304338"></polyline>
                                            <polyline id="path280" fill="#70BFEC" points="14.8050137 10.5946895 0.0398404983 15.0420551 0.0498006229 15.0742951 14.8050137 10.6304338 14.8050137 10.5946895"></polyline>
                                            <polyline id="path282" fill="#6FBFEC" points="14.8050137 10.5592956 0.0302360925 15.0098151 0.0398404983 15.0420551 14.8050137 10.5946895 14.8050137 10.5592956"></polyline>
                                            <polyline id="path284" fill="#6EBFEC" points="14.8050137 10.5239017 0.0199202491 14.9772247 0.0302360925 15.0098151 14.8050137 10.5592956 14.8050137 10.5239017"></polyline>
                                            <polyline id="path286" fill="#6DBEEC" points="14.8050137 10.4885078 0.00960440584 14.9446343 0.0199202491 14.9772247 14.8050137 10.5239017 14.8050137 10.4885078"></polyline>
                                            <polyline id="path288" fill="#6CBEEC" points="14.8050137 10.4534644 0 14.9123943 0 14.9127447 0.00960440584 14.9446343 14.8050137 10.4885078 14.8050137 10.4534644"></polyline>
                                            <polyline id="path290" fill="#6BBDEC" points="14.8050137 10.4180705 0 14.87665 0 14.9123943 14.8050137 10.4534644 14.8050137 10.4180705"></polyline>
                                            <polyline id="path292" fill="#6ABDEB" points="14.8050137 10.3823261 0 14.8412561 0 14.87665 14.8050137 10.4180705 14.8050137 10.3823261"></polyline>
                                            <polyline id="path294" fill="#69BDEB" points="14.8050137 10.3469322 0 14.8058622 0 14.8412561 14.8050137 10.3823261 14.8050137 10.3469322"></polyline>
                                            <polyline id="path296" fill="#68BCEB" points="14.8050137 10.3115383 0 14.7704683 0 14.8058622 14.8050137 10.3469322 14.8050137 10.3115383"></polyline>
                                            <polyline id="path298" fill="#68BCEB" points="14.8050137 10.2754436 0 14.734724 0 14.7704683 14.8050137 10.3115383 14.8050137 10.2754436"></polyline>
                                            <polyline id="path300" fill="#67BAEA" points="14.8050137 10.2400497 0 14.6993301 0 14.734724 14.8050137 10.2754436 14.8050137 10.2400497"></polyline>
                                            <polyline id="path302" fill="#65B8E8" points="14.8050137 10.2043053 0 14.6632353 0 14.6993301 14.8050137 10.2400497 14.8050137 10.2043053"></polyline>
                                            <polyline id="path304" fill="#64B5E7" points="14.8050137 10.168561 0 14.6278414 0 14.6632353 14.8050137 10.2043053 14.8050137 10.168561"></polyline>
                                            <polyline id="path306" fill="#62B3E5" points="14.8050137 10.1328167 0 14.5917466 0 14.6278414 14.8050137 10.168561 14.8050137 10.1328167"></polyline>
                                            <polyline id="path308" fill="#61B1E4" points="14.8050137 10.0974228 0 14.5563527 0 14.5917466 14.8050137 10.1328167 14.8050137 10.0974228"></polyline>
                                            <polyline id="path310" fill="#60AFE2" points="14.8050137 10.0616785 0 14.5209588 0 14.5563527 14.8050137 10.0974228 14.8050137 10.0616785"></polyline>
                                            <polyline id="path312" fill="#5EADE1" points="14.8050137 10.0259341 0 14.4848641 0 14.5209588 14.8050137 10.0616785 14.8050137 10.0259341"></polyline>
                                            <polyline id="path314" fill="#5DAADF" points="14.8050137 9.99054024 0 14.4494702 0 14.4848641 14.8050137 10.0259341 14.8050137 9.99054024"></polyline>
                                            <polyline id="path316" fill="#5CA8DE" points="14.8050137 9.95444547 0 14.4137259 0 14.4494702 14.8050137 9.99054024 14.8050137 9.95444547"></polyline>
                                            <polyline id="path318" fill="#5AA6DC" points="14.8050137 9.91905158 0 14.3779815 0 14.4137259 14.8050137 9.95444547 14.8050137 9.91905158"></polyline>
                                            <polyline id="path320" fill="#59A4DB" points="14.8050137 9.88365768 0 14.3422372 0 14.3779815 14.8050137 9.91905158 14.8050137 9.88365768"></polyline>
                                            <polyline id="path322" fill="#58A2D9" points="14.8050137 9.84756292 0 14.3068433 0 14.3422372 14.8050137 9.88365768 14.8050137 9.84756292"></polyline>
                                            <polyline id="path324" fill="#57A1D8" points="14.8050137 9.81216902 0 14.2707485 0 14.3068433 14.8050137 9.84756292 14.8050137 9.81216902"></polyline>
                                            <polyline id="path326" fill="#559FD7" points="14.8050137 9.77607426 0 14.2353546 0 14.2707485 14.8050137 9.81216902 14.8050137 9.77607426"></polyline>
                                            <polyline id="path328" fill="#549DD5" points="14.8050137 9.74068036 0 14.1999607 0 14.2353546 14.8050137 9.77607426 14.8050137 9.74068036"></polyline>
                                            <polyline id="path330" fill="#539BD4" points="14.8050137 9.70493603 0 14.163866 0 14.1999607 14.8050137 9.74068036 14.8050137 9.70493603"></polyline>
                                            <polyline id="path332" fill="#5299D3" points="14.8050137 9.6691917 0 14.1284721 0 14.163866 14.8050137 9.70493603 14.8050137 9.6691917"></polyline>
                                            <polyline id="path334" fill="#5197D1" points="14.8050137 9.63344737 0 14.0930782 0 14.1284721 14.8050137 9.6691917 14.8050137 9.63344737"></polyline>
                                            <polyline id="path336" fill="#5096D0" points="14.8050137 9.59770304 0 14.0569834 0 14.0930782 14.8050137 9.63344737 14.8050137 9.59770304"></polyline>
                                            <polyline id="path338" fill="#4F94CF" points="14.8050137 9.56195871 0 14.0212391 0 14.0569834 14.8050137 9.59770304 14.8050137 9.56195871"></polyline>
                                            <polyline id="path340" fill="#4E92CE" points="14.8050137 9.52656482 0 13.9854948 0 14.0212391 14.8050137 9.56195871 14.8050137 9.52656482"></polyline>
                                            <polyline id="path342" fill="#4C91CC" points="14.8050137 9.49047005 0 13.9497504 0 13.9854948 14.8050137 9.52656482 14.8050137 9.49047005"></polyline>
                                            <polyline id="path344" fill="#4B8FCB" points="14.8050137 9.45507616 0 13.9140061 0 13.9497504 14.8050137 9.49047005 14.8050137 9.45507616"></polyline>
                                            <polyline id="path346" fill="#4A8DCA" points="14.8050137 9.41968226 0 13.8782618 0 13.9140061 14.8050137 9.45507616 14.8050137 9.41968226"></polyline>
                                            <polyline id="path348" fill="#498CC9" points="14.8050137 9.3835875 0 13.8428679 0 13.8782618 14.8050137 9.41968226 14.8050137 9.3835875"></polyline>
                                            <polyline id="path350" fill="#488AC8" points="14.8050137 9.3481936 0 13.8067731 0 13.8428679 14.8050137 9.3835875 14.8050137 9.3481936"></polyline>
                                            <polyline id="path352" fill="#4789C6" points="14.8050137 9.31244927 0 13.7713792 0 13.8067731 14.8050137 9.3481936 14.8050137 9.31244927"></polyline>
                                            <polyline id="path354" fill="#4687C5" points="14.8050137 9.27670494 0 13.7359853 0 13.7713792 14.8050137 9.31244927 14.8050137 9.27670494"></polyline>
                                            <polyline id="path356" fill="#4586C4" points="14.8050137 9.24096061 0 13.6998906 0 13.7359853 14.8050137 9.27670494 14.8050137 9.24096061"></polyline>
                                            <polyline id="path358" fill="#4584C3" points="14.8050137 9.20556672 0 13.6644967 0 13.6998906 14.8050137 9.24096061 14.8050137 9.20556672"></polyline>
                                            <polyline id="path360" fill="#4483C2" points="14.8050137 9.16947195 0 13.6287523 0 13.6644967 14.8050137 9.20556672 14.8050137 9.16947195"></polyline>
                                            <polyline id="path362" fill="#4381C1" points="14.8050137 9.13407806 0 13.593008 0 13.6287523 14.8050137 9.16947195 14.8050137 9.13407806"></polyline>
                                            <polyline id="path364" fill="#4280C0" points="14.8050137 9.09798329 0 13.5576141 0 13.593008 14.8050137 9.13407806 14.8050137 9.09798329"></polyline>
                                            <polyline id="path366" fill="#417FBF" points="14.8050137 9.0625894 0 13.5218698 0 13.5576141 14.8050137 9.09798329 14.8050137 9.0625894"></polyline>
                                            <polyline id="path368" fill="#407DBD" points="14.8050137 9.0271955 0 13.4861255 0 13.5218698 14.8050137 9.0625894 14.8050137 9.0271955"></polyline>
                                            <polyline id="path370" fill="#3F7CBC" points="14.8050137 8.99110074 0 13.4503811 0 13.4861255 14.8050137 9.0271955 14.8050137 8.99110074"></polyline>
                                            <polyline id="path372" fill="#3E7BBB" points="14.8050137 8.95570684 0 13.4149872 0 13.4503811 14.8050137 8.99110074 14.8050137 8.95570684"></polyline>
                                            <polyline id="path374" fill="#3E79BA" points="14.8050137 8.92031295 0 13.3788925 0 13.4149872 14.8050137 8.95570684 14.8050137 8.92031295"></polyline>
                                            <polyline id="path376" fill="#3D78B9" points="14.8050137 8.88421818 0 13.3434986 0 13.3788925 14.8050137 8.92031295 14.8050137 8.88421818"></polyline>
                                            <polyline id="path378" fill="#3C77B8" points="14.8050137 8.84847385 0 13.3074038 0 13.3434986 14.8050137 8.88421818 14.8050137 8.84847385"></polyline>
                                            <polyline id="path380" fill="#3B76B7" points="14.8050137 8.81307996 0 13.2720099 0 13.3074038 14.8050137 8.84847385 14.8050137 8.81307996"></polyline>
                                            <polyline id="path382" fill="#3A75B6" points="14.8050137 8.77698519 0 13.236616 0 13.2720099 14.8050137 8.81307996 14.8050137 8.77698519"></polyline>
                                            <polyline id="path384" fill="#3A73B5" points="14.8050137 8.7415913 0 13.2005212 0 13.236616 14.8050137 8.77698519 14.8050137 8.7415913"></polyline>
                                            <polyline id="path386" fill="#3972B4" points="14.8050137 8.70584697 0 13.1651274 0 13.2005212 14.8050137 8.7415913 14.8050137 8.70584697"></polyline>
                                            <polyline id="path388" fill="#3871B3" points="14.8050137 8.67010264 0 13.129383 0 13.1651274 14.8050137 8.70584697 14.8050137 8.67010264"></polyline>
                                            <polyline id="path390" fill="#3770B2" points="14.8050137 8.63470874 0 13.0936387 0 13.129383 14.8050137 8.67010264 14.8050137 8.63470874"></polyline>
                                            <polyline id="path392" fill="#376FB2" points="14.8050137 8.59861398 0 13.0578944 0 13.0936387 14.8050137 8.63470874 14.8050137 8.59861398"></polyline>
                                            <polyline id="path394" fill="#366EB1" points="14.8050137 8.56322008 0 13.02215 0 13.0578944 14.8050137 8.59861398 14.8050137 8.56322008"></polyline>
                                            <polyline id="path396" fill="#356DB0" points="14.8050137 8.52782618 0 12.9864057 0 13.02215 14.8050137 8.56322008 14.8050137 8.52782618"></polyline>
                                            <polyline id="path398" fill="#356CAF" points="14.8050137 8.49173142 0 12.9510118 0 12.9864057 14.8050137 8.52782618 14.8050137 8.49173142"></polyline>
                                            <polyline id="path400" fill="#346BAE" points="14.8050137 8.45633752 0 12.914917 0 12.9510118 14.8050137 8.49173142 14.8050137 8.45633752"></polyline>
                                            <polyline id="path402" fill="#336AAD" points="14.8050137 8.42094363 0 12.8795231 0 12.914917 14.8050137 8.45633752 14.8050137 8.42094363"></polyline>
                                            <polyline id="path404" fill="#3369AC" points="14.8050137 8.38484886 0 12.8441293 0 12.8795231 14.8050137 8.42094363 14.8050137 8.38484886"></polyline>
                                            <polyline id="path406" fill="#3268AB" points="14.8050137 8.34945497 0 12.8080345 0 12.8441293 14.8050137 8.38484886 14.8050137 8.34945497"></polyline>
                                            <polyline id="path408" fill="#3167AB" points="14.8050137 8.31371064 0 12.7726406 0 12.8080345 14.8050137 8.34945497 14.8050137 8.31371064"></polyline>
                                            <polyline id="path410" fill="#3166AA" points="14.8050137 8.27761587 0 12.7372467 0 12.7726406 14.8050137 8.31371064 14.8050137 8.27761587"></polyline>
                                            <polyline id="path412" fill="#3065A9" points="14.8050137 8.24222198 0 12.7011519 0 12.7372467 14.8050137 8.27761587 14.8050137 8.24222198"></polyline>
                                            <polyline id="path414" fill="#3064A8" points="14.8050137 8.20612721 0 12.665758 0 12.7011519 14.8050137 8.24222198 14.8050137 8.20612721"></polyline>
                                            <polyline id="path416" fill="#2F63A7" points="14.8050137 8.17073332 0 12.6300137 0 12.665758 14.8050137 8.20612721 14.8050137 8.17073332"></polyline>
                                            <polyline id="path418" fill="#2E62A7" points="14.8050137 8.13533942 0 12.5939189 0 12.6300137 14.8050137 8.17073332 14.8050137 8.13533942"></polyline>
                                            <polyline id="path420" fill="#2E62A6" points="14.8050137 8.09924466 0 12.558525 0 12.5939189 14.8050137 8.13533942 14.8050137 8.09924466"></polyline>
                                            <polyline id="path422" fill="#2D61A5" points="14.8050137 8.06385076 0 12.5231311 0 12.558525 14.8050137 8.09924466 14.8050137 8.06385076"></polyline>
                                            <polyline id="path424" fill="#2D60A4" points="14.8050137 8.027756 0 12.4870364 0 12.5231311 14.8050137 8.06385076 14.8050137 8.027756"></polyline>
                                            <polyline id="path426" fill="#2C5FA4" points="14.8050137 7.9923621 0 12.4516425 0 12.4870364 14.8050137 8.027756 14.8050137 7.9923621"></polyline>
                                            <polyline id="path428" fill="#2C5EA3" points="14.8050137 7.95696821 0 12.4155477 0 12.4516425 14.8050137 7.9923621 14.8050137 7.95696821"></polyline>
                                            <polyline id="path430" fill="#2B5EA2" points="14.8050137 7.92087344 0 12.3801538 0 12.4155477 14.8050137 7.95696821 14.8050137 7.92087344"></polyline>
                                            <polyline id="path432" fill="#2B5DA1" points="14.8050137 7.88512911 0 12.3440591 0 12.3801538 14.8050137 7.92087344 14.8050137 7.88512911"></polyline>
                                            <polyline id="path434" fill="#2A5CA1" points="14.8050137 7.84973522 0 12.3086652 0 12.3440591 14.8050137 7.88512911 14.8050137 7.84973522"></polyline>
                                            <polyline id="path436" fill="#2A5BA0" points="14.8050137 7.81364045 0 12.2732713 0 12.3086652 14.8050137 7.84973522 14.8050137 7.81364045"></polyline>
                                            <polyline id="path438" fill="#295B9F" points="14.8050137 7.77824656 0 12.2371765 0 12.2732713 14.8050137 7.81364045 14.8050137 7.77824656"></polyline>
                                            <polyline id="path440" fill="#295A9F" points="14.8050137 7.74285266 0 12.2017826 0 12.2371765 14.8050137 7.77824656 14.8050137 7.74285266"></polyline>
                                            <polyline id="path442" fill="#28599E" points="14.8050137 7.7067579 0 12.1660383 0 12.2017826 14.8050137 7.74285266 14.8050137 7.7067579"></polyline>
                                            <polyline id="path444" fill="#28599D" points="14.8050137 7.671364 0 12.130294 0 12.1660383 14.8050137 7.7067579 14.8050137 7.671364"></polyline>
                                            <polyline id="path446" fill="#27589D" points="14.8050137 7.63597011 0 12.0949001 0 12.130294 14.8050137 7.671364 14.8050137 7.63597011"></polyline>
                                            <polyline id="path448" fill="#27579C" points="14.8050137 7.59987534 0 12.0591557 0 12.0949001 14.8050137 7.63597011 14.8050137 7.59987534"></polyline>
                                            <polyline id="path450" fill="#27579C" points="14.8050137 7.56448145 0 12.023061 0 12.0591557 14.8050137 7.59987534 14.8050137 7.56448145"></polyline>
                                            <polyline id="path452" fill="#26569B" points="14.8050137 7.52838668 0 11.9876671 0 12.023061 14.8050137 7.56448145 14.8050137 7.52838668"></polyline>
                                            <polyline id="path454" fill="#26559A" points="14.8050137 7.49299279 0 11.9522732 0 11.9876671 14.8050137 7.52838668 14.8050137 7.49299279"></polyline>
                                            <polyline id="path456" fill="#25559A" points="14.8050137 7.45724846 0 11.9161784 0 11.9522732 14.8050137 7.49299279 14.8050137 7.45724846"></polyline>
                                            <polyline id="path458" fill="#255499" points="14.8050137 7.42150413 0 11.8807845 0 11.9161784 14.8050137 7.45724846 14.8050137 7.42150413"></polyline>
                                            <polyline id="path460" fill="#255499" points="14.8050137 7.3857598 0 11.8453906 0 11.8807845 14.8050137 7.42150413 14.8050137 7.3857598"></polyline>
                                            <polyline id="path462" fill="#245398" points="14.8050137 7.3503659 0 11.8092959 0 11.8453906 14.8050137 7.3857598 14.8050137 7.3503659"></polyline>
                                            <polyline id="path464" fill="#245397" points="14.8050137 7.31427114 0 11.773902 0 11.8092959 14.8050137 7.3503659 14.8050137 7.31427114"></polyline>
                                            <polyline id="path466" fill="#235297" points="14.8050137 7.27887724 0 11.7378072 0 11.773902 14.8050137 7.31427114 14.8050137 7.27887724"></polyline>
                                            <polyline id="path468" fill="#235296" points="14.8050137 7.24348335 0 11.7024133 0 11.7378072 14.8050137 7.27887724 14.8050137 7.24348335"></polyline>
                                            <polyline id="path470" fill="#235196" points="14.8050137 7.20738858 0 11.666669 0 11.7024133 14.8050137 7.24348335 14.8050137 7.20738858"></polyline>
                                            <polyline id="path472" fill="#225095" points="14.8050137 7.17199469 0 11.6305742 0 11.666669 14.8050137 7.20738858 14.8050137 7.17199469"></polyline>
                                            <polyline id="path474" fill="#225095" points="14.8050137 7.13589992 0 11.5951803 0 11.6305742 14.8050137 7.17199469 14.8050137 7.13589992"></polyline>
                                            <polyline id="path476" fill="#225094" points="14.8050137 7.10050603 0 11.5597864 0 11.5951803 14.8050137 7.13589992 14.8050137 7.10050603"></polyline>
                                            <polyline id="path478" fill="#214F94" points="14.8050137 7.0647617 0 11.5236916 0 11.5597864 14.8050137 7.10050603 14.8050137 7.0647617"></polyline>
                                            <polyline id="path480" fill="#214F93" points="14.8050137 7.02901737 0 11.4882978 0 11.5236916 14.8050137 7.0647617 14.8050137 7.02901737"></polyline>
                                            <polyline id="path482" fill="#214E93" points="14.8050137 6.99327304 0 11.452203 0 11.4882978 14.8050137 7.02901737 14.8050137 6.99327304"></polyline>
                                            <polyline id="path484" fill="#204E92" points="14.8050137 6.95787914 0 11.4168091 0 11.452203 14.8050137 6.99327304 14.8050137 6.95787914"></polyline>
                                            <polyline id="path486" fill="#204D92" points="14.8050137 6.92213481 0 11.3814152 0 11.4168091 14.8050137 6.95787914 14.8050137 6.92213481"></polyline>
                                            <polyline id="path488" fill="#204D92" points="14.8050137 6.88639048 0 11.3453204 0 11.3814152 14.8050137 6.92213481 14.8050137 6.88639048"></polyline>
                                            <polyline id="path490" fill="#204C91" points="14.8050137 6.85099659 0 11.3099265 0 11.3453204 14.8050137 6.88639048 14.8050137 6.85099659"></polyline>
                                            <polyline id="path492" fill="#1F4C91" points="14.8050137 6.81490182 0 11.2741822 0 11.3099265 14.8050137 6.85099659 14.8050137 6.81490182"></polyline>
                                            <polyline id="path494" fill="#1F4C90" points="14.8050137 6.77950793 0 11.2384379 0 11.2741822 14.8050137 6.81490182 14.8050137 6.77950793"></polyline>
                                            <polyline id="path496" fill="#1F4B90" points="14.8050137 6.74411403 0 11.2026935 0 11.2384379 14.8050137 6.77950793 14.8050137 6.74411403"></polyline>
                                            <polyline id="path498" fill="#1E4B8F" points="14.8050137 6.70801927 0 11.1672997 0 11.2026935 14.8050137 6.74411403 14.8050137 6.70801927"></polyline>
                                            <polyline id="path500" fill="#1E4A8F" points="14.8050137 6.67262537 0 11.1312049 0 11.1672997 14.8050137 6.70801927 14.8050137 6.67262537"></polyline>
                                            <polyline id="path502" fill="#1E4A8F" points="14.8050137 6.63653061 0 11.095811 0 11.1312049 14.8050137 6.67262537 14.8050137 6.63653061"></polyline>
                                            <polyline id="path504" fill="#1E4A8E" points="14.8050137 6.60113671 0 11.0604171 0 11.095811 14.8050137 6.63653061 14.8050137 6.60113671"></polyline>
                                            <polyline id="path506" fill="#1D498E" points="14.8050137 6.56539238 0 11.0243223 0 11.0604171 14.8050137 6.60113671 14.8050137 6.56539238"></polyline>
                                            <polyline id="path508" fill="#1D498E" points="14.8050137 6.52964805 0 10.9889284 0 11.0243223 14.8050137 6.56539238 14.8050137 6.52964805"></polyline>
                                            <polyline id="path510" fill="#1D498D" points="14.8050137 6.49390372 0 10.9531841 0 10.9889284 14.8050137 6.52964805 14.8050137 6.49390372"></polyline>
                                            <polyline id="path512" fill="#1D488D" points="14.8050137 6.45780896 0 10.9174398 0 10.9531841 14.8050137 6.49390372 14.8050137 6.45780896"></polyline>
                                            <polyline id="path514" fill="#1D488D" points="14.8050137 6.42241506 0 10.8816954 0 10.9174398 14.8050137 6.45780896 14.8050137 6.42241506"></polyline>
                                            <polyline id="path516" fill="#1C488C" points="14.8050137 6.38702116 0 10.8459511 0 10.8816954 14.8050137 6.42241506 14.8050137 6.38702116"></polyline>
                                            <polyline id="path518" fill="#1C488C" points="14.8050137 6.3509264 0 10.8102068 0 10.8459511 14.8050137 6.38702116 14.8050137 6.3509264"></polyline>
                                            <polyline id="path520" fill="#1C478C" points="14.8050137 6.3155325 0 10.7744625 0 10.8102068 14.8050137 6.3509264 14.8050137 6.3155325"></polyline>
                                            <polyline id="path522" fill="#1C478B" points="14.8050137 6.28013861 0 10.7387181 0 10.7744625 14.8050137 6.3155325 14.8050137 6.28013861"></polyline>
                                            <polyline id="path524" fill="#1C478B" points="14.8050137 6.24404384 0 10.7033242 0 10.7387181 14.8050137 6.28013861 14.8050137 6.24404384"></polyline>
                                            <polyline id="path526" fill="#1B468B" points="14.8050137 6.20864995 0 10.6672295 0 10.7033242 14.8050137 6.24404384 14.8050137 6.20864995"></polyline>
                                            <polyline id="path528" fill="#1B468A" points="14.8050137 6.17290562 0 10.6318356 0 10.6672295 14.8050137 6.20864995 14.8050137 6.17290562"></polyline>
                                            <polyline id="path530" fill="#1B468A" points="14.8050137 6.13716129 0 10.5964417 0 10.6318356 14.8050137 6.17290562 14.8050137 6.13716129"></polyline>
                                            <polyline id="path532" fill="#1B468A" points="14.8050137 6.10141696 0 10.5603469 0 10.5964417 14.8050137 6.13716129 14.8050137 6.10141696"></polyline>
                                            <polyline id="path534" fill="#1B458A" points="14.8050137 6.06602306 0 10.524953 0 10.5603469 14.8050137 6.10141696 14.8050137 6.06602306"></polyline>
                                            <polyline id="path536" fill="#1B4589" points="14.8050137 6.0299283 0 10.4892087 0 10.524953 14.8050137 6.06602306 14.8050137 6.0299283"></polyline>
                                            <polyline id="path538" fill="#1A4589" points="14.8050137 5.9945344 0 10.4534644 0 10.4892087 14.8050137 6.0299283 14.8050137 5.9945344"></polyline>
                                            <polyline id="path540" fill="#1A4589" points="14.8050137 5.95843964 0 10.4180705 0 10.4534644 14.8050137 5.9945344 14.8050137 5.95843964"></polyline>
                                            <polyline id="path542" fill="#1A4589" points="14.8050137 5.92304574 0 10.3823261 0 10.4180705 14.8050137 5.95843964 14.8050137 5.92304574"></polyline>
                                            <polyline id="path544" fill="#1A4488" points="14.8050137 5.88765185 0 10.3465818 0 10.3823261 14.8050137 5.92304574 14.8050137 5.88765185"></polyline>
                                            <polyline id="path546" fill="#1A4488" points="14.8050137 5.85155708 0 10.3108375 0 10.3465818 14.8050137 5.88765185 14.8050137 5.85155708"></polyline>
                                            <polyline id="path548" fill="#1A4488" points="14.8050137 5.81616319 0 10.2754436 0 10.3108375 14.8050137 5.85155708 14.8050137 5.81616319"></polyline>
                                            <polyline id="path550" fill="#1A4488" points="14.8050137 5.78076929 0 10.2393488 0 10.2754436 14.8050137 5.81616319 14.8050137 5.78076929"></polyline>
                                            <polyline id="path552" fill="#1A4488" points="14.8050137 5.74467453 0 10.2039549 0 10.2393488 14.8050137 5.78076929 14.8050137 5.74467453"></polyline>
                                            <polyline id="path554" fill="#194488" points="14.8050137 5.70928063 0 10.1678601 0 10.2039549 14.8050137 5.74467453 14.8050137 5.70928063"></polyline>
                                            <polyline id="path556" fill="#194387" points="14.8050137 5.67318587 0 10.1324663 0 10.1678601 14.8050137 5.70928063 14.8050137 5.67318587"></polyline>
                                            <polyline id="path558" fill="#194387" points="14.8050137 5.63779197 0 10.0970724 0 10.1324663 14.8050137 5.67318587 14.8050137 5.63779197"></polyline>
                                            <polyline id="path560" fill="#194387" points="14.8050137 5.60204764 0 10.0609776 0 10.0970724 14.8050137 5.63779197 14.8050137 5.60204764"></polyline>
                                            <polyline id="path562" fill="#194387" points="14.8050137 5.56630331 0 10.0255837 0 10.0609776 14.8050137 5.60204764 14.8050137 5.56630331"></polyline>
                                            <polyline id="path564" fill="#194387" points="14.8050137 5.53055898 0 9.98983937 0 10.0255837 14.8050137 5.56630331 14.8050137 5.53055898"></polyline>
                                            <polyline id="path566" fill="#194387" points="14.8050137 5.49516509 0 9.95409504 0 9.98983937 14.8050137 5.53055898 14.8050137 5.49516509"></polyline>
                                            <polyline id="path568" fill="#194386" points="14.8050137 5.45907032 0 9.91835071 0 9.95409504 14.8050137 5.49516509 14.8050137 5.45907032"></polyline>
                                            <polyline id="path570" fill="#194386" points="14.8050137 5.42367643 0 9.88260638 0 9.91835071 14.8050137 5.45907032 14.8050137 5.42367643"></polyline>
                                            <polyline id="path572" fill="#194286" points="14.8050137 5.38828253 0 9.84686205 0 9.88260638 14.8050137 5.42367643 14.8050137 5.38828253"></polyline>
                                            <polyline id="path574" fill="#194286" points="14.8050137 5.35218777 0 9.81146815 0 9.84686205 14.8050137 5.38828253 14.8050137 5.35218777"></polyline>
                                            <polyline id="path576" fill="#194286" points="14.8050137 5.31679387 0 9.77537339 0 9.81146815 14.8050137 5.35218777 14.8050137 5.31679387"></polyline>
                                            <polyline id="path578" fill="#184286" points="14.8050137 5.28139998 0 9.73997949 0 9.77537339 14.8050137 5.31679387 14.8050137 5.28139998"></polyline>
                                            <polyline id="path580" fill="#184286" points="14.8050137 5.24530521 0 9.7045856 0 9.73997949 14.8050137 5.28139998 14.8050137 5.24530521"></polyline>
                                            <polyline id="path582" fill="#184286" points="14.8050137 5.20956088 0 9.66849083 0 9.7045856 14.8050137 5.24530521 14.8050137 5.20956088"></polyline>
                                            <polyline id="path584" fill="#184286" points="14.8050137 5.17416699 0 9.63309694 0 9.66849083 14.8050137 5.20956088 14.8050137 5.17416699"></polyline>
                                            <polyline id="path586" fill="#184286" points="14.8050137 5.13807222 0 9.59770304 0 9.63309694 14.8050137 5.17416699 14.8050137 5.13807222"></polyline>
                                            <polyline id="path588" fill="#184286" points="14.8050137 5.10267833 0 9.56160828 0 9.59770304 14.8050137 5.13807222 14.8050137 5.10267833"></polyline>
                                            <polyline id="path590" fill="#184286" points="14.8050137 5.06658356 0 9.52621438 0 9.56160828 14.8050137 5.10267833 14.8050137 5.06658356"></polyline>
                                            <polyline id="path592" fill="#184286" points="14.8050137 5.03118967 0 9.49047005 0 9.52621438 14.8050137 5.06658356 14.8050137 5.03118967"></polyline>
                                            <polyline id="path594" fill="#184286" points="14.8050137 4.9950949 0 9.45437529 0 9.49047005 14.8050137 5.03118967 14.8050137 4.9950949"></polyline>
                                            <polyline id="path596" fill="#184286" points="14.8050137 4.95970101 0 9.41898139 0 9.45437529 14.8050137 4.9950949 14.8050137 4.95970101"></polyline>
                                            <polyline id="path598" fill="#184285" points="14.8050137 4.92430711 0 9.38288663 0 9.41898139 14.8050137 4.95970101 14.8050137 4.92430711"></polyline>
                                            <polyline id="path600" fill="#184285" points="14.8050137 4.88821235 0 9.34749273 0 9.38288663 14.8050137 4.92430711 14.8050137 4.88821235"></polyline>
                                            <polyline id="path602" fill="#184285" points="14.8050137 4.85281845 0 9.31209884 0 9.34749273 14.8050137 4.88821235 14.8050137 4.85281845"></polyline>
                                            <polyline id="path604" fill="#184285" points="14.8050137 3.17739059 13.8189614 0 0 0 0 9.31209884 14.8050137 4.85281845 14.8050137 3.17739059"></polyline>
                                        </g>
                                    </g>
                                </g>
                                <path d="M3.56430146,3.23170182 C3.53328046,3.04527389 3.33237841,2.90475103 3.10150766,2.90475103 C2.67998385,2.90475103 2.52488983,3.21873264 2.52488983,3.54814552 C2.52488983,3.86109046 2.67998385,4.17787972 3.10150766,4.17787972 C3.38644044,4.17787972 3.54652193,4.00301714 3.58031619,3.75595478 L4.0324335,3.75595478 C3.9844222,4.2244867 3.62121348,4.5265574 3.10150766,4.5265574 C2.44521081,4.5265574 2.05854451,4.09097216 2.05854451,3.54814552 C2.05854451,2.98920729 2.44521081,2.55537144 3.10150766,2.55537144 C3.56750221,2.55537144 3.95915599,2.79716406 4.01642973,3.23170182 L3.56430146,3.23170182" id="path606" fill="#FFFFFF" fill-rule="nonzero"></path>
                                <path d="M2.73299358,6.21074757 L3.28364366,6.21074757 L3.01542714,5.52389931 L3.00885025,5.52389931 L2.73299358,6.21074757 Z M2.77782604,5.05992442 L3.25734706,5.05992442 L4.04845919,6.93930024 L3.56717337,6.93930024 L3.40425285,6.52088486 L2.61171573,6.52088486 L2.44665773,6.93930024 L1.97497417,6.93930024 L2.77782604,5.05992442" id="path608" fill="#FFFFFF" fill-rule="nonzero"></path>
                                <path d="M2.61169381,8.33963705 L3.12286063,8.33963705 C3.33095342,8.33963705 3.44300169,8.26048293 3.44300169,8.07156051 C3.44300169,7.89073708 3.33095342,7.81118341 3.12286063,7.81118341 L2.61169381,7.81118341 L2.61169381,8.33963705 Z M2.14676253,7.48913521 L3.28862017,7.48913521 C3.66959746,7.48913521 3.90899624,7.72322839 3.90899624,8.00917669 C3.90899624,8.22959878 3.81012367,8.39360871 3.57569044,8.47736306 L3.57569044,8.48492211 C3.80334947,8.53610772 3.86915125,8.73617435 3.88339022,8.92576629 C3.8921594,9.0410527 3.88887096,9.26462799 3.97228784,9.37046558 L3.50487926,9.37046558 C3.44831801,9.24990943 3.45577182,9.06978791 3.43088925,8.92015099 C3.39986826,8.72111023 3.31207774,8.63525015 3.0787297,8.63525015 L2.61167189,8.63525015 L2.61167189,9.37046558 L2.1467406,9.37046558 L2.1467406,7.48932958" id="path610" fill="#FFFFFF" fill-rule="nonzero"></path>
                                <polyline id="path612" fill="#FFFFFF" fill-rule="nonzero" points="2.78776811 10.2813967 2.1510375 10.2813967 2.1510375 9.932719 3.88907923 9.932719 3.88907923 10.2813967 3.2519869 10.2813967 3.2519869 11.8159499 2.78776811 11.8159499 2.78776811 10.2813967"></polyline>
                                <polyline id="path614" fill="#FFFFFF" fill-rule="nonzero" points="2.23107825 14.189796 3.84248197 14.189796 3.84248197 13.8425114 2.69741261 13.8425114 2.69741261 13.3816897 3.72473372 13.3816897 3.72473372 13.0596415 2.69741261 13.0596415 2.69741261 12.6569922 3.81721575 12.6569922 3.81721575 12.3097183 2.23107825 12.3097183 2.23107825 14.189796"></polyline>
                                <path d="M5.71711472,15.9458188 L5.71711472,14.941825 C5.71711472,13.655036 6.74193662,12.6114434 7.96526,12.6114434 L39.450639,12.6114434 L39.450639,13.6571309 C39.450639,14.8794519 38.538567,15.8729387 37.5034303,15.9374175 L5.71711472,15.9460564" id="path616" fill="#68BCEB" fill-rule="nonzero"></path>
                                <path d="M42.3728717,14.9123878 C42.3728717,13.624195 41.3871603,12.6040788 40.1602964,12.6040788 L39.4517023,12.6040788 L39.4517023,13.6115822 C39.4517023,14.7925444 38.6118445,15.7565833 37.523709,15.8950112 L5.72457949,15.8950112 L5.72380123,17.0689651 C5.72380123,18.3568123 6.72550536,19.4004048 7.95095527,19.4004048 L40.1438651,19.4004048 C41.3739408,19.4004048 42.3728717,18.3568123 42.3728717,17.0689651 L42.3728717,14.9123878" id="path618" fill="#B3DCF5" fill-rule="nonzero"></path>
                                <path d="M29.3368408,2.4859793 L29.3368408,6.30922048 C29.3368408,7.01674817 29.4713053,7.75722254 27.7713218,7.75722254 C26.1712961,7.75722254 26.2118426,7.09209037 26.2118426,6.30922048 L26.2118426,2.44883194 L24.6900819,2.44883194 L24.6900819,6.30922048 C24.6900819,7.8609436 25.5416795,9.0674878 27.7592203,9.0674878 C30.2097694,9.0674878 30.8543374,7.68292782 30.8543374,6.30922048 L30.8543374,2.4859793 L29.3368408,2.4859793" id="path620" fill="#FFFFFF"></path>
                                <path d="M17.6116387,8.99109813 L17.6116387,7.78244819 L14.8626414,7.78244819 C14.6452971,7.7792086 14.4688611,7.6373683 14.4517831,7.44988211 L14.4517831,2.45198514 L12.7560746,2.45198514 L12.7560746,7.6958862 L12.7604592,7.6958862 C12.7604592,8.41393177 13.4217436,8.98899239 14.2398977,8.99109813 L17.6113976,8.99109813" id="path622" fill="#FFFFFF"></path>
                                <path d="M23.4041575,3.71354847 L23.4041575,2.44883194 L18.4938189,2.44883194 L18.4938189,7.67451567 C18.4938189,8.3904555 19.1643437,8.97322636 19.9867728,8.97322636 L23.387803,8.97322636 L23.387803,7.81748982 L20.1898891,7.81748982 L20.1898891,6.19498154 L23.387803,6.19498154 L23.387803,5.06097189 L20.1898891,5.06097189 L20.1898891,3.71354847 L23.4041575,3.71354847" id="path624" fill="#FFFFFF" fill-rule="nonzero"></path>
                                <path d="M37.0851072,3.71354847 L37.0851072,2.44883194 L32.1680054,2.44883194 L32.1680054,7.67451567 C32.1680054,8.3904555 32.8413802,8.97322636 33.6652233,8.97322636 L37.07123,8.97322636 L37.07123,7.81748982 L33.8651388,7.81748982 L33.8651388,6.19498154 L37.07123,6.19498154 L37.07123,5.06097189 L33.8651388,5.06097189 L33.8651388,3.71354847 L37.0851072,3.71354847" id="path626" fill="#FFFFFF" fill-rule="nonzero"></path>
                                <path d="M6.37128505,6.3018666 L6.37128505,7.82800771 L9.34722892,7.82800771 C9.92527175,7.82800771 10.3692008,7.59076132 10.3692008,7.02200711 C10.3692008,6.40243445 9.860884,6.3018666 9.34722892,6.3018666 L6.37128505,6.3018666 Z M6.32294491,4.98633161 L9.29888879,4.98633161 C9.67239035,4.98633161 9.98756585,4.78553067 9.98756585,4.40320439 C9.98756585,3.95990892 9.6581733,3.8463611 9.29888879,3.8463611 L6.32294491,3.8463611 L6.32294491,4.98633161 Z M9.25335479,2.53294264 C10.5012209,2.53294264 11.265302,3.12657694 11.265302,4.34047502 C11.265302,4.74593201 11.1137705,5.21411837 10.819948,5.50427816 C11.1763715,5.78287258 11.5957579,6.19777839 11.5957579,7.03672568 C11.5957579,8.3480492 10.6420869,9.08221716 9.25335479,9.08221716 L5.43365078,9.08221716 L5.43365078,2.53294264 L9.25335479,2.53294264" id="path628" fill="#184285"></path>
                                <path d="M6.77146685,6.20864184 L6.77146685,7.73689948 L9.19034819,7.73689948 C9.76127701,7.73689948 10.209492,7.49965309 10.209492,6.93088809 C10.209492,6.31237369 9.70116424,6.20864184 9.19034819,6.20864184 L6.77146685,6.20864184 Z M6.77146685,4.8934632 L9.19034819,4.8934632 C9.55852246,4.8934632 9.8758245,4.69617182 9.8758245,4.31173981 C9.8758245,3.86984817 9.54643195,3.75735861 9.19034819,3.75735861 L6.77146685,3.75735861 L6.77146685,4.8934632 Z M9.19034819,2.44041979 C10.4375018,2.44041979 11.1998072,3.03545791 11.1998072,4.24831932 C11.1998072,4.6555257 11.0464889,5.12195188 10.7569414,5.41211166 C11.1115892,5.69245547 11.5320497,6.10807399 11.5320497,6.94351171 C11.5320497,8.25903591 10.5780061,8.99320387 9.19034819,8.99320387 L5.44605918,8.99320387 L5.44605918,2.44041979 L9.19034819,2.44041979" id="path630" fill="#FFFFFF"></path>
                            </g>
                        </g>
                    </g>
                </g>
            </g>
        </g>
    </g>
</svg>