<?xml version="1.0" encoding="UTF-8"?>
<svg width="155px" height="64px" viewBox="0 0 155 64" version="1.1" xmlns="http://www.w3.org/2000/svg" xmlns:xlink="http://www.w3.org/1999/xlink">
    <title>logo-tl-minibus</title>
    <g id="Design" stroke="none" stroke-width="1" fill="none" fill-rule="evenodd">
        <g id="Artboard" transform="translate(-282.000000, -229.000000)" fill-rule="nonzero">
            <g id="logo-tl-minibus" transform="translate(282.000000, 229.000000)">
                <g id="Group" transform="translate(78.524616, 48.164063)">
                    <polygon id="Path" fill="#D11F2B" points="4.00296942 0.00992361781 7.74139701 0.00992361781 10.8320198 10.248077 13.9544736 0.00992361781 17.6911806 0.00992361781 21.6111312 15.3388929 17.8937809 15.3388929 15.3507382 6.56512037 13.0085752 15.3388929 8.63653771 15.3388929 6.32276461 6.56512037 4.19266526 15.3388929 -1.22255785e-14 15.3388929"></polygon>
                    <g transform="translate(22.058917, 0.000000)" fill="#D11F2B" id="Path">
                        <polygon points="0.147111062 4.48633817 3.31645113 4.48633817 3.31645113 15.349248 0.147111062 15.349248"></polygon>
                        <path d="M1.72704945,0 C2.20322473,0 2.61229672,0.173016119 2.95254482,0.519048357 C3.29322307,0.865080596 3.46399234,1.28446131 3.46399234,1.77719051 C3.46399234,2.26301632 3.29537381,2.67765096 2.95770661,3.02023151 C2.62003941,3.36324351 2.21655936,3.53453379 1.74683632,3.53453379 C1.26377865,3.53453379 0.851695621,3.35979182 0.511017372,3.01030789 C0.170339124,2.66082396 0,2.2362657 0,1.73706458 C0,1.25771069 0.168618527,0.848685053 0.505855581,0.50912474 C0.843092635,0.169564426 1.25044403,0 1.72704945,0 Z"></path>
                    </g>
                    <path d="M36.8728284,5.47395387 C36.1346922,4.73227131 34.9160793,4.36121429 33.8574818,4.36121429 C33.3413027,4.36121429 32.3558306,4.46174486 31.8624494,4.66280598 C31.3690681,4.86386711 30.9810734,5.00581799 30.3233751,5.41656948 L27.6431148,4.44578078 L27.6431148,15.349248 L28.8320475,15.349248 L30.322945,15.349248 L30.8421352,15.349248 L30.8421352,9.5806058 C30.8421352,8.35568619 31.7420075,7.37713118 32.8522229,7.37713118 C33.9624383,7.37713118 34.8623106,8.35568619 34.8623106,9.5806058 L34.8623106,15.349248 L35.8675695,15.349248 L37.8776572,15.349248 L37.8776572,8.27025679 C37.8776572,7.03627649 37.4935339,6.10431934 36.8728284,5.47395387 Z" id="Path" fill="#D11F2B"></path>
                    <g transform="translate(39.284676, 0.000000)" fill="#D11F2B" id="Path">
                        <polygon points="0.147111062 4.48633817 3.31645113 4.48633817 3.31645113 15.349248 0.147111062 15.349248"></polygon>
                        <path d="M1.72704945,0 C2.20322473,0 2.61229672,0.173016119 2.95254482,0.519048357 C3.29322307,0.865080596 3.46399234,1.28446131 3.46399234,1.77719051 C3.46399234,2.26301632 3.29537381,2.67765096 2.95770661,3.02023151 C2.62003941,3.36324351 2.21655936,3.53453379 1.74683632,3.53453379 C1.26377865,3.53453379 0.851695621,3.35979182 0.511017372,3.01030789 C0.170339124,2.66082396 0,2.2362657 0,1.73706458 C0,1.25771069 0.168618527,0.848685053 0.505855581,0.50912474 C0.843092635,0.169564426 1.25044403,0 1.72704945,0 Z"></path>
                    </g>
                    <path d="M50.9490342,15.3923941 L44.5307765,15.3923941 L44.5307765,0.686886937 L50.2358467,0.686886937 C51.2282011,0.686886937 52.0846284,0.806401812 52.8051285,1.04456864 C53.5251984,1.28316693 54.0667564,1.60590024 54.4306627,2.01233711 C55.0879308,2.76955229 55.4165649,3.62514073 55.4165649,4.57867096 C55.4165649,5.72894771 55.0462064,6.58453615 54.3050591,7.14543628 C54.0534218,7.34175133 53.878351,7.46428644 53.7807071,7.51347306 C53.6830632,7.56265969 53.5079925,7.64334302 53.2567853,7.75552305 C54.1652606,7.95183809 54.8892019,8.36258958 55.4273186,8.98605165 C55.9654354,9.61037665 56.2347089,10.3852818 56.2347089,11.3111985 C56.2347089,12.3350569 55.8854277,13.239832 55.186435,14.0246607 C54.3747433,14.9372021 52.9625631,15.3923941 50.9490342,15.3923941 Z M47.8029222,6.64062616 L49.3549009,6.64062616 C50.2638064,6.64062616 50.9382805,6.54268437 51.3787534,6.34593786 C51.8196564,6.14962281 52.0398929,5.72549601 52.0398929,5.07312601 C52.0398929,4.420756 51.8368624,3.98972582 51.4312316,3.77917254 C51.026031,3.56905072 50.340373,3.46377408 49.3755481,3.46377408 L47.8024921,3.46377408 L47.8024921,6.64062616 L47.8029222,6.64062616 Z M47.8029222,12.615507 L50.0470112,12.615507 C50.9838763,12.615507 51.6863102,12.4998753 52.1551729,12.2681804 C52.6236055,12.0369169 52.8580369,11.5812934 52.8580369,10.900447 C52.8580369,10.2204634 52.6098407,9.77174331 52.1134484,9.55428664 C51.616626,9.33682997 50.8234306,9.22810164 49.732572,9.22810164 L47.8029222,9.22810164 L47.8029222,12.615507 Z" id="Shape" fill="#211E1F"></path>
                    <path d="M58.6474163,14.3413536 C59.3825415,15.0795844 60.5951324,15.4489156 61.6489982,15.4489156 C62.1630266,15.4489156 63.143767,15.3488165 63.6349975,15.1490498 C64.126228,14.949283 64.5120719,14.8077636 65.1671893,14.398738 L67.8354055,15.3652121 L67.8354055,4.51179441 L66.6520647,4.51179441 L65.1680496,4.51179441 L64.6510102,4.51179441 L64.6510102,10.6795386 C64.6510102,11.8988492 63.7550092,12.8730896 62.6499556,12.8730896 C61.544902,12.8730896 60.648901,11.8988492 60.648901,10.6795386 L60.648901,4.51179441 L59.6483738,4.51179441 L57.6473188,4.51179441 L57.6473188,11.558426 C57.646889,12.7863658 58.0292918,13.7140083 58.6474163,14.3413536 Z" id="Path" fill="#211E1F"></path>
                    <path d="M76.278376,6.10777103 L74.6171394,7.77450736 C73.941805,7.10401596 73.3292724,6.76877027 72.7786812,6.76877027 C72.4771466,6.76877027 72.2414248,6.83305805 72.0706555,6.96120216 C71.9003164,7.08934627 71.8151468,7.24898708 71.8151468,7.43969312 C71.8151468,7.58423277 71.8693456,7.71755442 71.9773131,7.83922661 C72.0857107,7.96089879 72.3524033,8.12701152 72.7786812,8.33713334 L73.7620026,8.830294 C74.7978021,9.34287043 75.5088389,9.86580195 75.8955431,10.3982256 C76.2822473,10.9306493 76.4753844,11.5554057 76.4753844,12.2716321 C76.4753844,13.2247308 76.1265333,14.0203461 75.428401,14.6580464 C74.7302686,15.2957467 73.7946939,15.6145969 72.6216767,15.6145969 C71.0619554,15.6145969 69.8166731,15.0032157 68.88583,13.7804534 L70.5376034,11.9760808 C70.8520425,12.3441176 71.2211106,12.6418262 71.6435172,12.868775 C72.066354,13.0952923 72.4414442,13.2087668 72.769218,13.2087668 C73.1232308,13.2087668 73.4079897,13.1233374 73.6243548,12.9524785 C73.8407199,12.7816197 73.9486874,12.5844418 73.9486874,12.3609446 C73.9486874,11.9467415 73.5585419,11.5424619 72.7786812,11.148106 L71.8740773,10.6946398 C70.1440168,9.82049847 69.2785564,8.72588028 69.2785564,7.41078519 C69.2785564,6.5625316 69.6046095,5.83767604 70.2567159,5.23664997 C70.9088222,4.63519244 71.7428817,4.33446367 72.7584642,4.33446367 C73.4531554,4.33446367 74.1069823,4.48720109 74.7199451,4.7931074 C75.3329078,5.0968564 75.852098,5.53565289 76.278376,6.10777103 Z" id="Path" fill="#211E1F"></path>
                </g>
                <path d="M65.8128434,64 C54.1988122,64 46.4561248,56.2336904 46.4561248,40.7010712 C46.4561248,31.4328437 46.4561248,0 46.4561248,0 L58.070156,11.6494644 L58.070156,36.8179164 C58.070156,36.8179164 58.070156,36.8179164 58.070156,40.7010712 C58.070156,44.584226 58.070156,52.3505356 65.8128434,52.3505356 C69.6841872,52.3505356 65.8128434,52.3505356 65.8128434,52.3505356 L73.5555309,52.3505356 L73.5555309,64 L65.8128434,64" id="Path" fill="#211E1F"></path>
                <g id="Group" transform="translate(0.000000, 9.501217)">
                    <path d="M42.584781,42.7147027 L30.9707498,42.7147027 C23.2280624,42.7147027 23.2280624,34.9483931 23.2280624,31.0652383 C23.2280624,27.1820836 23.2280624,27.1820836 23.2280624,27.1820836 L23.2280624,23.2989288 L34.8420936,11.6494644 L23.2280624,11.6494644 L23.2280624,6.13143873e-15 L0,23.2989288 L2.41528834,23.2989288 L12.2493617,13.987555 L5.24825165,23.2989288 L6.65871122,23.2989288 L20.7805128,10.000418 L10.417786,23.2989288 L11.6140312,23.2989288 C11.6140312,22.8502087 11.6140312,22.6875476 11.6140312,22.6780555 C11.6140312,22.6875476 11.6140312,22.8502087 11.6140312,23.2989288 C11.6140312,24.2291601 11.6140312,26.3998436 11.6140312,31.0652383 C11.6140312,46.5978575 19.3567187,54.3641671 30.9707498,54.3641671 L34.8420936,54.3641671 L50.3274685,54.3641671 L42.584781,42.7147027 Z" id="Path" fill="#211E1F"></path>
                    <polygon id="Path" fill="#D11F2B" points="2.41528834 23.2989288 5.24825165 23.2989288 12.2493617 13.987555"></polygon>
                    <polygon id="Path" fill="#D11F2B" points="6.65871122 23.2989288 10.417786 23.2989288 20.7805128 10.000418"></polygon>
                </g>
            </g>
        </g>
    </g>
</svg>