<?xml version="1.0" encoding="UTF-8"?>
<svg width="173px" height="80px" viewBox="0 0 173 80" version="1.1" xmlns="http://www.w3.org/2000/svg" xmlns:xlink="http://www.w3.org/1999/xlink">
    <title>logo-lettre-blanc</title>
    <defs>
        <linearGradient x1="42.6755792%" y1="56.1887441%" x2="73.5572269%" y2="30.837698%" id="linearGradient-1">
            <stop stop-color="#59AADE" stop-opacity="0" offset="0%"></stop>
            <stop stop-color="#40A2DB" offset="100%"></stop>
        </linearGradient>
        <linearGradient x1="40.9356552%" y1="57.7569104%" x2="74.7001418%" y2="29.8600543%" id="linearGradient-2">
            <stop stop-color="#59AADE" stop-opacity="0" offset="0%"></stop>
            <stop stop-color="#40A2DB" offset="100%"></stop>
        </linearGradient>
        <linearGradient x1="42.546155%" y1="56.2187124%" x2="73.7624007%" y2="30.9735307%" id="linearGradient-3">
            <stop stop-color="#59AADE" stop-opacity="0" offset="0%"></stop>
            <stop stop-color="#40A2DB" offset="100%"></stop>
        </linearGradient>
    </defs>
    <g id="Design" stroke="none" stroke-width="1" fill="none" fill-rule="evenodd">
        <g id="TL---Homepage" transform="translate(-144.000000, -6391.000000)" fill-rule="nonzero">
            <g id="Group-38" transform="translate(0.000000, 6231.000000)">
                <g id="Group" transform="translate(144.000000, 160.000000)">
                    <g id="Path">
                        <g>
                            <g transform="translate(1.878859, 0.580328)" fill="#FFFFFF">
                                <path d="M59.8763825,18.6688247 C59.8763825,18.6688247 58.4493757,11.42687 54.3394538,7.01914685 C50.229532,2.61142366 43.8957727,-0.795670277 37.30381,0.16249195 C37.6740052,0.678731709 39.7120784,3.87481762 39.7480758,4.51226535 C38.1184171,4.14377544 32.8716895,2.76359716 30.266991,2.81668094 C26.7543588,2.88878641 13.6757591,10.410758 6.78737365,11.4427952 C7.08379643,12.1802173 11.3794825,13.4104339 13.5277699,12.9428543 C11.3057101,14.3181666 -4.32292545,21.8383687 1.15845172,45.6521948 C1.67708048,43.8827354 3.52850072,32.7877831 16.0462525,28.7874779 L14.9352226,30.4485578 C14.9352226,30.4485578 6.56561208,34.9615638 7.23223003,43.8088605 C10.1209078,42.2605836 11.0839485,42.1867087 11.0839485,42.1867087 C11.0839485,42.1867087 9.45428985,45.5044449 8.7876719,48.3798163 C8.12105396,51.2551877 5.38036538,59.3650622 17.6016944,66.9591393 C17.2314992,65.6320448 15.0832118,58.7015149 18.4905183,56.6374406 C19.0829195,58.1857175 19.920636,61.5914844 21.5418509,63.3507693 C21.5418509,63.3507693 25.1566978,66.6645243 27.3045408,67.7704364 C29.4523838,68.8763484 36.7114088,72.0467772 35.7483681,77.8709526 C38.7850351,76.6911656 41.1555285,75.2167636 41.3035177,73.7423616 C41.4515069,72.2679596 42.6367536,68.3601087 42.6367536,68.3601087 C42.6367536,68.3601087 46.3400385,70.4980579 46.3400385,73.2999968 C47.8212635,72.6364495 51.7951953,69.9344851 50.9565899,63.8758564 C53.379524,62.2452996 56.8494926,59.512812 56.8494926,59.512812 L47.599502,37.9108102 L55.9691125,21.0270716 L59.8763825,18.6688247 Z"></path>
                                <path d="M75.8738799,37.0632392 L76.4858352,38.9357695 C76.4858352,38.9357695 75.7081143,41.1183976 75.1525993,41.1918301 C74.2717748,41.3090568 67.2274008,38.7902315 66.0052679,39.4197166 C64.783135,40.0492018 55.2282777,43.440813 55.5615867,45.3390005 C55.8948957,47.2376303 56.3090876,48.8686294 57.5463305,50.2647329 C58.7835735,51.6608363 61.7833542,53.7620692 62.5610751,53.9832516 C63.3387961,54.2044341 66.5607828,55.8633022 66.5607828,56.1950758 C66.5607828,56.5268494 63.7832081,62.7199571 58.6724705,63.3835043 C58.7835735,62.0564098 59.1559907,60.1683967 58.1169555,58.959856 C58.1169555,58.959856 52.4875892,63.088447 51.3027869,63.3835043 C50.1175402,63.6785617 45.2290085,65.0423724 44.9330302,64.6000076 C45.6365343,63.7519942 48.7847487,59.8445857 48.4883259,58.333025 C47.1182038,59.1071635 43.1184961,60.9504977 42.7478566,60.8399065 C43.6735667,58.7386736 45.0059137,46.6475156 44.747266,46.3891746 C44.4886182,46.1312759 43.1922685,48.4536912 43.1922685,48.4536912 L36.0816771,46.610357 L32.8965765,42.776381 L32.7112568,32.9704797 L38.3775093,25.2290952 L41.7848158,19.2204537 L42.7847427,14.2438493 C42.7847427,14.2438493 51.7098682,15.6076601 54.9691856,16.8980383 C58.2280585,18.1884165 63.0797039,19.6261022 63.5610021,20.2157745 C64.0423002,20.8054469 65.4128667,24.4217794 66.1163709,24.9543866 C66.819875,25.4869939 72.8567671,28.4729565 73.5971575,29.0812081 C74.3379922,29.6894598 77.4857621,30.7953719 77.9301741,31.4589191 C78.3745861,32.1224664 78.596792,32.8227299 78.2265969,33.3389696 C77.8564017,33.8552094 76.560052,35.034554 76.560052,35.034554 L75.8738799,37.0632392 Z"></path>
                            </g>
                            <path d="M61.1539522,16.6617609 C61.1539522,16.6617609 57.5515488,-2.94340606 35.6891466,0.379196197 C35.6891466,0.379196197 40.7110018,2.291097 41.0074246,4.79797851 C34.9243136,0.964002505 25.8543099,3.57572448 20.5515863,6.56743784 C13.3832213,10.6119795 7.17389736,11.7285083 3.17418969,11.8758158 C5.10915938,13.7744457 12.5650589,14.2349475 15.0830971,13.6452752 C9.15775237,14.9723697 -7.58191308,28.0960071 3.97279799,50.5088637 C3.8248088,44.0206987 7.23167092,32.7036792 17.7495689,29.662421 C10.3661085,34.0210417 7.49520721,37.6926698 7.97250566,48.2970396 C9.30574155,45.3477932 11.8242242,43.7260838 12.4166253,43.5783339 C10.4909883,46.2325229 3.52838602,62.6000217 21.0084418,69.0881867 C19.2307939,66.2866902 17.7495689,61.8630419 20.1196179,57.7340085 C20.4160407,60.8305624 23.3784908,66.4339977 28.5634452,69.0881867 C33.7483996,71.7423757 38.6662624,75.1631829 35.6887022,80 C38.9329096,79.7049427 44.9306934,77.1432079 45.06935,69.6783014 C46.9323249,71.3004532 47.969138,73.0699125 47.2283033,75.5763517 C50.0427642,74.1019497 54.2477902,70.4484585 53.6265023,64.1651085 C51.3097828,65.0171031 51.3097828,65.0171031 51.3097828,65.0171031 C51.3097828,65.0171031 53.3016372,70.2679737 48.7095284,73.3645275 C48.5615392,71.1527034 45.7466338,68.4985144 42.7841836,67.3187274 C43.3765848,69.2354942 43.8152194,76.166024 38.4111699,77.640426 C38.0436412,73.6591425 36.7104053,71.5946258 32.8586868,69.3828017 C29.0069683,67.1709775 20.8595638,65.5488257 20.8595638,54.1950899 C18.3410812,56.2596065 16.267455,59.5034679 18.7854932,66.8763625 C15.3781866,63.9271162 5.00872227,55.9645492 14.6377963,41.5142596 C12.2677473,41.8093169 10.0456875,43.5787763 10.0456875,43.5787763 C10.0456875,43.5787763 10.1359031,35.677698 19.9707399,28.6856795 C16.4154442,28.6856795 6.78637013,31.4871759 3.23107442,44.6108134 C2.04582771,37.9753409 0.425501688,23.4693133 17.3136007,12.8525574 C15.0173241,13.0644501 12.1748652,13.7187077 10.1474578,12.4376192 C14.202717,11.9399587 17.4802552,10.9720645 23.6202509,7.49905817 C29.3033911,4.20786382 32.8586868,2.43840449 42.3393273,5.97732315 C42.1913381,3.91280648 40.8576578,2.7188638 40.2652566,1.55367483 C43.6738964,1.70142468 53.746938,0.657001312 61.1539522,16.6617609 Z" fill="#AD1E2C"></path>
                            <path d="M45.8959562,14.9723697 C45.8959562,14.9723697 62.7836108,19.1009606 64.1168467,21.0181698 C65.4500826,22.935379 66.4868957,25.4418181 67.2277305,25.884183 C67.9685652,26.3265478 79.3748427,32.2245981 79.8192547,32.8147128 C80.2636666,33.4043851 78.634008,35.3215943 77.3007721,35.026537 C75.9675362,34.7314796 74.3378775,32.6674053 74.3378775,32.6674053 C74.3378775,32.6674053 76.7821433,35.855971 76.7265918,36.2983359 C76.6710403,36.7407007 75.6711134,37.4595435 74.3378775,37.4595435 C75.3378044,37.6254303 75.7822164,38.1230908 75.7822164,38.1230908 C74.9489439,38.2889776 73.4490536,38.7600961 73.4490536,38.7600961 C73.4490536,38.7600961 76.7821433,38.51016 78.1153792,39.8372545 C78.8375486,39.7266633 79.3375121,39.5607765 79.3375121,39.5607765 C79.3375121,39.5607765 78.7264456,38.2889776 78.6153427,37.9019084 C78.8931001,37.0724743 78.7819971,36.1877446 79.1708576,35.855971 C79.5597181,35.5241974 80.892954,33.9206249 81.0596085,32.5382348 C81.2262629,31.1558447 79.1153061,30.1605238 78.1153792,29.6075678 C77.1154523,29.0546117 69.5604489,25.9580579 68.9493824,25.0180326 C68.338316,24.0780074 66.3384621,20.3732019 65.5607412,19.654359 C64.7830203,18.9355162 57.4506673,16.5392259 45.8959562,14.9723697 Z" fill="#AD1E2C"></path>
                            <path d="M58.8950062,22.5845837 C59.9069322,23.1848728 61.1726175,25.4599551 60.89486,26.8423452 C60.6171025,28.2247353 60.6171025,28.2247353 60.6171025,28.2247353 C60.6171025,28.2247353 61.3948235,29.2200562 62.2836474,29.662421 C61.1726175,29.3306474 60.1171391,29.1647606 58.8950062,28.2247353 C57.6728733,27.28471 55.6730194,26.5658672 55.173056,26.1235023 C55.8396739,25.6811375 58.1626152,25.3144171 59.7736086,25.5355995 C59.7216124,25.6740597 59.9958146,24.2067355 58.8950062,22.5845837 Z" fill="#AD1E2C"></path>
                            <path d="M42.7850725,21.423376 C42.7850725,21.423376 40.7852186,16.8338409 36.674408,16.6679541 C32.5635973,16.5020672 29.841574,19.7092123 29.6749195,22.5845837 C29.508265,25.4599551 30.174883,26.7870496 27.0639992,29.662421 C29.6749195,29.4965342 32.6747003,29.1647606 34.5634511,26.8423452 C36.452202,24.5199298 35.5078265,23.9116782 37.8965409,22.5845837 C37.0077169,22.1422189 36.1744445,21.8657408 33.7301787,22.8610617 C34.8412086,21.699854 38.6187103,18.9903694 42.7850725,21.423376 Z" fill="#AD1E2C"></path>
                            <path d="M38.8409163,44.0945737 C33.8968332,34.0860693 43.1183814,28.9435781 46.8403316,25.1281815 C50.5622818,21.3127848 47.86559,17.9322327 46.8403316,16.391476 C50.8400393,25.0175903 41.4362821,25.3493639 37.4521289,31.1554023 C33.4679756,36.9614407 36.8126201,42.5095805 39.7404061,45.6667383 L38.8409163,44.0945737 Z" fill="#AD1E2C"></path>
                            <path d="M77.2825512,40.4450638 C77.2825512,40.4450638 78.0602721,41.2192022 77.6158601,42.1039319 C77.2825512,42.1039319 76.7270362,42.1039319 76.7270362,42.1039319 C76.7270362,42.1039319 75.7826608,45.0345989 73.2828435,45.9193286 C73.560601,45.2004857 74.3383219,43.181975 72.9495345,42.0486363 C72.9495345,42.0486363 71.8940561,45.5322594 69.3386873,46.5828758 C69.9497538,45.3110769 70.8941292,42.4910011 69.7830993,41.2192022 C67.9498999,41.0533154 64.5057072,41.9380451 60.9504115,45.0345989 C57.3951158,48.1311528 60.046922,49.8780515 60.9504115,50.7853417 C61.5872538,51.4245589 64.5057072,53.8266 66.2278036,54.2136692 C67.1166275,53.9924868 67.7276939,53.2736439 67.8943484,53.1630527 C68.0054514,53.6607132 67.6721424,54.5454428 67.6721424,54.5454428 C67.6721424,54.5454428 69.7275478,54.379556 70.8941292,52.9971659 C70.7830262,54.4348516 70.1719597,55.5407637 69.6164448,56.2043109 C70.0608568,56.5913802 70.4497172,56.8678582 70.1164083,57.310223 C69.7830993,57.7525879 69.3386873,57.7525879 69.3386873,57.7525879 C69.3386873,57.7525879 67.5610395,63.7798087 58.7283517,65.0516076 C59.3394181,64.2774691 60.3948965,62.065645 59.3394181,60.7938461 C57.1173583,61.9550538 51.7373071,67.4593994 45.0702388,65.4745084 C46.0146142,64.3685963 49.5623549,61.7338713 49.8401124,59.7432296 C47.7847071,61.2362109 43.6552311,62.5265891 41.1554138,63.1901364 C40.2230375,64.1182178 50.2556376,55.3611636 46.2848167,44.2051649 C48.0624645,47.0252407 50.8400393,51.7806626 46.2292652,60.2961856 C47.2847436,60.1855944 50.2845244,59.0796824 50.9511423,56.8125626 C51.0622453,58.2502483 51.1733483,61.2915065 48.6179795,64.6092428 C50.3956273,64.3327647 55.9214457,63.9456955 60.046922,56.5913802 C60.7282055,57.1996318 63.5057803,61.0703241 61.117066,63.3374439 C62.7836108,62.6738966 65.7278401,62.3974186 67.061076,56.9784494 C67.2277305,56.2596065 61.7836839,54.4901472 58.3950427,51.6147758 C55.0064015,48.7394044 53.2843051,46.1958066 58.7283517,42.8227748 C64.1723982,39.4497429 66.2278036,39.0073781 67.6721424,39.0073781 C69.1164813,39.0073781 75.1160428,41.3850891 77.0603452,41.1639066 C77.0603452,41.1639066 77.2825512,40.9980198 77.2825512,40.4450638 Z" fill="#AD1E2C"></path>
                        </g>
                        <path d="M61.8867875,5.45267846 L61.7552416,6.62494526 C61.7552416,6.62494526 81.6933399,7.18365205 82.0973104,27.6408137 C83.8767359,27.7310561 83.4709878,27.9004819 83.4709878,27.9004819 C83.4709878,27.9004819 83.8469603,18.2671029 77.6269704,11.9227065 C71.0150092,5.17973936 61.8867875,5.45267846 61.8867875,5.45267846 Z" fill="url(#linearGradient-1)"></path>
                        <path d="M71.2821008,17.6234621 C74.7280712,21.3083611 74.1521133,25.2299254 74.1521133,25.2299254 L75.0173834,25.5355995 C75.0173834,25.5355995 75.9799797,21.5454687 72.6237806,17.32752 C69.3862394,13.2586483 63.7853154,13.5271637 63.7853154,13.5271637 L63.6848783,14.738801 C62.7409473,14.2813958 68.3632031,14.5021358 71.2821008,17.6234621 Z" fill="url(#linearGradient-2)"></path>
                        <path d="M62.9995951,9.65647146 C62.9995951,9.65647146 70.2172898,9.53482113 74.8120651,14.4220678 C79.4068404,19.3093145 79.2588512,23.2574206 79.4570589,26.4694316 L78.3540284,26.3468966 C78.3540284,26.3468966 78.8068842,20.0126745 74.4965326,15.6766145 C70.1861809,11.3405544 65.2976493,11.0247059 62.9178233,10.3899124 L62.9995951,9.65647146 Z" fill="url(#linearGradient-3)"></path>
                    </g>
                    <g transform="translate(83.994061, 0.374330)" id="Path">
                        <path d="M37.4759277,76.8520423 C23.4222882,76.8520423 14.0536395,67.5256646 14.0536395,48.8742361 C14.0536395,34.885333 14.0536395,39.5483007 14.0536395,39.5483007 L0,39.5483007 L28.1068347,11.5709369 L28.1068347,25.55984 L42.1604742,25.55984 L28.1068347,39.5487431 L28.1068347,39.5487431 L28.1068347,44.2117108 C28.1068347,44.2117108 28.1068347,44.2117108 28.1068347,48.8746785 C28.1068347,53.5376462 28.1068347,62.8635816 37.4759277,62.8631392 C42.1604742,62.8631392 37.4759277,62.8631392 37.4759277,62.8631392 L51.5295672,62.8631392 L60.8986603,76.8520423 L42.1604742,76.8520423" fill="#FFFFFF"></path>
                        <polygon fill="#6F1620" points="2.89445512 39.5483007 14.8224722 28.3670872 6.3146496 39.5483007"></polygon>
                        <polygon fill="#6F1620" points="8.05185597 39.5483007 25.1457178 23.579815 12.6257439 39.4974288"></polygon>
                        <path d="M79.6364019,76.8520423 C65.5827624,76.8520423 56.2141138,67.5256646 56.2141138,48.8742361 C56.2141138,37.7447793 56.2141138,0 56.2141138,0 L70.2677533,13.9889031 L70.2677533,44.2117108 C70.2677533,44.2117108 70.2677533,44.2117108 70.2677533,48.8746785 C70.2677533,53.5376462 70.2677533,62.8635816 79.6368463,62.8631392 C84.3213928,62.8631392 79.6368463,62.8631392 79.6368463,62.8631392 L89.0059393,62.8631392 L89.0059393,76.8520423 L79.6364019,76.8520423" fill="#FFFFFF"></path>
                    </g>
                </g>
            </g>
        </g>
    </g>
</svg>