<?xml version="1.0" encoding="UTF-8"?>
<svg width="58px" height="24px" viewBox="0 0 58 24" version="1.1" xmlns="http://www.w3.org/2000/svg" xmlns:xlink="http://www.w3.org/1999/xlink">
    <title>logo-stripe</title>
    <g id="Design" stroke="none" stroke-width="1" fill="none" fill-rule="evenodd">
        <g id="TL---Homepage" transform="translate(-324.000000, -7106.000000)" fill="#FFFFFF">
            <g id="Group-38" transform="translate(0.000000, 6231.000000)">
                <g id="Bottom" transform="translate(144.000000, 875.000000)">
                    <g id="logo-stripe" transform="translate(180.000000, 0.000000)">
                        <path d="M58,12.400534 C58,8.29906542 56.0022222,5.06275033 52.1838889,5.06275033 C48.3494444,5.06275033 46.0294444,8.29906542 46.0294444,12.3684913 C46.0294444,17.1909212 48.7683333,19.6261682 52.6994444,19.6261682 C54.6166667,19.6261682 56.0666667,19.1935915 57.1622222,18.5847797 L57.1622222,15.3805073 C56.0666667,15.9252336 54.81,16.2616822 53.215,16.2616822 C51.6522222,16.2616822 50.2666667,15.7169559 50.0894444,13.8264352 L57.9677778,13.8264352 C57.9677778,13.6181575 58,12.7850467 58,12.400534 Z M50.0411111,10.8785047 C50.0411111,9.06809079 51.1527778,8.31508678 52.1677778,8.31508678 C53.1505556,8.31508678 54.1977778,9.06809079 54.1977778,10.8785047 L50.0411111,10.8785047 Z" id="Shape"></path>
                        <path d="M39.8105556,5.06275033 C38.2316667,5.06275033 37.2166667,5.79973298 36.6527778,6.31241656 L36.4433333,5.31909212 L32.8988889,5.31909212 L32.8988889,24 L36.9266667,23.1508678 L36.9427778,18.6168224 C37.5227778,19.0333778 38.3766667,19.6261682 39.7944444,19.6261682 C42.6783333,19.6261682 45.3044444,17.3190921 45.3044444,12.2403204 C45.2883333,7.5941255 42.63,5.06275033 39.8105556,5.06275033 Z M38.8438889,16.1014686 C37.8933333,16.1014686 37.3294444,15.76502 36.9427778,15.3484646 L36.9266667,9.40453939 C37.3455556,8.93991989 37.9255556,8.61949266 38.8438889,8.61949266 C40.31,8.61949266 41.325,10.2536716 41.325,12.35247 C41.325,14.4993324 40.3261111,16.1014686 38.8438889,16.1014686 Z" id="Shape"></path>
                        <polygon id="Path" points="27.3566667 4.11748999 31.4005556 3.25233645 31.4005556 0 27.3566667 0.849132176"></polygon>
                        <rect id="Rectangle" x="27.3566667" y="5.33511348" width="4.04388889" height="14.0186916"></rect>
                        <path d="M23.0227778,6.52069426 L22.765,5.33511348 L19.285,5.33511348 L19.285,19.3538051 L23.3127778,19.3538051 L23.3127778,9.85313752 C24.2633333,8.61949266 25.8744444,8.84379172 26.3738889,9.0200267 L26.3738889,5.33511348 C25.8583333,5.14285714 23.9733333,4.79038718 23.0227778,6.52069426 Z" id="Path"></path>
                        <path d="M14.9672222,1.85847797 L11.0361111,2.69158879 L11.02,15.5246996 C11.02,17.8958611 12.8083333,19.6421896 15.1927778,19.6421896 C16.5138889,19.6421896 17.4805556,19.4018692 18.0122222,19.1134846 L18.0122222,15.8611482 C17.4966667,16.0694259 14.9511111,16.8064085 14.9511111,14.435247 L14.9511111,8.74766355 L18.0122222,8.74766355 L18.0122222,5.33511348 L14.9511111,5.33511348 L14.9672222,1.85847797 Z" id="Path"></path>
                        <path d="M4.07611111,9.40453939 C4.07611111,8.77970628 4.59166667,8.53938585 5.44555556,8.53938585 C6.67,8.53938585 8.21666667,8.90787717 9.44111111,9.564753 L9.44111111,5.79973298 C8.10388889,5.27102804 6.78277778,5.06275033 5.44555556,5.06275033 C2.175,5.06275033 0,6.76101469 0,9.59679573 C0,14.0186916 6.12222222,13.3137517 6.12222222,15.2202937 C6.12222222,15.9572764 5.47777778,16.1975968 4.57555556,16.1975968 C3.23833333,16.1975968 1.53055556,15.6528705 0.177222222,14.9158879 L0.177222222,18.728972 C1.67555556,19.3698264 3.19,19.6421896 4.57555556,19.6421896 C7.92666667,19.6421896 10.2305556,17.9919893 10.2305556,15.1241656 C10.2144444,10.3497997 4.07611111,11.1989319 4.07611111,9.40453939 Z" id="Path"></path>
                    </g>
                </g>
            </g>
        </g>
    </g>
</svg>