<?xml version="1.0" encoding="UTF-8"?>
<svg width="100px" height="24px" viewBox="0 0 100 24" version="1.1" xmlns="http://www.w3.org/2000/svg" xmlns:xlink="http://www.w3.org/1999/xlink">
    <title>logo-paypal</title>
    <g id="Design" stroke="none" stroke-width="1" fill="none" fill-rule="evenodd">
        <g id="TL---Homepage" transform="translate(-414.000000, -7106.000000)" fill="#FFFFFF" fill-rule="nonzero">
            <g id="Group-38" transform="translate(0.000000, 6231.000000)">
                <g id="Bottom" transform="translate(144.000000, 875.000000)">
                    <g id="logo-paypal" transform="translate(270.000000, 0.000000)">
                        <g id="Group" transform="translate(29.310544, 5.366986)">
                            <path d="M47.7001746,0 L42.2014105,0 C41.8255344,0 41.5055083,0.270610524 41.4469399,0.638024812 L39.2233149,14.5848561 C39.1795739,14.8601112 39.3943249,15.1089653 39.6760467,15.1089653 L42.4974655,15.1089653 C42.7604058,15.1089653 42.9847947,14.919758 43.0255703,14.662348 L43.6562316,10.7085498 C43.7148001,10.3411355 44.0348261,10.070525 44.4109494,10.070525 L46.150952,10.070525 C49.7725595,10.070525 51.8627373,8.33661309 52.4091293,4.9003239 C52.655018,3.39742101 52.4190142,2.21646397 51.7075432,1.38972071 C50.9256417,0.480596468 49.5397683,0 47.7001746,0 Z M48.33479,5.09368698 C48.0342868,7.04614068 46.5270753,7.04614068 45.0687945,7.04614068 L44.2394451,7.04614068 L44.8211759,3.40084337 C44.8565146,3.1803459 45.0485303,3.01802848 45.2739077,3.01802848 L45.6542321,3.01802848 C46.6466835,3.01802848 47.5842733,3.01802848 48.0674014,3.57733912 C48.356784,3.91224103 48.4440189,4.4082381 48.33479,5.09368698 Z" id="Shape"></path>
                            <path d="M8.48252748,0 L2.98401051,0 C2.60813437,0 2.28810832,0.270610524 2.22929272,0.638024812 L0.00566774932,14.5848561 C-0.0380732621,14.8601112 0.17692493,15.1089653 0.458646698,15.1089653 L3.08409588,15.1089653 C3.45997203,15.1089653 3.77999807,14.8385993 3.83881367,14.471185 L4.43883161,10.7085498 C4.49740008,10.3411355 4.81742613,10.070525 5.19330228,10.070525 L6.93330488,10.070525 C10.5551595,10.070525 12.6453373,8.33661309 13.1917293,4.9003239 C13.437618,3.39742101 13.2016142,2.21646397 12.4903903,1.38972071 C11.7079946,0.480596468 10.3218741,0 8.48252748,0 Z M9.11714283,5.09368698 C8.81663962,7.04614068 7.30918103,7.04614068 5.85139444,7.04614068 L5.02179797,7.04614068 L5.60352871,3.40084337 C5.63886749,3.1803459 5.830636,3.01802848 6.05626053,3.01802848 L6.43658492,3.01802848 C7.42903634,3.01802848 8.36662616,3.01802848 8.84975428,3.57733912 C9.13888978,3.91224103 9.2263718,4.4082381 9.11714283,5.09368698 Z" id="Shape"></path>
                            <path d="M24.9170387,5.03135122 L22.2844229,5.03135122 C22.0587983,5.03135122 21.8667827,5.19366864 21.8314439,5.41416611 L21.7157897,6.14239443 L21.5316821,5.87862861 C20.9613191,5.05995233 19.6906056,4.78640836 18.421622,4.78640836 C15.5129683,4.78640836 13.0278858,6.9669376 12.5442634,10.0250565 C12.2924437,11.5506936 12.6497855,13.0088615 13.5243586,14.0265233 C14.3277599,14.9615596 15.4744169,15.3507303 16.8405204,15.3507303 C19.1849892,15.3507303 20.4856047,13.860539 20.4856047,13.860539 L20.3679735,14.5846116 C20.3237382,14.8598668 20.5387364,15.1089653 20.8207053,15.1089653 L23.1918635,15.1089653 C23.5677397,15.1089653 23.8875186,14.8385993 23.9463342,14.4714294 L25.3697705,5.55546049 C25.4137586,5.27996089 25.1987604,5.03135122 24.9170387,5.03135122 Z M21.2477362,10.1008373 C20.9934452,11.5888285 19.7990932,12.5879118 18.2758187,12.5879118 C17.5122044,12.5879118 16.9008187,12.3449245 16.507891,11.8848622 C16.118423,11.4289556 15.9718783,10.779197 16.0954405,10.0556133 C16.3324327,8.58082259 17.5460604,7.54947137 19.0461053,7.54947137 C19.7936565,7.54947137 20.400841,7.79465868 20.8014296,8.25912119 C21.2047366,8.7267616 21.3631433,9.38067592 21.2477362,10.1008373 Z" id="Shape"></path>
                            <path d="M64.1346858,5.03135122 L61.50207,5.03135122 C61.2764455,5.03135122 61.0844299,5.19366864 61.0493382,5.41416611 L60.9334369,6.14239443 L60.7493292,5.87862861 C60.1789662,5.05995233 58.9082528,4.78640836 57.6392692,4.78640836 C54.7303684,4.78640836 52.2455329,6.9669376 51.7621577,10.0250565 C51.510338,11.5506936 51.8676798,13.0088615 52.7422529,14.0265233 C53.5456542,14.9615596 54.6923112,15.3507303 56.0584147,15.3507303 C58.4028835,15.3507303 59.703499,13.860539 59.703499,13.860539 L59.5858678,14.5846116 C59.5416325,14.8598668 59.7566307,15.1089653 60.0385996,15.1089653 L62.4097578,15.1089653 C62.7856339,15.1089653 63.1054129,14.8385993 63.1642285,14.4714294 L64.5876648,5.55546049 C64.6316529,5.27996089 64.4164076,5.03135122 64.1346858,5.03135122 Z M60.4656305,10.1008373 C60.2113395,11.5888285 59.0172346,12.5879118 57.4939601,12.5879118 C56.7300987,12.5879118 56.1189601,12.3449245 55.7257853,11.8848622 C55.3365644,11.4289556 55.1897725,10.779197 55.3133347,10.0556133 C55.5505741,8.58082259 56.7637076,7.54947137 58.2637524,7.54947137 C59.0113036,7.54947137 59.6184882,7.79465868 60.0193239,8.25912119 C60.4223837,8.7267616 60.5807904,9.38067592 60.4656305,10.1008373 Z" id="Shape"></path>
                            <path d="M38.9403575,5.03135122 L36.2939028,5.03135122 C36.0408474,5.03135122 35.8041023,5.15577828 35.6617586,5.36283078 L32.0112376,10.6811709 L30.463992,5.57037218 C30.3671193,5.25062641 30.0695815,5.03110677 29.7322568,5.03110677 L27.1307787,5.03110677 C26.8166836,5.03110677 26.5957544,5.3366742 26.6968283,5.63099676 L29.6109187,14.0920369 L26.8700625,17.9172523 C26.6548172,18.2176862 26.8720395,18.6330135 27.2442088,18.6330135 L29.8879451,18.6330135 C30.1385292,18.6330135 30.3730503,18.5115199 30.5158881,18.3076453 L39.316975,5.74295667 C39.527525,5.44252276 39.3100555,5.03135122 38.9403575,5.03135122 Z" id="Path"></path>
                            <path d="M67.2383206,0.383059341 L64.9813339,14.5851005 C64.9375929,14.8601112 65.152591,15.1089653 65.4340657,15.1089653 L67.7039029,15.1089653 C68.0797791,15.1089653 68.3998051,14.8385993 68.4586207,14.471185 L70.6837284,0.524353725 C70.7277166,0.249098576 70.5127184,0.000244178621 70.2309966,0.000244178621 L67.6912996,0.000244178621 C67.4654279,1.08420217e-19 67.2734123,0.162561877 67.2383206,0.383059341 Z" id="Path"></path>
                        </g>
                        <g id="Group" transform="translate(0.000000, 0.000000)">
                            <path d="M18.5294811,6.09765935 C18.825536,4.23052008 18.5275041,2.96033735 17.5066333,1.80944815 C16.3827118,0.542687771 14.352338,0 11.7545668,0 L4.21381411,0 C3.68299099,0 3.23075341,0.382081525 3.14821388,0.901057263 L0.00800465969,20.597201 C-0.0537764299,20.9858828 0.249939406,21.3371631 0.647315374,21.3371631 L5.30264403,21.3371631 L4.98138237,23.3526859 C4.92726213,23.6927214 5.19267369,24 5.54062479,24 L9.46471247,24 C9.92905914,24 10.3244581,23.6658314 10.3968656,23.2118805 L10.435417,23.0143617 L11.1745659,18.3775591 L11.2222609,18.1213714 C11.2946683,17.6676649 11.6900673,17.3330074 12.154414,17.3330074 L12.7413343,17.3330074 C16.5428483,17.3330074 19.5194612,15.8054147 20.3890919,11.3871539 C20.7526118,9.54103771 20.5645501,8 19.6034835,6.91658009 C19.3131124,6.5895007 18.9513223,6.31864573 18.5294811,6.09765935 L18.5294811,6.09765935" id="Path" opacity="0.68"></path>
                            <path d="M18.5294811,6.09765935 C18.825536,4.23052008 18.5275041,2.96033735 17.5066333,1.80944815 C16.3827118,0.542687771 14.352338,0 11.7545668,0 L4.21381411,0 C3.68299099,0 3.23075341,0.382081525 3.14821388,0.901057263 L0.00800465969,20.597201 C-0.0537764299,20.9858828 0.249939406,21.3371631 0.647315374,21.3371631 L5.30264403,21.3371631 L6.4720365,14.0018334 L6.43570922,14.2318646 C6.51849588,13.7131333 6.96653234,13.3308073 7.49760258,13.3308073 L9.71035409,13.3308073 C14.0557888,13.3308073 17.4584441,11.5844283 18.4523783,6.53400966 C18.4820332,6.38489275 18.5069927,6.23993155 18.5294811,6.09765935" id="Path" opacity="0.7"></path>
                            <path d="M7.72841673,6.1223492 C7.77808873,5.81042596 7.9807307,5.55472713 8.25330887,5.42565544 C8.37711817,5.36698649 8.51575494,5.33422966 8.66081694,5.33422966 L14.5717845,5.33422966 C15.2721349,5.33422966 15.9250374,5.3796981 16.5218428,5.47479069 C16.6923586,5.50192507 16.8584261,5.53321518 17.0197984,5.568661 C17.1809234,5.60410683 17.3376003,5.64346391 17.4890875,5.68746562 C17.5649547,5.70922203 17.6393391,5.73244515 17.7127351,5.75640164 C18.0058245,5.85271649 18.278897,5.96614313 18.5299753,6.09790381 C18.8260303,4.23076453 18.5279983,2.9605818 17.5071276,1.8096926 C16.3827118,0.542687771 14.352338,0 11.7545668,0 L4.21381411,0 C3.68299099,0 3.23075341,0.382081525 3.14821388,0.901057263 L0.00800465969,20.597201 C-0.0537764299,20.9858828 0.249939406,21.3371631 0.647315374,21.3371631 L5.30264403,21.3371631 L6.4720365,14.0018334 L7.72841673,6.1223492 Z" id="Path"></path>
                        </g>
                    </g>
                </g>
            </g>
        </g>
    </g>
</svg>