<?xml version="1.0" encoding="UTF-8"?>
<svg width="25px" height="24px" viewBox="0 0 25 24" version="1.1" xmlns="http://www.w3.org/2000/svg" xmlns:xlink="http://www.w3.org/1999/xlink">
    <title>logo-linkedin</title>
    <g id="Design" stroke="none" stroke-width="1" fill="none" fill-rule="evenodd">
        <g id="TL---Homepage" transform="translate(-1215.000000, -7107.000000)" fill="#FFFFFF">
            <g id="Group-38" transform="translate(0.000000, 6231.000000)">
                <g id="Bottom" transform="translate(144.000000, 875.000000)">
                    <g id="Social" transform="translate(861.000000, 0.000000)">
                        <g id="logo-linkedin" transform="translate(210.000000, 1.000000)">
                            <path d="M5.67593022,0 L5.67593022,16.1935909 L0.316800544,16.1935909 L0.316800544,0 L5.67593022,0 Z M2.99634153,18.4045523 C4.86517847,18.4045523 6.02837082,19.6480383 6.02837082,21.2020365 C5.99354185,22.7910153 4.86517847,24 3.03179074,24 C1.19859386,24 -1.30614473e-15,22.7910153 -1.30614473e-15,21.2020365 C-1.30614473e-15,19.6480383 1.1629538,18.4045523 2.96141713,18.4045523 L2.9962461,18.4045523 L2.99634153,18.4045523 Z" id="path28" transform="translate(3.014185, 12.000000) scale(-1, 1) rotate(-180.000000) translate(-3.014185, -12.000000) "></path>
                            <path d="M8.64130736,7.42641509 L14.0003893,7.42641509 L14.0003893,16.4696017 C14.0003893,16.9535789 14.0352183,17.437077 14.1767289,17.7830488 C14.5641416,18.7500449 15.4459349,19.7515424 16.9264049,19.7515424 C18.8656155,19.7515424 19.6413474,18.2665469 19.6413474,16.0896077 L19.6413474,7.42641509 L25,7.42641509 L25,16.7115903 C25,21.6855346 22.3560991,24 18.830214,24 C15.9391228,24 14.6699167,22.3769991 13.9647493,21.2715184 L14.0005325,21.2715184 L14.0005325,23.620006 L8.64130736,23.620006 C8.71177639,22.1005091 8.64130736,7.42641509 8.64130736,7.42641509 L8.64130736,7.42641509 Z" id="path30" transform="translate(16.820654, 15.713208) scale(-1, 1) rotate(-180.000000) translate(-16.820654, -15.713208) "></path>
                        </g>
                    </g>
                </g>
            </g>
        </g>
    </g>
</svg>