<?xml version="1.0" encoding="UTF-8"?>
<svg width="24px" height="24px" viewBox="0 0 24 24" version="1.1" xmlns="http://www.w3.org/2000/svg" xmlns:xlink="http://www.w3.org/1999/xlink">
    <title>logo-instagram</title>
    <g id="Design" stroke="none" stroke-width="1" fill="none" fill-rule="evenodd">
        <g id="TL---Homepage" transform="translate(-1272.000000, -7107.000000)" fill="#FFFFFF" fill-rule="nonzero">
            <g id="Group-38" transform="translate(0.000000, 6231.000000)">
                <g id="Bottom" transform="translate(144.000000, 875.000000)">
                    <g id="Social" transform="translate(861.000000, 0.000000)">
                        <g id="logo-instagram" transform="translate(267.000000, 1.000000)">
                            <path d="M12.001125,0 C8.74209106,0 8.3330868,0.01425 7.05307347,0.0725 C5.77556016,0.131 4.90355108,0.33325 4.14054313,0.63 C3.35128491,0.9365 2.68177794,1.3465 2.01477099,2.01375 C1.34726403,2.68075 0.937259763,3.35025 0.62975656,4.13925 C0.332253461,4.9025 0.129751352,5.77475 0.0722507526,7.05175 C0.0150001563,8.33175 0,8.741 0,12 C0,15.259 0.014500151,15.66675 0.0725007552,16.94675 C0.131251367,18.22425 0.333503474,19.09625 0.630006563,19.85925 C0.936759758,20.6485 1.34676403,21.318 2.01402098,21.985 C2.68077792,22.6525 3.3502849,23.0635 4.13904312,23.37 C4.90255107,23.66675 5.77481015,23.869 7.05207346,23.9275 C8.33208679,23.98575 8.74084105,24 11.999625,24 C15.2589089,24 15.6666632,23.98575 16.9466765,23.9275 C18.2241898,23.869 19.0971989,23.66675 19.8607069,23.37 C20.6497151,23.0635 21.3182221,22.6525 21.984979,21.985 C22.652486,21.318 23.0624902,20.6485 23.3699934,19.8595 C23.6649965,19.09625 23.8674986,18.224 23.9274992,16.947 C23.9849998,15.667 24,15.259 24,12 C24,8.741 23.9849998,8.332 23.9274992,7.052 C23.8674986,5.7745 23.6649965,4.9025 23.3699934,4.1395 C23.0624902,3.35025 22.652486,2.68075 21.984979,2.01375 C21.3174721,1.34625 20.6499651,0.93625 19.8599569,0.63 C19.0949489,0.33325 18.2224398,0.131 16.9449265,0.0725 C15.6649132,0.01425 15.2574089,0 11.997375,0 L12.001125,0 Z M10.9246138,2.1625 C11.2441171,2.162 11.6006208,2.1625 12.001125,2.1625 C15.2051584,2.1625 15.5849123,2.174 16.8501755,2.2315 C18.0201877,2.285 18.6551943,2.4805 19.0781987,2.64475 C19.6382046,2.86225 20.0374587,3.12225 20.4572131,3.54225 C20.8772175,3.96225 21.1372202,4.36225 21.3552225,4.92225 C21.5194742,5.34475 21.7152262,5.97975 21.7684768,7.14975 C21.8259774,8.41475 21.8384775,8.79475 21.8384775,11.99725 C21.8384775,15.19975 21.8259774,15.57975 21.7684768,16.84475 C21.7149762,18.01475 21.5194742,18.64975 21.3552225,19.07225 C21.1377202,19.63225 20.8772175,20.031 20.4572131,20.45075 C20.0372087,20.87075 19.6384546,21.13075 19.0781987,21.34825 C18.6556943,21.51325 18.0201877,21.70825 16.8501755,21.76175 C15.5851623,21.81925 15.2051584,21.83175 12.001125,21.83175 C8.79684163,21.83175 8.41708768,21.81925 7.1520745,21.76175 C5.98206231,21.70775 5.3470557,21.51225 4.92380129,21.348 C4.36379546,21.1305 3.96379129,20.8705 3.54378691,20.4505 C3.12378254,20.0305 2.86377983,19.6315 2.64577756,19.07125 C2.48152585,18.64875 2.28577381,18.01375 2.23252326,16.84375 C2.17502266,15.57875 2.16352254,15.19875 2.16352254,11.99425 C2.16352254,8.78975 2.17502266,8.41175 2.23252326,7.14675 C2.28602381,5.97675 2.48152585,5.34175 2.64577756,4.91875 C2.86327983,4.35875 3.12378254,3.95875 3.54378691,3.53875 C3.96379129,3.11875 4.36379546,2.85875 4.92380129,2.64075 C5.3468057,2.47575 5.98206231,2.28075 7.1520745,2.227 C8.25908603,2.177 8.6880905,2.162 10.9246138,2.1595 L10.9246138,2.1625 Z M18.4066917,4.155 C17.6116835,4.155 16.9666767,4.79925 16.9666767,5.5945 C16.9666767,6.3895 17.6116835,7.0345 18.4066917,7.0345 C19.2017,7.0345 19.8467067,6.3895 19.8467067,5.5945 C19.8467067,4.7995 19.2017,4.1545 18.4066917,4.1545 L18.4066917,4.155 Z M12.001125,5.8375 C8.59783956,5.8375 5.83856082,8.59675 5.83856082,12 C5.83856082,15.40325 8.59783956,18.16125 12.001125,18.16125 C15.4044105,18.16125 18.1626892,15.40325 18.1626892,12 C18.1626892,8.59675 15.4041605,5.8375 12.000875,5.8375 L12.001125,5.8375 Z M12.001125,8 C14.210148,8 16.0011667,9.79075 16.0011667,12 C16.0011667,14.209 14.210148,16 12.001125,16 C9.791852,16 8.00108334,14.209 8.00108334,12 C8.00108334,9.79075 9.791852,8 12.001125,8 Z" id="Shape"></path>
                        </g>
                    </g>
                </g>
            </g>
        </g>
    </g>
</svg>