<?xml version="1.0" encoding="UTF-8"?>
<svg width="138px" height="65px" viewBox="0 0 138 65" version="1.1" xmlns="http://www.w3.org/2000/svg" xmlns:xlink="http://www.w3.org/1999/xlink">
    <title>logo-tl-conventionne</title>
    <g id="Design" stroke="none" stroke-width="1" fill="none" fill-rule="evenodd">
        <g id="Artboard" transform="translate(-359.000000, -415.000000)" fill-rule="nonzero">
            <g id="logo-tl-conventionne" transform="translate(359.000000, 415.000000)">
                <path d="M65.6514563,63.6993954 C54.0659052,63.6993954 46.3422044,55.9695638 46.3422044,40.5099005 C46.3422044,31.2852053 46.3422044,0 46.3422044,0 L57.9277555,11.5947475 L57.9277555,36.6449847 C57.9277555,36.6449847 57.9277555,36.6449847 57.9277555,40.5099005 C57.9277555,44.3748163 57.9277555,52.104648 65.6514563,52.104648 C69.5133066,52.104648 65.6514563,52.104648 65.6514563,52.104648 L73.375157,52.104648 L73.375157,63.6993954 L65.6514563,63.6993954" id="Path" fill="#020202"></path>
                <g id="Group" transform="translate(0.000000, 9.456590)">
                    <path d="M42.480354,42.5140741 L30.8948029,42.5140741 C23.1711022,42.5140741 23.1711022,34.7842424 23.1711022,30.9193266 C23.1711022,27.0544108 23.1711022,27.0544108 23.1711022,27.0544108 L23.1711022,23.1894949 L34.7566533,11.5947475 L23.1711022,11.5947475 L23.1711022,0 L0,23.1894949 L2.40936554,23.1894949 L12.2193237,13.9218562 L5.23538182,23.1894949 L6.64238263,23.1894949 L20.7295546,9.95344655 L10.3922393,23.1894949 L11.5855511,23.1894949 C11.5855511,22.7428824 11.5855511,22.5809854 11.5855511,22.5715378 C11.5855511,22.5809854 11.5855511,22.7428824 11.5855511,23.1894949 C11.5855511,24.115357 11.5855511,26.2758449 11.5855511,30.9193266 C11.5855511,46.3789899 19.3092518,54.1088215 30.8948029,54.1088215 L34.7566533,54.1088215 L50.2040548,54.1088215 L42.480354,42.5140741 Z" id="Path" fill="#020202"></path>
                    <polygon id="Path" fill="#22589F" points="2.40936554 23.1894949 5.23538182 23.1894949 12.2193237 13.9218562"></polygon>
                    <polygon id="Path" fill="#22589F" points="6.64238263 23.1894949 10.3922393 23.1894949 20.7295546 9.95344655"></polygon>
                </g>
                <ellipse id="Oval" stroke="#22589F" stroke-width="1.28830527" fill="#FFFFFF" cx="106.963386" cy="33.9395436" rx="30.036614" ry="30.0604564"></ellipse>
                <g id="Group" transform="translate(88.106687, 15.330196)">
                    <ellipse id="Oval" fill="#FFFFFF" cx="18.8566989" cy="18.6093477" rx="18.2009008" ry="18.2153483"></ellipse>
                    <path d="M36.4341254,18.680634 C36.2745023,28.5335927 28.4722772,36.6022486 18.4919686,36.4407811 C8.89527044,36.2853256 1.43031368,27.8817102 1.27927242,18.5376321 C1.11964927,8.67780239 9.48699174,0.619882327 19.2214292,0.777485006 C28.8176983,0.933369944 36.2826551,9.33655582 36.4341254,18.680634 C36.4431364,19.2337464 37.6879395,18.9739381 37.681118,18.5376321 C37.5308909,9.24551558 30.8061221,1.54187947 21.6054782,0.192164976 C13.0295958,-1.06607984 4.68456626,3.97248209 1.35436395,11.8530455 C-2.34228504,20.6006383 1.85254265,30.7155524 10.0010469,35.1048085 C17.7916864,39.3012482 27.7140673,36.9552443 33.3600925,30.3694277 C36.1805306,27.0790961 37.6115607,22.8401423 37.681118,18.5380615 C37.6896559,17.9879552 36.4409909,18.2396041 36.4341254,18.680634 Z" id="Path" fill="#22589F"></path>
                </g>
                <path d="M107.732323,41.9218831 C110.569925,41.9218831 112.889181,40.7984809 114.69052,38.551247 L118.391889,42.3663484 C115.455595,45.6755752 111.994519,47.3301886 108.009947,47.3301886 C104.024518,47.3301886 100.742374,46.0702261 98.1643745,43.5520187 C95.5859457,41.0333819 94.2965168,37.8538445 94.2965168,34.0138359 C94.2965168,30.1742567 95.6108332,26.9702415 98.2386079,24.4013608 C100.866382,21.8333389 104.0803,20.5488986 107.880361,20.5488986 C112.124105,20.5488986 115.677437,22.1665806 118.539926,25.4015151 L114.949693,29.4764247 C113.123466,27.2047131 110.853557,26.0684278 108.139534,26.0684278 C105.967458,26.0684278 104.110766,26.7787134 102.569029,28.1979964 C101.026435,29.6185677 100.255781,31.531701 100.255781,33.9395436 C100.255781,36.3469567 100.983096,38.2798441 102.439443,39.7364879 C103.89536,41.1939906 105.659797,41.9218831 107.732323,41.9218831 Z" id="Path" fill="#22589F"></path>
                <g id="Group" transform="translate(80.667680, 28.611542)" fill="#22589F">
                    <path d="M5.63051549,16.6960069 C5.7077525,16.4696946 5.6609812,16.1819731 5.55456577,15.964679 C5.50264534,15.8586085 5.38249888,15.6662216 5.29195994,15.5850583 C5.20099191,15.5038951 5.13276589,15.438621 4.98258282,15.3445747 L4.91135314,14.6965571 L2.68006181,15.7924755 L2.79977917,16.0368241 L2.94996224,16.3430113 L3.00231177,16.4495112 L4.1827507,15.8697738 C4.43334188,15.7465259 4.72426794,15.8332718 4.8362616,16.0613019 C4.94825526,16.2893319 4.83840707,16.5727591 4.58781589,16.6960069 L3.40737696,17.2757443 L3.50864326,17.4823026 L3.71117586,17.8954191 L5.15979884,17.1838452 C5.41167731,17.0597384 5.56400585,16.8871055 5.63051549,16.6960069 Z" id="Path"></path>
                    <path d="M29.1899482,30.7685949 C29.3830407,30.9090201 29.6718213,30.9489576 29.9108269,30.9107379 C30.0275406,30.8922722 30.2463788,30.8342984 30.3506488,30.7711715 C30.4549188,30.7080445 30.5373049,30.662095 30.6711824,30.5461475 L31.3113913,30.6685365 L30.9213445,28.2117383 L30.6527313,28.2542524 L30.3158921,28.3079318 L30.1987493,28.3263975 L30.4051438,29.6262975 C30.4489114,29.9024243 30.2807064,30.1549321 30.0301152,30.1948696 C29.779524,30.2348071 29.5409475,30.0467145 29.4971799,29.7705877 L29.2907854,28.4706877 L29.0637944,28.5067602 L28.6098125,28.5789053 L28.8629782,30.1738273 C28.9071749,30.4529601 29.0273214,30.6492119 29.1899482,30.7685949 Z" id="Path"></path>
                    <path d="M38.1391428,25.6956781 C37.9104354,25.6265391 37.6250876,25.6840834 37.4118276,25.7987426 C37.3079868,25.8545691 37.1200434,25.9816819 37.0423773,26.0752988 C36.9647112,26.1689156 36.9020634,26.2397724 36.8136699,26.3935102 L36.16917,26.4884153 L37.345318,28.6798226 L37.5847527,28.5509921 L37.8851189,28.3895245 L37.9898179,28.3332685 L37.3676309,27.1737937 C37.2354698,26.9277274 37.3114195,26.6335644 37.5349778,26.5133226 C37.758536,26.3930807 38.0456002,26.4922802 38.1777613,26.738776 L38.7999483,27.8982507 L39.0024809,27.7896036 L39.4075461,27.5718801 L38.644187,26.1491616 C38.5103095,25.9009481 38.3322353,25.7549402 38.1391428,25.6956781 Z" id="Path"></path>
                    <path d="M50.388074,14.3165071 C50.1623703,14.8764904 49.6384459,15.0989378 48.8926797,14.7974744 C48.4477087,14.6175411 46.9377252,14.0077433 46.9377252,14.0077433 L47.7229681,13.6736428 L48.9317273,14.1619104 C48.9317273,14.1619104 48.9317273,14.1619104 49.1183834,14.2370616 C49.3050395,14.3122127 49.6779226,14.4629444 49.8285348,14.0897654 C49.9036263,13.9029611 49.8285348,14.0897654 49.8285348,14.0897654 L49.9791469,13.7165863 L50.5386861,13.9424691 L50.388074,14.3165071" id="Path"></path>
                    <g>
                        <path d="M0.921203517,5.97215382 C0.607964543,5.6341884 0.457352378,5.22407789 0.469796118,4.74182228 C0.482668953,4.25956667 0.653448558,3.85761543 0.983851312,3.53639798 C1.31425407,3.21518053 1.71889017,3.0605839 2.19733052,3.07303752 C2.67577087,3.08549113 3.07182508,3.26113009 3.38463496,3.5990955 C3.69787393,3.93706092 3.8484861,4.34717143 3.83561326,4.82942704 C3.82274043,5.31125321 3.65196082,5.71320446 3.32112897,6.03442191 C2.99115531,6.35606879 2.58651921,6.51023599 2.10807886,6.49778237 C1.62963851,6.48575819 1.23444249,6.31054867 0.921203517,5.97215382 Z M2.12567174,5.7565774 C2.4161687,5.7638778 2.66633079,5.67713191 2.87615799,5.4959103 C3.0859852,5.31468869 3.1945461,5.08794696 3.20141161,4.81568512 C3.20827712,4.5438527 3.11215996,4.31152832 2.91220193,4.11957083 C2.7122439,3.92761335 2.46637276,3.82798441 2.1754467,3.82025457 C1.88537883,3.81252474 1.63564583,3.89970007 1.42667682,4.08092168 C1.218566,4.26214328 1.11043418,4.48888501 1.10356867,4.76114686 C1.09627407,5.03297927 1.19196214,5.26530366 1.39106198,5.45726114 C1.59059091,5.64921863 1.83474568,5.74841814 2.12567174,5.7565774 Z" id="Shape"></path>
                        <path d="M2.5646354,8.37827864 C2.54403886,8.17086149 2.45607449,8.02270638 2.29902591,7.93510162 C2.14197733,7.84706743 1.94287749,7.8148598 1.70172639,7.83804929 L0.620408283,7.94283145 L0.553469543,7.2458583 L3.05079945,7.00408634 L3.11773819,7.7010595 L2.78862272,7.73283769 C2.89932909,7.81271262 2.99630445,7.91663591 3.08083606,8.04460757 C3.16536768,8.17257923 3.21600082,8.30570411 3.23230641,8.44527051 L2.57750823,8.51312126 L2.5646354,8.37827864 Z" id="Path"></path>
                        <path d="M0.613542771,10.5396255 C0.649157613,10.7135467 0.741842022,10.8389417 0.892454186,10.91624 C1.04306635,10.9935383 1.21727871,11.0120041 1.41552036,10.9712077 C1.44298241,10.9656251 1.47001536,10.9583247 1.49661922,10.949736 C1.27177371,10.8118873 1.13317619,10.6130589 1.08039757,10.3536801 C1.01260064,10.0212973 1.07138659,9.72498708 1.25546812,9.46517885 C1.44040784,9.20537062 1.70387186,9.04003811 2.04543107,8.97046963 C2.38613209,8.90090114 2.69379284,8.94942731 2.96712602,9.11561869 C3.2408883,9.2822395 3.41080972,9.53174129 3.47903574,9.86412405 C3.50006137,9.96761791 3.50049047,10.0754061 3.48075212,10.1879181 C3.46101378,10.3000007 3.43526811,10.3863171 3.40265693,10.4468675 L3.35931838,10.53619 L3.56571283,10.4945348 L3.70645582,11.1854958 L1.64551501,11.6059128 C1.21556233,11.693947 0.857697533,11.6484269 0.570633322,11.4702113 C0.283569112,11.2919957 0.103778522,11.0248871 0.0308324597,10.6680265 C-0.0253789179,10.3906115 -0.00478238257,10.1333799 0.0930511601,9.89590225 C0.190455608,9.65842464 0.359518835,9.46260224 0.601099031,9.30843504 L0.977414894,9.84608778 C0.678336038,10.0311743 0.556902299,10.2622104 0.613542771,10.5396255 Z M2.20719969,9.64725933 C2.03642008,9.68204357 1.90039713,9.75977133 1.79784355,9.88087202 C1.69571906,10.0019727 1.6613915,10.1436863 1.69486087,10.3068716 C1.72747205,10.470057 1.81329095,10.5898694 1.95103028,10.6667382 C2.08876961,10.7436071 2.24710548,10.7637906 2.42517969,10.7272886 C2.60368299,10.6907866 2.7435678,10.6100528 2.84612138,10.4842283 C2.94910405,10.3584038 2.98386071,10.2136842 2.95124953,10.0509283 C2.91778016,9.88774298 2.82809941,9.77136607 2.68177819,9.70093872 C2.53631516,9.63051136 2.37797929,9.61247509 2.20719969,9.64725933 Z" id="Shape"></path>
                        <path d="M1.86993142,12.7087021 C2.01839812,12.4042326 2.27714209,12.1882268 2.64616335,12.061114 C3.01518461,11.9344306 3.3498783,11.9490314 3.65024444,12.1053458 C3.95146877,12.2620896 4.15314318,12.4935551 4.25827133,12.7993129 C4.34022838,13.0376494 4.33250468,13.2725504 4.23381294,13.5035865 L4.43291278,13.4353063 L4.66162015,14.1017895 L2.28872764,14.9185751 L2.05959119,14.2520918 L2.25397099,14.1850999 C2.03642008,14.0493985 1.88580792,13.8608765 1.80299268,13.6199634 C1.69915182,13.3167822 1.72189383,13.013601 1.86993142,12.7087021 Z M2.8598524,12.7331799 C2.6654726,12.7997423 2.52730418,12.9113955 2.44491803,13.0685687 C2.36253189,13.2253125 2.34708449,13.3803386 2.39986311,13.5332175 C2.45307083,13.6865258 2.55819898,13.7947434 2.71653484,13.8587293 C2.87487071,13.9227151 3.05037035,13.9214268 3.24260468,13.8548644 C3.4356972,13.7887314 3.57858566,13.6800843 3.67127007,13.529782 C3.76395448,13.3794797 3.78369283,13.2266008 3.73005602,13.0702864 C3.6768483,12.9144015 3.56657102,12.8027484 3.40008236,12.7344682 C3.2335937,12.6670469 3.0542322,12.666188 2.8598524,12.7331799 Z" id="Shape"></path>
                        <path d="M4.48440412,19.1768534 L4.11881562,18.5799387 L6.25785163,17.267585 L6.62386923,17.8644998 L4.48440412,19.1768534 Z M6.56079234,17.1503493 C6.5873962,17.0412727 6.6491858,16.956674 6.74701934,16.8961237 C6.84528198,16.8364322 6.94826466,16.8192548 7.05768375,16.8454503 C7.16667375,16.8716459 7.25163446,16.933914 7.31127859,17.0318252 C7.37178092,17.1301658 7.38894469,17.2336597 7.36276993,17.3427362 C7.33616607,17.4518127 7.27437647,17.5368408 7.17611383,17.5969617 C7.07828029,17.6570827 6.97486852,17.6738306 6.86544942,17.6480645 C6.75688852,17.621869 6.67149872,17.5596009 6.61185458,17.4616897 C6.55178135,17.3629196 6.53461757,17.2594258 6.56079234,17.1503493 Z" id="Shape"></path>
                        <path d="M6.6646332,20.9379668 C6.46467517,21.0835453 6.25098612,21.1264888 6.02313695,21.0672267 C5.79528778,21.0075352 5.5991916,20.8649628 5.43484841,20.6382211 C5.32457113,20.4874893 5.23789404,20.3105621 5.17224258,20.1074393 C5.10787841,19.9043165 5.08084546,19.699476 5.09114373,19.4916294 L5.62665364,19.4826112 C5.61721356,19.8128468 5.69959971,20.0975623 5.87295388,20.3367576 C5.92616159,20.4097616 5.98194388,20.4569995 6.0424462,20.4789006 C6.10294852,20.5003724 6.15615624,20.4939309 6.20421482,20.4595761 C6.25184431,20.4247918 6.27458632,20.3629532 6.27158265,20.2744895 C6.2681499,20.1860259 6.24412061,20.0730845 6.1977784,19.9356653 C6.15186529,19.798246 6.1201123,19.6908873 6.10209033,19.6131595 C6.08406836,19.5358612 6.07162462,19.4418149 6.06433002,19.3314501 C6.04802443,19.1085733 6.13341423,18.92864 6.32135761,18.7929385 C6.50801372,18.6563781 6.71612454,18.620735 6.94397371,18.6851503 C7.17225198,18.7504244 7.3726391,18.9024444 7.54642237,19.1412103 C7.71977654,19.3804057 7.81289005,19.6780042 7.82619198,20.0340059 L7.29583119,20.0971328 C7.28853658,19.8330303 7.22073966,19.6135889 7.09329859,19.4388089 C6.96671572,19.2640288 6.85515115,19.2112083 6.75946308,19.2807767 C6.70668446,19.3194259 6.68522974,19.3773996 6.69509891,19.4542685 C6.70539718,19.5315668 6.73672108,19.649232 6.7894997,19.8068347 C6.84270741,19.9644374 6.87832226,20.0778083 6.89677332,20.1473768 C6.91436619,20.2169452 6.92809722,20.3066972 6.93796639,20.4149148 C6.95555926,20.6180376 6.86416214,20.7919588 6.6646332,20.9379668 Z" id="Path"></path>
                        <path d="M9.08901705,22.7677897 L8.12398355,23.7159824 L7.63052489,23.2131139 L8.60928941,22.2516087 C8.75089059,22.1120423 8.83456402,21.9879356 8.85859331,21.8792885 C8.8826226,21.770212 8.84700776,21.667577 8.75217787,21.5709541 C8.65777709,21.4743312 8.53720154,21.4240873 8.3921676,21.4210812 C8.24670457,21.4172163 8.1042452,21.4842082 7.96521859,21.6216274 L7.00018509,22.5698201 L6.51015919,22.0699577 L8.30034138,20.3109915 L8.58783469,21.0101119 C8.87790256,20.9955111 9.11004268,21.0766743 9.28468413,21.2544604 C9.3958196,21.3674019 9.46318744,21.5031033 9.48721673,21.660706 C9.51124602,21.8183087 9.49837318,21.9673227 9.44816913,22.1073185 C9.62409787,22.0690988 9.79959751,22.0789758 9.97380987,22.1369495 C10.1484513,22.1944938 10.2930562,22.282528 10.4084826,22.4001932 C10.6153061,22.6110459 10.7195761,22.8429408 10.7208645,23.0945898 C10.7212925,23.3462388 10.6032915,23.5888696 10.3655731,23.8220528 L9.27738952,24.8913462 L8.78435996,24.3884777 L9.76269539,23.427402 C10.037745,23.1568579 10.0759344,22.9206686 9.87769271,22.7188341 C9.77985917,22.6183463 9.65928362,22.5676729 9.51553696,22.5650963 C9.37050303,22.5629491 9.22847275,22.6303705 9.08901705,22.7677897 Z" id="Path"></path>
                        <path d="M11.313872,25.73991 C11.4220038,25.8193554 11.545583,25.8695994 11.6867551,25.8906417 C11.8279271,25.9112546 11.9618046,25.8992304 12.0883875,25.8532808 L12.1531808,26.440748 C11.6940497,26.5231996 11.3027155,26.4450424 10.9787492,26.2054176 C10.6547828,25.9657928 10.469414,25.6763536 10.4235009,25.336241 C10.3763005,24.9965578 10.4659812,24.6727638 10.6925431,24.3665765 C10.9186759,24.0599599 11.2074565,23.8890447 11.5597431,23.8551193 C11.9107424,23.821194 12.2248395,23.9057927 12.49946,24.1093449 C12.7753678,24.3128971 12.9474347,24.5606812 13.0182352,24.8526971 C13.0881776,25.1442835 13.0409773,25.4186925 12.8749177,25.6750653 L12.82171,25.7463515 L11.068859,25.3091866 C11.0752954,25.4796723 11.1572525,25.6231036 11.313872,25.73991 Z M12.1699155,24.6195138 C12.0326052,24.5181671 11.877273,24.472647 11.7039188,24.4842417 C11.5314229,24.4958365 11.3859598,24.5821529 11.2679588,24.7419028 C11.2456459,24.7715338 11.2301985,24.7951528 11.2216166,24.8123302 L12.3625789,25.104346 C12.4393868,24.9330014 12.3745935,24.7711044 12.1699155,24.6195138 Z" id="Shape"></path>
                        <path d="M14.6084594,27.5345192 C14.4848802,27.7488073 14.3072351,27.8750612 14.0746659,27.9137104 C13.8429548,27.9519301 13.6052365,27.9008273 13.3636563,27.7608315 C13.2014586,27.6676441 13.0499882,27.5413902 12.9088162,27.3824992 C12.7667859,27.2231788 12.6586541,27.0462515 12.5839916,26.8525763 L13.0697266,26.6266934 C13.1945931,26.9324512 13.385111,27.1591929 13.6412804,27.3069186 C13.7193756,27.3520093 13.7897471,27.3721927 13.8541113,27.3678984 C13.9180464,27.3631746 13.9639595,27.3352613 13.993567,27.2841585 C14.0227454,27.2330558 14.0188836,27.1677816 13.9802651,27.0879067 C13.9416466,27.0084612 13.8738497,26.9152738 13.775587,26.8083445 C13.6773244,26.7014151 13.6043783,26.6159575 13.5571779,26.5524011 C13.5091193,26.4888448 13.4597735,26.4085404 13.4087112,26.3101998 C13.3040122,26.113089 13.3087322,25.9142606 13.4250168,25.713285 C13.5408723,25.5127388 13.7159429,25.3959324 13.9506576,25.3624365 C14.1849432,25.32937 14.4299561,25.3864849 14.6865546,25.5342105 C14.9414367,25.6819362 15.1482603,25.9159783 15.3044507,26.2367664 L14.8448905,26.5103165 C14.7311804,26.2715506 14.5805683,26.0984883 14.3939122,25.9907 C14.206827,25.882053 14.0832478,25.8794764 14.0240327,25.9816819 C13.9914215,26.0383673 13.9952834,26.100206 14.0360474,26.166339 C14.0768113,26.2329014 14.1531902,26.3278066 14.2656129,26.4497662 C14.3780357,26.5725846 14.4569891,26.6619071 14.5016149,26.7181631 C14.5458116,26.7744191 14.5947284,26.8504291 14.647507,26.9453343 C14.7453406,27.1239793 14.7324677,27.3202311 14.6084594,27.5345192 Z" id="Path"></path>
                        <path d="M17.0328433,29.504338 C16.75479,29.4008441 16.550112,29.1899915 16.4192381,28.8722095 C16.2887934,28.554857 16.2883643,28.2207565 16.4183799,27.8711963 C16.5488247,27.5212067 16.7616555,27.2742815 17.0573016,27.1304208 C17.3525186,26.9861306 17.6434447,26.9680943 17.9287925,27.0741648 C18.2149986,27.1806647 18.4098075,27.3678984 18.5162229,27.6362953 L18.9457465,26.4815444 L19.6009737,26.7258929 L18.393931,29.9711339 L17.7387037,29.7276442 L17.8541301,29.4167332 C17.5846588,29.5790597 17.3108965,29.6082613 17.0328433,29.504338 Z M17.0684581,28.1430287 C16.9980866,28.332839 16.9972284,28.5093369 17.0658835,28.6725222 C17.1345386,28.8357075 17.2448159,28.9456429 17.3962863,29.0023283 C17.5477566,29.0585843 17.699227,29.0461307 17.8506973,28.9645381 C18.0021677,28.8833748 18.1137323,28.7468145 18.1845329,28.5561453 C18.2553334,28.3650467 18.2613408,28.1864017 18.2025548,28.0197809 C18.1437689,27.85316 18.0360662,27.7410775 17.8820212,27.6835332 C17.7275472,27.6259889 17.5709277,27.6410191 17.4125919,27.727765 C17.254256,27.8145109 17.1396878,27.9540773 17.0684581,28.1430287 Z" id="Shape"></path>
                        <path d="M19.8871798,27.6994223 C19.80651,27.6062349 19.7824807,27.5001644 19.8150919,27.3816403 C19.8477031,27.2631162 19.9086345,27.1789469 19.9978861,27.1295619 C20.0871378,27.0797474 20.1854004,27.0698704 20.2918159,27.0995015 C20.3978022,27.128703 20.4771847,27.1862473 20.5299633,27.2712755 C20.5818837,27.3571625 20.5934693,27.4520677 20.56472,27.5572793 C20.5351124,27.6620614 20.4746101,27.7565371 20.3802093,27.840277 L19.9206491,28.2263391 L19.5516279,28.1249925 L19.8871798,27.6994223 Z" id="Path"></path>
                        <path d="M20.7324959,30.2640086 C20.5394034,29.9857347 20.478472,29.6542108 20.5484144,29.2698664 C20.6183568,28.885522 20.7947146,28.6008065 21.0783461,28.4148611 C21.3619775,28.2289157 21.6623437,28.1653593 21.9807318,28.2233331 C22.2287484,28.2684238 22.4291355,28.3908128 22.5827513,28.5892118 L22.6205116,28.3826535 L23.312641,28.508478 L22.8638082,30.9790181 L22.1708206,30.8527642 L22.2077227,30.6509297 C21.9828772,30.774607 21.7451589,30.8132561 21.4937095,30.7673066 C21.1787542,30.7106211 20.9247302,30.542712 20.7324959,30.2640086 Z M21.2379692,29.4120094 C21.2010671,29.6142733 21.2311037,29.7899123 21.3267918,29.9380674 C21.423338,30.0866519 21.5507791,30.1759744 21.7099731,30.2047466 C21.8691672,30.2339482 22.0150593,30.1948696 22.1489368,30.0875108 C22.281527,29.9805815 22.3664877,29.8268437 22.4029607,29.6262975 C22.4394338,29.4257513 22.4149754,29.2483947 22.3291565,29.0933686 C22.2433376,28.9383425 22.1193293,28.8464434 21.9571316,28.8168124 C21.7949339,28.7871814 21.6438926,28.8284071 21.5031496,28.9409191 C21.3628357,29.0534311 21.2744422,29.2097455 21.2379692,29.4120094 Z" id="Shape"></path>
                        <path d="M25.705701,30.4091577 C25.6898245,30.6556534 25.5868418,30.8480404 25.3958948,30.9854596 C25.2045186,31.1233083 24.9693749,31.1829997 24.6904634,31.1658223 C24.5042364,31.1542276 24.3120021,31.1087075 24.1150477,31.029262 C23.9176643,30.9502459 23.7421646,30.8403105 23.589407,30.6994558 L23.9241007,30.2807566 C24.1721173,30.4993391 24.4437341,30.6174337 24.738522,30.6358994 C24.8277737,30.6414821 24.9007197,30.6281696 24.9556438,30.5955325 C25.0105679,30.5633249 25.0401754,30.5178048 25.0440373,30.4585427 C25.0478991,30.3997101 25.0148589,30.3430247 24.9444874,30.2884864 C24.8749741,30.2343776 24.7719914,30.1811277 24.6368266,30.1287366 C24.5012328,30.0763455 24.3982501,30.0325431 24.3274495,29.9969 C24.2562198,29.9612569 24.1764082,29.911013 24.0867275,29.8461683 C23.9047914,29.7164789 23.821118,29.5356867 23.8352781,29.3046506 C23.8502964,29.0736146 23.9545664,28.8902458 24.1502335,28.7558326 C24.3450424,28.6214194 24.5904844,28.5638751 24.8852723,28.5823408 C25.1800602,28.6008065 25.4688408,28.7184717 25.751185,28.9357659 L25.4615462,29.3853844 C25.2538645,29.223058 25.0418918,29.1345944 24.8264864,29.1208524 C24.6106519,29.1075399 24.4990873,29.159931 24.4913636,29.2775962 C24.4870727,29.3428704 24.5183965,29.3961203 24.5844771,29.4377755 C24.6496995,29.4790013 24.7604058,29.5296746 24.915738,29.5893661 C25.0710702,29.6490576 25.1813475,29.6941483 25.2461408,29.7250676 C25.3109341,29.7559869 25.3890293,29.8019365 25.4778518,29.8633457 C25.6447696,29.980152 25.7202902,30.1618031 25.705701,30.4091577 Z" id="Path"></path>
                        <path d="M28.2455112,30.3340066 C28.2558095,30.5813612 28.1725652,30.7831957 27.9966364,30.93951 C27.8207077,31.0962538 27.5932876,31.1804231 27.3139471,31.191159 C27.1277201,31.1988888 26.9316239,31.1731227 26.7269459,31.1142901 C26.5222678,31.0554575 26.336899,30.9639878 26.1699812,30.8398811 L26.4600491,30.3889743 C26.7290913,30.5809317 27.0110064,30.6706837 27.3062234,30.6586595 C27.3959042,30.6547946 27.4667048,30.6341817 27.5181961,30.5963914 C27.5701165,30.5586011 27.5945749,30.5100749 27.5920003,30.4508129 C27.5894258,30.3919803 27.5508073,30.3387303 27.4761448,30.2919219 C27.4014824,30.2451135 27.2937797,30.2030289 27.1534658,30.1648091 C27.013581,30.1265894 26.9063074,30.0935229 26.832074,30.0651802 C26.7578407,30.0368375 26.6724509,29.9956117 26.577621,29.9402146 C26.3832412,29.8294203 26.2819749,29.6585052 26.2725348,29.4266102 C26.2630947,29.1951447 26.3489136,29.0023283 26.5291333,28.8485906 C26.7102112,28.6952823 26.9479295,28.6124013 27.2427174,28.6008065 C27.5379344,28.5892118 27.8374424,28.6768165 28.139954,28.8640502 L27.8979447,29.3411526 C27.6743865,29.2002979 27.4546901,29.1341649 27.2388556,29.1431831 C27.022592,29.1517718 26.9170347,29.2153281 26.9221839,29.3334228 C26.9247584,29.3982675 26.9608024,29.4485114 27.0311739,29.4828662 C27.1002581,29.5176505 27.2156845,29.556729 27.3761658,29.5996726 C27.5366472,29.6434749 27.6507863,29.6765414 27.7190123,29.7005898 C27.7863802,29.7242087 27.8683372,29.7624285 27.9635962,29.8143901 C28.1412413,29.914019 28.235213,30.0866519 28.2455112,30.3340066 Z" id="Path"></path>
                        <path d="M32.9634051,28.3203854 C32.7621598,28.3736354 32.6304278,28.4844296 32.5690673,28.653627 C32.5072777,28.8228245 32.5068486,29.024659 32.5686382,29.2591305 L32.8458332,30.3112465 L32.1687221,30.4894621 L31.5302295,28.0605772 L32.2073406,27.8823616 L32.2914432,28.2031496 C32.3523746,28.0807606 32.4390517,27.9678192 32.5519035,27.8643254 C32.6638972,27.7608315 32.7883346,27.6895453 32.9230702,27.6508961 L33.094708,28.2856012 L32.9634051,28.3203854 Z" id="Path"></path>
                        <path d="M34.3068999,29.5562996 C33.9979519,29.4171626 33.7748228,29.1650842 33.6362253,28.8000644 C33.4980568,28.4350446 33.5019187,28.0996558 33.6490981,27.7943274 C33.7962775,27.4889991 34.0206939,27.2790053 34.3227764,27.1634873 C34.5583493,27.0745942 34.793064,27.0750237 35.0264914,27.1660639 L34.9526872,26.9698121 L35.6109181,26.7198808 L36.5008601,29.067173 L35.8430582,29.3175337 L35.7696831,29.1251468 C35.6409547,29.3471647 35.4568732,29.5034791 35.2187257,29.5940899 C34.920076,29.7078902 34.6154189,29.6954366 34.3068999,29.5562996 Z M34.3004635,28.5651634 C34.3734096,28.7575503 34.4896942,28.892393 34.6484592,28.9696913 C34.8080823,29.047419 34.9629854,29.0581549 35.1140267,29.0001812 C35.265497,28.9430663 35.3706252,28.8339898 35.428982,28.6733811 C35.4886262,28.5132018 35.4813316,28.3375628 35.4092437,28.1473231 C35.3371558,27.9566539 35.2247331,27.8175169 35.0711172,27.7286239 C34.9179305,27.6401602 34.7647438,27.6255594 34.6106988,27.684392 C34.4562248,27.7427952 34.348093,27.8561661 34.2858743,28.0245046 C34.2223683,28.1928432 34.2275175,28.3732059 34.3004635,28.5651634 Z" id="Shape"></path>
                        <path d="M40.796954,25.9499037 C40.9879011,25.81592 41.0938874,25.600773 41.1131967,25.3023156 L41.7203654,25.4478941 C41.6474193,25.9086779 41.4560432,26.2462139 41.1475242,26.4617903 C40.8385762,26.6773668 40.5098898,26.761536 40.161036,26.7147276 C39.8126113,26.6683486 39.5281216,26.487127 39.3084253,26.1719217 C39.0887289,25.8571457 39.0179283,25.5251924 39.0955944,25.1769205 C39.1732605,24.8286487 39.3603457,24.5512336 39.6559918,24.3446753 C39.8036003,24.2416109 39.9752381,24.1677481 40.1696179,24.1230868 C40.3644268,24.0784256 40.5609521,24.075849 40.7591937,24.1162159 L40.733019,24.7148484 C40.610727,24.6822113 40.4875769,24.6770581 40.3614231,24.7002476 C40.2356985,24.7238665 40.1254212,24.7680983 40.0310204,24.8342313 C39.8808373,24.9394429 39.7851492,25.0785799 39.7448144,25.2529306 C39.7053377,25.4268518 39.7465307,25.6012024 39.8679645,25.7759825 C39.9902564,25.9507626 40.1387231,26.0491032 40.3146518,26.0701455 C40.4905806,26.0911879 40.6510619,26.0512504 40.796954,25.9499037 Z" id="Path"></path>
                        <path d="M43.0647184,24.2008146 C43.1651265,24.112351 43.240218,24.0006978 43.2895639,23.8667141 C43.3393389,23.7331598 43.3543572,23.5996055 43.3363352,23.4664806 L43.9241946,23.5240249 C43.9096054,23.9903914 43.7525569,24.357129 43.4513325,24.6250965 C43.1505373,24.893064 42.8291455,25.0145941 42.4867281,24.9901163 C42.1451689,24.9656385 41.8473773,24.8110418 41.5942116,24.5258969 C41.3406168,24.2411815 41.2342013,23.9229701 41.273678,23.5716922 C41.3135838,23.2204143 41.4603341,22.9305456 41.7160744,22.702945 C41.9713856,22.4757738 42.2494389,22.3572497 42.5493759,22.348661 C42.849313,22.3400723 43.1080569,22.4431368 43.3238915,22.6587132 L43.3831065,22.7248462 L42.5940017,24.3511169 C42.7613486,24.3816068 42.9183972,24.3309334 43.0647184,24.2008146 Z M42.1460271,23.1319506 C42.018586,23.2453215 41.9417781,23.387894 41.9177488,23.5600974 C41.8932905,23.731442 41.9473564,23.8916213 42.0790884,24.0402059 C42.1044049,24.0681191 42.1241433,24.0883026 42.1387325,24.1003268 L42.6596532,23.0426281 C42.5081828,22.9326928 42.3365451,22.9627532 42.1460271,23.1319506 Z" id="Shape"></path>
                        <path d="M46.1044237,19.5934055 L47.1943237,20.3947314 L46.7763857,20.962874 L45.6723256,20.1503828 C45.5118442,20.0322882 45.3758213,19.9700201 45.2651149,19.9635785 C45.1535504,19.9575664 45.0582914,20.0086692 44.9780507,20.1177457 C44.8982391,20.2272517 44.8677734,20.3530762 44.8875118,20.4973664 C44.9072501,20.6412271 44.9965018,20.7713459 45.1535504,20.8872934 L46.2438794,21.6890487 L45.8298033,22.252897 L43.8074809,20.7657633 L44.4511227,20.3702536 C44.3897622,20.0859675 44.4331007,19.8433367 44.5802801,19.6427905 C44.6738227,19.5148189 44.7969728,19.4263552 44.9488723,19.3773996 C45.0999135,19.3288735 45.2496675,19.3177082 45.3955596,19.3443331 C45.3299082,19.1759946 45.3114571,19.0016439 45.3406355,18.8199929 C45.369814,18.6387713 45.4328909,18.481598 45.5307244,18.3489026 C45.7053659,18.1105661 45.9173385,17.9709997 46.1653551,17.9293445 C46.4138009,17.8881187 46.6716866,17.9658465 46.9394416,18.1629572 L48.1692264,19.0669181 L47.7512884,19.6346313 L46.6467992,18.8217106 C46.3361348,18.5932512 46.0975582,18.5932512 45.9297823,18.8217106 C45.8465379,18.9342226 45.8160722,19.0621943 45.8362397,19.2047667 C45.8572653,19.3477686 45.946517,19.4770286 46.1044237,19.5934055 Z" id="Path"></path>
                        <path d="M48.4331195,17.8726591 C48.1108695,17.9774412 47.7761758,17.9413687 47.4281802,17.764012 C47.0801846,17.5870847 46.8583427,17.3358652 46.7617965,17.0112123 C46.6652502,16.6861299 46.6901377,16.3795133 46.8373171,16.0913623 C46.9514562,15.8667678 47.1260977,15.7091651 47.3599542,15.6189837 L47.172869,15.5236491 L47.4925444,14.895815 L49.7289848,16.0346769 L49.4093095,16.662511 L49.2265152,16.569753 C49.280152,16.8205431 49.2492572,17.0597384 49.1338308,17.2869096 C48.9883678,17.5724839 48.7549404,17.7674475 48.4331195,17.8726591 Z M47.7624448,17.1430489 C47.9456682,17.2366657 48.122026,17.2581375 48.2915183,17.208323 C48.4618688,17.1585085 48.5833026,17.0614562 48.6566777,16.9175954 C48.7300529,16.7733052 48.7347729,16.6221441 48.6699797,16.4636825 C48.6060446,16.305221 48.4837527,16.1798259 48.3013875,16.0874974 C48.1198805,15.9951689 47.9426645,15.967685 47.7705976,16.0054753 C47.5976725,16.0432656 47.4736642,16.1355941 47.3985727,16.2828904 C47.3239103,16.4297572 47.3204775,16.586501 47.3869871,16.7535512 C47.454355,16.920172 47.5796506,17.0502909 47.7624448,17.1430489 Z" id="Shape"></path>
                        <path d="M50.4451435,13.2605262 C50.1499265,13.4262881 49.8143747,13.4554897 49.438917,13.3498487 C49.0630302,13.2437782 48.7961334,13.0406554 48.6386558,12.7409097 C48.4811781,12.441164 48.4459923,12.1354063 48.5335276,11.8240658 C48.6021827,11.5818644 48.7424966,11.392913 48.9540402,11.2593587 L48.7523658,11.2022438 L48.9433128,10.5237364 L51.3586857,11.2052498 L51.1673096,11.8833279 L50.9699261,11.8279307 C51.0707633,12.0632612 51.087498,12.3041742 51.0188429,12.5498111 C50.9313076,12.8577161 50.7403605,13.0947642 50.4451435,13.2605262 Z M49.6453114,12.6756356 C49.8426949,12.7314622 50.0199109,12.7181497 50.1773886,12.636557 C50.3348663,12.5549643 50.4348453,12.4360108 50.4786129,12.2801259 C50.5219515,12.1246704 50.497064,11.975227 50.4030923,11.8322251 C50.3099788,11.6896526 50.1645158,11.5900237 49.9688487,11.535056 C49.7731816,11.4800883 49.5938201,11.4873887 49.4316224,11.5578161 C49.2694247,11.6286728 49.1660129,11.743332 49.1213871,11.902223 C49.0763321,12.061114 49.1033651,12.2152812 49.2011986,12.3664423 C49.3003195,12.517174 49.447928,12.6202385 49.6453114,12.6756356 Z" id="Shape"></path>
                        <path d="M51.7362889,9.29125764 C51.6942376,9.58542068 51.5307526,9.82976925 51.2488375,10.0247328 C50.9660642,10.2196963 50.6403815,10.2901237 50.2705021,10.2364443 C49.9014808,10.1831943 49.6152748,10.02688 49.4127422,9.76793059 C49.2093514,9.50898123 49.130398,9.22856012 49.1737366,8.92666725 C49.2170751,8.62520381 49.3595345,8.39416773 49.5993983,8.23398845 L48.38077,8.05706119 L48.4811781,7.36438239 L51.9057812,7.86080935 L51.8053731,8.55348815 L51.477974,8.50625029 C51.6929503,8.73556863 51.7796274,8.9970946 51.7362889,9.29125764 Z M50.3996595,9.5429066 C50.5996176,9.57167876 50.7721135,9.53560621 50.9175766,9.43383009 C51.0626105,9.33248341 51.146713,9.20150571 51.1698841,9.04132642 C51.1930552,8.88114713 51.1492876,8.73556863 51.0372939,8.60459093 C50.9257294,8.47361323 50.769539,8.3937383 50.5678646,8.36410728 C50.3666193,8.33490569 50.1911196,8.36711332 50.0405074,8.4598713 C49.8907535,8.55305872 49.8036473,8.68103038 49.7800471,8.84421571 C49.7564469,9.00740105 49.8040764,9.15727389 49.9220774,9.29426369 C50.0400783,9.43125348 50.1997015,9.51370502 50.3996595,9.5429066 Z" id="Shape"></path>
                        <path d="M49.1243907,6.81427603 C49.0411464,6.88942717 48.9420256,6.92464085 48.8274573,6.91862876 C48.71246,6.91261667 48.617201,6.86838485 48.5421095,6.78507445 C48.4665889,6.70219347 48.4314031,6.60299397 48.4374104,6.48790536 C48.4434178,6.37281676 48.4876145,6.2779116 48.5708588,6.20233103 C48.6541032,6.12675045 48.753224,6.09196621 48.8677922,6.0979783 C48.9827895,6.10356096 49.0776194,6.14779277 49.1535691,6.23153261 C49.2286607,6.31441359 49.2634173,6.41361309 49.2578391,6.5287017 C49.2522609,6.6437903 49.207635,6.73912489 49.1243907,6.81427603 Z M51.9817309,6.31312528 L51.9469742,7.01267505 L49.4410624,6.8885683 L49.4758191,6.18944797 L51.9817309,6.31312528 Z" id="Shape"></path>
                        <path d="M51.4350645,4.31625211 C51.4299154,4.18269779 51.3912969,4.05386726 51.319209,3.93104883 C51.2471211,3.80780096 51.1540076,3.7116075 51.0394394,3.64160958 L51.4565192,3.22248093 C51.8075185,3.52866815 51.9920292,3.88338153 52.0083348,4.28619165 C52.0250694,4.68900176 51.9152213,5.01451356 51.6796484,5.26401535 C51.4440755,5.51351714 51.1359857,5.64621258 50.7553789,5.66124281 C50.374772,5.67713191 50.0606749,5.55817839 49.8143747,5.30481169 C49.5672162,5.05187442 49.4372006,4.7542759 49.4230405,4.41244557 C49.4088804,4.07061523 49.493412,3.78031711 49.6766353,3.54283951 C49.8598587,3.30493246 50.1031552,3.17051928 50.4069541,3.13917052 L50.4957767,3.13573504 L51.2535576,4.77703596 C51.3822859,4.66538283 51.4432173,4.51207451 51.4350645,4.31625211 Z M50.0272055,4.35017748 C50.0336419,4.52109264 50.0962897,4.67053606 50.2130034,4.79807828 C50.3305753,4.92604994 50.4884821,4.98531198 50.6875819,4.97758215 C50.7244841,4.97586441 50.7523752,4.97285836 50.7712554,4.96942288 L50.283804,3.89626459 C50.1022971,3.94393188 50.0164782,4.09509303 50.0272055,4.35017748 Z" id="Shape"></path>
                        <polygon id="Path" points="50.6262214 1.63228278 50.0177654 1.74823026 49.7066719 0.115947475 50.3159861 0"></polygon>
                    </g>
                    <polygon id="Path" points="2.80321193 1.74823026 2.19389776 1.63228278 2.50499126 0 3.11344724 0.115947475"></polygon>
                </g>
                <g id="Group" transform="translate(81.501777, 7.695824)" fill="#22589F">
                    <path d="M20.876734,0.819015044 C20.5746515,0.63650513 20.1451279,0.61374507 19.7979905,0.700061524 C19.6284981,0.742146163 19.3135428,0.854658157 19.1680798,0.960728624 C19.0226167,1.06636966 18.9067612,1.14452684 18.7243961,1.33218998 L17.7670863,1.2321316 L18.6488754,4.79901947 L19.0384932,4.70239658 L19.5272318,4.58129588 L19.6975824,4.53921124 L19.2311566,2.65227345 C19.1320358,2.25161051 19.3478703,1.85824797 19.7121716,1.7680666 C20.0760437,1.67788523 20.4506432,1.9248104 20.5493349,2.32590278 L21.0157606,4.21284057 L21.3453052,4.13124791 L22.0043943,3.96806257 L21.4319823,1.65211912 C21.3324323,1.24845014 21.131187,0.974899982 20.876734,0.819015044 Z" id="Path"></path>
                    <path d="M33.3380669,1.45930277 C33.1539854,1.15783933 32.7832478,0.94011574 32.4356812,0.856375897 C32.2661889,0.815579563 31.9344989,0.770488879 31.7568538,0.79754329 C31.5792086,0.824168265 31.4406111,0.840057364 31.1921654,0.922938336 L30.3884715,0.393015433 L29.5294243,3.96548596 L29.9199003,4.05953225 L30.4094971,4.1776269 L30.5798476,4.21885266 L31.0342587,2.32890883 C31.1308049,1.92738702 31.5032589,1.67788523 31.8679892,1.76591942 C32.2327196,1.85352418 32.4511286,2.24559842 32.3545824,2.64669079 L31.9001713,4.53663463 L32.230145,4.61608012 L32.8900923,4.77497111 L33.4479151,2.45559218 C33.5453196,2.05063489 33.492541,1.71481665 33.3380669,1.45930277 Z" id="Path"></path>
                    <path d="M45.8736332,9.8693596 C45.8903679,9.51636395 45.7054282,9.1277252 45.4647062,8.86319318 C45.3471343,8.73436265 45.0982595,8.51062697 44.9360618,8.43289922 C44.7738641,8.35517147 44.6502849,8.29032677 44.3984064,8.21946998 L44.0306724,7.32925103 L41.3157916,9.80322659 L41.5861211,10.1003957 L41.9251058,10.4731453 L42.0431068,10.6028347 L43.479286,9.29391658 C43.7843722,9.01607207 44.2327759,9.01907812 44.4850835,9.29649319 C44.737391,9.57390826 44.6987725,10.0209502 44.3936864,10.2987947 L42.9575071,11.6077128 L43.1862145,11.8589324 L43.6432001,12.3613714 L45.4059203,10.7552842 C45.7131519,10.4748631 45.8577567,10.1673876 45.8736332,9.8693596 Z" id="Path"></path>
                    <path d="M48.5636266,13.8566644 C48.6451545,13.5131164 48.5348772,13.0969937 48.3469339,12.7925243 C48.2551076,12.6439397 48.0517168,12.3785488 47.9062538,12.2720489 C47.7612199,12.165549 47.6513717,12.0792326 47.4170861,11.9628557 L47.2192735,11.0202456 L44.0958948,12.9514153 L44.3070093,13.2932456 L44.5717606,13.7218218 L44.6640159,13.8712652 L46.3164587,12.8496391 C46.667458,12.6327744 47.107709,12.718232 47.3046633,13.0373023 C47.5016177,13.3563725 47.3810422,13.7888137 47.0300429,14.0056784 L45.3776,15.0273045 L45.5561033,15.3163143 L45.9131099,15.8943339 L47.9410105,14.6403835 C48.2945843,14.4222304 48.4932551,14.1465331 48.5636266,13.8566644 Z" id="Path"></path>
                    <g transform="translate(2.189495, 0.000000)">
                        <path d="M2.52453751,16.9232604 C2.04910082,17.0727038 1.55650035,17.0143007 1.04759429,16.7480509 C0.538259133,16.4818011 0.21558008,16.1090515 0.0786989392,15.628943 C-0.0581822016,15.149264 -0.0165600365,14.6983572 0.203994529,14.2757931 C0.375632323,13.9468458 0.634376298,13.7179569 0.980655547,13.5886969 L0.706893266,13.445695 L1.18704999,12.5262745 L4.46104092,14.2375734 L3.98088419,15.1569939 L3.71312923,15.016998 C3.78822077,15.3871711 3.7388749,15.7388784 3.56552073,16.0716906 C3.34668254,16.4899604 2.9999742,16.7742464 2.52453751,16.9232604 Z M1.54877665,15.8397957 C1.8165316,15.9797915 2.07570467,16.0145758 2.32715404,15.9441484 C2.57817432,15.873721 2.75882309,15.7332958 2.86867128,15.5220137 C2.97894857,15.3111611 2.98795955,15.0882843 2.89570424,14.8542421 C2.80344892,14.6202 2.62494562,14.4333958 2.35890703,14.2946882 C2.09329755,14.1555512 1.8328372,14.1126077 1.57795507,14.1654283 C1.32307295,14.2182488 1.1398496,14.3522325 1.02742685,14.5678089 C0.915004091,14.7829559 0.906851296,15.013992 1.00296846,15.2604877 C1.09908563,15.506554 1.28059259,15.6997998 1.54877665,15.8397957 Z" id="Shape"></path>
                        <path d="M4.20186785,7.9077001 C4.03666647,7.90984728 3.89377801,7.8514441 3.77234427,7.73334945 C3.65133962,7.6152548 3.58955002,7.47354122 3.58740455,7.30820871 C3.58525907,7.1428762 3.64318683,6.99987432 3.76161691,6.87834419 C3.87961789,6.75681406 4.02121907,6.69540484 4.18642045,6.69325766 C4.35119273,6.69111049 4.49451029,6.74951366 4.61551493,6.86760831 C4.73694867,6.98613239 4.79830918,7.12741654 4.80045466,7.29274905 C4.80260013,7.45808156 4.74424328,7.60151288 4.6262423,7.72261358 C4.50867041,7.84371427 4.36706923,7.90555292 4.20186785,7.9077001 Z M7.84230546,10.1399037 L7.1235722,10.8776732 L4.47863379,8.29719773 L5.19736706,7.55942824 L7.84230546,10.1399037 Z" id="Shape"></path>
                        <path d="M10.7120894,6.72202981 C10.9961499,6.52921346 11.155344,6.21357866 11.1896715,5.774696 L12.0809008,6.00014942 C11.9646162,6.67693913 11.6771229,7.17078948 11.2192791,7.48212992 C10.7610062,7.79347037 10.2752712,7.91113558 9.76250328,7.83598444 C9.24973537,7.7608333 8.83437191,7.48900089 8.51684199,7.02091664 C8.19931207,6.55283239 8.10104944,6.06327638 8.22205408,5.55224862 C8.34305873,5.04122086 8.62282833,4.63626357 9.06265018,4.33780618 C9.28191746,4.18879221 9.5355123,4.08315118 9.82257651,4.02088309 C10.1096407,3.958615 10.3984213,3.95904443 10.6897765,4.02131252 L10.6400015,4.90208389 C10.4619273,4.85183999 10.2799912,4.84239242 10.0941933,4.87417061 C9.90839541,4.90594881 9.74533951,4.96993464 9.6054547,5.06483979 C9.38189648,5.21643038 9.23943711,5.42041205 9.17721841,5.67549649 C9.1154288,5.93058094 9.17249837,6.18824199 9.34842711,6.44805022 C9.52435585,6.70742902 9.74147765,6.85472526 10.0002216,6.8895095 C10.2589656,6.92429374 10.4958258,6.86846718 10.7120894,6.72202981 Z" id="Path"></path>
                        <path d="M15.4574453,3.17060161 C15.6758544,3.66015761 15.6904436,4.14756644 15.501642,4.63368696 C15.3124114,5.11980749 14.9618412,5.47709748 14.4499314,5.70598639 C13.9380217,5.93487529 13.4381266,5.95763535 12.9506753,5.774696 C12.4627949,5.59132722 12.1096501,5.25507954 11.891241,4.76595297 C11.6728319,4.2768264 11.6578136,3.78812927 11.845757,3.29986157 C12.0337004,2.81159387 12.3838415,2.453445 12.8957512,2.2245561 C13.4076609,1.99566719 13.9079851,1.97376601 14.3967237,2.15885253 C14.8854623,2.34393905 15.2390362,2.68147504 15.4574453,3.17060161 Z M12.8373944,4.34210054 C12.9605445,4.6182273 13.1390478,4.80803761 13.3733334,4.91153147 C13.607619,5.01502532 13.8470537,5.01201928 14.0912085,4.90294276 C14.3357923,4.79343682 14.4975609,4.61736843 14.5769434,4.3734493 C14.6558968,4.1299596 14.634013,3.87015137 14.5108629,3.59359517 C14.3877127,3.31746841 14.2083512,3.12679923 13.9732075,3.02115819 C13.7380637,2.91551716 13.4981999,2.9172349 13.2540451,3.02674085 C13.0094613,3.1362468 12.8481217,3.31360349 12.7700265,3.55924036 C12.6919313,3.80487724 12.7142442,4.06640321 12.8373944,4.34210054 Z" id="Shape"></path>
                        <path d="M25.2189157,2.96747881 C25.415441,2.97993242 25.6093917,2.94300101 25.8003388,2.85668455 C25.9917149,2.7703681 26.1470471,2.6479791 26.2671936,2.49080586 L26.8160054,3.16630725 C26.3135358,3.6343915 25.7668694,3.84953849 25.1751481,3.8117482 C24.5834268,3.77395791 24.1234375,3.56310528 23.7951802,3.17961974 C23.4664939,2.79613421 23.3201726,2.32418504 23.3557875,1.76420168 C23.3914023,1.20421832 23.6132442,0.762759047 24.0217421,0.440253293 C24.429811,0.11774754 24.8850802,-0.0278309564 25.3875499,0.00437667544 C25.8900195,0.0365843073 26.301092,0.204922863 26.6211965,0.510251213 C26.9408719,0.815579563 27.1004951,1.19262357 27.0992155,1.64267155 L27.0906259,1.77279038 L24.5731285,2.6308017 C24.716017,2.8365011 24.9314224,2.94858366 25.2189157,2.96747881 Z M25.3854044,0.898460536 C25.1343841,0.882142003 24.9061059,0.950422182 24.7018569,1.1024422 C24.4971788,1.25446223 24.3856143,1.47733904 24.3667341,1.76978434 C24.3633013,1.82475203 24.3628722,1.8659778 24.3658759,1.89346164 L26.0105951,1.34421416 C25.9685438,1.07109344 25.7600039,0.922508901 25.3854044,0.898460536 Z" id="Shape"></path>
                        <path d="M35.1009617,6.84527768 L34.2041543,6.33940315 L36.0166494,3.11906939 L36.9138859,3.62494393 L35.1009617,6.84527768 Z M36.3221646,2.75104352 C36.2779679,2.59215254 36.2972772,2.43884421 36.3805215,2.29111854 C36.4637658,2.14339287 36.5851996,2.04719941 36.7435354,2.00296759 C36.9027295,1.95873578 37.0554871,1.97806036 37.2030956,2.06094133 C37.3507041,2.1438223 37.4472504,2.26535243 37.4914471,2.42467285 C37.5356438,2.58356384 37.5163346,2.73687216 37.4330903,2.88459783 C37.3498459,3.03232351 37.2284122,3.12808753 37.0700763,3.17274878 C36.9108823,3.2169806 36.7572665,3.19808545 36.6105161,3.11477504 C36.4633367,3.0310352 36.3667905,2.9099345 36.3221646,2.75104352 Z" id="Shape"></path>
                        <path d="M39.8862234,7.98499842 C39.5626862,8.4118569 39.1426027,8.65964095 38.6259729,8.72706226 C38.1093432,8.794913 37.6274701,8.65878208 37.1812118,8.31995779 C36.7345244,7.9811335 36.473635,7.55341615 36.3998307,7.03680573 C36.3251683,6.52062475 36.4504639,6.04910502 36.7740011,5.62224654 C37.0975384,5.19538806 37.5184801,4.94674514 38.0363971,4.87717666 C38.5547433,4.80760817 39.0370455,4.94245079 39.4837328,5.28170452 C39.9304202,5.62095824 40.1900223,6.04953446 40.2629684,6.56743318 C40.3354854,7.08576134 40.2101898,7.55813994 39.8862234,7.98499842 Z M37.600008,6.24965121 C37.4176429,6.4905643 37.3374022,6.73877778 37.359286,6.99386223 C37.3811698,7.24894667 37.4987417,7.45765212 37.7124308,7.61954915 C37.9252616,7.78144618 38.1578309,7.83856105 38.4097093,7.79089376 C38.6611587,7.74322646 38.8778514,7.59893627 39.0606457,7.35802318 C39.2430108,7.1171101 39.3241097,6.86803774 39.3035131,6.61123556 C39.2824875,6.35400394 39.1657738,6.14486905 38.9525138,5.98254259 C38.7392539,5.82064556 38.5062556,5.76438956 38.2530898,5.81377459 C38.0003532,5.86358906 37.7828023,6.00873813 37.600008,6.24965121 Z" id="Shape"></path>
                        <path d="M45.3829238,17.8757474 C45.4541535,18.0591162 45.5691508,18.219725 45.7283449,18.3571442 C45.8871098,18.494134 46.0634677,18.5843153 46.2565602,18.6268294 L45.8755243,19.4092602 C45.2396062,19.1503108 44.8143736,18.7449241 44.5993973,18.1918117 C44.3844209,17.6386993 44.3814173,17.1323953 44.5908154,16.6728998 C44.8002135,16.2134042 45.165802,15.8814509 45.6884391,15.6778986 C46.2110762,15.4743464 46.7045348,15.4898061 47.168815,15.7242776 C47.6330953,15.9587492 47.9570616,16.310886 48.1394268,16.780688 C48.3217919,17.2500605 48.3423885,17.6945258 48.2007873,18.1132251 C48.0591861,18.5319243 47.7841365,18.8355349 47.3764968,19.0240569 L47.2546339,19.0712947 L45.4163932,17.1474255 C45.2893812,17.3638608 45.2782247,17.6069211 45.3829238,17.8757474 Z M47.3271509,17.1551554 C47.2357538,16.9202544 47.0782761,16.7420388 46.8542888,16.6205087 C46.6303015,16.4985491 46.3818558,16.4912487 46.1085226,16.5973192 C46.0574603,16.6170732 46.0201291,16.6342506 45.9960998,16.648422 L47.1864079,17.9101023 C47.4164026,17.7567939 47.463603,17.505145 47.3271509,17.1551554 Z M48.6903841,16.9855285 L48.3346648,16.0699729 L49.7828587,16.4422931 L49.752822,17.5970441 L48.6903841,16.9855285 Z" id="Shape"></path>
                    </g>
                    <path d="M35.2114935,5.76009521 C34.2760675,5.30446458 33.955963,4.37602591 34.5631317,3.1276581 C35.0184009,2.1914896 34.8669306,2.50368891 34.8669306,2.50368891 L33.9315046,2.04805828 L36.7133242,1.08741198 L36.2580549,2.02358048 L37.1934809,2.47921111 L35.8023566,2.95974898 L35.8023566,2.95974898 L35.6504571,3.27194829 C35.6504571,3.27194829 35.6504571,3.27194829 35.4985577,3.5841476 C35.3466582,3.89634691 35.0432884,4.5203161 35.6667627,4.82435614 C35.8306768,4.90423107 35.6667627,4.82435614 35.6667627,4.82435614 L35.8744444,4.92570282 L36.0426495,6.16591137 L35.5230161,5.91254467" id="Path"></path>
                    <path d="M4.81486922,18.2639568 C4.4741682,19.2477926 3.59152084,19.6763688 2.28063719,19.221597 C1.29758172,18.8806256 1.62540991,18.9944259 1.62540991,18.9944259 L1.28470889,19.9782617 L0,17.3282177 L0.983055466,17.6691892 L1.32375649,16.6853534 L1.96611093,18.0101606 L1.96611093,18.0101606 L2.29393912,18.1239609 C2.29393912,18.1239609 2.29393912,18.1239609 2.62176731,18.2377612 C2.94959549,18.3515615 3.60482277,18.5787327 3.83224285,17.9229853 C3.89188698,17.7503524 3.83224285,17.9229853 3.83224285,17.9229853 L3.90776348,17.7044028 L5.11823902,17.3896269 L4.92900835,17.9362978" id="Path"></path>
                    <polygon id="Path" points="6.16522957 8.82282628 5.55505721 9.61212798 5.84126323 10.885403 4.53767418 10.9270582 3.92750182 11.7163599 6.18668429 11.7842107 6.8243187 13.948993 7.42891282 13.1669917 7.1427068 11.8932872 8.44629585 11.851632 9.05088998 11.0696307 6.79728574 10.994909"></polygon>
                    <polygon id="Path" points="25.254785 0.0404492231 24.1545868 0.0911225639 23.4954976 1.75647185 22.6875127 0.158543873 21.5868854 0.209217214 23.5890402 3.79542966"></polygon>
                </g>
            </g>
        </g>
    </g>
</svg>