<?xml version="1.0" encoding="UTF-8"?>
<svg width="24px" height="24px" viewBox="0 0 24 24" version="1.1" xmlns="http://www.w3.org/2000/svg" xmlns:xlink="http://www.w3.org/1999/xlink">
    <title>logo-facebook</title>
    <g id="Design" stroke="none" stroke-width="1" fill="none" fill-rule="evenodd">
        <g id="TL---Homepage" transform="translate(-1159.000000, -7106.000000)" fill="#FFFFFF" fill-rule="nonzero">
            <g id="Group-38" transform="translate(0.000000, 6231.000000)">
                <g id="Bottom" transform="translate(144.000000, 875.000000)">
                    <g id="Social" transform="translate(861.000000, 0.000000)">
                        <g id="logo-facebook" transform="translate(154.000000, 0.000000)">
                            <path d="M12,0 C18.627417,0 24,5.4053671 24,12.0732253 C24,18.0994846 19.6116016,23.0945241 13.8745995,24 L13.8748418,15.5639512 L16.671073,15.5639512 L17.2026438,12.0732253 L13.8748418,12.0732253 L13.8748418,9.80832833 C13.8748418,8.85415134 14.3389115,7.92204605 15.8306849,7.92204605 L17.344396,7.92204605 L17.344396,4.95085432 C17.344396,4.95085432 15.9707495,4.71485681 14.657854,4.71485681 C11.9173112,4.71485681 10.1251582,6.38551547 10.1251582,9.41273538 L10.1251582,12.0732253 L7.07748559,12.0732253 L7.07748559,15.5639512 L10.1251582,15.5639512 L10.1254005,24 C4.38839838,23.0945241 0,18.0994846 0,12.0732253 C0,5.4053671 5.372583,0 12,0 Z" id="Combined-Shape"></path>
                        </g>
                    </g>
                </g>
            </g>
        </g>
    </g>
</svg>