<?xml version="1.0" encoding="UTF-8"?>
<svg width="24px" height="24px" viewBox="0 0 24 24" version="1.1" xmlns="http://www.w3.org/2000/svg" xmlns:xlink="http://www.w3.org/1999/xlink">
    <title>Logo / logo-facebook-color</title>
    <g id="Design" stroke="none" stroke-width="1" fill="none" fill-rule="evenodd">
        <g id="UI-/-Icon" transform="translate(-279.000000, -829.000000)" fill-rule="nonzero">
            <g id="Group" transform="translate(279.000000, 829.000000)">
                <circle id="Oval" fill="#1977F3" cx="12" cy="12" r="12"></circle>
                <path d="M16.671073,15.4695542 L17.2026438,12 L13.8748418,12 L13.8748418,9.74883983 C13.8748418,8.80045001 14.3389115,7.87399803 15.8306849,7.87399803 L17.344396,7.87399803 L17.344396,4.92082689 C17.344396,4.92082689 15.9707495,4.68626072 14.657854,4.68626072 C11.9173112,4.68626072 10.1251582,6.34678667 10.1251582,9.35564618 L10.1251582,12 L7.07748559,12 L7.07748559,15.4695542 L10.1251582,15.4695542 L10.1251582,23.8548727 C10.7360428,23.9510617 11.362115,24 12,24 C12.637885,24 13.2639572,23.9493742 13.8748418,23.8548727 L13.8748418,15.4695542 L16.671073,15.4695542 Z" id="Path" fill="#FFFFFF"></path>
            </g>
        </g>
    </g>
</svg>