<?xml version="1.0" encoding="UTF-8"?>
<svg width="756px" height="119px" viewBox="0 0 756 119" version="1.1" xmlns="http://www.w3.org/2000/svg" xmlns:xlink="http://www.w3.org/1999/xlink">
    <title>ACTUALITÉS</title>
    <defs>
        <path d="M317.84,1529 L322.88,1514.12 L354.32,1514.12 L359.36,1529 L381.08,1529 L350.6,1444.76 L326.84,1444.76 L296.36,1529 L317.84,1529 Z M349.04,1498.28 L328.28,1498.28 L338.6,1467.44 L349.04,1498.28 Z M433.2,1529.6 C443.2,1529.6 451.76,1526.98 458.88,1521.74 C466,1516.5 470.76,1509.32 473.16,1500.2 L473.16,1500.2 L450.6,1500.2 C448.92,1503.72 446.54,1506.4 443.46,1508.24 C440.38,1510.08 436.88,1511 432.96,1511 C426.64,1511 421.52,1508.8 417.6,1504.4 C413.68,1500 411.72,1494.12 411.72,1486.76 C411.72,1479.4 413.68,1473.52 417.6,1469.12 C421.52,1464.72 426.64,1462.52 432.96,1462.52 C436.88,1462.52 440.38,1463.44 443.46,1465.28 C446.54,1467.12 448.92,1469.8 450.6,1473.32 L450.6,1473.32 L473.16,1473.32 C470.76,1464.2 466,1457 458.88,1451.72 C451.76,1446.44 443.2,1443.8 433.2,1443.8 C425.04,1443.8 417.74,1445.62 411.3,1449.26 C404.86,1452.9 399.84,1457.98 396.24,1464.5 C392.64,1471.02 390.84,1478.44 390.84,1486.76 C390.84,1495.08 392.64,1502.48 396.24,1508.96 C399.84,1515.44 404.86,1520.5 411.3,1524.14 C417.74,1527.78 425.04,1529.6 433.2,1529.6 Z M528.04,1529 L528.04,1461.2 L550.36,1461.2 L550.36,1444.76 L485.2,1444.76 L485.2,1461.2 L507.52,1461.2 L507.52,1529 L528.04,1529 Z M599.12,1529.84 C605.76,1529.84 611.78,1528.52 617.18,1525.88 C622.58,1523.24 626.88,1519.32 630.08,1514.12 C633.28,1508.92 634.88,1502.56 634.88,1495.04 L634.88,1495.04 L634.88,1444.76 L614.36,1444.76 L614.36,1495.16 C614.36,1500.2 613.08,1504.08 610.52,1506.8 C607.96,1509.52 604.28,1510.88 599.48,1510.88 C594.68,1510.88 591.04,1509.52 588.56,1506.8 C586.08,1504.08 584.84,1500.2 584.84,1495.16 L584.84,1495.16 L584.84,1444.76 L564.32,1444.76 L564.32,1495.04 C564.32,1502.56 565.84,1508.94 568.88,1514.18 C571.92,1519.42 576.06,1523.34 581.3,1525.94 C586.54,1528.54 592.48,1529.84 599.12,1529.84 Z M669.24,1529 L674.28,1514.12 L705.72,1514.12 L710.76,1529 L732.48,1529 L702,1444.76 L678.24,1444.76 L647.76,1529 L669.24,1529 Z M700.44,1498.28 L679.68,1498.28 L690,1467.44 L700.44,1498.28 Z M793.12,1529 L793.12,1513.16 L766.24,1513.16 L766.24,1444.76 L745.72,1444.76 L745.72,1529 L793.12,1529 Z M827.48,1529 L827.48,1444.76 L806.96,1444.76 L806.96,1529 L827.48,1529 Z M884.64,1529 L884.64,1461.2 L906.96,1461.2 L906.96,1444.76 L841.8,1444.76 L841.8,1461.2 L864.12,1461.2 L864.12,1529 L884.64,1529 Z M931.6,1439.96 L960.52,1427.84 L960.52,1411.88 L931.6,1425.8 L931.6,1439.96 Z M972.88,1529 L972.88,1512.56 L941.8,1512.56 L941.8,1494.08 L969.28,1494.08 L969.28,1478.24 L941.8,1478.24 L941.8,1461.2 L972.88,1461.2 L972.88,1444.76 L921.28,1444.76 L921.28,1529 L972.88,1529 Z M1020.68,1529.84 C1027,1529.84 1032.48,1528.68 1037.12,1526.36 C1041.76,1524.04 1045.3,1520.92 1047.74,1517 C1050.18,1513.08 1051.4,1508.72 1051.4,1503.92 C1051.4,1498.88 1050.16,1494.76 1047.68,1491.56 C1045.2,1488.36 1042.26,1485.92 1038.86,1484.24 C1035.46,1482.56 1031.04,1480.8 1025.6,1478.96 C1020.16,1477.2 1016.16,1475.56 1013.6,1474.04 C1011.04,1472.52 1009.76,1470.4 1009.76,1467.68 C1009.76,1465.2 1010.52,1463.3 1012.04,1461.98 C1013.56,1460.66 1015.56,1460 1018.04,1460 C1020.92,1460 1023.28,1460.78 1025.12,1462.34 C1026.96,1463.9 1027.96,1466.04 1028.12,1468.76 L1028.12,1468.76 L1050.32,1468.76 C1049.92,1460.84 1046.88,1454.66 1041.2,1450.22 C1035.52,1445.78 1028.04,1443.56 1018.76,1443.56 C1009.64,1443.56 1002.24,1445.78 996.56,1450.22 C990.88,1454.66 988.04,1460.8 988.04,1468.64 C988.04,1473.92 989.28,1478.2 991.76,1481.48 C994.24,1484.76 997.2,1487.24 1000.64,1488.92 C1004.08,1490.6 1008.52,1492.28 1013.96,1493.96 C1017.72,1495.08 1020.62,1496.08 1022.66,1496.96 C1024.7,1497.84 1026.42,1498.96 1027.82,1500.32 C1029.22,1501.68 1029.92,1503.4 1029.92,1505.48 C1029.92,1507.96 1029.04,1509.9 1027.28,1511.3 C1025.52,1512.7 1023.12,1513.4 1020.08,1513.4 C1017.12,1513.4 1014.72,1512.58 1012.88,1510.94 C1011.04,1509.3 1009.96,1506.92 1009.64,1503.8 L1009.64,1503.8 L987.8,1503.8 C987.96,1509.32 989.5,1514.04 992.42,1517.96 C995.34,1521.88 999.24,1524.84 1004.12,1526.84 C1009,1528.84 1014.52,1529.84 1020.68,1529.84 Z" id="path-1"></path>
        <filter x="-0.3%" y="-1.7%" width="100.5%" height="103.4%" filterUnits="objectBoundingBox" id="filter-2">
            <feGaussianBlur stdDeviation="1.5" in="SourceAlpha" result="shadowBlurInner1"></feGaussianBlur>
            <feOffset dx="0" dy="1" in="shadowBlurInner1" result="shadowOffsetInner1"></feOffset>
            <feComposite in="shadowOffsetInner1" in2="SourceAlpha" operator="arithmetic" k2="-1" k3="1" result="shadowInnerInner1"></feComposite>
            <feColorMatrix values="0 0 0 0 0.907962085   0 0 0 0 0.912369668   0 0 0 0 0.93  0 0 0 1 0" type="matrix" in="shadowInnerInner1"></feColorMatrix>
        </filter>
    </defs>
    <g id="Design" stroke="none" stroke-width="1" fill="none" fill-rule="evenodd">
        <g id="Artboard" transform="translate(-296.000000, -1411.000000)" fill-rule="nonzero">
            <g id="ACTUALITÉS">
                <use fill="#F8F9FA" xlink:href="#path-1"></use>
                <use fill="black" fill-opacity="1" filter="url(#filter-2)" xlink:href="#path-1"></use>
            </g>
        </g>
    </g>
</svg>