<?xml version="1.0" encoding="UTF-8"?>
<svg width="1931px" height="87px" viewBox="0 0 1931 87" version="1.1" xmlns="http://www.w3.org/2000/svg" xmlns:xlink="http://www.w3.org/1999/xlink">
    <title>applicationtaxilyonnais</title>
    <defs>
        <path d="M110.26,619 L110.26,603.16 L83.38,603.16 L83.38,534.76 L62.86,534.76 L62.86,619 L110.26,619 Z M136.34,566.92 L149.78,534.76 L128.78,534.76 L122.54,566.92 L136.34,566.92 Z M181.74,619 L186.78,604.12 L218.22,604.12 L223.26,619 L244.98,619 L214.5,534.76 L190.74,534.76 L160.26,619 L181.74,619 Z M212.94,588.28 L192.18,588.28 L202.5,557.44 L212.94,588.28 Z M278.74,619 L278.74,588.76 L291.46,588.76 C298.34,588.76 304.1,587.52 308.74,585.04 C313.38,582.56 316.82,579.3 319.06,575.26 C321.3,571.22 322.42,566.76 322.42,561.88 C322.42,556.6 321.26,551.92 318.94,547.84 C316.62,543.76 313.14,540.56 308.5,538.24 C303.86,535.92 298.18,534.76 291.46,534.76 L291.46,534.76 L258.22,534.76 L258.22,619 L278.74,619 Z M289.9,572.44 L278.74,572.44 L278.74,551.32 L289.9,551.32 C293.82,551.32 296.74,552.24 298.66,554.08 C300.58,555.92 301.54,558.52 301.54,561.88 C301.54,565.24 300.58,567.84 298.66,569.68 C296.74,571.52 293.82,572.44 289.9,572.44 L289.9,572.44 Z M357.62,619 L357.62,588.76 L370.34,588.76 C377.22,588.76 382.98,587.52 387.62,585.04 C392.26,582.56 395.7,579.3 397.94,575.26 C400.18,571.22 401.3,566.76 401.3,561.88 C401.3,556.6 400.14,551.92 397.82,547.84 C395.5,543.76 392.02,540.56 387.38,538.24 C382.74,535.92 377.06,534.76 370.34,534.76 L370.34,534.76 L337.1,534.76 L337.1,619 L357.62,619 Z M368.78,572.44 L357.62,572.44 L357.62,551.32 L368.78,551.32 C372.7,551.32 375.62,552.24 377.54,554.08 C379.46,555.92 380.42,558.52 380.42,561.88 C380.42,565.24 379.46,567.84 377.54,569.68 C375.62,571.52 372.7,572.44 368.78,572.44 L368.78,572.44 Z M463.38,619 L463.38,603.16 L436.5,603.16 L436.5,534.76 L415.98,534.76 L415.98,619 L463.38,619 Z M497.74,619 L497.74,534.76 L477.22,534.76 L477.22,619 L497.74,619 Z M555.5,619.6 C565.5,619.6 574.06,616.98 581.18,611.74 C588.3,606.5 593.06,599.32 595.46,590.2 L595.46,590.2 L572.9,590.2 C571.22,593.72 568.84,596.4 565.76,598.24 C562.68,600.08 559.18,601 555.26,601 C548.94,601 543.82,598.8 539.9,594.4 C535.98,590 534.02,584.12 534.02,576.76 C534.02,569.4 535.98,563.52 539.9,559.12 C543.82,554.72 548.94,552.52 555.26,552.52 C559.18,552.52 562.68,553.44 565.76,555.28 C568.84,557.12 571.22,559.8 572.9,563.32 L572.9,563.32 L595.46,563.32 C593.06,554.2 588.3,547 581.18,541.72 C574.06,536.44 565.5,533.8 555.5,533.8 C547.34,533.8 540.04,535.62 533.6,539.26 C527.16,542.9 522.14,547.98 518.54,554.5 C514.94,561.02 513.14,568.44 513.14,576.76 C513.14,585.08 514.94,592.48 518.54,598.96 C522.14,605.44 527.16,610.5 533.6,614.14 C540.04,617.78 547.34,619.6 555.5,619.6 Z M628.02,619 L633.06,604.12 L664.5,604.12 L669.54,619 L691.26,619 L660.78,534.76 L637.02,534.76 L606.54,619 L628.02,619 Z M659.22,588.28 L638.46,588.28 L648.78,557.44 L659.22,588.28 Z M742.78,619 L742.78,551.2 L765.1,551.2 L765.1,534.76 L699.94,534.76 L699.94,551.2 L722.26,551.2 L722.26,619 L742.78,619 Z M799.94,619 L799.94,534.76 L779.42,534.76 L779.42,619 L799.94,619 Z M858.66,619.84 C866.58,619.84 873.82,618 880.38,614.32 C886.94,610.64 892.14,605.5 895.98,598.9 C899.82,592.3 901.74,584.88 901.74,576.64 C901.74,568.4 899.84,561 896.04,554.44 C892.24,547.88 887.04,542.76 880.44,539.08 C873.84,535.4 866.58,533.56 858.66,533.56 C850.74,533.56 843.48,535.4 836.88,539.08 C830.28,542.76 825.04,547.88 821.16,554.44 C817.28,561 815.34,568.4 815.34,576.64 C815.34,584.88 817.28,592.3 821.16,598.9 C825.04,605.5 830.28,610.64 836.88,614.32 C843.48,618 850.74,619.84 858.66,619.84 Z M858.66,601.12 C851.86,601.12 846.44,598.9 842.4,594.46 C838.36,590.02 836.34,584.08 836.34,576.64 C836.34,569.12 838.36,563.16 842.4,558.76 C846.44,554.36 851.86,552.16 858.66,552.16 C865.38,552.16 870.76,554.38 874.8,558.82 C878.84,563.26 880.86,569.2 880.86,576.64 C880.86,584 878.84,589.92 874.8,594.4 C870.76,598.88 865.38,601.12 858.66,601.12 Z M937.66,619 L937.66,567.04 L971.98,619 L992.5,619 L992.5,534.76 L971.98,534.76 L971.98,586.96 L937.66,534.76 L917.14,534.76 L917.14,619 L937.66,619 Z M1079.1,619 L1079.1,551.2 L1101.42,551.2 L1101.42,534.76 L1036.26,534.76 L1036.26,551.2 L1058.58,551.2 L1058.58,619 L1079.1,619 Z M1131.7,619 L1136.74,604.12 L1168.18,604.12 L1173.22,619 L1194.94,619 L1164.46,534.76 L1140.7,534.76 L1110.22,619 L1131.7,619 Z M1162.9,588.28 L1142.14,588.28 L1152.46,557.44 L1162.9,588.28 Z M1227.5,619 L1242.62,593.2 L1259.78,619 L1283.66,619 L1255.82,577.24 L1282.58,534.76 L1259.3,534.76 L1244.42,560.2 L1227.5,534.76 L1203.62,534.76 L1231.22,576.16 L1204.22,619 L1227.5,619 Z M1318.5,619 L1318.5,534.76 L1297.98,534.76 L1297.98,619 L1318.5,619 Z M1414.22,619 L1414.22,603.16 L1387.34,603.16 L1387.34,534.76 L1366.82,534.76 L1366.82,619 L1414.22,619 Z M1471.14,619 L1471.14,591.16 L1500.3,534.76 L1477.26,534.76 L1461.06,570.04 L1444.74,534.76 L1421.46,534.76 L1450.62,591.16 L1450.62,619 L1471.14,619 Z M1552.42,619.84 C1560.34,619.84 1567.58,618 1574.14,614.32 C1580.7,610.64 1585.9,605.5 1589.74,598.9 C1593.58,592.3 1595.5,584.88 1595.5,576.64 C1595.5,568.4 1593.6,561 1589.8,554.44 C1586,547.88 1580.8,542.76 1574.2,539.08 C1567.6,535.4 1560.34,533.56 1552.42,533.56 C1544.5,533.56 1537.24,535.4 1530.64,539.08 C1524.04,542.76 1518.8,547.88 1514.92,554.44 C1511.04,561 1509.1,568.4 1509.1,576.64 C1509.1,584.88 1511.04,592.3 1514.92,598.9 C1518.8,605.5 1524.04,610.64 1530.64,614.32 C1537.24,618 1544.5,619.84 1552.42,619.84 Z M1552.42,601.12 C1545.62,601.12 1540.2,598.9 1536.16,594.46 C1532.12,590.02 1530.1,584.08 1530.1,576.64 C1530.1,569.12 1532.12,563.16 1536.16,558.76 C1540.2,554.36 1545.62,552.16 1552.42,552.16 C1559.14,552.16 1564.52,554.38 1568.56,558.82 C1572.6,563.26 1574.62,569.2 1574.62,576.64 C1574.62,584 1572.6,589.92 1568.56,594.4 C1564.52,598.88 1559.14,601.12 1552.42,601.12 Z M1631.42,619 L1631.42,567.04 L1665.74,619 L1686.26,619 L1686.26,534.76 L1665.74,534.76 L1665.74,586.96 L1631.42,534.76 L1610.9,534.76 L1610.9,619 L1631.42,619 Z M1725.66,619 L1725.66,567.04 L1759.98,619 L1780.5,619 L1780.5,534.76 L1759.98,534.76 L1759.98,586.96 L1725.66,534.76 L1705.14,534.76 L1705.14,619 L1725.66,619 Z M1815.34,619 L1820.38,604.12 L1851.82,604.12 L1856.86,619 L1878.58,619 L1848.1,534.76 L1824.34,534.76 L1793.86,619 L1815.34,619 Z M1846.54,588.28 L1825.78,588.28 L1836.1,557.44 L1846.54,588.28 Z M1912.34,619 L1912.34,534.76 L1891.82,534.76 L1891.82,619 L1912.34,619 Z M1961.7,619.84 C1968.02,619.84 1973.5,618.68 1978.14,616.36 C1982.78,614.04 1986.32,610.92 1988.76,607 C1991.2,603.08 1992.42,598.72 1992.42,593.92 C1992.42,588.88 1991.18,584.76 1988.7,581.56 C1986.22,578.36 1983.28,575.92 1979.88,574.24 C1976.48,572.56 1972.06,570.8 1966.62,568.96 C1961.18,567.2 1957.18,565.56 1954.62,564.04 C1952.06,562.52 1950.78,560.4 1950.78,557.68 C1950.78,555.2 1951.54,553.3 1953.06,551.98 C1954.58,550.66 1956.58,550 1959.06,550 C1961.94,550 1964.3,550.78 1966.14,552.34 C1967.98,553.9 1968.98,556.04 1969.14,558.76 L1969.14,558.76 L1991.34,558.76 C1990.94,550.84 1987.9,544.66 1982.22,540.22 C1976.54,535.78 1969.06,533.56 1959.78,533.56 C1950.66,533.56 1943.26,535.78 1937.58,540.22 C1931.9,544.66 1929.06,550.8 1929.06,558.64 C1929.06,563.92 1930.3,568.2 1932.78,571.48 C1935.26,574.76 1938.22,577.24 1941.66,578.92 C1945.1,580.6 1949.54,582.28 1954.98,583.96 C1958.74,585.08 1961.64,586.08 1963.68,586.96 C1965.72,587.84 1967.44,588.96 1968.84,590.32 C1970.24,591.68 1970.94,593.4 1970.94,595.48 C1970.94,597.96 1970.06,599.9 1968.3,601.3 C1966.54,602.7 1964.14,603.4 1961.1,603.4 C1958.14,603.4 1955.74,602.58 1953.9,600.94 C1952.06,599.3 1950.98,596.92 1950.66,593.8 L1950.66,593.8 L1928.82,593.8 C1928.98,599.32 1930.52,604.04 1933.44,607.96 C1936.36,611.88 1940.26,614.84 1945.14,616.84 C1950.02,618.84 1955.54,619.84 1961.7,619.84 Z" id="path-1"></path>
        <filter x="-0.1%" y="-2.3%" width="100.2%" height="104.6%" filterUnits="objectBoundingBox" id="filter-2">
            <feGaussianBlur stdDeviation="1.5" in="SourceAlpha" result="shadowBlurInner1"></feGaussianBlur>
            <feOffset dx="0" dy="1" in="shadowBlurInner1" result="shadowOffsetInner1"></feOffset>
            <feComposite in="shadowOffsetInner1" in2="SourceAlpha" operator="arithmetic" k2="-1" k3="1" result="shadowInnerInner1"></feComposite>
            <feColorMatrix values="0 0 0 0 0.482352941   0 0 0 0 0.592156863   0 0 0 0 0.768627451  0 0 0 1 0" type="matrix" in="shadowInnerInner1"></feColorMatrix>
        </filter>
    </defs>
    <g id="Design" stroke="none" stroke-width="1" fill="none" fill-rule="evenodd" opacity="0.3">
        <g id="Artboard" transform="translate(-62.000000, -533.000000)" fill-rule="nonzero">
            <g id="applicationtaxilyonnais">
                <use fill="#D3DCEB" xlink:href="#path-1"></use>
                <use fill="black" fill-opacity="1" filter="url(#filter-2)" xlink:href="#path-1"></use>
            </g>
        </g>
    </g>
</svg>