<?xml version="1.0" encoding="UTF-8"?>
<svg width="832px" height="87px" viewBox="0 0 832 87" version="1.1" xmlns="http://www.w3.org/2000/svg" xmlns:xlink="http://www.w3.org/1999/xlink">
    <title>CLIENTS</title>
    <defs>
        <path d="M178.58,1251 L183.62,1236.12 L215.06,1236.12 L220.1,1251 L241.82,1251 L211.34,1166.76 L187.58,1166.76 L157.1,1251 L178.58,1251 Z M209.78,1220.28 L189.02,1220.28 L199.34,1189.44 L209.78,1220.28 Z M304.26,1251 L334.14,1166.76 L312.42,1166.76 L291.42,1230.36 L270.54,1166.76 L248.7,1166.76 L278.58,1251 L304.26,1251 Z M367.18,1251 L367.18,1166.76 L346.66,1166.76 L346.66,1251 L367.18,1251 Z M416.54,1251.84 C422.86,1251.84 428.34,1250.68 432.98,1248.36 C437.62,1246.04 441.16,1242.92 443.6,1239 C446.04,1235.08 447.26,1230.72 447.26,1225.92 C447.26,1220.88 446.02,1216.76 443.54,1213.56 C441.06,1210.36 438.12,1207.92 434.72,1206.24 C431.32,1204.56 426.9,1202.8 421.46,1200.96 C416.02,1199.2 412.02,1197.56 409.46,1196.04 C406.9,1194.52 405.62,1192.4 405.62,1189.68 C405.62,1187.2 406.38,1185.3 407.9,1183.98 C409.42,1182.66 411.42,1182 413.9,1182 C416.78,1182 419.14,1182.78 420.98,1184.34 C422.82,1185.9 423.82,1188.04 423.98,1190.76 L423.98,1190.76 L446.18,1190.76 C445.78,1182.84 442.74,1176.66 437.06,1172.22 C431.38,1167.78 423.9,1165.56 414.62,1165.56 C405.5,1165.56 398.1,1167.78 392.42,1172.22 C386.74,1176.66 383.9,1182.8 383.9,1190.64 C383.9,1195.92 385.14,1200.2 387.62,1203.48 C390.1,1206.76 393.06,1209.24 396.5,1210.92 C399.94,1212.6 404.38,1214.28 409.82,1215.96 C413.58,1217.08 416.48,1218.08 418.52,1218.96 C420.56,1219.84 422.28,1220.96 423.68,1222.32 C425.08,1223.68 425.78,1225.4 425.78,1227.48 C425.78,1229.96 424.9,1231.9 423.14,1233.3 C421.38,1234.7 418.98,1235.4 415.94,1235.4 C412.98,1235.4 410.58,1234.58 408.74,1232.94 C406.9,1231.3 405.82,1228.92 405.5,1225.8 L405.5,1225.8 L383.66,1225.8 C383.82,1231.32 385.36,1236.04 388.28,1239.96 C391.2,1243.88 395.1,1246.84 399.98,1248.84 C404.86,1250.84 410.38,1251.84 416.54,1251.84 Z M532.18,1251.6 C542.18,1251.6 550.74,1248.98 557.86,1243.74 C564.98,1238.5 569.74,1231.32 572.14,1222.2 L572.14,1222.2 L549.58,1222.2 C547.9,1225.72 545.52,1228.4 542.44,1230.24 C539.36,1232.08 535.86,1233 531.94,1233 C525.62,1233 520.5,1230.8 516.58,1226.4 C512.66,1222 510.7,1216.12 510.7,1208.76 C510.7,1201.4 512.66,1195.52 516.58,1191.12 C520.5,1186.72 525.62,1184.52 531.94,1184.52 C535.86,1184.52 539.36,1185.44 542.44,1187.28 C545.52,1189.12 547.9,1191.8 549.58,1195.32 L549.58,1195.32 L572.14,1195.32 C569.74,1186.2 564.98,1179 557.86,1173.72 C550.74,1168.44 542.18,1165.8 532.18,1165.8 C524.02,1165.8 516.72,1167.62 510.28,1171.26 C503.84,1174.9 498.82,1179.98 495.22,1186.5 C491.62,1193.02 489.82,1200.44 489.82,1208.76 C489.82,1217.08 491.62,1224.48 495.22,1230.96 C498.82,1237.44 503.84,1242.5 510.28,1246.14 C516.72,1249.78 524.02,1251.6 532.18,1251.6 Z M636.14,1251 L636.14,1235.16 L609.26,1235.16 L609.26,1166.76 L588.74,1166.76 L588.74,1251 L636.14,1251 Z M670.5,1251 L670.5,1166.76 L649.98,1166.76 L649.98,1251 L670.5,1251 Z M740.98,1251 L740.98,1234.56 L709.9,1234.56 L709.9,1216.08 L737.38,1216.08 L737.38,1200.24 L709.9,1200.24 L709.9,1183.2 L740.98,1183.2 L740.98,1166.76 L689.38,1166.76 L689.38,1251 L740.98,1251 Z M778.82,1251 L778.82,1199.04 L813.14,1251 L833.66,1251 L833.66,1166.76 L813.14,1166.76 L813.14,1218.96 L778.82,1166.76 L758.3,1166.76 L758.3,1251 L778.82,1251 Z M890.82,1251 L890.82,1183.2 L913.14,1183.2 L913.14,1166.76 L847.98,1166.76 L847.98,1183.2 L870.3,1183.2 L870.3,1251 L890.82,1251 Z M957.94,1251.84 C964.26,1251.84 969.74,1250.68 974.38,1248.36 C979.02,1246.04 982.56,1242.92 985,1239 C987.44,1235.08 988.66,1230.72 988.66,1225.92 C988.66,1220.88 987.42,1216.76 984.94,1213.56 C982.46,1210.36 979.52,1207.92 976.12,1206.24 C972.72,1204.56 968.3,1202.8 962.86,1200.96 C957.42,1199.2 953.42,1197.56 950.86,1196.04 C948.3,1194.52 947.02,1192.4 947.02,1189.68 C947.02,1187.2 947.78,1185.3 949.3,1183.98 C950.82,1182.66 952.82,1182 955.3,1182 C958.18,1182 960.54,1182.78 962.38,1184.34 C964.22,1185.9 965.22,1188.04 965.38,1190.76 L965.38,1190.76 L987.58,1190.76 C987.18,1182.84 984.14,1176.66 978.46,1172.22 C972.78,1167.78 965.3,1165.56 956.02,1165.56 C946.9,1165.56 939.5,1167.78 933.82,1172.22 C928.14,1176.66 925.3,1182.8 925.3,1190.64 C925.3,1195.92 926.54,1200.2 929.02,1203.48 C931.5,1206.76 934.46,1209.24 937.9,1210.92 C941.34,1212.6 945.78,1214.28 951.22,1215.96 C954.98,1217.08 957.88,1218.08 959.92,1218.96 C961.96,1219.84 963.68,1220.96 965.08,1222.32 C966.48,1223.68 967.18,1225.4 967.18,1227.48 C967.18,1229.96 966.3,1231.9 964.54,1233.3 C962.78,1234.7 960.38,1235.4 957.34,1235.4 C954.38,1235.4 951.98,1234.58 950.14,1232.94 C948.3,1231.3 947.22,1228.92 946.9,1225.8 L946.9,1225.8 L925.06,1225.8 C925.22,1231.32 926.76,1236.04 929.68,1239.96 C932.6,1243.88 936.5,1246.84 941.38,1248.84 C946.26,1250.84 951.78,1251.84 957.94,1251.84 Z" id="path-1"></path>
        <filter x="-0.2%" y="-2.3%" width="100.5%" height="104.6%" filterUnits="objectBoundingBox" id="filter-2">
            <feGaussianBlur stdDeviation="1.5" in="SourceAlpha" result="shadowBlurInner1"></feGaussianBlur>
            <feOffset dx="0" dy="1" in="shadowBlurInner1" result="shadowOffsetInner1"></feOffset>
            <feComposite in="shadowOffsetInner1" in2="SourceAlpha" operator="arithmetic" k2="-1" k3="1" result="shadowInnerInner1"></feComposite>
            <feColorMatrix values="0 0 0 0 0.842553191   0 0 0 0 0.856595745   0 0 0 0 0.88  0 0 0 1 0" type="matrix" in="shadowInnerInner1"></feColorMatrix>
        </filter>
    </defs>
    <g id="Design" stroke="none" stroke-width="1" fill="none" fill-rule="evenodd">
        <g id="Artboard" transform="translate(-157.000000, -1165.000000)" fill-rule="nonzero">
            <g id="CLIENTS">
                <use fill="#F0F2F5" xlink:href="#path-1"></use>
                <use fill="black" fill-opacity="1" filter="url(#filter-2)" xlink:href="#path-1"></use>
            </g>
        </g>
    </g>
</svg>