<?xml version="1.0" encoding="UTF-8"?>
<svg width="1298px" height="87px" viewBox="0 0 1298 87" version="1.1" xmlns="http://www.w3.org/2000/svg" xmlns:xlink="http://www.w3.org/1999/xlink">
    <title>DEVENIRCHAUFFEUR</title>
    <defs>
        <path d="M172.38,1807 C181.18,1807 188.92,1805.24 195.6,1801.72 C202.28,1798.2 207.44,1793.24 211.08,1786.84 C214.72,1780.44 216.54,1773.12 216.54,1764.88 C216.54,1756.56 214.72,1749.22 211.08,1742.86 C207.44,1736.5 202.3,1731.56 195.66,1728.04 C189.02,1724.52 181.26,1722.76 172.38,1722.76 L172.38,1722.76 L140.82,1722.76 L140.82,1807 L172.38,1807 Z M171.06,1789.24 L161.34,1789.24 L161.34,1740.28 L171.06,1740.28 C178.82,1740.28 184.86,1742.44 189.18,1746.76 C193.5,1751.08 195.66,1757.12 195.66,1764.88 C195.66,1772.64 193.5,1778.64 189.18,1782.88 C184.86,1787.12 178.82,1789.24 171.06,1789.24 L171.06,1789.24 Z M283.66,1807 L283.66,1790.56 L252.58,1790.56 L252.58,1772.08 L280.06,1772.08 L280.06,1756.24 L252.58,1756.24 L252.58,1739.2 L283.66,1739.2 L283.66,1722.76 L232.06,1722.76 L232.06,1807 L283.66,1807 Z M350.18,1807 L380.06,1722.76 L358.34,1722.76 L337.34,1786.36 L316.46,1722.76 L294.62,1722.76 L324.5,1807 L350.18,1807 Z M444.18,1807 L444.18,1790.56 L413.1,1790.56 L413.1,1772.08 L440.58,1772.08 L440.58,1756.24 L413.1,1756.24 L413.1,1739.2 L444.18,1739.2 L444.18,1722.76 L392.58,1722.76 L392.58,1807 L444.18,1807 Z M482.02,1807 L482.02,1755.04 L516.34,1807 L536.86,1807 L536.86,1722.76 L516.34,1722.76 L516.34,1774.96 L482.02,1722.76 L461.5,1722.76 L461.5,1807 L482.02,1807 Z M576.26,1807 L576.26,1722.76 L555.74,1722.76 L555.74,1807 L576.26,1807 Z M615.66,1807 L615.66,1775.2 L620.58,1775.2 L638.1,1807 L661.26,1807 L641.82,1773.64 C647.98,1771.8 652.64,1768.68 655.8,1764.28 C658.96,1759.88 660.54,1754.88 660.54,1749.28 C660.54,1744.32 659.38,1739.82 657.06,1735.78 C654.74,1731.74 651.24,1728.56 646.56,1726.24 C641.88,1723.92 636.22,1722.76 629.58,1722.76 L629.58,1722.76 L595.14,1722.76 L595.14,1807 L615.66,1807 Z M628.38,1760.68 L615.66,1760.68 L615.66,1739.8 L628.38,1739.8 C632.14,1739.8 634.96,1740.72 636.84,1742.56 C638.72,1744.4 639.66,1746.92 639.66,1750.12 C639.66,1753.48 638.72,1756.08 636.84,1757.92 C634.96,1759.76 632.14,1760.68 628.38,1760.68 L628.38,1760.68 Z M745.7,1807.6 C755.7,1807.6 764.26,1804.98 771.38,1799.74 C778.5,1794.5 783.26,1787.32 785.66,1778.2 L785.66,1778.2 L763.1,1778.2 C761.42,1781.72 759.04,1784.4 755.96,1786.24 C752.88,1788.08 749.38,1789 745.46,1789 C739.14,1789 734.02,1786.8 730.1,1782.4 C726.18,1778 724.22,1772.12 724.22,1764.76 C724.22,1757.4 726.18,1751.52 730.1,1747.12 C734.02,1742.72 739.14,1740.52 745.46,1740.52 C749.38,1740.52 752.88,1741.44 755.96,1743.28 C759.04,1745.12 761.42,1747.8 763.1,1751.32 L763.1,1751.32 L785.66,1751.32 C783.26,1742.2 778.5,1735 771.38,1729.72 C764.26,1724.44 755.7,1721.8 745.7,1721.8 C737.54,1721.8 730.24,1723.62 723.8,1727.26 C717.36,1730.9 712.34,1735.98 708.74,1742.5 C705.14,1749.02 703.34,1756.44 703.34,1764.76 C703.34,1773.08 705.14,1780.48 708.74,1786.96 C712.34,1793.44 717.36,1798.5 723.8,1802.14 C730.24,1805.78 737.54,1807.6 745.7,1807.6 Z M822.78,1807 L822.78,1772.32 L854.7,1772.32 L854.7,1807 L875.22,1807 L875.22,1722.76 L854.7,1722.76 L854.7,1755.76 L822.78,1755.76 L822.78,1722.76 L802.26,1722.76 L802.26,1807 L822.78,1807 Z M909.94,1807 L914.98,1792.12 L946.42,1792.12 L951.46,1807 L973.18,1807 L942.7,1722.76 L918.94,1722.76 L888.46,1807 L909.94,1807 Z M941.14,1776.28 L920.38,1776.28 L930.7,1745.44 L941.14,1776.28 Z M1020.86,1807.84 C1027.5,1807.84 1033.52,1806.52 1038.92,1803.88 C1044.32,1801.24 1048.62,1797.32 1051.82,1792.12 C1055.02,1786.92 1056.62,1780.56 1056.62,1773.04 L1056.62,1773.04 L1056.62,1722.76 L1036.1,1722.76 L1036.1,1773.16 C1036.1,1778.2 1034.82,1782.08 1032.26,1784.8 C1029.7,1787.52 1026.02,1788.88 1021.22,1788.88 C1016.42,1788.88 1012.78,1787.52 1010.3,1784.8 C1007.82,1782.08 1006.58,1778.2 1006.58,1773.16 L1006.58,1773.16 L1006.58,1722.76 L986.06,1722.76 L986.06,1773.04 C986.06,1780.56 987.58,1786.94 990.62,1792.18 C993.66,1797.42 997.8,1801.34 1003.04,1803.94 C1008.28,1806.54 1014.22,1807.84 1020.86,1807.84 Z M1095.54,1807 L1095.54,1772.92 L1121.22,1772.92 L1121.22,1756.96 L1095.54,1756.96 L1095.54,1739.2 L1129.86,1739.2 L1129.86,1722.76 L1075.02,1722.76 L1075.02,1807 L1095.54,1807 Z M1165.18,1807 L1165.18,1772.92 L1190.86,1772.92 L1190.86,1756.96 L1165.18,1756.96 L1165.18,1739.2 L1199.5,1739.2 L1199.5,1722.76 L1144.66,1722.76 L1144.66,1807 L1165.18,1807 Z M1265.9,1807 L1265.9,1790.56 L1234.82,1790.56 L1234.82,1772.08 L1262.3,1772.08 L1262.3,1756.24 L1234.82,1756.24 L1234.82,1739.2 L1265.9,1739.2 L1265.9,1722.76 L1214.3,1722.76 L1214.3,1807 L1265.9,1807 Z M1317.66,1807.84 C1324.3,1807.84 1330.32,1806.52 1335.72,1803.88 C1341.12,1801.24 1345.42,1797.32 1348.62,1792.12 C1351.82,1786.92 1353.42,1780.56 1353.42,1773.04 L1353.42,1773.04 L1353.42,1722.76 L1332.9,1722.76 L1332.9,1773.16 C1332.9,1778.2 1331.62,1782.08 1329.06,1784.8 C1326.5,1787.52 1322.82,1788.88 1318.02,1788.88 C1313.22,1788.88 1309.58,1787.52 1307.1,1784.8 C1304.62,1782.08 1303.38,1778.2 1303.38,1773.16 L1303.38,1773.16 L1303.38,1722.76 L1282.86,1722.76 L1282.86,1773.04 C1282.86,1780.56 1284.38,1786.94 1287.42,1792.18 C1290.46,1797.42 1294.6,1801.34 1299.84,1803.94 C1305.08,1806.54 1311.02,1807.84 1317.66,1807.84 Z M1392.34,1807 L1392.34,1775.2 L1397.26,1775.2 L1414.78,1807 L1437.94,1807 L1418.5,1773.64 C1424.66,1771.8 1429.32,1768.68 1432.48,1764.28 C1435.64,1759.88 1437.22,1754.88 1437.22,1749.28 C1437.22,1744.32 1436.06,1739.82 1433.74,1735.78 C1431.42,1731.74 1427.92,1728.56 1423.24,1726.24 C1418.56,1723.92 1412.9,1722.76 1406.26,1722.76 L1406.26,1722.76 L1371.82,1722.76 L1371.82,1807 L1392.34,1807 Z M1405.06,1760.68 L1392.34,1760.68 L1392.34,1739.8 L1405.06,1739.8 C1408.82,1739.8 1411.64,1740.72 1413.52,1742.56 C1415.4,1744.4 1416.34,1746.92 1416.34,1750.12 C1416.34,1753.48 1415.4,1756.08 1413.52,1757.92 C1411.64,1759.76 1408.82,1760.68 1405.06,1760.68 L1405.06,1760.68 Z" id="path-1"></path>
        <filter x="-0.2%" y="-2.3%" width="100.3%" height="104.6%" filterUnits="objectBoundingBox" id="filter-2">
            <feGaussianBlur stdDeviation="1.5" in="SourceAlpha" result="shadowBlurInner1"></feGaussianBlur>
            <feOffset dx="0" dy="1" in="shadowBlurInner1" result="shadowOffsetInner1"></feOffset>
            <feComposite in="shadowOffsetInner1" in2="SourceAlpha" operator="arithmetic" k2="-1" k3="1" result="shadowInnerInner1"></feComposite>
            <feColorMatrix values="0 0 0 0 0.907962085   0 0 0 0 0.912369668   0 0 0 0 0.93  0 0 0 1 0" type="matrix" in="shadowInnerInner1"></feColorMatrix>
        </filter>
    </defs>
    <g id="Design" stroke="none" stroke-width="1" fill="none" fill-rule="evenodd">
        <g id="Artboard" transform="translate(-140.000000, -1721.000000)" fill-rule="nonzero">
            <g id="DEVENIRCHAUFFEUR">
                <use fill="#F8F9FA" xlink:href="#path-1"></use>
                <use fill="black" fill-opacity="1" filter="url(#filter-2)" xlink:href="#path-1"></use>
            </g>
        </g>
    </g>
</svg>