<?xml version="1.0" encoding="UTF-8"?>
<svg width="886px" height="87px" viewBox="0 0 886 87" version="1.1" xmlns="http://www.w3.org/2000/svg" xmlns:xlink="http://www.w3.org/1999/xlink">
    <title>NOSSERVICES</title>
    <defs>
        <path d="M154,865 L154,813.04 L188.32,865 L208.84,865 L208.84,780.76 L188.32,780.76 L188.32,832.96 L154,780.76 L133.48,780.76 L133.48,865 L154,865 Z M267.56,865.84 C275.48,865.84 282.72,864 289.28,860.32 C295.84,856.64 301.04,851.5 304.88,844.9 C308.72,838.3 310.64,830.88 310.64,822.64 C310.64,814.4 308.74,807 304.94,800.44 C301.14,793.88 295.94,788.76 289.34,785.08 C282.74,781.4 275.48,779.56 267.56,779.56 C259.64,779.56 252.38,781.4 245.78,785.08 C239.18,788.76 233.94,793.88 230.06,800.44 C226.18,807 224.24,814.4 224.24,822.64 C224.24,830.88 226.18,838.3 230.06,844.9 C233.94,851.5 239.18,856.64 245.78,860.32 C252.38,864 259.64,865.84 267.56,865.84 Z M267.56,847.12 C260.76,847.12 255.34,844.9 251.3,840.46 C247.26,836.02 245.24,830.08 245.24,822.64 C245.24,815.12 247.26,809.16 251.3,804.76 C255.34,800.36 260.76,798.16 267.56,798.16 C274.28,798.16 279.66,800.38 283.7,804.82 C287.74,809.26 289.76,815.2 289.76,822.64 C289.76,830 287.74,835.92 283.7,840.4 C279.66,844.88 274.28,847.12 267.56,847.12 Z M356.52,865.84 C362.84,865.84 368.32,864.68 372.96,862.36 C377.6,860.04 381.14,856.92 383.58,853 C386.02,849.08 387.24,844.72 387.24,839.92 C387.24,834.88 386,830.76 383.52,827.56 C381.04,824.36 378.1,821.92 374.7,820.24 C371.3,818.56 366.88,816.8 361.44,814.96 C356,813.2 352,811.56 349.44,810.04 C346.88,808.52 345.6,806.4 345.6,803.68 C345.6,801.2 346.36,799.3 347.88,797.98 C349.4,796.66 351.4,796 353.88,796 C356.76,796 359.12,796.78 360.96,798.34 C362.8,799.9 363.8,802.04 363.96,804.76 L363.96,804.76 L386.16,804.76 C385.76,796.84 382.72,790.66 377.04,786.22 C371.36,781.78 363.88,779.56 354.6,779.56 C345.48,779.56 338.08,781.78 332.4,786.22 C326.72,790.66 323.88,796.8 323.88,804.64 C323.88,809.92 325.12,814.2 327.6,817.48 C330.08,820.76 333.04,823.24 336.48,824.92 C339.92,826.6 344.36,828.28 349.8,829.96 C353.56,831.08 356.46,832.08 358.5,832.96 C360.54,833.84 362.26,834.96 363.66,836.32 C365.06,837.68 365.76,839.4 365.76,841.48 C365.76,843.96 364.88,845.9 363.12,847.3 C361.36,848.7 358.96,849.4 355.92,849.4 C352.96,849.4 350.56,848.58 348.72,846.94 C346.88,845.3 345.8,842.92 345.48,839.8 L345.48,839.8 L323.64,839.8 C323.8,845.32 325.34,850.04 328.26,853.96 C331.18,857.88 335.08,860.84 339.96,862.84 C344.84,864.84 350.36,865.84 356.52,865.84 Z M463.76,865.84 C470.08,865.84 475.56,864.68 480.2,862.36 C484.84,860.04 488.38,856.92 490.82,853 C493.26,849.08 494.48,844.72 494.48,839.92 C494.48,834.88 493.24,830.76 490.76,827.56 C488.28,824.36 485.34,821.92 481.94,820.24 C478.54,818.56 474.12,816.8 468.68,814.96 C463.24,813.2 459.24,811.56 456.68,810.04 C454.12,808.52 452.84,806.4 452.84,803.68 C452.84,801.2 453.6,799.3 455.12,797.98 C456.64,796.66 458.64,796 461.12,796 C464,796 466.36,796.78 468.2,798.34 C470.04,799.9 471.04,802.04 471.2,804.76 L471.2,804.76 L493.4,804.76 C493,796.84 489.96,790.66 484.28,786.22 C478.6,781.78 471.12,779.56 461.84,779.56 C452.72,779.56 445.32,781.78 439.64,786.22 C433.96,790.66 431.12,796.8 431.12,804.64 C431.12,809.92 432.36,814.2 434.84,817.48 C437.32,820.76 440.28,823.24 443.72,824.92 C447.16,826.6 451.6,828.28 457.04,829.96 C460.8,831.08 463.7,832.08 465.74,832.96 C467.78,833.84 469.5,834.96 470.9,836.32 C472.3,837.68 473,839.4 473,841.48 C473,843.96 472.12,845.9 470.36,847.3 C468.6,848.7 466.2,849.4 463.16,849.4 C460.2,849.4 457.8,848.58 455.96,846.94 C454.12,845.3 453.04,842.92 452.72,839.8 L452.72,839.8 L430.88,839.8 C431.04,845.32 432.58,850.04 435.5,853.96 C438.42,857.88 442.32,860.84 447.2,862.84 C452.08,864.84 457.6,865.84 463.76,865.84 Z M562.68,865 L562.68,848.56 L531.6,848.56 L531.6,830.08 L559.08,830.08 L559.08,814.24 L531.6,814.24 L531.6,797.2 L562.68,797.2 L562.68,780.76 L511.08,780.76 L511.08,865 L562.68,865 Z M600.52,865 L600.52,833.2 L605.44,833.2 L622.96,865 L646.12,865 L626.68,831.64 C632.84,829.8 637.5,826.68 640.66,822.28 C643.82,817.88 645.4,812.88 645.4,807.28 C645.4,802.32 644.24,797.82 641.92,793.78 C639.6,789.74 636.1,786.56 631.42,784.24 C626.74,781.92 621.08,780.76 614.44,780.76 L614.44,780.76 L580,780.76 L580,865 L600.52,865 Z M613.24,818.68 L600.52,818.68 L600.52,797.8 L613.24,797.8 C617,797.8 619.82,798.72 621.7,800.56 C623.58,802.4 624.52,804.92 624.52,808.12 C624.52,811.48 623.58,814.08 621.7,815.92 C619.82,817.76 617,818.68 613.24,818.68 L613.24,818.68 Z M711.44,865 L741.32,780.76 L719.6,780.76 L698.6,844.36 L677.72,780.76 L655.88,780.76 L685.76,865 L711.44,865 Z M774.36,865 L774.36,780.76 L753.84,780.76 L753.84,865 L774.36,865 Z M832.12,865.6 C842.12,865.6 850.68,862.98 857.8,857.74 C864.92,852.5 869.68,845.32 872.08,836.2 L872.08,836.2 L849.52,836.2 C847.84,839.72 845.46,842.4 842.38,844.24 C839.3,846.08 835.8,847 831.88,847 C825.56,847 820.44,844.8 816.52,840.4 C812.6,836 810.64,830.12 810.64,822.76 C810.64,815.4 812.6,809.52 816.52,805.12 C820.44,800.72 825.56,798.52 831.88,798.52 C835.8,798.52 839.3,799.44 842.38,801.28 C845.46,803.12 847.84,805.8 849.52,809.32 L849.52,809.32 L872.08,809.32 C869.68,800.2 864.92,793 857.8,787.72 C850.68,782.44 842.12,779.8 832.12,779.8 C823.96,779.8 816.66,781.62 810.22,785.26 C803.78,788.9 798.76,793.98 795.16,800.5 C791.56,807.02 789.76,814.44 789.76,822.76 C789.76,831.08 791.56,838.48 795.16,844.96 C798.76,851.44 803.78,856.5 810.22,860.14 C816.66,863.78 823.96,865.6 832.12,865.6 Z M940.28,865 L940.28,848.56 L909.2,848.56 L909.2,830.08 L936.68,830.08 L936.68,814.24 L909.2,814.24 L909.2,797.2 L940.28,797.2 L940.28,780.76 L888.68,780.76 L888.68,865 L940.28,865 Z M988.08,865.84 C994.4,865.84 999.88,864.68 1004.52,862.36 C1009.16,860.04 1012.7,856.92 1015.14,853 C1017.58,849.08 1018.8,844.72 1018.8,839.92 C1018.8,834.88 1017.56,830.76 1015.08,827.56 C1012.6,824.36 1009.66,821.92 1006.26,820.24 C1002.86,818.56 998.44,816.8 993,814.96 C987.56,813.2 983.56,811.56 981,810.04 C978.44,808.52 977.16,806.4 977.16,803.68 C977.16,801.2 977.92,799.3 979.44,797.98 C980.96,796.66 982.96,796 985.44,796 C988.32,796 990.68,796.78 992.52,798.34 C994.36,799.9 995.36,802.04 995.52,804.76 L995.52,804.76 L1017.72,804.76 C1017.32,796.84 1014.28,790.66 1008.6,786.22 C1002.92,781.78 995.44,779.56 986.16,779.56 C977.04,779.56 969.64,781.78 963.96,786.22 C958.28,790.66 955.44,796.8 955.44,804.64 C955.44,809.92 956.68,814.2 959.16,817.48 C961.64,820.76 964.6,823.24 968.04,824.92 C971.48,826.6 975.92,828.28 981.36,829.96 C985.12,831.08 988.02,832.08 990.06,832.96 C992.1,833.84 993.82,834.96 995.22,836.32 C996.62,837.68 997.32,839.4 997.32,841.48 C997.32,843.96 996.44,845.9 994.68,847.3 C992.92,848.7 990.52,849.4 987.48,849.4 C984.52,849.4 982.12,848.58 980.28,846.94 C978.44,845.3 977.36,842.92 977.04,839.8 L977.04,839.8 L955.2,839.8 C955.36,845.32 956.9,850.04 959.82,853.96 C962.74,857.88 966.64,860.84 971.52,862.84 C976.4,864.84 981.92,865.84 988.08,865.84 Z" id="path-1"></path>
        <filter x="-0.2%" y="-2.3%" width="100.5%" height="104.6%" filterUnits="objectBoundingBox" id="filter-2">
            <feGaussianBlur stdDeviation="1.5" in="SourceAlpha" result="shadowBlurInner1"></feGaussianBlur>
            <feOffset dx="0" dy="1" in="shadowBlurInner1" result="shadowOffsetInner1"></feOffset>
            <feComposite in="shadowOffsetInner1" in2="SourceAlpha" operator="arithmetic" k2="-1" k3="1" result="shadowInnerInner1"></feComposite>
            <feColorMatrix values="0 0 0 0 0.907962085   0 0 0 0 0.912369668   0 0 0 0 0.93  0 0 0 1 0" type="matrix" in="shadowInnerInner1"></feColorMatrix>
        </filter>
    </defs>
    <g id="Design" stroke="none" stroke-width="1" fill="none" fill-rule="evenodd">
        <g id="Artboard" transform="translate(-133.000000, -779.000000)" fill-rule="nonzero">
            <g id="NOSSERVICES">
                <use fill="#F8F9FA" xlink:href="#path-1"></use>
                <use fill="black" fill-opacity="1" filter="url(#filter-2)" xlink:href="#path-1"></use>
            </g>
        </g>
    </g>
</svg>