<?xml version="1.0" encoding="UTF-8"?>
<svg width="1230px" height="87px" viewBox="0 0 1230 87" version="1.1" xmlns="http://www.w3.org/2000/svg" xmlns:xlink="http://www.w3.org/1999/xlink">
    <title>nosengagements</title>
    <defs>
        <path d="M83.34,373 L83.34,321.04 L117.66,373 L138.18,373 L138.18,288.76 L117.66,288.76 L117.66,340.96 L83.34,288.76 L62.82,288.76 L62.82,373 L83.34,373 Z M196.9,373.84 C204.82,373.84 212.06,372 218.62,368.32 C225.18,364.64 230.38,359.5 234.22,352.9 C238.06,346.3 239.98,338.88 239.98,330.64 C239.98,322.4 238.08,315 234.28,308.44 C230.48,301.88 225.28,296.76 218.68,293.08 C212.08,289.4 204.82,287.56 196.9,287.56 C188.98,287.56 181.72,289.4 175.12,293.08 C168.52,296.76 163.28,301.88 159.4,308.44 C155.52,315 153.58,322.4 153.58,330.64 C153.58,338.88 155.52,346.3 159.4,352.9 C163.28,359.5 168.52,364.64 175.12,368.32 C181.72,372 188.98,373.84 196.9,373.84 Z M196.9,355.12 C190.1,355.12 184.68,352.9 180.64,348.46 C176.6,344.02 174.58,338.08 174.58,330.64 C174.58,323.12 176.6,317.16 180.64,312.76 C184.68,308.36 190.1,306.16 196.9,306.16 C203.62,306.16 209,308.38 213.04,312.82 C217.08,317.26 219.1,323.2 219.1,330.64 C219.1,338 217.08,343.92 213.04,348.4 C209,352.88 203.62,355.12 196.9,355.12 Z M285.86,373.84 C292.18,373.84 297.66,372.68 302.3,370.36 C306.94,368.04 310.48,364.92 312.92,361 C315.36,357.08 316.58,352.72 316.58,347.92 C316.58,342.88 315.34,338.76 312.86,335.56 C310.38,332.36 307.44,329.92 304.04,328.24 C300.64,326.56 296.22,324.8 290.78,322.96 C285.34,321.2 281.34,319.56 278.78,318.04 C276.22,316.52 274.94,314.4 274.94,311.68 C274.94,309.2 275.7,307.3 277.22,305.98 C278.74,304.66 280.74,304 283.22,304 C286.1,304 288.46,304.78 290.3,306.34 C292.14,307.9 293.14,310.04 293.3,312.76 L293.3,312.76 L315.5,312.76 C315.1,304.84 312.06,298.66 306.38,294.22 C300.7,289.78 293.22,287.56 283.94,287.56 C274.82,287.56 267.42,289.78 261.74,294.22 C256.06,298.66 253.22,304.8 253.22,312.64 C253.22,317.92 254.46,322.2 256.94,325.48 C259.42,328.76 262.38,331.24 265.82,332.92 C269.26,334.6 273.7,336.28 279.14,337.96 C282.9,339.08 285.8,340.08 287.84,340.96 C289.88,341.84 291.6,342.96 293,344.32 C294.4,345.68 295.1,347.4 295.1,349.48 C295.1,351.96 294.22,353.9 292.46,355.3 C290.7,356.7 288.3,357.4 285.26,357.4 C282.3,357.4 279.9,356.58 278.06,354.94 C276.22,353.3 275.14,350.92 274.82,347.8 L274.82,347.8 L252.98,347.8 C253.14,353.32 254.68,358.04 257.6,361.96 C260.52,365.88 264.42,368.84 269.3,370.84 C274.18,372.84 279.7,373.84 285.86,373.84 Z M414.22,373 L414.22,356.56 L383.14,356.56 L383.14,338.08 L410.62,338.08 L410.62,322.24 L383.14,322.24 L383.14,305.2 L414.22,305.2 L414.22,288.76 L362.62,288.76 L362.62,373 L414.22,373 Z M452.06,373 L452.06,321.04 L486.38,373 L506.9,373 L506.9,288.76 L486.38,288.76 L486.38,340.96 L452.06,288.76 L431.54,288.76 L431.54,373 L452.06,373 Z M565.26,373.6 C572.3,373.6 578.62,372.24 584.22,369.52 C589.82,366.8 594.44,363.24 598.08,358.84 C601.72,354.44 604.3,349.68 605.82,344.56 L605.82,344.56 L605.82,325.48 L561.18,325.48 L561.18,340.6 L587.22,340.6 C585.62,345.4 583.08,349.08 579.6,351.64 C576.12,354.2 571.86,355.48 566.82,355.48 C559.46,355.48 553.68,353.3 549.48,348.94 C545.28,344.58 543.18,338.52 543.18,330.76 C543.18,323.48 545.18,317.66 549.18,313.3 C553.18,308.94 558.5,306.76 565.14,306.76 C568.98,306.76 572.32,307.5 575.16,308.98 C578,310.46 580.18,312.6 581.7,315.4 L581.7,315.4 L604.38,315.4 C602.14,306.76 597.56,300 590.64,295.12 C583.72,290.24 575.22,287.8 565.14,287.8 C556.82,287.8 549.42,289.62 542.94,293.26 C536.46,296.9 531.4,301.98 527.76,308.5 C524.12,315.02 522.3,322.44 522.3,330.76 C522.3,339.08 524.12,346.48 527.76,352.96 C531.4,359.44 536.48,364.5 543,368.14 C549.52,371.78 556.94,373.6 565.26,373.6 Z M637.18,373 L642.22,358.12 L673.66,358.12 L678.7,373 L700.42,373 L669.94,288.76 L646.18,288.76 L615.7,373 L637.18,373 Z M668.38,342.28 L647.62,342.28 L657.94,311.44 L668.38,342.28 Z M753.14,373.6 C760.18,373.6 766.5,372.24 772.1,369.52 C777.7,366.8 782.32,363.24 785.96,358.84 C789.6,354.44 792.18,349.68 793.7,344.56 L793.7,344.56 L793.7,325.48 L749.06,325.48 L749.06,340.6 L775.1,340.6 C773.5,345.4 770.96,349.08 767.48,351.64 C764,354.2 759.74,355.48 754.7,355.48 C747.34,355.48 741.56,353.3 737.36,348.94 C733.16,344.58 731.06,338.52 731.06,330.76 C731.06,323.48 733.06,317.66 737.06,313.3 C741.06,308.94 746.38,306.76 753.02,306.76 C756.86,306.76 760.2,307.5 763.04,308.98 C765.88,310.46 768.06,312.6 769.58,315.4 L769.58,315.4 L792.26,315.4 C790.02,306.76 785.44,300 778.52,295.12 C771.6,290.24 763.1,287.8 753.02,287.8 C744.7,287.8 737.3,289.62 730.82,293.26 C724.34,296.9 719.28,301.98 715.64,308.5 C712,315.02 710.18,322.44 710.18,330.76 C710.18,339.08 712,346.48 715.64,352.96 C719.28,359.44 724.36,364.5 730.88,368.14 C737.4,371.78 744.82,373.6 753.14,373.6 Z M860.7,373 L860.7,356.56 L829.62,356.56 L829.62,338.08 L857.1,338.08 L857.1,322.24 L829.62,322.24 L829.62,305.2 L860.7,305.2 L860.7,288.76 L809.1,288.76 L809.1,373 L860.7,373 Z M898.54,373 L898.54,322.36 L917.5,373 L934.06,373 L952.9,322.48 L952.9,373 L973.42,373 L973.42,288.76 L949.3,288.76 L925.9,347.08 L902.26,288.76 L878.02,288.76 L878.02,373 L898.54,373 Z M1043.78,373 L1043.78,356.56 L1012.7,356.56 L1012.7,338.08 L1040.18,338.08 L1040.18,322.24 L1012.7,322.24 L1012.7,305.2 L1043.78,305.2 L1043.78,288.76 L992.18,288.76 L992.18,373 L1043.78,373 Z M1081.62,373 L1081.62,321.04 L1115.94,373 L1136.46,373 L1136.46,288.76 L1115.94,288.76 L1115.94,340.96 L1081.62,288.76 L1061.1,288.76 L1061.1,373 L1081.62,373 Z M1193.62,373 L1193.62,305.2 L1215.94,305.2 L1215.94,288.76 L1150.78,288.76 L1150.78,305.2 L1173.1,305.2 L1173.1,373 L1193.62,373 Z M1260.74,373.84 C1267.06,373.84 1272.54,372.68 1277.18,370.36 C1281.82,368.04 1285.36,364.92 1287.8,361 C1290.24,357.08 1291.46,352.72 1291.46,347.92 C1291.46,342.88 1290.22,338.76 1287.74,335.56 C1285.26,332.36 1282.32,329.92 1278.92,328.24 C1275.52,326.56 1271.1,324.8 1265.66,322.96 C1260.22,321.2 1256.22,319.56 1253.66,318.04 C1251.1,316.52 1249.82,314.4 1249.82,311.68 C1249.82,309.2 1250.58,307.3 1252.1,305.98 C1253.62,304.66 1255.62,304 1258.1,304 C1260.98,304 1263.34,304.78 1265.18,306.34 C1267.02,307.9 1268.02,310.04 1268.18,312.76 L1268.18,312.76 L1290.38,312.76 C1289.98,304.84 1286.94,298.66 1281.26,294.22 C1275.58,289.78 1268.1,287.56 1258.82,287.56 C1249.7,287.56 1242.3,289.78 1236.62,294.22 C1230.94,298.66 1228.1,304.8 1228.1,312.64 C1228.1,317.92 1229.34,322.2 1231.82,325.48 C1234.3,328.76 1237.26,331.24 1240.7,332.92 C1244.14,334.6 1248.58,336.28 1254.02,337.96 C1257.78,339.08 1260.68,340.08 1262.72,340.96 C1264.76,341.84 1266.48,342.96 1267.88,344.32 C1269.28,345.68 1269.98,347.4 1269.98,349.48 C1269.98,351.96 1269.1,353.9 1267.34,355.3 C1265.58,356.7 1263.18,357.4 1260.14,357.4 C1257.18,357.4 1254.78,356.58 1252.94,354.94 C1251.1,353.3 1250.02,350.92 1249.7,347.8 L1249.7,347.8 L1227.86,347.8 C1228.02,353.32 1229.56,358.04 1232.48,361.96 C1235.4,365.88 1239.3,368.84 1244.18,370.84 C1249.06,372.84 1254.58,373.84 1260.74,373.84 Z" id="path-1"></path>
        <filter x="-0.2%" y="-2.3%" width="100.3%" height="104.6%" filterUnits="objectBoundingBox" id="filter-2">
            <feGaussianBlur stdDeviation="1.5" in="SourceAlpha" result="shadowBlurInner1"></feGaussianBlur>
            <feOffset dx="0" dy="1" in="shadowBlurInner1" result="shadowOffsetInner1"></feOffset>
            <feComposite in="shadowOffsetInner1" in2="SourceAlpha" operator="arithmetic" k2="-1" k3="1" result="shadowInnerInner1"></feComposite>
            <feColorMatrix values="0 0 0 0 0.907962085   0 0 0 0 0.912369668   0 0 0 0 0.93  0 0 0 1 0" type="matrix" in="shadowInnerInner1"></feColorMatrix>
        </filter>
    </defs>
    <g id="Design" stroke="none" stroke-width="1" fill="none" fill-rule="evenodd">
        <g id="Artboard" transform="translate(-62.000000, -287.000000)" fill-rule="nonzero">
            <g id="nosengagements">
                <use fill="#F8F9FA" xlink:href="#path-1"></use>
                <use fill="black" fill-opacity="1" filter="url(#filter-2)" xlink:href="#path-1"></use>
            </g>
        </g>
    </g>
</svg>