<?xml version="1.0" encoding="UTF-8"?>
<svg width="880px" height="87px" viewBox="0 0 880 87" version="1.1" xmlns="http://www.w3.org/2000/svg" xmlns:xlink="http://www.w3.org/1999/xlink">
    <title>pointsforts</title>
    <defs>
        <path d="M75.96,168 L75.96,137.76 L88.68,137.76 C95.56,137.76 101.32,136.52 105.96,134.04 C110.6,131.56 114.04,128.3 116.28,124.26 C118.52,120.22 119.64,115.76 119.64,110.88 C119.64,105.6 118.48,100.92 116.16,96.84 C113.84,92.76 110.36,89.56 105.72,87.24 C101.08,84.92 95.4,83.76 88.68,83.76 L88.68,83.76 L55.44,83.76 L55.44,168 L75.96,168 Z M87.12,121.44 L75.96,121.44 L75.96,100.32 L87.12,100.32 C91.04,100.32 93.96,101.24 95.88,103.08 C97.8,104.92 98.76,107.52 98.76,110.88 C98.76,114.24 97.8,116.84 95.88,118.68 C93.96,120.52 91.04,121.44 87.12,121.44 L87.12,121.44 Z M174.16,168.84 C182.08,168.84 189.32,167 195.88,163.32 C202.44,159.64 207.64,154.5 211.48,147.9 C215.32,141.3 217.24,133.88 217.24,125.64 C217.24,117.4 215.34,110 211.54,103.44 C207.74,96.88 202.54,91.76 195.94,88.08 C189.34,84.4 182.08,82.56 174.16,82.56 C166.24,82.56 158.98,84.4 152.38,88.08 C145.78,91.76 140.54,96.88 136.66,103.44 C132.78,110 130.84,117.4 130.84,125.64 C130.84,133.88 132.78,141.3 136.66,147.9 C140.54,154.5 145.78,159.64 152.38,163.32 C158.98,167 166.24,168.84 174.16,168.84 Z M174.16,150.12 C167.36,150.12 161.94,147.9 157.9,143.46 C153.86,139.02 151.84,133.08 151.84,125.64 C151.84,118.12 153.86,112.16 157.9,107.76 C161.94,103.36 167.36,101.16 174.16,101.16 C180.88,101.16 186.26,103.38 190.3,107.82 C194.34,112.26 196.36,118.2 196.36,125.64 C196.36,133 194.34,138.92 190.3,143.4 C186.26,147.88 180.88,150.12 174.16,150.12 Z M253.16,168 L253.16,83.76 L232.64,83.76 L232.64,168 L253.16,168 Z M292.56,168 L292.56,116.04 L326.88,168 L347.4,168 L347.4,83.76 L326.88,83.76 L326.88,135.96 L292.56,83.76 L272.04,83.76 L272.04,168 L292.56,168 Z M404.56,168 L404.56,100.2 L426.88,100.2 L426.88,83.76 L361.72,83.76 L361.72,100.2 L384.04,100.2 L384.04,168 L404.56,168 Z M471.68,168.84 C478,168.84 483.48,167.68 488.12,165.36 C492.76,163.04 496.3,159.92 498.74,156 C501.18,152.08 502.4,147.72 502.4,142.92 C502.4,137.88 501.16,133.76 498.68,130.56 C496.2,127.36 493.26,124.92 489.86,123.24 C486.46,121.56 482.04,119.8 476.6,117.96 C471.16,116.2 467.16,114.56 464.6,113.04 C462.04,111.52 460.76,109.4 460.76,106.68 C460.76,104.2 461.52,102.3 463.04,100.98 C464.56,99.66 466.56,99 469.04,99 C471.92,99 474.28,99.78 476.12,101.34 C477.96,102.9 478.96,105.04 479.12,107.76 L479.12,107.76 L501.32,107.76 C500.92,99.84 497.88,93.66 492.2,89.22 C486.52,84.78 479.04,82.56 469.76,82.56 C460.64,82.56 453.24,84.78 447.56,89.22 C441.88,93.66 439.04,99.8 439.04,107.64 C439.04,112.92 440.28,117.2 442.76,120.48 C445.24,123.76 448.2,126.24 451.64,127.92 C455.08,129.6 459.52,131.28 464.96,132.96 C468.72,134.08 471.62,135.08 473.66,135.96 C475.7,136.84 477.42,137.96 478.82,139.32 C480.22,140.68 480.92,142.4 480.92,144.48 C480.92,146.96 480.04,148.9 478.28,150.3 C476.52,151.7 474.12,152.4 471.08,152.4 C468.12,152.4 465.72,151.58 463.88,149.94 C462.04,148.3 460.96,145.92 460.64,142.8 L460.64,142.8 L438.8,142.8 C438.96,148.32 440.5,153.04 443.42,156.96 C446.34,160.88 450.24,163.84 455.12,165.84 C460,167.84 465.52,168.84 471.68,168.84 Z M568.96,168 L568.96,133.92 L594.64,133.92 L594.64,117.96 L568.96,117.96 L568.96,100.2 L603.28,100.2 L603.28,83.76 L548.44,83.76 L548.44,168 L568.96,168 Z M657.92,168.84 C665.84,168.84 673.08,167 679.64,163.32 C686.2,159.64 691.4,154.5 695.24,147.9 C699.08,141.3 701,133.88 701,125.64 C701,117.4 699.1,110 695.3,103.44 C691.5,96.88 686.3,91.76 679.7,88.08 C673.1,84.4 665.84,82.56 657.92,82.56 C650,82.56 642.74,84.4 636.14,88.08 C629.54,91.76 624.3,96.88 620.42,103.44 C616.54,110 614.6,117.4 614.6,125.64 C614.6,133.88 616.54,141.3 620.42,147.9 C624.3,154.5 629.54,159.64 636.14,163.32 C642.74,167 650,168.84 657.92,168.84 Z M657.92,150.12 C651.12,150.12 645.7,147.9 641.66,143.46 C637.62,139.02 635.6,133.08 635.6,125.64 C635.6,118.12 637.62,112.16 641.66,107.76 C645.7,103.36 651.12,101.16 657.92,101.16 C664.64,101.16 670.02,103.38 674.06,107.82 C678.1,112.26 680.12,118.2 680.12,125.64 C680.12,133 678.1,138.92 674.06,143.4 C670.02,147.88 664.64,150.12 657.92,150.12 Z M736.92,168 L736.92,136.2 L741.84,136.2 L759.36,168 L782.52,168 L763.08,134.64 C769.24,132.8 773.9,129.68 777.06,125.28 C780.22,120.88 781.8,115.88 781.8,110.28 C781.8,105.32 780.64,100.82 778.32,96.78 C776,92.74 772.5,89.56 767.82,87.24 C763.14,84.92 757.48,83.76 750.84,83.76 L750.84,83.76 L716.4,83.76 L716.4,168 L736.92,168 Z M749.64,121.68 L736.92,121.68 L736.92,100.8 L749.64,100.8 C753.4,100.8 756.22,101.72 758.1,103.56 C759.98,105.4 760.92,107.92 760.92,111.12 C760.92,114.48 759.98,117.08 758.1,118.92 C756.22,120.76 753.4,121.68 749.64,121.68 L749.64,121.68 Z M836.92,168 L836.92,100.2 L859.24,100.2 L859.24,83.76 L794.08,83.76 L794.08,100.2 L816.4,100.2 L816.4,168 L836.92,168 Z M904.04,168.84 C910.36,168.84 915.84,167.68 920.48,165.36 C925.12,163.04 928.66,159.92 931.1,156 C933.54,152.08 934.76,147.72 934.76,142.92 C934.76,137.88 933.52,133.76 931.04,130.56 C928.56,127.36 925.62,124.92 922.22,123.24 C918.82,121.56 914.4,119.8 908.96,117.96 C903.52,116.2 899.52,114.56 896.96,113.04 C894.4,111.52 893.12,109.4 893.12,106.68 C893.12,104.2 893.88,102.3 895.4,100.98 C896.92,99.66 898.92,99 901.4,99 C904.28,99 906.64,99.78 908.48,101.34 C910.32,102.9 911.32,105.04 911.48,107.76 L911.48,107.76 L933.68,107.76 C933.28,99.84 930.24,93.66 924.56,89.22 C918.88,84.78 911.4,82.56 902.12,82.56 C893,82.56 885.6,84.78 879.92,89.22 C874.24,93.66 871.4,99.8 871.4,107.64 C871.4,112.92 872.64,117.2 875.12,120.48 C877.6,123.76 880.56,126.24 884,127.92 C887.44,129.6 891.88,131.28 897.32,132.96 C901.08,134.08 903.98,135.08 906.02,135.96 C908.06,136.84 909.78,137.96 911.18,139.32 C912.58,140.68 913.28,142.4 913.28,144.48 C913.28,146.96 912.4,148.9 910.64,150.3 C908.88,151.7 906.48,152.4 903.44,152.4 C900.48,152.4 898.08,151.58 896.24,149.94 C894.4,148.3 893.32,145.92 893,142.8 L893,142.8 L871.16,142.8 C871.32,148.32 872.86,153.04 875.78,156.96 C878.7,160.88 882.6,163.84 887.48,165.84 C892.36,167.84 897.88,168.84 904.04,168.84 Z" id="path-1"></path>
        <filter x="-0.2%" y="-2.3%" width="100.5%" height="104.6%" filterUnits="objectBoundingBox" id="filter-2">
            <feGaussianBlur stdDeviation="1.5" in="SourceAlpha" result="shadowBlurInner1"></feGaussianBlur>
            <feOffset dx="0" dy="1" in="shadowBlurInner1" result="shadowOffsetInner1"></feOffset>
            <feComposite in="shadowOffsetInner1" in2="SourceAlpha" operator="arithmetic" k2="-1" k3="1" result="shadowInnerInner1"></feComposite>
            <feColorMatrix values="0 0 0 0 0.907962085   0 0 0 0 0.912369668   0 0 0 0 0.93  0 0 0 1 0" type="matrix" in="shadowInnerInner1"></feColorMatrix>
        </filter>
    </defs>
    <g id="Design" stroke="none" stroke-width="1" fill="none" fill-rule="evenodd">
        <g id="Artboard" transform="translate(-55.000000, -82.000000)" fill-rule="nonzero">
            <g id="pointsforts">
                <use fill="#F8F9FA" xlink:href="#path-1"></use>
                <use fill="black" fill-opacity="1" filter="url(#filter-2)" xlink:href="#path-1"></use>
            </g>
        </g>
    </g>
</svg>