<?xml version="1.0" encoding="UTF-8"?>
<svg width="854px" height="87px" viewBox="0 0 854 87" version="1.1" xmlns="http://www.w3.org/2000/svg" xmlns:xlink="http://www.w3.org/1999/xlink">
    <title>reservation</title>
    <defs>
        <path d="M165.44,2053 L165.44,2021.2 L170.36,2021.2 L187.88,2053 L211.04,2053 L191.6,2019.64 C197.76,2017.8 202.42,2014.68 205.58,2010.28 C208.74,2005.88 210.32,2000.88 210.32,1995.28 C210.32,1990.32 209.16,1985.82 206.84,1981.78 C204.52,1977.74 201.02,1974.56 196.34,1972.24 C191.66,1969.92 186,1968.76 179.36,1968.76 L179.36,1968.76 L144.92,1968.76 L144.92,2053 L165.44,2053 Z M178.16,2006.68 L165.44,2006.68 L165.44,1985.8 L178.16,1985.8 C181.92,1985.8 184.74,1986.72 186.62,1988.56 C188.5,1990.4 189.44,1992.92 189.44,1996.12 C189.44,1999.48 188.5,2002.08 186.62,2003.92 C184.74,2005.76 181.92,2006.68 178.16,2006.68 L178.16,2006.68 Z M278.76,2053 L278.76,2036.56 L247.68,2036.56 L247.68,2018.08 L275.16,2018.08 L275.16,2002.24 L247.68,2002.24 L247.68,1985.2 L278.76,1985.2 L278.76,1968.76 L227.16,1968.76 L227.16,2053 L278.76,2053 Z M326.56,2053.84 C332.88,2053.84 338.36,2052.68 343,2050.36 C347.64,2048.04 351.18,2044.92 353.62,2041 C356.06,2037.08 357.28,2032.72 357.28,2027.92 C357.28,2022.88 356.04,2018.76 353.56,2015.56 C351.08,2012.36 348.14,2009.92 344.74,2008.24 C341.34,2006.56 336.92,2004.8 331.48,2002.96 C326.04,2001.2 322.04,1999.56 319.48,1998.04 C316.92,1996.52 315.64,1994.4 315.64,1991.68 C315.64,1989.2 316.4,1987.3 317.92,1985.98 C319.44,1984.66 321.44,1984 323.92,1984 C326.8,1984 329.16,1984.78 331,1986.34 C332.84,1987.9 333.84,1990.04 334,1992.76 L334,1992.76 L356.2,1992.76 C355.8,1984.84 352.76,1978.66 347.08,1974.22 C341.4,1969.78 333.92,1967.56 324.64,1967.56 C315.52,1967.56 308.12,1969.78 302.44,1974.22 C296.76,1978.66 293.92,1984.8 293.92,1992.64 C293.92,1997.92 295.16,2002.2 297.64,2005.48 C300.12,2008.76 303.08,2011.24 306.52,2012.92 C309.96,2014.6 314.4,2016.28 319.84,2017.96 C323.6,2019.08 326.5,2020.08 328.54,2020.96 C330.58,2021.84 332.3,2022.96 333.7,2024.32 C335.1,2025.68 335.8,2027.4 335.8,2029.48 C335.8,2031.96 334.92,2033.9 333.16,2035.3 C331.4,2036.7 329,2037.4 325.96,2037.4 C323,2037.4 320.6,2036.58 318.76,2034.94 C316.92,2033.3 315.84,2030.92 315.52,2027.8 L315.52,2027.8 L293.68,2027.8 C293.84,2033.32 295.38,2038.04 298.3,2041.96 C301.22,2045.88 305.12,2048.84 310,2050.84 C314.88,2052.84 320.4,2053.84 326.56,2053.84 Z M425.48,2053 L425.48,2036.56 L394.4,2036.56 L394.4,2018.08 L421.88,2018.08 L421.88,2002.24 L394.4,2002.24 L394.4,1985.2 L425.48,1985.2 L425.48,1968.76 L373.88,1968.76 L373.88,2053 L425.48,2053 Z M463.32,2053 L463.32,2021.2 L468.24,2021.2 L485.76,2053 L508.92,2053 L489.48,2019.64 C495.64,2017.8 500.3,2014.68 503.46,2010.28 C506.62,2005.88 508.2,2000.88 508.2,1995.28 C508.2,1990.32 507.04,1985.82 504.72,1981.78 C502.4,1977.74 498.9,1974.56 494.22,1972.24 C489.54,1969.92 483.88,1968.76 477.24,1968.76 L477.24,1968.76 L442.8,1968.76 L442.8,2053 L463.32,2053 Z M476.04,2006.68 L463.32,2006.68 L463.32,1985.8 L476.04,1985.8 C479.8,1985.8 482.62,1986.72 484.5,1988.56 C486.38,1990.4 487.32,1992.92 487.32,1996.12 C487.32,1999.48 486.38,2002.08 484.5,2003.92 C482.62,2005.76 479.8,2006.68 476.04,2006.68 L476.04,2006.68 Z M574.24,2053 L604.12,1968.76 L582.4,1968.76 L561.4,2032.36 L540.52,1968.76 L518.68,1968.76 L548.56,2053 L574.24,2053 Z M632.6,2053 L637.64,2038.12 L669.08,2038.12 L674.12,2053 L695.84,2053 L665.36,1968.76 L641.6,1968.76 L611.12,2053 L632.6,2053 Z M663.8,2022.28 L643.04,2022.28 L653.36,1991.44 L663.8,2022.28 Z M747.36,2053 L747.36,1985.2 L769.68,1985.2 L769.68,1968.76 L704.52,1968.76 L704.52,1985.2 L726.84,1985.2 L726.84,2053 L747.36,2053 Z M804.52,2053 L804.52,1968.76 L784,1968.76 L784,2053 L804.52,2053 Z M863.24,2053.84 C871.16,2053.84 878.4,2052 884.96,2048.32 C891.52,2044.64 896.72,2039.5 900.56,2032.9 C904.4,2026.3 906.32,2018.88 906.32,2010.64 C906.32,2002.4 904.42,1995 900.62,1988.44 C896.82,1981.88 891.62,1976.76 885.02,1973.08 C878.42,1969.4 871.16,1967.56 863.24,1967.56 C855.32,1967.56 848.06,1969.4 841.46,1973.08 C834.86,1976.76 829.62,1981.88 825.74,1988.44 C821.86,1995 819.92,2002.4 819.92,2010.64 C819.92,2018.88 821.86,2026.3 825.74,2032.9 C829.62,2039.5 834.86,2044.64 841.46,2048.32 C848.06,2052 855.32,2053.84 863.24,2053.84 Z M863.24,2035.12 C856.44,2035.12 851.02,2032.9 846.98,2028.46 C842.94,2024.02 840.92,2018.08 840.92,2010.64 C840.92,2003.12 842.94,1997.16 846.98,1992.76 C851.02,1988.36 856.44,1986.16 863.24,1986.16 C869.96,1986.16 875.34,1988.38 879.38,1992.82 C883.42,1997.26 885.44,2003.2 885.44,2010.64 C885.44,2018 883.42,2023.92 879.38,2028.4 C875.34,2032.88 869.96,2035.12 863.24,2035.12 Z M942.24,2053 L942.24,2001.04 L976.56,2053 L997.08,2053 L997.08,1968.76 L976.56,1968.76 L976.56,2020.96 L942.24,1968.76 L921.72,1968.76 L921.72,2053 L942.24,2053 Z" id="path-1"></path>
        <filter x="-0.2%" y="-2.3%" width="100.5%" height="104.6%" filterUnits="objectBoundingBox" id="filter-2">
            <feGaussianBlur stdDeviation="1.5" in="SourceAlpha" result="shadowBlurInner1"></feGaussianBlur>
            <feOffset dx="0" dy="1" in="shadowBlurInner1" result="shadowOffsetInner1"></feOffset>
            <feComposite in="shadowOffsetInner1" in2="SourceAlpha" operator="arithmetic" k2="-1" k3="1" result="shadowInnerInner1"></feComposite>
            <feColorMatrix values="0 0 0 0 0.482352941   0 0 0 0 0.592156863   0 0 0 0 0.768627451  0 0 0 1 0" type="matrix" in="shadowInnerInner1"></feColorMatrix>
        </filter>
    </defs>
    <g id="Design" stroke="none" stroke-width="1" fill="none" fill-rule="evenodd" opacity="0.804191">
        <g id="Artboard" transform="translate(-144.000000, -1967.000000)" fill-rule="nonzero">
            <g id="reservation">
                <use fill="#D3DCEB" xlink:href="#path-1"></use>
                <use fill="black" fill-opacity="1" filter="url(#filter-2)" xlink:href="#path-1"></use>
            </g>
        </g>
    </g>
</svg>