<?xml version="1.0" encoding="UTF-8"?>
<svg width="957px" height="87px" viewBox="0 0 957 87" version="1.1" xmlns="http://www.w3.org/2000/svg" xmlns:xlink="http://www.w3.org/1999/xlink">
    <title>TAXILYONNAIS</title>
    <defs>
        <path d="M203.12,2298 L203.12,2230.2 L225.44,2230.2 L225.44,2213.76 L160.28,2213.76 L160.28,2230.2 L182.6,2230.2 L182.6,2298 L203.12,2298 Z M255.72,2298 L260.76,2283.12 L292.2,2283.12 L297.24,2298 L318.96,2298 L288.48,2213.76 L264.72,2213.76 L234.24,2298 L255.72,2298 Z M286.92,2267.28 L266.16,2267.28 L276.48,2236.44 L286.92,2267.28 Z M351.52,2298 L366.64,2272.2 L383.8,2298 L407.68,2298 L379.84,2256.24 L406.6,2213.76 L383.32,2213.76 L368.44,2239.2 L351.52,2213.76 L327.64,2213.76 L355.24,2255.16 L328.24,2298 L351.52,2298 Z M442.52,2298 L442.52,2213.76 L422,2213.76 L422,2298 L442.52,2298 Z M538.24,2298 L538.24,2282.16 L511.36,2282.16 L511.36,2213.76 L490.84,2213.76 L490.84,2298 L538.24,2298 Z M595.16,2298 L595.16,2270.16 L624.32,2213.76 L601.28,2213.76 L585.08,2249.04 L568.76,2213.76 L545.48,2213.76 L574.64,2270.16 L574.64,2298 L595.16,2298 Z M676.44,2298.84 C684.36,2298.84 691.6,2297 698.16,2293.32 C704.72,2289.64 709.92,2284.5 713.76,2277.9 C717.6,2271.3 719.52,2263.88 719.52,2255.64 C719.52,2247.4 717.62,2240 713.82,2233.44 C710.02,2226.88 704.82,2221.76 698.22,2218.08 C691.62,2214.4 684.36,2212.56 676.44,2212.56 C668.52,2212.56 661.26,2214.4 654.66,2218.08 C648.06,2221.76 642.82,2226.88 638.94,2233.44 C635.06,2240 633.12,2247.4 633.12,2255.64 C633.12,2263.88 635.06,2271.3 638.94,2277.9 C642.82,2284.5 648.06,2289.64 654.66,2293.32 C661.26,2297 668.52,2298.84 676.44,2298.84 Z M676.44,2280.12 C669.64,2280.12 664.22,2277.9 660.18,2273.46 C656.14,2269.02 654.12,2263.08 654.12,2255.64 C654.12,2248.12 656.14,2242.16 660.18,2237.76 C664.22,2233.36 669.64,2231.16 676.44,2231.16 C683.16,2231.16 688.54,2233.38 692.58,2237.82 C696.62,2242.26 698.64,2248.2 698.64,2255.64 C698.64,2263 696.62,2268.92 692.58,2273.4 C688.54,2277.88 683.16,2280.12 676.44,2280.12 Z M755.44,2298 L755.44,2246.04 L789.76,2298 L810.28,2298 L810.28,2213.76 L789.76,2213.76 L789.76,2265.96 L755.44,2213.76 L734.92,2213.76 L734.92,2298 L755.44,2298 Z M849.68,2298 L849.68,2246.04 L884,2298 L904.52,2298 L904.52,2213.76 L884,2213.76 L884,2265.96 L849.68,2213.76 L829.16,2213.76 L829.16,2298 L849.68,2298 Z M939.36,2298 L944.4,2283.12 L975.84,2283.12 L980.88,2298 L1002.6,2298 L972.12,2213.76 L948.36,2213.76 L917.88,2298 L939.36,2298 Z M970.56,2267.28 L949.8,2267.28 L960.12,2236.44 L970.56,2267.28 Z M1036.36,2298 L1036.36,2213.76 L1015.84,2213.76 L1015.84,2298 L1036.36,2298 Z M1085.72,2298.84 C1092.04,2298.84 1097.52,2297.68 1102.16,2295.36 C1106.8,2293.04 1110.34,2289.92 1112.78,2286 C1115.22,2282.08 1116.44,2277.72 1116.44,2272.92 C1116.44,2267.88 1115.2,2263.76 1112.72,2260.56 C1110.24,2257.36 1107.3,2254.92 1103.9,2253.24 C1100.5,2251.56 1096.08,2249.8 1090.64,2247.96 C1085.2,2246.2 1081.2,2244.56 1078.64,2243.04 C1076.08,2241.52 1074.8,2239.4 1074.8,2236.68 C1074.8,2234.2 1075.56,2232.3 1077.08,2230.98 C1078.6,2229.66 1080.6,2229 1083.08,2229 C1085.96,2229 1088.32,2229.78 1090.16,2231.34 C1092,2232.9 1093,2235.04 1093.16,2237.76 L1093.16,2237.76 L1115.36,2237.76 C1114.96,2229.84 1111.92,2223.66 1106.24,2219.22 C1100.56,2214.78 1093.08,2212.56 1083.8,2212.56 C1074.68,2212.56 1067.28,2214.78 1061.6,2219.22 C1055.92,2223.66 1053.08,2229.8 1053.08,2237.64 C1053.08,2242.92 1054.32,2247.2 1056.8,2250.48 C1059.28,2253.76 1062.24,2256.24 1065.68,2257.92 C1069.12,2259.6 1073.56,2261.28 1079,2262.96 C1082.76,2264.08 1085.66,2265.08 1087.7,2265.96 C1089.74,2266.84 1091.46,2267.96 1092.86,2269.32 C1094.26,2270.68 1094.96,2272.4 1094.96,2274.48 C1094.96,2276.96 1094.08,2278.9 1092.32,2280.3 C1090.56,2281.7 1088.16,2282.4 1085.12,2282.4 C1082.16,2282.4 1079.76,2281.58 1077.92,2279.94 C1076.08,2278.3 1075,2275.92 1074.68,2272.8 L1074.68,2272.8 L1052.84,2272.8 C1053,2278.32 1054.54,2283.04 1057.46,2286.96 C1060.38,2290.88 1064.28,2293.84 1069.16,2295.84 C1074.04,2297.84 1079.56,2298.84 1085.72,2298.84 Z" id="path-1"></path>
        <filter x="-0.2%" y="-2.3%" width="100.4%" height="104.6%" filterUnits="objectBoundingBox" id="filter-2">
            <feGaussianBlur stdDeviation="1.5" in="SourceAlpha" result="shadowBlurInner1"></feGaussianBlur>
            <feOffset dx="0" dy="1" in="shadowBlurInner1" result="shadowOffsetInner1"></feOffset>
            <feComposite in="shadowOffsetInner1" in2="SourceAlpha" operator="arithmetic" k2="-1" k3="1" result="shadowInnerInner1"></feComposite>
            <feColorMatrix values="0 0 0 0 0.00935064935   0 0 0 0 0.0207792208   0 0 0 0 0.04  0 0 0 1 0" type="matrix" in="shadowInnerInner1"></feColorMatrix>
        </filter>
    </defs>
    <g id="Design" stroke="none" stroke-width="1" fill="none" fill-rule="evenodd" opacity="0.2">
        <g id="Artboard" transform="translate(-160.000000, -2212.000000)" fill-rule="nonzero">
            <g id="TAXILYONNAIS">
                <use fill="#081121" xlink:href="#path-1"></use>
                <use fill="black" fill-opacity="1" filter="url(#filter-2)" xlink:href="#path-1"></use>
            </g>
        </g>
    </g>
</svg>