<?xml version="1.0" encoding="UTF-8"?>
<svg width="2187px" height="87px" viewBox="0 0 2187 87" version="1.1" xmlns="http://www.w3.org/2000/svg" xmlns:xlink="http://www.w3.org/1999/xlink">
    <title>TRANSFERTS</title>
    <defs>
        <path d="M106.1,1102 L106.1,1034.2 L128.42,1034.2 L128.42,1017.76 L63.26,1017.76 L63.26,1034.2 L85.58,1034.2 L85.58,1102 L106.1,1102 Z M163.26,1102 L163.26,1070.2 L168.18,1070.2 L185.7,1102 L208.86,1102 L189.42,1068.64 C195.58,1066.8 200.24,1063.68 203.4,1059.28 C206.56,1054.88 208.14,1049.88 208.14,1044.28 C208.14,1039.32 206.98,1034.82 204.66,1030.78 C202.34,1026.74 198.84,1023.56 194.16,1021.24 C189.48,1018.92 183.82,1017.76 177.18,1017.76 L177.18,1017.76 L142.74,1017.76 L142.74,1102 L163.26,1102 Z M175.98,1055.68 L163.26,1055.68 L163.26,1034.8 L175.98,1034.8 C179.74,1034.8 182.56,1035.72 184.44,1037.56 C186.32,1039.4 187.26,1041.92 187.26,1045.12 C187.26,1048.48 186.32,1051.08 184.44,1052.92 C182.56,1054.76 179.74,1055.68 175.98,1055.68 L175.98,1055.68 Z M240.94,1102 L245.98,1087.12 L277.42,1087.12 L282.46,1102 L304.18,1102 L273.7,1017.76 L249.94,1017.76 L219.46,1102 L240.94,1102 Z M272.14,1071.28 L251.38,1071.28 L261.7,1040.44 L272.14,1071.28 Z M337.94,1102 L337.94,1050.04 L372.26,1102 L392.78,1102 L392.78,1017.76 L372.26,1017.76 L372.26,1069.96 L337.94,1017.76 L317.42,1017.76 L317.42,1102 L337.94,1102 Z M442.14,1102.84 C448.46,1102.84 453.94,1101.68 458.58,1099.36 C463.22,1097.04 466.76,1093.92 469.2,1090 C471.64,1086.08 472.86,1081.72 472.86,1076.92 C472.86,1071.88 471.62,1067.76 469.14,1064.56 C466.66,1061.36 463.72,1058.92 460.32,1057.24 C456.92,1055.56 452.5,1053.8 447.06,1051.96 C441.62,1050.2 437.62,1048.56 435.06,1047.04 C432.5,1045.52 431.22,1043.4 431.22,1040.68 C431.22,1038.2 431.98,1036.3 433.5,1034.98 C435.02,1033.66 437.02,1033 439.5,1033 C442.38,1033 444.74,1033.78 446.58,1035.34 C448.42,1036.9 449.42,1039.04 449.58,1041.76 L449.58,1041.76 L471.78,1041.76 C471.38,1033.84 468.34,1027.66 462.66,1023.22 C456.98,1018.78 449.5,1016.56 440.22,1016.56 C431.1,1016.56 423.7,1018.78 418.02,1023.22 C412.34,1027.66 409.5,1033.8 409.5,1041.64 C409.5,1046.92 410.74,1051.2 413.22,1054.48 C415.7,1057.76 418.66,1060.24 422.1,1061.92 C425.54,1063.6 429.98,1065.28 435.42,1066.96 C439.18,1068.08 442.08,1069.08 444.12,1069.96 C446.16,1070.84 447.88,1071.96 449.28,1073.32 C450.68,1074.68 451.38,1076.4 451.38,1078.48 C451.38,1080.96 450.5,1082.9 448.74,1084.3 C446.98,1085.7 444.58,1086.4 441.54,1086.4 C438.58,1086.4 436.18,1085.58 434.34,1083.94 C432.5,1082.3 431.42,1079.92 431.1,1076.8 L431.1,1076.8 L409.26,1076.8 C409.42,1082.32 410.96,1087.04 413.88,1090.96 C416.8,1094.88 420.7,1097.84 425.58,1099.84 C430.46,1101.84 435.98,1102.84 442.14,1102.84 Z M509.98,1102 L509.98,1067.92 L535.66,1067.92 L535.66,1051.96 L509.98,1051.96 L509.98,1034.2 L544.3,1034.2 L544.3,1017.76 L489.46,1017.76 L489.46,1102 L509.98,1102 Z M610.7,1102 L610.7,1085.56 L579.62,1085.56 L579.62,1067.08 L607.1,1067.08 L607.1,1051.24 L579.62,1051.24 L579.62,1034.2 L610.7,1034.2 L610.7,1017.76 L559.1,1017.76 L559.1,1102 L610.7,1102 Z M648.54,1102 L648.54,1070.2 L653.46,1070.2 L670.98,1102 L694.14,1102 L674.7,1068.64 C680.86,1066.8 685.52,1063.68 688.68,1059.28 C691.84,1054.88 693.42,1049.88 693.42,1044.28 C693.42,1039.32 692.26,1034.82 689.94,1030.78 C687.62,1026.74 684.12,1023.56 679.44,1021.24 C674.76,1018.92 669.1,1017.76 662.46,1017.76 L662.46,1017.76 L628.02,1017.76 L628.02,1102 L648.54,1102 Z M661.26,1055.68 L648.54,1055.68 L648.54,1034.8 L661.26,1034.8 C665.02,1034.8 667.84,1035.72 669.72,1037.56 C671.6,1039.4 672.54,1041.92 672.54,1045.12 C672.54,1048.48 671.6,1051.08 669.72,1052.92 C667.84,1054.76 665.02,1055.68 661.26,1055.68 L661.26,1055.68 Z M748.54,1102 L748.54,1034.2 L770.86,1034.2 L770.86,1017.76 L705.7,1017.76 L705.7,1034.2 L728.02,1034.2 L728.02,1102 L748.54,1102 Z M815.66,1102.84 C821.98,1102.84 827.46,1101.68 832.1,1099.36 C836.74,1097.04 840.28,1093.92 842.72,1090 C845.16,1086.08 846.38,1081.72 846.38,1076.92 C846.38,1071.88 845.14,1067.76 842.66,1064.56 C840.18,1061.36 837.24,1058.92 833.84,1057.24 C830.44,1055.56 826.02,1053.8 820.58,1051.96 C815.14,1050.2 811.14,1048.56 808.58,1047.04 C806.02,1045.52 804.74,1043.4 804.74,1040.68 C804.74,1038.2 805.5,1036.3 807.02,1034.98 C808.54,1033.66 810.54,1033 813.02,1033 C815.9,1033 818.26,1033.78 820.1,1035.34 C821.94,1036.9 822.94,1039.04 823.1,1041.76 L823.1,1041.76 L845.3,1041.76 C844.9,1033.84 841.86,1027.66 836.18,1023.22 C830.5,1018.78 823.02,1016.56 813.74,1016.56 C804.62,1016.56 797.22,1018.78 791.54,1023.22 C785.86,1027.66 783.02,1033.8 783.02,1041.64 C783.02,1046.92 784.26,1051.2 786.74,1054.48 C789.22,1057.76 792.18,1060.24 795.62,1061.92 C799.06,1063.6 803.5,1065.28 808.94,1066.96 C812.7,1068.08 815.6,1069.08 817.64,1069.96 C819.68,1070.84 821.4,1071.96 822.8,1073.32 C824.2,1074.68 824.9,1076.4 824.9,1078.48 C824.9,1080.96 824.02,1082.9 822.26,1084.3 C820.5,1085.7 818.1,1086.4 815.06,1086.4 C812.1,1086.4 809.7,1085.58 807.86,1083.94 C806.02,1082.3 804.94,1079.92 804.62,1076.8 L804.62,1076.8 L782.78,1076.8 C782.94,1082.32 784.48,1087.04 787.4,1090.96 C790.32,1094.88 794.22,1097.84 799.1,1099.84 C803.98,1101.84 809.5,1102.84 815.66,1102.84 Z M931.9,1102.6 C938.94,1102.6 945.26,1101.24 950.86,1098.52 C956.46,1095.8 961.08,1092.24 964.72,1087.84 C968.36,1083.44 970.94,1078.68 972.46,1073.56 L972.46,1073.56 L972.46,1054.48 L927.82,1054.48 L927.82,1069.6 L953.86,1069.6 C952.26,1074.4 949.72,1078.08 946.24,1080.64 C942.76,1083.2 938.5,1084.48 933.46,1084.48 C926.1,1084.48 920.32,1082.3 916.12,1077.94 C911.92,1073.58 909.82,1067.52 909.82,1059.76 C909.82,1052.48 911.82,1046.66 915.82,1042.3 C919.82,1037.94 925.14,1035.76 931.78,1035.76 C935.62,1035.76 938.96,1036.5 941.8,1037.98 C944.64,1039.46 946.82,1041.6 948.34,1044.4 L948.34,1044.4 L971.02,1044.4 C968.78,1035.76 964.2,1029 957.28,1024.12 C950.36,1019.24 941.86,1016.8 931.78,1016.8 C923.46,1016.8 916.06,1018.62 909.58,1022.26 C903.1,1025.9 898.04,1030.98 894.4,1037.5 C890.76,1044.02 888.94,1051.44 888.94,1059.76 C888.94,1068.08 890.76,1075.48 894.4,1081.96 C898.04,1088.44 903.12,1093.5 909.64,1097.14 C916.16,1100.78 923.58,1102.6 931.9,1102.6 Z M1003.82,1102 L1008.86,1087.12 L1040.3,1087.12 L1045.34,1102 L1067.06,1102 L1036.58,1017.76 L1012.82,1017.76 L982.34,1102 L1003.82,1102 Z M1035.02,1071.28 L1014.26,1071.28 L1024.58,1040.44 L1035.02,1071.28 Z M1100.82,1102 L1100.82,1070.2 L1105.74,1070.2 L1123.26,1102 L1146.42,1102 L1126.98,1068.64 C1133.14,1066.8 1137.8,1063.68 1140.96,1059.28 C1144.12,1054.88 1145.7,1049.88 1145.7,1044.28 C1145.7,1039.32 1144.54,1034.82 1142.22,1030.78 C1139.9,1026.74 1136.4,1023.56 1131.72,1021.24 C1127.04,1018.92 1121.38,1017.76 1114.74,1017.76 L1114.74,1017.76 L1080.3,1017.76 L1080.3,1102 L1100.82,1102 Z M1113.54,1055.68 L1100.82,1055.68 L1100.82,1034.8 L1113.54,1034.8 C1117.3,1034.8 1120.12,1035.72 1122,1037.56 C1123.88,1039.4 1124.82,1041.92 1124.82,1045.12 C1124.82,1048.48 1123.88,1051.08 1122,1052.92 C1120.12,1054.76 1117.3,1055.68 1113.54,1055.68 L1113.54,1055.68 Z M1214.14,1102 L1214.14,1085.56 L1183.06,1085.56 L1183.06,1067.08 L1210.54,1067.08 L1210.54,1051.24 L1183.06,1051.24 L1183.06,1034.2 L1214.14,1034.2 L1214.14,1017.76 L1162.54,1017.76 L1162.54,1102 L1214.14,1102 Z M1261.94,1102.84 C1268.26,1102.84 1273.74,1101.68 1278.38,1099.36 C1283.02,1097.04 1286.56,1093.92 1289,1090 C1291.44,1086.08 1292.66,1081.72 1292.66,1076.92 C1292.66,1071.88 1291.42,1067.76 1288.94,1064.56 C1286.46,1061.36 1283.52,1058.92 1280.12,1057.24 C1276.72,1055.56 1272.3,1053.8 1266.86,1051.96 C1261.42,1050.2 1257.42,1048.56 1254.86,1047.04 C1252.3,1045.52 1251.02,1043.4 1251.02,1040.68 C1251.02,1038.2 1251.78,1036.3 1253.3,1034.98 C1254.82,1033.66 1256.82,1033 1259.3,1033 C1262.18,1033 1264.54,1033.78 1266.38,1035.34 C1268.22,1036.9 1269.22,1039.04 1269.38,1041.76 L1269.38,1041.76 L1291.58,1041.76 C1291.18,1033.84 1288.14,1027.66 1282.46,1023.22 C1276.78,1018.78 1269.3,1016.56 1260.02,1016.56 C1250.9,1016.56 1243.5,1018.78 1237.82,1023.22 C1232.14,1027.66 1229.3,1033.8 1229.3,1041.64 C1229.3,1046.92 1230.54,1051.2 1233.02,1054.48 C1235.5,1057.76 1238.46,1060.24 1241.9,1061.92 C1245.34,1063.6 1249.78,1065.28 1255.22,1066.96 C1258.98,1068.08 1261.88,1069.08 1263.92,1069.96 C1265.96,1070.84 1267.68,1071.96 1269.08,1073.32 C1270.48,1074.68 1271.18,1076.4 1271.18,1078.48 C1271.18,1080.96 1270.3,1082.9 1268.54,1084.3 C1266.78,1085.7 1264.38,1086.4 1261.34,1086.4 C1258.38,1086.4 1255.98,1085.58 1254.14,1083.94 C1252.3,1082.3 1251.22,1079.92 1250.9,1076.8 L1250.9,1076.8 L1229.06,1076.8 C1229.22,1082.32 1230.76,1087.04 1233.68,1090.96 C1236.6,1094.88 1240.5,1097.84 1245.38,1099.84 C1250.26,1101.84 1255.78,1102.84 1261.94,1102.84 Z M1390.3,1102 L1390.3,1085.56 L1359.22,1085.56 L1359.22,1067.08 L1386.7,1067.08 L1386.7,1051.24 L1359.22,1051.24 L1359.22,1034.2 L1390.3,1034.2 L1390.3,1017.76 L1338.7,1017.76 L1338.7,1102 L1390.3,1102 Z M1445.9,1102 L1445.9,1034.2 L1468.22,1034.2 L1468.22,1017.76 L1403.06,1017.76 L1403.06,1034.2 L1425.38,1034.2 L1425.38,1102 L1445.9,1102 Z M1527.94,1102 L1532.98,1087.12 L1564.42,1087.12 L1569.46,1102 L1591.18,1102 L1560.7,1017.76 L1536.94,1017.76 L1506.46,1102 L1527.94,1102 Z M1559.14,1071.28 L1538.38,1071.28 L1548.7,1040.44 L1559.14,1071.28 Z M1656.02,1102 L1656.02,1085.56 L1624.94,1085.56 L1624.94,1067.08 L1652.42,1067.08 L1652.42,1051.24 L1624.94,1051.24 L1624.94,1034.2 L1656.02,1034.2 L1656.02,1017.76 L1604.42,1017.76 L1604.42,1102 L1656.02,1102 Z M1693.86,1102 L1693.86,1070.2 L1698.78,1070.2 L1716.3,1102 L1739.46,1102 L1720.02,1068.64 C1726.18,1066.8 1730.84,1063.68 1734,1059.28 C1737.16,1054.88 1738.74,1049.88 1738.74,1044.28 C1738.74,1039.32 1737.58,1034.82 1735.26,1030.78 C1732.94,1026.74 1729.44,1023.56 1724.76,1021.24 C1720.08,1018.92 1714.42,1017.76 1707.78,1017.76 L1707.78,1017.76 L1673.34,1017.76 L1673.34,1102 L1693.86,1102 Z M1706.58,1055.68 L1693.86,1055.68 L1693.86,1034.8 L1706.58,1034.8 C1710.34,1034.8 1713.16,1035.72 1715.04,1037.56 C1716.92,1039.4 1717.86,1041.92 1717.86,1045.12 C1717.86,1048.48 1716.92,1051.08 1715.04,1052.92 C1713.16,1054.76 1710.34,1055.68 1706.58,1055.68 L1706.58,1055.68 Z M1795.42,1102.84 C1803.34,1102.84 1810.58,1101 1817.14,1097.32 C1823.7,1093.64 1828.9,1088.5 1832.74,1081.9 C1836.58,1075.3 1838.5,1067.88 1838.5,1059.64 C1838.5,1051.4 1836.6,1044 1832.8,1037.44 C1829,1030.88 1823.8,1025.76 1817.2,1022.08 C1810.6,1018.4 1803.34,1016.56 1795.42,1016.56 C1787.5,1016.56 1780.24,1018.4 1773.64,1022.08 C1767.04,1025.76 1761.8,1030.88 1757.92,1037.44 C1754.04,1044 1752.1,1051.4 1752.1,1059.64 C1752.1,1067.88 1754.04,1075.3 1757.92,1081.9 C1761.8,1088.5 1767.04,1093.64 1773.64,1097.32 C1780.24,1101 1787.5,1102.84 1795.42,1102.84 Z M1795.42,1084.12 C1788.62,1084.12 1783.2,1081.9 1779.16,1077.46 C1775.12,1073.02 1773.1,1067.08 1773.1,1059.64 C1773.1,1052.12 1775.12,1046.16 1779.16,1041.76 C1783.2,1037.36 1788.62,1035.16 1795.42,1035.16 C1802.14,1035.16 1807.52,1037.38 1811.56,1041.82 C1815.6,1046.26 1817.62,1052.2 1817.62,1059.64 C1817.62,1067 1815.6,1072.92 1811.56,1077.4 C1807.52,1081.88 1802.14,1084.12 1795.42,1084.12 Z M1874.42,1102 L1874.42,1071.76 L1887.14,1071.76 C1894.02,1071.76 1899.78,1070.52 1904.42,1068.04 C1909.06,1065.56 1912.5,1062.3 1914.74,1058.26 C1916.98,1054.22 1918.1,1049.76 1918.1,1044.88 C1918.1,1039.6 1916.94,1034.92 1914.62,1030.84 C1912.3,1026.76 1908.82,1023.56 1904.18,1021.24 C1899.54,1018.92 1893.86,1017.76 1887.14,1017.76 L1887.14,1017.76 L1853.9,1017.76 L1853.9,1102 L1874.42,1102 Z M1885.58,1055.44 L1874.42,1055.44 L1874.42,1034.32 L1885.58,1034.32 C1889.5,1034.32 1892.42,1035.24 1894.34,1037.08 C1896.26,1038.92 1897.22,1041.52 1897.22,1044.88 C1897.22,1048.24 1896.26,1050.84 1894.34,1052.68 C1892.42,1054.52 1889.5,1055.44 1885.58,1055.44 L1885.58,1055.44 Z M1972.62,1102.84 C1980.54,1102.84 1987.78,1101 1994.34,1097.32 C2000.9,1093.64 2006.1,1088.5 2009.94,1081.9 C2013.78,1075.3 2015.7,1067.88 2015.7,1059.64 C2015.7,1051.4 2013.8,1044 2010,1037.44 C2006.2,1030.88 2001,1025.76 1994.4,1022.08 C1987.8,1018.4 1980.54,1016.56 1972.62,1016.56 C1964.7,1016.56 1957.44,1018.4 1950.84,1022.08 C1944.24,1025.76 1939,1030.88 1935.12,1037.44 C1931.24,1044 1929.3,1051.4 1929.3,1059.64 C1929.3,1067.88 1931.24,1075.3 1935.12,1081.9 C1939,1088.5 1944.24,1093.64 1950.84,1097.32 C1957.44,1101 1964.7,1102.84 1972.62,1102.84 Z M1972.62,1084.12 C1965.82,1084.12 1960.4,1081.9 1956.36,1077.46 C1952.32,1073.02 1950.3,1067.08 1950.3,1059.64 C1950.3,1052.12 1952.32,1046.16 1956.36,1041.76 C1960.4,1037.36 1965.82,1035.16 1972.62,1035.16 C1979.34,1035.16 1984.72,1037.38 1988.76,1041.82 C1992.8,1046.26 1994.82,1052.2 1994.82,1059.64 C1994.82,1067 1992.8,1072.92 1988.76,1077.4 C1984.72,1081.88 1979.34,1084.12 1972.62,1084.12 Z M2051.62,1102 L2051.62,1070.2 L2056.54,1070.2 L2074.06,1102 L2097.22,1102 L2077.78,1068.64 C2083.94,1066.8 2088.6,1063.68 2091.76,1059.28 C2094.92,1054.88 2096.5,1049.88 2096.5,1044.28 C2096.5,1039.32 2095.34,1034.82 2093.02,1030.78 C2090.7,1026.74 2087.2,1023.56 2082.52,1021.24 C2077.84,1018.92 2072.18,1017.76 2065.54,1017.76 L2065.54,1017.76 L2031.1,1017.76 L2031.1,1102 L2051.62,1102 Z M2064.34,1055.68 L2051.62,1055.68 L2051.62,1034.8 L2064.34,1034.8 C2068.1,1034.8 2070.92,1035.72 2072.8,1037.56 C2074.68,1039.4 2075.62,1041.92 2075.62,1045.12 C2075.62,1048.48 2074.68,1051.08 2072.8,1052.92 C2070.92,1054.76 2068.1,1055.68 2064.34,1055.68 L2064.34,1055.68 Z M2151.62,1102 L2151.62,1034.2 L2173.94,1034.2 L2173.94,1017.76 L2108.78,1017.76 L2108.78,1034.2 L2131.1,1034.2 L2131.1,1102 L2151.62,1102 Z M2218.74,1102.84 C2225.06,1102.84 2230.54,1101.68 2235.18,1099.36 C2239.82,1097.04 2243.36,1093.92 2245.8,1090 C2248.24,1086.08 2249.46,1081.72 2249.46,1076.92 C2249.46,1071.88 2248.22,1067.76 2245.74,1064.56 C2243.26,1061.36 2240.32,1058.92 2236.92,1057.24 C2233.52,1055.56 2229.1,1053.8 2223.66,1051.96 C2218.22,1050.2 2214.22,1048.56 2211.66,1047.04 C2209.1,1045.52 2207.82,1043.4 2207.82,1040.68 C2207.82,1038.2 2208.58,1036.3 2210.1,1034.98 C2211.62,1033.66 2213.62,1033 2216.1,1033 C2218.98,1033 2221.34,1033.78 2223.18,1035.34 C2225.02,1036.9 2226.02,1039.04 2226.18,1041.76 L2226.18,1041.76 L2248.38,1041.76 C2247.98,1033.84 2244.94,1027.66 2239.26,1023.22 C2233.58,1018.78 2226.1,1016.56 2216.82,1016.56 C2207.7,1016.56 2200.3,1018.78 2194.62,1023.22 C2188.94,1027.66 2186.1,1033.8 2186.1,1041.64 C2186.1,1046.92 2187.34,1051.2 2189.82,1054.48 C2192.3,1057.76 2195.26,1060.24 2198.7,1061.92 C2202.14,1063.6 2206.58,1065.28 2212.02,1066.96 C2215.78,1068.08 2218.68,1069.08 2220.72,1069.96 C2222.76,1070.84 2224.48,1071.96 2225.88,1073.32 C2227.28,1074.68 2227.98,1076.4 2227.98,1078.48 C2227.98,1080.96 2227.1,1082.9 2225.34,1084.3 C2223.58,1085.7 2221.18,1086.4 2218.14,1086.4 C2215.18,1086.4 2212.78,1085.58 2210.94,1083.94 C2209.1,1082.3 2208.02,1079.92 2207.7,1076.8 L2207.7,1076.8 L2185.86,1076.8 C2186.02,1082.32 2187.56,1087.04 2190.48,1090.96 C2193.4,1094.88 2197.3,1097.84 2202.18,1099.84 C2207.06,1101.84 2212.58,1102.84 2218.74,1102.84 Z" id="path-1"></path>
        <filter x="-0.1%" y="-2.3%" width="100.2%" height="104.6%" filterUnits="objectBoundingBox" id="filter-2">
            <feGaussianBlur stdDeviation="1.5" in="SourceAlpha" result="shadowBlurInner1"></feGaussianBlur>
            <feOffset dx="0" dy="1" in="shadowBlurInner1" result="shadowOffsetInner1"></feOffset>
            <feComposite in="shadowOffsetInner1" in2="SourceAlpha" operator="arithmetic" k2="-1" k3="1" result="shadowInnerInner1"></feComposite>
            <feColorMatrix values="0 0 0 0 0.907962085   0 0 0 0 0.912369668   0 0 0 0 0.93  0 0 0 1 0" type="matrix" in="shadowInnerInner1"></feColorMatrix>
        </filter>
    </defs>
    <g id="Design" stroke="none" stroke-width="1" fill="none" fill-rule="evenodd">
        <g id="Artboard" transform="translate(-63.000000, -1016.000000)" fill-rule="nonzero">
            <g id="TRANSFERTS">
                <use fill="#F8F9FA" xlink:href="#path-1"></use>
                <use fill="black" fill-opacity="1" filter="url(#filter-2)" xlink:href="#path-1"></use>
            </g>
        </g>
    </g>
</svg>