<?xml version="1.0" encoding="UTF-8"?>
<svg width="64px" height="64px" viewBox="0 0 64 64" version="1.1" xmlns="http://www.w3.org/2000/svg" xmlns:xlink="http://www.w3.org/1999/xlink">
    <title>Illustration / check-green</title>
    <defs>
        <linearGradient x1="0%" y1="0%" x2="100%" y2="100%" id="linearGradient-1">
            <stop stop-color="#53AE73" offset="0%"></stop>
            <stop stop-color="#29944E" offset="100%"></stop>
        </linearGradient>
        <rect id="path-2" x="0" y="0" width="64" height="64" rx="16"></rect>
        <rect id="path-4" x="0" y="0" width="64" height="60" rx="16"></rect>
        <linearGradient x1="50%" y1="0%" x2="50%" y2="100%" id="linearGradient-6">
            <stop stop-color="#FFFFFF" offset="0%"></stop>
            <stop stop-color="#A3E5BA" offset="100%"></stop>
        </linearGradient>
        <path d="M87.6035473,7.33065935 C89.6300792,5.45486085 92.7935428,5.57705475 94.6693409,7.60358706 C96.4008469,9.47423227 96.4299218,12.3136241 94.830227,14.2147511 L94.3964133,14.669382 L56.5839404,49.6693639 C54.8269203,51.2956969 52.1938111,51.4312247 50.2907762,50.0759472 L49.7910744,49.6693639 L32.6035867,33.7602813 C30.5770548,31.8844827 30.454861,28.7210186 32.3306591,26.6944863 C34.0621651,24.8238411 36.8908534,24.5758274 38.9097128,26.0241067 L39.3964527,26.4215586 L53.1850074,39.1850061 L87.6035473,7.33065935 Z" id="path-7"></path>
        <filter x="-4.6%" y="-6.7%" width="109.2%" height="113.3%" filterUnits="objectBoundingBox" id="filter-8">
            <feGaussianBlur stdDeviation="1.5" in="SourceAlpha" result="shadowBlurInner1"></feGaussianBlur>
            <feOffset dx="0" dy="3" in="shadowBlurInner1" result="shadowOffsetInner1"></feOffset>
            <feComposite in="shadowOffsetInner1" in2="SourceAlpha" operator="arithmetic" k2="-1" k3="1" result="shadowInnerInner1"></feComposite>
            <feColorMatrix values="0 0 0 0 1   0 0 0 0 1   0 0 0 0 1  0 0 0 0.5 0" type="matrix" in="shadowInnerInner1"></feColorMatrix>
        </filter>
        <path d="M66.6035473,7.33065935 C68.6300792,5.45486085 71.7935428,5.57705475 73.6693409,7.60358706 C75.4008469,9.47423227 75.4299218,12.3136241 73.830227,14.2147511 L73.3964133,14.669382 L35.5839404,49.6693639 C33.8269203,51.2956969 31.1938111,51.4312247 29.2907762,50.0759472 L28.7910744,49.6693639 L11.6035867,33.7602813 C9.57705483,31.8844827 9.45486096,28.7210186 11.3306591,26.6944863 C13.0621651,24.8238411 15.8908534,24.5758274 17.9097128,26.0241067 L18.3964527,26.4215586 L32.1850074,39.1850061 L66.6035473,7.33065935 Z" id="path-9"></path>
        <filter x="-4.6%" y="-6.7%" width="109.2%" height="113.3%" filterUnits="objectBoundingBox" id="filter-10">
            <feGaussianBlur stdDeviation="1.5" in="SourceAlpha" result="shadowBlurInner1"></feGaussianBlur>
            <feOffset dx="0" dy="3" in="shadowBlurInner1" result="shadowOffsetInner1"></feOffset>
            <feComposite in="shadowOffsetInner1" in2="SourceAlpha" operator="arithmetic" k2="-1" k3="1" result="shadowInnerInner1"></feComposite>
            <feColorMatrix values="0 0 0 0 1   0 0 0 0 1   0 0 0 0 1  0 0 0 0.5 0" type="matrix" in="shadowInnerInner1"></feColorMatrix>
        </filter>
    </defs>
    <g id="Design" stroke="none" stroke-width="1" fill="none" fill-rule="evenodd">
        <g id="Artboard" transform="translate(-154.000000, -608.000000)">
            <g id="Illustration-/-Check-Green" transform="translate(154.000000, 608.000000)">
                <mask id="mask-3" fill="white">
                    <use xlink:href="#path-2"></use>
                </mask>
                <use id="Rectangle" fill="url(#linearGradient-1)" xlink:href="#path-2"></use>
                <mask id="mask-5" fill="white">
                    <use xlink:href="#path-4"></use>
                </mask>
                <use id="Rectangle" fill-opacity="0.1" fill="#FFFFFF" xlink:href="#path-4"></use>
                <g id="Path-Copy" opacity="0.4" mask="url(#mask-5)">
                    <use fill="url(#linearGradient-6)" fill-rule="evenodd" xlink:href="#path-7"></use>
                    <use fill="black" fill-opacity="1" filter="url(#filter-8)" xlink:href="#path-7"></use>
                </g>
                <g id="Path" mask="url(#mask-5)">
                    <use fill="url(#linearGradient-6)" fill-rule="evenodd" xlink:href="#path-9"></use>
                    <use fill="black" fill-opacity="1" filter="url(#filter-10)" xlink:href="#path-9"></use>
                </g>
            </g>
        </g>
    </g>
</svg>