<?xml version="1.0" encoding="UTF-8"?>
<svg width="64px" height="64px" viewBox="0 0 64 64" version="1.1" xmlns="http://www.w3.org/2000/svg" xmlns:xlink="http://www.w3.org/1999/xlink">
    <title>Illustration / dialogue-green</title>
    <defs>
        <linearGradient x1="0%" y1="0%" x2="100%" y2="100%" id="linearGradient-1">
            <stop stop-color="#53AE73" offset="0%"></stop>
            <stop stop-color="#29944E" offset="100%"></stop>
        </linearGradient>
        <rect id="path-2" x="0" y="0" width="64" height="64" rx="16"></rect>
        <rect id="path-4" x="0" y="0" width="64" height="60" rx="16"></rect>
        <linearGradient x1="50%" y1="0%" x2="50%" y2="100%" id="linearGradient-6">
            <stop stop-color="#FFFFFF" offset="0%"></stop>
            <stop stop-color="#A3E5BA" offset="100%"></stop>
        </linearGradient>
        <path d="M52,42.3333333 C52,44.2970124 50.4081236,45.8888889 48.4444444,45.8888889 L27.1111111,45.8888889 L20,53 L20,24.5555556 C20,22.5918764 21.5918764,21 23.5555556,21 C26.1583152,21 28.1103849,21 29.4117647,21 C31.3181175,21 32.259294,23.8235294 32.2352941,29.4705882 C45.4117647,30.4083712 52,31.3495477 52,32.2941176 C52,34.5250545 52,37.8714597 52,42.3333333 Z" id="path-7"></path>
        <filter x="-9.4%" y="-9.4%" width="118.8%" height="118.8%" filterUnits="objectBoundingBox" id="filter-8">
            <feGaussianBlur stdDeviation="1.5" in="SourceAlpha" result="shadowBlurInner1"></feGaussianBlur>
            <feOffset dx="0" dy="3" in="shadowBlurInner1" result="shadowOffsetInner1"></feOffset>
            <feComposite in="shadowOffsetInner1" in2="SourceAlpha" operator="arithmetic" k2="-1" k3="1" result="shadowInnerInner1"></feComposite>
            <feColorMatrix values="0 0 0 0 1   0 0 0 0 1   0 0 0 0 1  0 0 0 0.5 0" type="matrix" in="shadowInnerInner1"></feColorMatrix>
        </filter>
        <path d="M40.4444444,13 C42.4081236,13 44,14.5918764 44,16.5555556 L44,34.3333333 C44,36.2970124 42.4081236,37.8888889 40.4444444,37.8888889 L19.1111111,37.8888889 L12,45 L12,16.5555556 C12,14.5918764 13.5918764,13 15.5555556,13 L40.4444444,13 Z M20,24 C18.8954305,24 18,24.8954305 18,26 C18,27.1045695 18.8954305,28 20,28 C21.1045695,28 22,27.1045695 22,26 C22,24.8954305 21.1045695,24 20,24 Z M28,24 C26.8954305,24 26,24.8954305 26,26 C26,27.1045695 26.8954305,28 28,28 C29.1045695,28 30,27.1045695 30,26 C30,24.8954305 29.1045695,24 28,24 Z M36,24 C34.8954305,24 34,24.8954305 34,26 C34,27.1045695 34.8954305,28 36,28 C37.1045695,28 38,27.1045695 38,26 C38,24.8954305 37.1045695,24 36,24 Z" id="path-9"></path>
        <filter x="-9.4%" y="-9.4%" width="118.8%" height="118.8%" filterUnits="objectBoundingBox" id="filter-10">
            <feGaussianBlur stdDeviation="1.5" in="SourceAlpha" result="shadowBlurInner1"></feGaussianBlur>
            <feOffset dx="0" dy="3" in="shadowBlurInner1" result="shadowOffsetInner1"></feOffset>
            <feComposite in="shadowOffsetInner1" in2="SourceAlpha" operator="arithmetic" k2="-1" k3="1" result="shadowInnerInner1"></feComposite>
            <feColorMatrix values="0 0 0 0 1   0 0 0 0 1   0 0 0 0 1  0 0 0 0.5 0" type="matrix" in="shadowInnerInner1"></feColorMatrix>
        </filter>
    </defs>
    <g id="Illustration-/-Dialogue---Green" stroke="none" stroke-width="1" fill="none" fill-rule="evenodd">
        <mask id="mask-3" fill="white">
            <use xlink:href="#path-2"></use>
        </mask>
        <use id="Rectangle" fill="url(#linearGradient-1)" xlink:href="#path-2"></use>
        <mask id="mask-5" fill="white">
            <use xlink:href="#path-4"></use>
        </mask>
        <use id="Rectangle" fill-opacity="0.1" fill="#FFFFFF" xlink:href="#path-4"></use>
        <g id="Path" opacity="0.4" mask="url(#mask-5)" transform="translate(36.000000, 37.000000) scale(-1, 1) translate(-36.000000, -37.000000) ">
            <use fill="url(#linearGradient-6)" fill-rule="evenodd" xlink:href="#path-7"></use>
            <use fill="black" fill-opacity="1" filter="url(#filter-8)" xlink:href="#path-7"></use>
        </g>
        <g id="Combined-Shape" mask="url(#mask-5)">
            <use fill="url(#linearGradient-6)" fill-rule="evenodd" xlink:href="#path-9"></use>
            <use fill="black" fill-opacity="1" filter="url(#filter-10)" xlink:href="#path-9"></use>
        </g>
    </g>
</svg>