<?xml version="1.0" encoding="UTF-8"?>
<svg width="24px" height="24px" viewBox="0 0 24 24" version="1.1" xmlns="http://www.w3.org/2000/svg" xmlns:xlink="http://www.w3.org/1999/xlink">
    <title>Icon / arrow-right</title>
    <g id="Icon-/-arrow-right" stroke="none" stroke-width="1" fill="none" fill-rule="evenodd">
        <g id="arrow-right" transform="translate(4.000000, 4.000000)" fill="#081121" fill-rule="nonzero">
            <path d="M8.61289944,0.209704612 L8.70710678,0.292893219 L15.7071068,7.29289322 C15.7355731,7.32135953 15.7623312,7.35153408 15.787214,7.38324992 L15.7071068,7.29289322 C15.7425008,7.32828727 15.774687,7.36567442 15.8036654,7.40469339 C15.8215099,7.42886931 15.8382813,7.45372505 15.8539326,7.47933981 C15.8613931,7.49138689 15.8685012,7.50360556 15.8753288,7.5159379 C15.8862061,7.53570605 15.8966234,7.5561086 15.9063462,7.57690085 C15.914321,7.5939015 15.9218036,7.61120435 15.9287745,7.62866398 C15.9366843,7.6484208 15.9438775,7.66820232 15.9504533,7.68826359 C15.9552713,7.70314866 15.9599023,7.71853672 15.9641549,7.73400703 C15.9701664,7.75556352 15.9753602,7.77725392 15.9798348,7.7992059 C15.9832978,7.81662474 15.9863719,7.83405099 15.9889822,7.85153313 C15.9920328,7.87147534 15.9944666,7.89211395 15.9962623,7.91293499 C15.9978436,7.93173451 15.9989053,7.94973363 15.9994829,7.96774538 C15.9998183,7.97778921 16,7.98887338 16,8 L15.9994506,8.03324678 C15.9988772,8.05059097 15.997855,8.06792309 15.996384,8.08522423 L16,8 C16,8.05062028 15.9962388,8.10036209 15.9889807,8.14896122 C15.9863719,8.16594901 15.9832978,8.18337526 15.9797599,8.20072576 C15.9753602,8.22274608 15.9701664,8.24443648 15.964279,8.26583961 C15.9599023,8.28146328 15.9552713,8.29685134 15.9502619,8.31214252 C15.9438775,8.33179768 15.9366843,8.3515792 15.928896,8.37105852 C15.9218036,8.38879565 15.914321,8.4060985 15.9063266,8.42322155 C15.8966234,8.4438914 15.8862061,8.46429395 15.8751242,8.48427695 C15.8685012,8.49639444 15.8613931,8.50861311 15.8540045,8.52070875 C15.8382813,8.54627495 15.8215099,8.57113069 15.8036865,8.5951593 C15.7992821,8.60120864 15.7948255,8.60707334 15.7902954,8.61289944 C15.7849289,8.61966276 15.7826279,8.62256244 15.7803112,8.62544899 L15.7071068,8.70710678 L8.70710678,15.7071068 C8.31658249,16.0976311 7.68341751,16.0976311 7.29289322,15.7071068 C6.93240926,15.3466228 6.90467972,14.7793918 7.20970461,14.3871006 L7.29289322,14.2928932 L12.585,9 L1,9 C0.44771525,9 0,8.55228475 0,8 C0,7.48716416 0.38604019,7.06449284 0.883378875,7.00672773 L1,7 L12.585,7 L7.29289322,1.70710678 C6.93240926,1.34662282 6.90467972,0.779391764 7.20970461,0.387100557 L7.29289322,0.292893219 C7.65337718,-0.0675907428 8.22060824,-0.0953202783 8.61289944,0.209704612 Z" id="Combined-Shape"></path>
        </g>
    </g>
</svg>