<?xml version="1.0" encoding="UTF-8"?>
<svg width="24px" height="24px" viewBox="0 0 24 24" version="1.1" xmlns="http://www.w3.org/2000/svg" xmlns:xlink="http://www.w3.org/1999/xlink">
    <title>Icon / Case</title>
    <g id="Icon-/-Case" stroke="none" stroke-width="1" fill="none" fill-rule="evenodd">
        <path d="M4,22 C2.34314575,22 1,20.6568542 1,19 L1,19 L1,9 C1,7.34314575 2.34314575,6 4,6 L4,6 L7,6 L7,5 C7,3.40231912 8.24891996,2.09633912 9.82372721,2.00509269 L10,2 L14,2 C15.5976809,2 16.9036609,3.24891996 16.9949073,4.82372721 L17,5 L17,6 L20,6 C21.5976809,6 22.9036609,7.24891996 22.9949073,8.82372721 L23,9 L23,19 C23,20.6568542 21.6568542,22 20,22 L20,22 Z M7,8 L4,8 C3.44771525,8 3,8.44771525 3,9 L3,9 L3,19 C3,19.5522847 3.44771525,20 4,20 L4,20 L7,20 L7,8 Z M15,8 L9,8 L9,20 L15,20 L15,8 Z M20,8 L17,8 L17,20 L20,20 C20.5128358,20 20.9355072,19.6139598 20.9932723,19.1166211 L21,19 L21,9 C21,8.44771525 20.5522847,8 20,8 L20,8 Z M14,4 L10,4 C9.48716416,4 9.06449284,4.38604019 9.00672773,4.88337887 L9,5 L9,6 L15,6 L15,5 C15,4.48716416 14.6139598,4.06449284 14.1166211,4.00672773 L14,4 Z" id="path" fill="#081121" fill-rule="nonzero"></path>
    </g>
</svg>