<?xml version="1.0" encoding="UTF-8"?>
<svg width="24px" height="24px" viewBox="0 0 24 24" version="1.1" xmlns="http://www.w3.org/2000/svg" xmlns:xlink="http://www.w3.org/1999/xlink">
    <title>Icon / Cross</title>
    <g id="Icon-/-Cross" stroke="none" stroke-width="1" fill="none" fill-rule="evenodd">
        <g id="arrow-right" transform="translate(5.636039, 5.636039)" fill="#081121" fill-rule="nonzero">
            <path d="M13.363961,5.36396103 C13.9162458,5.36396103 14.363961,5.81167628 14.363961,6.36396103 C14.363961,6.87679687 13.9779208,7.29946819 13.4805822,7.3572333 L13.363961,7.36396103 L-0.636038969,7.36396103 C-1.18832372,7.36396103 -1.63603897,6.91624578 -1.63603897,6.36396103 C-1.63603897,5.85112519 -1.24999878,5.42845387 -0.752660095,5.37068876 L-0.636038969,5.36396103 L13.363961,5.36396103 Z" id="Combined-Shape" transform="translate(6.363961, 6.363961) rotate(-45.000000) translate(-6.363961, -6.363961) "></path>
            <path d="M13.363961,5.36396103 C13.9162458,5.36396103 14.363961,5.81167628 14.363961,6.36396103 C14.363961,6.87679687 13.9779208,7.29946819 13.4805822,7.3572333 L13.363961,7.36396103 L-0.636038969,7.36396103 C-1.18832372,7.36396103 -1.63603897,6.91624578 -1.63603897,6.36396103 C-1.63603897,5.85112519 -1.24999878,5.42845387 -0.752660095,5.37068876 L-0.636038969,5.36396103 L13.363961,5.36396103 Z" id="Combined-Shape" transform="translate(6.363961, 6.363961) rotate(-315.000000) translate(-6.363961, -6.363961) "></path>
        </g>
    </g>
</svg>