<?xml version="1.0" encoding="UTF-8"?>
<svg width="24px" height="24px" viewBox="0 0 24 24" version="1.1" xmlns="http://www.w3.org/2000/svg" xmlns:xlink="http://www.w3.org/1999/xlink">
    <title>Icon / Disabled</title>
    <g id="Icon-/-Disabled" stroke="none" stroke-width="1" fill="none" fill-rule="evenodd">
        <path d="M7.8969477,11.5238626 L8.35906523,13.2412237 C7.00515461,14.3425749 6.34333887,16.169784 6.82420063,17.9567872 C7.47808611,20.3885189 9.99558126,21.835209 12.4366576,21.1847369 C14.8777339,20.5328289 16.3311332,18.0257114 15.6772477,15.5954157 C15.5510846,15.1273055 15.355712,14.6979653 15.1055485,14.3109846 L15.1055485,14.3109846 L17.4925549,16.7089722 C17.5213922,19.481735 15.6779686,22.0376738 12.8670541,22.7872244 C9.53851026,23.6753413 6.10543126,21.7016684 5.21363816,18.3868455 C4.49054319,15.6995199 5.65701145,12.9447061 7.8969477,11.5238626 L7.8969477,11.5238626 Z M8.34248379,5.96972145 C8.89904342,5.82110366 9.46930077,6.14921154 9.61853373,6.70275896 L9.61853373,6.70275896 L10.3034193,9.25008223 L13.8864522,7.39918048 C14.3975931,7.13568904 15.025525,7.33456405 15.2908281,7.84287997 C15.5554102,8.35119589 15.355712,8.97653934 14.845292,9.24074875 L14.845292,9.24074875 L10.8549324,11.3012949 L11.1238401,12.2992598 L15.3492236,11.1720621 C15.7104106,11.0758554 16.0953884,11.1792417 16.3585286,11.444169 L16.3585286,11.444169 L20.6617727,15.7677262 L21.6876592,15.4941833 C22.2442189,15.3448475 22.8151971,15.6736734 22.9644301,16.2272208 C23.1129421,16.7814862 22.7827552,17.3493928 22.2283584,17.4965747 L22.2283584,17.4965747 L20.6192377,17.9259149 C20.2580507,18.0235575 19.8730729,17.9187353 19.6099327,17.6552439 L19.6099327,17.6552439 L15.3066886,13.3309688 L10.6581179,14.5723222 C10.1030002,14.72094 9.53202187,14.3921142 9.38278891,13.8385667 L9.38278891,13.8385667 L7.60713297,7.23979329 C7.45790001,6.68624587 7.78736601,6.11762128 8.34248379,5.96972145 Z M8.48234463,1 C9.74809477,1 10.774188,2.02186346 10.774188,3.28239591 C10.774188,4.54292837 9.74809477,5.56479182 8.48234463,5.56479182 C7.21659448,5.56479182 6.19050125,4.54292837 6.19050125,3.28239591 C6.19050125,2.02186346 7.21659448,1 8.48234463,1 Z" id="path" fill="#081121" fill-rule="nonzero"></path>
    </g>
</svg>