<?xml version="1.0" encoding="UTF-8"?>
<svg width="24px" height="24px" viewBox="0 0 24 24" version="1.1" xmlns="http://www.w3.org/2000/svg" xmlns:xlink="http://www.w3.org/1999/xlink">
    <title>Icon / Eye Closed</title>
    <g id="Icon-/-Eye-Closed" stroke="none" stroke-width="1" fill="none" fill-rule="evenodd">
        <g id="eye-off" transform="translate(-0.000000, 0.000000)" fill="#081121" fill-rule="nonzero">
            <path d="M1.61289953,0.209704612 L1.70710687,0.292893219 L23.7071069,22.2928932 C24.0976312,22.6834175 24.0976312,23.3165825 23.7071069,23.7071068 C23.3466229,24.0675907 22.7793919,24.0953203 22.3871006,23.7902954 L22.2928933,23.7071068 L17.8253489,19.2407516 C16.0954292,20.3537292 14.0824628,20.9660698 12,21 C8.62019764,21 5.66130782,19.3675091 3.14546288,16.6839411 C2.2811264,15.7619822 1.53050058,14.7775549 0.894335709,13.7925254 L0.655978017,13.4151213 L0.453515324,13.0791545 L0.287126477,12.7886918 L0.156990323,12.5477998 C0.138331957,12.5120079 0.121191573,12.478451 0.105572895,12.4472136 C-0.0397387123,12.1565904 -0.0347894326,11.8134847 0.118844417,11.5271737 C1.25026907,9.41865882 2.75946613,7.5399487 4.56806457,5.98304415 L0.292893305,1.70710678 C-0.0976309865,1.31658249 -0.0976309865,0.683417511 0.292893305,0.292893219 C0.653377267,-0.0675907428 1.22060832,-0.0953202783 1.61289953,0.209704612 Z M2.37576529,11.6109166 L2.14300009,12.003 L2.17054402,12.0513388 C2.24971314,12.1869631 2.33597772,12.329871 2.42925333,12.4790735 L2.57441446,12.7074746 C3.14918709,13.5974451 3.82824878,14.4880178 4.60453729,15.3160589 C6.77619235,17.6324909 9.25480253,19 11.9836528,19.0001336 C13.5316631,18.9748244 15.0407186,18.5539338 16.370569,17.7861007 L14.0489794,15.4645626 C13.1338507,16.0378644 12.010311,16.2249577 10.9354036,15.9504452 C9.518159,15.5885058 8.41149432,14.4818411 8.04955491,13.0645965 C7.77504242,11.989689 7.9621357,10.8661494 8.53543751,9.95102065 L5.98657597,7.4017521 C4.56611638,8.60350221 3.34714634,10.0245959 2.37576529,11.6109166 Z M12.0000001,2.99987132 C15.3798033,2.99987132 18.3386934,4.63247103 20.8545384,7.31604743 C21.7188747,8.23800914 22.4695005,9.2224394 23.1056652,10.2074718 L23.3440229,10.5848771 L23.5464855,10.9208449 L23.7128743,11.2113084 L23.8430104,11.4522011 C23.8616688,11.487993 23.8788092,11.5215501 23.8944278,11.5527875 C24.0394856,11.8429039 24.0348202,12.1853551 23.8819131,12.4714122 C23.2420807,13.6684038 22.4790255,14.7953232 21.6051563,15.8338447 C21.2495707,16.2564288 20.6187395,16.3107418 20.1961554,15.9551562 C19.7735713,15.5995706 19.7192583,14.9687395 20.0748439,14.5461553 C20.6350164,13.8804365 21.14445,13.1742423 21.5990862,12.4335664 L21.8570001,11.998 L21.8294555,11.9486582 C21.7502863,11.8130335 21.6640217,11.6701251 21.5707461,11.5209221 L21.4255849,11.2925203 C20.8508122,10.4025468 20.1717504,9.51197119 19.3954618,8.68392739 C17.2238068,6.36748805 14.7451968,4.99997482 11.9976858,4.99997214 C11.3682227,4.99851536 10.7407528,5.07023183 10.1279133,5.21368145 C9.59016389,5.33955444 9.05219163,5.00566263 8.92631864,4.46791322 C8.80044564,3.9301638 9.13433745,3.39219155 9.67208687,3.26631855 C10.4358591,3.08753956 11.2178513,2.99816199 12.0000001,2.99987132 Z M9.98736093,12.5697148 C10.1683306,13.2783371 10.721663,13.8316695 11.4302853,14.0126392 C11.8090558,14.1093705 12.1999034,14.0914684 12.5578418,13.9721284 L10.0278716,11.4421582 C9.90853171,11.8000966 9.89062958,12.1909443 9.98736093,12.5697148 Z" id="Combined-Shape"></path>
        </g>
    </g>
</svg>