<?xml version="1.0" encoding="UTF-8"?>
<svg width="24px" height="24px" viewBox="0 0 24 24" version="1.1" xmlns="http://www.w3.org/2000/svg" xmlns:xlink="http://www.w3.org/1999/xlink">
    <title>Icon / Eye</title>
    <g id="Icon-/-Eye" stroke="none" stroke-width="1" fill="none" fill-rule="evenodd">
        <g id="eye" transform="translate(0.000000, 3.000000)" fill-rule="nonzero">
            <path d="M12,0 C8.62019756,0 5.66130774,1.63249094 3.1454628,4.31605887 C2.28112631,5.23801779 1.5305005,6.22244509 0.894335622,7.20747457 L0.655977931,7.58487875 L0.453515238,7.92084551 L0.28712639,8.21130821 L0.156990236,8.45220023 C0.138331871,8.48799208 0.121191486,8.52154905 0.105572809,8.5527864 C-0.0351909363,8.8343139 -0.0351909363,9.1656861 0.105572809,9.4472136 L0.217515548,9.66179528 L0.365800405,9.92798097 L0.655977931,10.4151213 L0.894335622,10.7925254 C1.5305005,11.7775549 2.28112631,12.7619822 3.1454628,13.6839411 C5.66130774,16.3675091 8.62019756,18 12,18 C15.3798024,18 18.3386923,16.3675091 20.8545372,13.6839411 C21.7188737,12.7619822 22.4694995,11.7775549 23.1056644,10.7925254 L23.3440221,10.4151213 L23.5464848,10.0791545 L23.7128736,9.78869179 L23.8430098,9.54779977 C23.8616681,9.51200792 23.8788085,9.47845095 23.8944272,9.4472136 C24.0351909,9.1656861 24.0351909,8.8343139 23.8944272,8.5527864 L23.7824845,8.33820472 L23.6341996,8.07201903 L23.3440221,7.58487875 L23.1056644,7.20747457 C22.4694995,6.22244509 21.7188737,5.23801779 20.8545372,4.31605887 C18.3386923,1.63249094 15.3798024,0 12,0 Z M12,2 C14.7451976,2 17.2238077,3.36750906 19.3954628,5.68394113 C20.1717513,6.51198221 20.850813,7.40255491 21.4255856,8.29252543 L21.5707468,8.52092651 L21.7053913,8.73988567 L21.858,9 L21.7053913,9.26011433 C21.6191479,9.40277496 21.5258512,9.55222471 21.4255856,9.70747457 C20.850813,10.5974451 20.1717513,11.4880178 19.3954628,12.3160589 C17.2238077,14.6324909 14.7451976,16 12,16 C9.25480244,16 6.77619226,14.6324909 4.6045372,12.3160589 C3.82824869,11.4880178 3.149187,10.5974451 2.57441438,9.70747457 L2.42925324,9.47907349 L2.29460865,9.26011433 L2.141,9 L2.29460865,8.73988567 C2.38085212,8.59722504 2.47414884,8.44777529 2.57441438,8.29252543 C3.149187,7.40255491 3.82824869,6.51198221 4.6045372,5.68394113 C6.77619226,3.36750906 9.25480244,2 12,2 Z" id="Path" fill="#081121"></path>
            <path d="M12,5 C9.790861,5 8,6.790861 8,9 C8,11.209139 9.790861,13 12,13 C14.209139,13 16,11.209139 16,9 C16,6.790861 14.209139,5 12,5 Z M12,7 C13.1045695,7 14,7.8954305 14,9 C14,10.1045695 13.1045695,11 12,11 C10.8954305,11 10,10.1045695 10,9 C10,7.8954305 10.8954305,7 12,7 Z" id="Oval" fill="#000000"></path>
        </g>
    </g>
</svg>