<?xml version="1.0" encoding="UTF-8"?>
<svg width="24px" height="24px" viewBox="0 0 24 24" version="1.1" xmlns="http://www.w3.org/2000/svg" xmlns:xlink="http://www.w3.org/1999/xlink">
    <title>Icon / Menu</title>
    <g id="Icon-/-Menu" stroke="none" stroke-width="1" fill="none" fill-rule="evenodd">
        <g id="arrow-right" transform="translate(4.000000, 5.000000)" fill="#081121" fill-rule="nonzero">
            <path d="M15,6 C15.5522847,6 16,6.44771525 16,7 C16,7.51283584 15.6139598,7.93550716 15.1166211,7.99327227 L15,8 L1,8 C0.44771525,8 0,7.55228475 0,7 C0,6.48716416 0.38604019,6.06449284 0.883378875,6.00672773 L1,6 L15,6 Z" id="Combined-Shape"></path>
            <path d="M15,0 C15.5522847,0 16,0.44771525 16,1 C16,1.51283584 15.6139598,1.93550716 15.1166211,1.99327227 L15,2 L1,2 C0.44771525,2 0,1.55228475 0,1 C0,0.487164161 0.38604019,0.0644928393 0.883378875,0.00672773133 L1,0 L15,0 Z" id="Combined-Shape-Copy"></path>
            <path d="M15,12 C15.5522847,12 16,12.4477153 16,13 C16,13.5128358 15.6139598,13.9355072 15.1166211,13.9932723 L15,14 L1,14 C0.44771525,14 0,13.5522847 0,13 C0,12.4871642 0.38604019,12.0644928 0.883378875,12.0067277 L1,12 L15,12 Z" id="Combined-Shape-Copy-2"></path>
        </g>
    </g>
</svg>