<?xml version="1.0" encoding="UTF-8"?>
<svg width="24px" height="24px" viewBox="0 0 24 24" version="1.1" xmlns="http://www.w3.org/2000/svg" xmlns:xlink="http://www.w3.org/1999/xlink">
    <title>Icon / Phone</title>
    <g id="Icon-/-Phone" stroke="none" stroke-width="1" fill="none" fill-rule="evenodd">
        <path d="M8.26487622,3.24991726 L5.7079056,3.24991726 C5.01703314,3.25076961 4.35896132,3.54090076 3.89352271,4.04976823 C3.42774534,4.55900607 3.19779449,5.2403953 3.25999958,5.92739112 C3.55420573,8.69325401 4.49317146,11.3397384 6.00195007,13.6641453 C7.36987505,15.8126502 9.19969915,17.6388497 11.3578955,19.0075408 C13.670205,20.5041329 16.3085914,21.4408422 19.0552429,21.7386972 C19.7580997,21.802215 20.4418614,21.5714309 20.9521287,21.1042231 C21.462725,20.6367141 21.752274,19.9757972 21.74946,19.2838954 L21.7494662,16.7277612 C21.78024,15.4992933 20.8702793,14.4274554 19.633854,14.2533715 C18.8625242,14.1518118 18.1117528,13.9651574 17.3891752,13.6960604 L17.2084218,13.636112 C16.3589198,13.3904376 15.4342449,13.6201334 14.79707,14.2489693 L14.122,14.921 L13.9094221,14.7873392 C12.4272571,13.8173116 11.160735,12.5533045 10.1888418,11.0741826 L10.054,10.864 L10.7251715,10.1952677 C11.3585203,9.55607552 11.5891925,8.63159661 11.3421505,7.78108693 L11.2818737,7.60009796 C11.0129748,6.88090387 10.826022,6.13190857 10.7252144,5.3690902 C10.5513647,4.14130803 9.4990032,3.23803372 8.26487622,3.24991726 Z M5.70874158,4.74995306 L8.27216954,4.74995306 C8.76147976,4.74527698 9.17181238,5.09747811 9.23908896,5.57251754 C9.35379883,6.44078209 9.56828403,7.30008141 9.87750471,8.12711267 C10.009585,8.47779481 9.9255219,8.87117652 9.66260133,9.13652935 L8.58002504,10.2169446 C8.3406902,10.4558053 8.29078543,10.8252799 8.45817446,11.1190767 C9.74181207,13.3720832 11.6108951,15.2374638 13.8681914,16.5184554 C14.16138,16.6848368 14.5295529,16.6351601 14.768161,16.3970247 L15.8536994,15.3136366 C16.1171422,15.0536582 16.5129346,14.9694147 16.8639902,15.1011146 C17.6940944,15.4102582 18.5548097,15.6242465 19.4314111,15.7396323 C19.9073159,15.8066686 20.2617549,16.2241604 20.2496979,16.7091205 L20.2494662,19.2869456 C20.250566,19.5588889 20.1379738,19.8158888 19.9391748,19.9979119 C19.7400469,20.1802362 19.4729046,20.2704024 19.2034746,20.2461009 C16.7031666,19.974837 14.2885262,19.1175645 12.1670748,17.7445362 C10.1889696,16.4900178 8.5168776,14.821238 7.26368951,12.8529916 C5.87980156,10.7209368 5.02081644,8.2998786 4.75273388,5.78040279 C4.72971721,5.52517996 4.81910064,5.26031942 5.00036188,5.06214516 C5.18192766,4.86363795 5.43899892,4.7503002 5.70874158,4.74995306 Z" id="Path" fill="#081121" fill-rule="nonzero"></path>
    </g>
</svg>