<?xml version="1.0" encoding="UTF-8"?>
<svg width="24px" height="24px" viewBox="0 0 24 24" version="1.1" xmlns="http://www.w3.org/2000/svg" xmlns:xlink="http://www.w3.org/1999/xlink">
    <title>Icon / Wifi</title>
    <g id="Icon-/-Wifi" stroke="none" stroke-width="1" fill="none" fill-rule="evenodd">
        <path d="M12.01,18.2473503 C12.5622847,18.2473503 13.01,18.6950655 13.01,19.2473503 C13.01,19.7601861 12.6239598,20.1828575 12.1266211,20.2406226 L12,20.2473503 C11.4477153,20.2473503 11,19.799635 11,19.2473503 C11,18.7345145 11.3860402,18.3118431 11.8833789,18.254078 L12.01,18.2473503 Z M16.0591667,14.5421411 C16.5093943,14.8620061 16.6150741,15.4862894 16.2952092,15.936517 C15.9753442,16.3867445 15.3510609,16.4924244 14.9008333,16.1725595 C13.166811,14.9406205 10.843189,14.9406205 9.10916667,16.1725595 C8.65893908,16.4924244 8.03465576,16.3867445 7.71479084,15.936517 C7.39492592,15.4862894 7.50060575,14.8620061 7.95083333,14.5421411 C10.3784645,12.8174266 13.6315355,12.8174266 16.0591667,14.5421411 Z M19.72,11.0289754 C20.1443617,11.3824376 20.2018371,12.0129885 19.8483749,12.4373503 C19.4949127,12.861712 18.8643617,12.9191874 18.44,12.5657252 C14.7321894,9.47739065 9.34781059,9.47739065 5.64,12.5657252 C5.21563826,12.9191874 4.58508733,12.861712 4.23162509,12.4373503 C3.87816285,12.0129885 3.93563826,11.3824376 4.36,11.0289754 C8.80937271,7.32297392 15.2706273,7.32297392 19.72,11.0289754 Z M23.24125,7.49718469 C23.655555,7.86238298 23.6953639,8.49429527 23.3301656,8.90860029 C22.9649673,9.32290532 22.333055,9.36271419 21.91875,8.9975159 C16.2501778,4.00082803 7.74982223,4.00082803 2.08125,8.9975159 C1.66694498,9.36271419 1.03503268,9.32290532 0.669834393,8.90860029 C0.304636102,8.49429527 0.344444976,7.86238298 0.75875,7.49718469 C7.18313186,1.83427177 16.8168681,1.83427177 23.24125,7.49718469 Z" id="path" fill="#081121" fill-rule="nonzero"></path>
    </g>
</svg>